<svg width="18" height="13" viewBox="0 0 18 13" fill="none" xmlns="http://www.w3.org/2000/svg">
<path d="M17.92 5.85482C17.8724 5.7348 17.801 5.62515 17.71 5.53216L12.71 0.643269C12.6168 0.552103 12.5061 0.479786 12.3843 0.430447C12.2624 0.381108 12.1319 0.355713 12 0.355713C11.7337 0.355713 11.4783 0.45915 11.29 0.643269C11.1968 0.734436 11.1228 0.842666 11.0723 0.961781C11.0219 1.0809 10.9959 1.20856 10.9959 1.33749C10.9959 1.59788 11.1017 1.84759 11.29 2.03171C12.4941 3.20554 11.6631 5.2486 9.98149 5.2486H1C0.734784 5.2486 0.48043 5.35162 0.292893 5.53499C0.105357 5.71836 0 5.96706 0 6.22638C0 6.4857 0.105357 6.7344 0.292893 6.91777C0.48043 7.10114 0.734784 7.20416 1 7.20416H9.98149C11.6631 7.20416 12.4941 9.24723 11.29 10.421C11.1963 10.5119 11.1219 10.6201 11.0711 10.7392C11.0203 10.8584 10.9942 10.9862 10.9942 11.1153C10.9942 11.2443 11.0203 11.3721 11.0711 11.4913C11.1219 11.6105 11.1963 11.7186 11.29 11.8095C11.383 11.9011 11.4936 11.9739 11.6154 12.0235C11.7373 12.0732 11.868 12.0987 12 12.0987C12.132 12.0987 12.2627 12.0732 12.3846 12.0235C12.5064 11.9739 12.617 11.9011 12.71 11.8095L17.71 6.9206C17.801 6.82761 17.8724 6.71796 17.92 6.59794C18.02 6.35988 18.02 6.09288 17.92 5.85482Z" fill="white"/>
</svg>
