<svg width="22" height="21" viewBox="0 0 22 21" fill="none" xmlns="http://www.w3.org/2000/svg">
<path d="M18.764 1.8219H3.23568C3.06113 1.81963 2.88781 1.84949 2.72562 1.90975C2.56343 1.97001 2.41554 2.0595 2.29041 2.17311C2.16528 2.28672 2.06536 2.42223 1.99634 2.57189C1.92733 2.72154 1.89057 2.88242 1.88818 3.04534V17.7096C1.89057 17.8725 1.92733 18.0334 1.99634 18.183C2.06536 18.3327 2.16528 18.4682 2.29041 18.5818C2.41554 18.6954 2.56343 18.7849 2.72562 18.8452C2.88781 18.9054 3.06113 18.9353 3.23568 18.933H18.764C18.9386 18.9353 19.1119 18.9054 19.2741 18.8452C19.4363 18.7849 19.5842 18.6954 19.7093 18.5818C19.8344 18.4682 19.9343 18.3327 20.0034 18.183C20.0724 18.0334 20.1091 17.8725 20.1115 17.7096V3.04534C20.1091 2.88242 20.0724 2.72154 20.0034 2.57189C19.9343 2.42223 19.8344 2.28672 19.7093 2.17311C19.5842 2.0595 19.4363 1.97001 19.2741 1.90975C19.1119 1.84949 18.9386 1.81963 18.764 1.8219ZM7.41568 16.1439H4.66568V8.4439H7.41568V16.1439ZM6.04068 7.3659C5.66142 7.3659 5.2977 7.22528 5.02952 6.97498C4.76134 6.72468 4.61068 6.38521 4.61068 6.03123C4.61068 5.67725 4.76134 5.33778 5.02952 5.08748C5.2977 4.83718 5.66142 4.69656 6.04068 4.69656C6.24207 4.67525 6.44601 4.69387 6.63915 4.75122C6.83229 4.80857 7.01028 4.90334 7.16145 5.02934C7.31263 5.15534 7.43358 5.30972 7.5164 5.48238C7.59922 5.65503 7.64202 5.84206 7.64202 6.03123C7.64202 6.2204 7.59922 6.40743 7.5164 6.58008C7.43358 6.75274 7.31263 6.90712 7.16145 7.03312C7.01028 7.15912 6.83229 7.25389 6.63915 7.31124C6.44601 7.36859 6.24207 7.38721 6.04068 7.3659ZM17.334 16.1439H14.584V12.0116C14.584 10.9763 14.1898 10.3005 13.1907 10.3005C12.8815 10.3026 12.5804 10.3931 12.3279 10.5598C12.0755 10.7266 11.884 10.9615 11.779 11.233C11.7073 11.4341 11.6762 11.6459 11.6874 11.8576V16.1353H8.93735C8.93735 16.1353 8.93735 9.1369 8.93735 8.43534H11.6874V9.5219C11.9372 9.11731 12.3005 8.784 12.7383 8.55786C13.176 8.33172 13.6715 8.22133 14.1715 8.23856C16.0048 8.23856 17.334 9.34223 17.334 11.7121V16.1439Z" fill="#218465"/>
</svg>
