<svg width="21" height="21" viewBox="0 0 21 21" fill="none" xmlns="http://www.w3.org/2000/svg">
<path d="M20.1249 8.41837C20.1682 7.19377 19.8943 5.97834 19.3287 4.88492C18.9449 4.43627 18.4123 4.1335 17.8237 4.02937C15.389 3.81336 12.9442 3.72483 10.4999 3.76415C8.06447 3.72304 5.62852 3.80872 3.2024 4.02081C2.72274 4.10613 2.27885 4.32611 1.9249 4.65392C1.1374 5.36403 1.0499 6.57892 0.962401 7.60559C0.83545 9.45151 0.83545 11.3037 0.962401 13.1496C0.987715 13.7274 1.07571 14.301 1.2249 14.8607C1.3304 15.2928 1.54386 15.6926 1.84615 16.0243C2.20251 16.3694 2.65674 16.6019 3.1499 16.6916C5.03633 16.9193 6.93709 17.0136 8.8374 16.9739C11.8999 17.0167 14.5862 16.9739 17.7624 16.7344C18.2677 16.6502 18.7347 16.4174 19.1012 16.067C19.3461 15.8274 19.5291 15.5341 19.6349 15.2115C19.9478 14.2726 20.1015 13.29 20.0899 12.3026C20.1249 11.8235 20.1249 8.9317 20.1249 8.41837ZM8.5224 12.8159V7.52003L13.7024 10.1808C12.2499 10.9679 10.3337 11.8577 8.5224 12.8159Z" fill="#218465"/>
</svg>
