<svg width="360" height="54" viewBox="0 0 360 54" fill="none" xmlns="http://www.w3.org/2000/svg">
<rect width="360" height="54" rx="10" fill="#D0DEDE"/>
<path d="M104.56 27.25C104.56 26.47 104.49 25.72 104.36 25H94V29.255H99.92C99.665 30.63 98.89 31.795 97.725 32.575V35.335H101.28C103.36 33.42 104.56 30.6 104.56 27.25V27.25Z" fill="#4285F4"/>
<path d="M94 38C96.97 38 99.46 37.015 101.28 35.335L97.725 32.575C96.74 33.235 95.48 33.625 94 33.625C91.135 33.625 88.71 31.69 87.845 29.09H84.17V31.94C85.98 35.535 89.7 38 94 38Z" fill="#34A853"/>
<path d="M87.845 29.09C87.625 28.43 87.5 27.725 87.5 27C87.5 26.275 87.625 25.57 87.845 24.91V22.06H84.17C83.4 23.5929 82.9993 25.2846 83 27C83 28.775 83.425 30.455 84.17 31.94L87.845 29.09V29.09Z" fill="#FBBC05"/>
<path d="M94 20.375C95.615 20.375 97.065 20.93 98.205 22.02L101.36 18.865C99.455 17.09 96.965 16 94 16C89.7 16 85.98 18.465 84.17 22.06L87.845 24.91C88.71 22.31 91.135 20.375 94 20.375Z" fill="#EA4335"/>
<path d="M116.64 27.4C116.64 26.6 116.816 25.9067 117.168 25.32C117.531 24.7227 118 24.264 118.576 23.944C119.163 23.6133 119.797 23.448 120.48 23.448C121.013 23.448 121.493 23.5173 121.92 23.656C122.347 23.7947 122.731 23.9867 123.072 24.232C123.424 24.4667 123.728 24.7333 123.984 25.032V22.792C123.515 22.408 123.008 22.1147 122.464 21.912C121.92 21.7093 121.237 21.608 120.416 21.608C119.595 21.608 118.827 21.7467 118.112 22.024C117.408 22.3013 116.795 22.7013 116.272 23.224C115.749 23.7467 115.339 24.3653 115.04 25.08C114.752 25.784 114.608 26.5573 114.608 27.4C114.608 28.2427 114.752 29.0213 115.04 29.736C115.339 30.44 115.749 31.0533 116.272 31.576C116.795 32.0987 117.408 32.4987 118.112 32.776C118.827 33.0533 119.595 33.192 120.416 33.192C121.237 33.192 121.92 33.0907 122.464 32.888C123.008 32.6853 123.515 32.392 123.984 32.008V29.768C123.728 30.0667 123.424 30.3387 123.072 30.584C122.731 30.8187 122.347 31.0053 121.92 31.144C121.493 31.2827 121.013 31.352 120.48 31.352C119.797 31.352 119.163 31.192 118.576 30.872C118 30.5413 117.531 30.0773 117.168 29.48C116.816 28.8827 116.64 28.1893 116.64 27.4ZM126.086 29.32C126.086 30.0667 126.257 30.7333 126.598 31.32C126.95 31.896 127.425 32.3493 128.022 32.68C128.62 33 129.297 33.16 130.054 33.16C130.812 33.16 131.484 33 132.07 32.68C132.668 32.3493 133.142 31.896 133.494 31.32C133.846 30.7333 134.023 30.0667 134.023 29.32C134.023 28.5627 133.846 27.896 133.494 27.32C133.142 26.744 132.668 26.296 132.07 25.976C131.484 25.6453 130.812 25.48 130.054 25.48C129.297 25.48 128.62 25.6453 128.022 25.976C127.425 26.296 126.95 26.744 126.598 27.32C126.257 27.896 126.086 28.5627 126.086 29.32ZM127.862 29.32C127.862 28.8613 127.958 28.456 128.15 28.104C128.342 27.752 128.604 27.48 128.934 27.288C129.265 27.096 129.638 27 130.054 27C130.46 27 130.828 27.096 131.158 27.288C131.5 27.48 131.766 27.752 131.958 28.104C132.15 28.456 132.247 28.8613 132.247 29.32C132.247 29.7787 132.15 30.184 131.958 30.536C131.766 30.8773 131.5 31.1493 131.158 31.352C130.828 31.544 130.46 31.64 130.054 31.64C129.638 31.64 129.265 31.544 128.934 31.352C128.604 31.1493 128.342 30.8773 128.15 30.536C127.958 30.184 127.862 29.7787 127.862 29.32ZM140.878 28.52V33H142.654V28.328C142.654 27.4427 142.435 26.7493 141.998 26.248C141.561 25.736 140.926 25.48 140.094 25.48C139.582 25.48 139.139 25.5867 138.766 25.8C138.403 26.0133 138.105 26.3387 137.87 26.776V25.64H136.142V33H137.87V28.52C137.87 28.1893 137.939 27.9013 138.078 27.656C138.217 27.4 138.409 27.208 138.654 27.08C138.899 26.9413 139.182 26.872 139.502 26.872C139.971 26.872 140.318 27.0107 140.542 27.288C140.766 27.5653 140.878 27.976 140.878 28.52ZM144.317 25.64V27.16H148.493V25.64H144.317ZM145.549 23.08V33H147.261V23.08H145.549ZM150.101 22.712C150.101 23 150.207 23.2507 150.421 23.464C150.645 23.6667 150.901 23.768 151.189 23.768C151.498 23.768 151.754 23.6667 151.957 23.464C152.17 23.2507 152.277 23 152.277 22.712C152.277 22.4133 152.17 22.1627 151.957 21.96C151.754 21.7573 151.498 21.656 151.189 21.656C150.901 21.656 150.645 21.7573 150.421 21.96C150.207 22.1627 150.101 22.4133 150.101 22.712ZM150.341 25.64V33H152.037V25.64H150.341ZM159.631 28.52V33H161.407V28.328C161.407 27.4427 161.188 26.7493 160.751 26.248C160.313 25.736 159.679 25.48 158.847 25.48C158.335 25.48 157.892 25.5867 157.519 25.8C157.156 26.0133 156.857 26.3387 156.623 26.776V25.64H154.895V33H156.623V28.52C156.623 28.1893 156.692 27.9013 156.831 27.656C156.969 27.4 157.161 27.208 157.407 27.08C157.652 26.9413 157.935 26.872 158.255 26.872C158.724 26.872 159.071 27.0107 159.295 27.288C159.519 27.5653 159.631 27.976 159.631 28.52ZM165.869 30.12V25.64H164.093V30.312C164.093 31.1867 164.312 31.88 164.749 32.392C165.197 32.904 165.832 33.16 166.653 33.16C167.165 33.16 167.603 33.0533 167.965 32.84C168.339 32.616 168.643 32.2907 168.877 31.864V33H170.605V25.64H168.877V30.12C168.877 30.4507 168.808 30.744 168.669 31C168.531 31.2453 168.339 31.4373 168.093 31.576C167.848 31.704 167.56 31.768 167.229 31.768C166.771 31.768 166.429 31.624 166.205 31.336C165.981 31.048 165.869 30.6427 165.869 30.12ZM176.492 33.16C177.345 33.16 178.076 32.9947 178.684 32.664C179.292 32.3333 179.788 31.8373 180.172 31.176L178.684 30.568C178.449 30.9627 178.156 31.256 177.804 31.448C177.452 31.64 177.041 31.736 176.572 31.736C176.124 31.736 175.74 31.64 175.42 31.448C175.111 31.256 174.876 30.9787 174.716 30.616C174.556 30.2427 174.476 29.7893 174.476 29.256C174.487 28.7227 174.572 28.2747 174.732 27.912C174.892 27.5493 175.127 27.272 175.436 27.08C175.745 26.888 176.119 26.792 176.556 26.792C176.919 26.792 177.233 26.872 177.5 27.032C177.777 27.192 177.991 27.416 178.14 27.704C178.3 27.992 178.38 28.3333 178.38 28.728C178.38 28.8027 178.359 28.8987 178.316 29.016C178.284 29.1227 178.252 29.208 178.22 29.272L178.748 28.536H173.756V29.72H180.22C180.231 29.6773 180.236 29.608 180.236 29.512C180.247 29.416 180.252 29.3253 180.252 29.24C180.252 28.4507 180.103 27.7787 179.804 27.224C179.516 26.6587 179.1 26.2267 178.556 25.928C178.012 25.6293 177.351 25.48 176.572 25.48C175.793 25.48 175.116 25.64 174.54 25.96C173.964 26.2693 173.516 26.712 173.196 27.288C172.887 27.864 172.732 28.5413 172.732 29.32C172.732 30.088 172.887 30.76 173.196 31.336C173.505 31.912 173.943 32.36 174.508 32.68C175.084 33 175.745 33.16 176.492 33.16ZM186.554 25.64L189.994 33.528L192.202 28.552L194.506 33.528L197.946 25.64H196.074L194.346 30.04L192.186 25.08L190.154 30.024L188.426 25.64H186.554ZM199.465 22.712C199.465 23 199.572 23.2507 199.785 23.464C200.009 23.6667 200.265 23.768 200.553 23.768C200.862 23.768 201.118 23.6667 201.321 23.464C201.534 23.2507 201.641 23 201.641 22.712C201.641 22.4133 201.534 22.1627 201.321 21.96C201.118 21.7573 200.862 21.656 200.553 21.656C200.265 21.656 200.009 21.7573 199.785 21.96C199.572 22.1627 199.465 22.4133 199.465 22.712ZM199.705 25.64V33H201.401V25.64H199.705ZM203.235 25.64V27.16H207.411V25.64H203.235ZM204.467 23.08V33H206.179V23.08H204.467ZM210.811 20.52H209.083V33H210.811V20.52ZM213.819 28.52V33H215.563V28.28C215.563 27.6507 215.467 27.128 215.275 26.712C215.083 26.2853 214.795 25.9653 214.411 25.752C214.037 25.5387 213.579 25.432 213.035 25.432C212.48 25.432 212.005 25.5707 211.611 25.848C211.227 26.1253 210.928 26.4933 210.715 26.952C210.501 27.4107 210.395 27.9333 210.395 28.52H210.811C210.811 28.1893 210.88 27.9013 211.019 27.656C211.157 27.4107 211.349 27.2187 211.595 27.08C211.84 26.9413 212.123 26.872 212.443 26.872C212.923 26.872 213.269 27.0107 213.483 27.288C213.707 27.5653 213.819 27.976 213.819 28.52ZM228.984 28.744H232.424C232.328 29.1173 232.184 29.4693 231.992 29.8C231.8 30.1307 231.56 30.424 231.272 30.68C230.984 30.936 230.642 31.1333 230.248 31.272C229.853 31.4107 229.405 31.48 228.904 31.48C228.168 31.48 227.506 31.3093 226.92 30.968C226.333 30.6267 225.864 30.152 225.512 29.544C225.17 28.9253 225 28.2107 225 27.4C225 26.5787 225.176 25.8693 225.528 25.272C225.88 24.664 226.349 24.1947 226.936 23.864C227.522 23.5227 228.178 23.352 228.904 23.352C229.682 23.352 230.344 23.512 230.888 23.832C231.442 24.152 231.874 24.5787 232.184 25.112L233.72 24.088C233.389 23.5653 232.984 23.1227 232.504 22.76C232.034 22.3867 231.501 22.104 230.904 21.912C230.306 21.7093 229.64 21.608 228.904 21.608C228.061 21.608 227.277 21.7467 226.552 22.024C225.837 22.3013 225.213 22.7013 224.68 23.224C224.157 23.736 223.746 24.3493 223.448 25.064C223.16 25.768 223.016 26.5467 223.016 27.4C223.016 28.2533 223.16 29.0373 223.448 29.752C223.736 30.4667 224.141 31.0853 224.664 31.608C225.197 32.1307 225.821 32.536 226.536 32.824C227.25 33.1013 228.029 33.24 228.872 33.24C229.757 33.24 230.546 33.08 231.24 32.76C231.944 32.4293 232.53 31.9813 233 31.416C233.469 30.8507 233.821 30.2053 234.056 29.48C234.29 28.744 234.397 27.9653 234.376 27.144H228.984V28.744ZM236.088 29.32C236.088 30.0667 236.258 30.7333 236.6 31.32C236.952 31.896 237.426 32.3493 238.024 32.68C238.621 33 239.298 33.16 240.056 33.16C240.813 33.16 241.485 33 242.072 32.68C242.669 32.3493 243.144 31.896 243.496 31.32C243.848 30.7333 244.024 30.0667 244.024 29.32C244.024 28.5627 243.848 27.896 243.496 27.32C243.144 26.744 242.669 26.296 242.072 25.976C241.485 25.6453 240.813 25.48 240.056 25.48C239.298 25.48 238.621 25.6453 238.024 25.976C237.426 26.296 236.952 26.744 236.6 27.32C236.258 27.896 236.088 28.5627 236.088 29.32ZM237.864 29.32C237.864 28.8613 237.96 28.456 238.152 28.104C238.344 27.752 238.605 27.48 238.936 27.288C239.266 27.096 239.64 27 240.056 27C240.461 27 240.829 27.096 241.16 27.288C241.501 27.48 241.768 27.752 241.96 28.104C242.152 28.456 242.248 28.8613 242.248 29.32C242.248 29.7787 242.152 30.184 241.96 30.536C241.768 30.8773 241.501 31.1493 241.16 31.352C240.829 31.544 240.461 31.64 240.056 31.64C239.64 31.64 239.266 31.544 238.936 31.352C238.605 31.1493 238.344 30.8773 238.152 30.536C237.96 30.184 237.864 29.7787 237.864 29.32ZM245.583 29.32C245.583 30.0667 245.754 30.7333 246.095 31.32C246.447 31.896 246.922 32.3493 247.519 32.68C248.117 33 248.794 33.16 249.551 33.16C250.309 33.16 250.981 33 251.567 32.68C252.165 32.3493 252.639 31.896 252.991 31.32C253.343 30.7333 253.519 30.0667 253.519 29.32C253.519 28.5627 253.343 27.896 252.991 27.32C252.639 26.744 252.165 26.296 251.567 25.976C250.981 25.6453 250.309 25.48 249.551 25.48C248.794 25.48 248.117 25.6453 247.519 25.976C246.922 26.296 246.447 26.744 246.095 27.32C245.754 27.896 245.583 28.5627 245.583 29.32ZM247.359 29.32C247.359 28.8613 247.455 28.456 247.647 28.104C247.839 27.752 248.101 27.48 248.431 27.288C248.762 27.096 249.135 27 249.551 27C249.957 27 250.325 27.096 250.655 27.288C250.997 27.48 251.263 27.752 251.455 28.104C251.647 28.456 251.743 28.8613 251.743 29.32C251.743 29.7787 251.647 30.184 251.455 30.536C251.263 30.8773 250.997 31.1493 250.655 31.352C250.325 31.544 249.957 31.64 249.551 31.64C249.135 31.64 248.762 31.544 248.431 31.352C248.101 31.1493 247.839 30.8773 247.647 30.536C247.455 30.184 247.359 29.7787 247.359 29.32ZM255.223 33.496C255.244 34.136 255.404 34.7013 255.703 35.192C256.012 35.6827 256.45 36.0613 257.015 36.328C257.58 36.6053 258.263 36.744 259.063 36.744C259.735 36.744 260.359 36.6 260.935 36.312C261.511 36.0347 261.975 35.608 262.327 35.032C262.69 34.456 262.871 33.7253 262.871 32.84V25.64H261.175V32.84C261.175 33.3947 261.068 33.848 260.855 34.2C260.652 34.552 260.386 34.8133 260.055 34.984C259.724 35.1547 259.378 35.24 259.015 35.24C258.61 35.24 258.252 35.1653 257.943 35.016C257.634 34.8667 257.388 34.6587 257.207 34.392C257.036 34.1253 256.946 33.8267 256.935 33.496H255.223ZM255.079 29.288C255.079 30.088 255.244 30.7707 255.575 31.336C255.906 31.9013 256.343 32.3333 256.887 32.632C257.442 32.9307 258.034 33.08 258.663 33.08C259.282 33.08 259.82 32.9307 260.279 32.632C260.748 32.3227 261.116 31.8853 261.383 31.32C261.66 30.7547 261.799 30.0773 261.799 29.288C261.799 28.488 261.66 27.8053 261.383 27.24C261.116 26.6747 260.748 26.2427 260.279 25.944C259.82 25.6347 259.282 25.48 258.663 25.48C258.034 25.48 257.442 25.6293 256.887 25.928C256.343 26.2267 255.906 26.6587 255.575 27.224C255.244 27.7787 255.079 28.4667 255.079 29.288ZM256.871 29.288C256.871 28.7867 256.972 28.3653 257.175 28.024C257.378 27.6827 257.644 27.4267 257.975 27.256C258.316 27.0747 258.684 26.984 259.079 26.984C259.324 26.984 259.57 27.032 259.815 27.128C260.071 27.224 260.3 27.3733 260.503 27.576C260.706 27.768 260.866 28.008 260.983 28.296C261.111 28.5733 261.175 28.904 261.175 29.288C261.175 29.7787 261.068 30.2 260.855 30.552C260.652 30.8933 260.386 31.1493 260.055 31.32C259.735 31.4907 259.41 31.576 259.079 31.576C258.684 31.576 258.316 31.4907 257.975 31.32C257.644 31.1387 257.378 30.8773 257.175 30.536C256.972 30.1947 256.871 29.7787 256.871 29.288ZM265.494 20.52V33H267.222V20.52H265.494ZM273.111 33.16C273.965 33.16 274.695 32.9947 275.303 32.664C275.911 32.3333 276.407 31.8373 276.791 31.176L275.303 30.568C275.069 30.9627 274.775 31.256 274.423 31.448C274.071 31.64 273.661 31.736 273.191 31.736C272.743 31.736 272.359 31.64 272.039 31.448C271.73 31.256 271.495 30.9787 271.335 30.616C271.175 30.2427 271.095 29.7893 271.095 29.256C271.106 28.7227 271.191 28.2747 271.351 27.912C271.511 27.5493 271.746 27.272 272.055 27.08C272.365 26.888 272.738 26.792 273.175 26.792C273.538 26.792 273.853 26.872 274.119 27.032C274.397 27.192 274.61 27.416 274.759 27.704C274.919 27.992 274.999 28.3333 274.999 28.728C274.999 28.8027 274.978 28.8987 274.935 29.016C274.903 29.1227 274.871 29.208 274.839 29.272L275.367 28.536H270.375V29.72H276.839C276.85 29.6773 276.855 29.608 276.855 29.512C276.866 29.416 276.871 29.3253 276.871 29.24C276.871 28.4507 276.722 27.7787 276.423 27.224C276.135 26.6587 275.719 26.2267 275.175 25.928C274.631 25.6293 273.97 25.48 273.191 25.48C272.413 25.48 271.735 25.64 271.159 25.96C270.583 26.2693 270.135 26.712 269.815 27.288C269.506 27.864 269.351 28.5413 269.351 29.32C269.351 30.088 269.506 30.76 269.815 31.336C270.125 31.912 270.562 32.36 271.127 32.68C271.703 33 272.365 33.16 273.111 33.16Z" fill="#0A2C2C"/>
</svg>
