<svg width="360" height="54" viewBox="0 0 360 54" fill="none" xmlns="http://www.w3.org/2000/svg">
<rect width="360" height="54" rx="10" fill="#D0DEDE"/>
<g clip-path="url(#clip0_145_643)">
<path d="M106.044 27.7507C106.016 24.7159 108.522 23.2589 108.636 23.1879C107.225 21.1249 105.031 20.8422 104.248 20.809C102.382 20.6201 100.604 21.9078 99.658 21.9078C98.7119 21.9078 97.2489 20.8362 95.7013 20.8664C93.664 20.8967 91.7884 22.0498 90.7395 23.8725C88.6251 27.5406 90.1999 32.977 92.2584 35.9544C93.2665 37.4099 94.4665 39.0497 96.0444 38.9892C97.5648 38.9288 98.1391 38.0068 99.9739 38.0068C101.809 38.0068 102.326 38.9892 103.932 38.9605C105.566 38.9288 106.603 37.4733 107.603 36.0133C108.758 34.3236 109.236 32.6883 109.263 32.6022C109.227 32.5871 106.077 31.3795 106.044 27.7507" fill="#0F1111"/>
<path d="M103.025 18.8394C103.863 17.8253 104.428 16.4151 104.272 15.0096C103.066 15.058 101.606 15.8137 100.74 16.8278C99.9648 17.7241 99.2847 19.1598 99.469 20.5367C100.814 20.641 102.188 19.852 103.025 18.8394" fill="#0F1111"/>
</g>
<path d="M119.908 27.4C119.908 26.6 120.084 25.9067 120.436 25.32C120.799 24.7227 121.268 24.264 121.844 23.944C122.431 23.6133 123.065 23.448 123.748 23.448C124.281 23.448 124.761 23.5173 125.188 23.656C125.615 23.7947 125.999 23.9867 126.34 24.232C126.692 24.4667 126.996 24.7333 127.252 25.032V22.792C126.783 22.408 126.276 22.1147 125.732 21.912C125.188 21.7093 124.505 21.608 123.684 21.608C122.863 21.608 122.095 21.7467 121.38 22.024C120.676 22.3013 120.063 22.7013 119.54 23.224C119.017 23.7467 118.607 24.3653 118.308 25.08C118.02 25.784 117.876 26.5573 117.876 27.4C117.876 28.2427 118.02 29.0213 118.308 29.736C118.607 30.44 119.017 31.0533 119.54 31.576C120.063 32.0987 120.676 32.4987 121.38 32.776C122.095 33.0533 122.863 33.192 123.684 33.192C124.505 33.192 125.188 33.0907 125.732 32.888C126.276 32.6853 126.783 32.392 127.252 32.008V29.768C126.996 30.0667 126.692 30.3387 126.34 30.584C125.999 30.8187 125.615 31.0053 125.188 31.144C124.761 31.2827 124.281 31.352 123.748 31.352C123.065 31.352 122.431 31.192 121.844 30.872C121.268 30.5413 120.799 30.0773 120.436 29.48C120.084 28.8827 119.908 28.1893 119.908 27.4ZM129.355 29.32C129.355 30.0667 129.525 30.7333 129.867 31.32C130.219 31.896 130.693 32.3493 131.291 32.68C131.888 33 132.565 33.16 133.323 33.16C134.08 33.16 134.752 33 135.339 32.68C135.936 32.3493 136.411 31.896 136.763 31.32C137.115 30.7333 137.291 30.0667 137.291 29.32C137.291 28.5627 137.115 27.896 136.763 27.32C136.411 26.744 135.936 26.296 135.339 25.976C134.752 25.6453 134.08 25.48 133.323 25.48C132.565 25.48 131.888 25.6453 131.291 25.976C130.693 26.296 130.219 26.744 129.867 27.32C129.525 27.896 129.355 28.5627 129.355 29.32ZM131.131 29.32C131.131 28.8613 131.227 28.456 131.419 28.104C131.611 27.752 131.872 27.48 132.203 27.288C132.533 27.096 132.907 27 133.323 27C133.728 27 134.096 27.096 134.427 27.288C134.768 27.48 135.035 27.752 135.227 28.104C135.419 28.456 135.515 28.8613 135.515 29.32C135.515 29.7787 135.419 30.184 135.227 30.536C135.035 30.8773 134.768 31.1493 134.427 31.352C134.096 31.544 133.728 31.64 133.323 31.64C132.907 31.64 132.533 31.544 132.203 31.352C131.872 31.1493 131.611 30.8773 131.419 30.536C131.227 30.184 131.131 29.7787 131.131 29.32ZM144.146 28.52V33H145.922V28.328C145.922 27.4427 145.704 26.7493 145.266 26.248C144.829 25.736 144.194 25.48 143.362 25.48C142.85 25.48 142.408 25.5867 142.034 25.8C141.672 26.0133 141.373 26.3387 141.138 26.776V25.64H139.41V33H141.138V28.52C141.138 28.1893 141.208 27.9013 141.346 27.656C141.485 27.4 141.677 27.208 141.922 27.08C142.168 26.9413 142.45 26.872 142.77 26.872C143.24 26.872 143.586 27.0107 143.81 27.288C144.034 27.5653 144.146 27.976 144.146 28.52ZM147.585 25.64V27.16H151.761V25.64H147.585ZM148.817 23.08V33H150.529V23.08H148.817ZM153.369 22.712C153.369 23 153.475 23.2507 153.689 23.464C153.913 23.6667 154.169 23.768 154.457 23.768C154.766 23.768 155.022 23.6667 155.225 23.464C155.438 23.2507 155.545 23 155.545 22.712C155.545 22.4133 155.438 22.1627 155.225 21.96C155.022 21.7573 154.766 21.656 154.457 21.656C154.169 21.656 153.913 21.7573 153.689 21.96C153.475 22.1627 153.369 22.4133 153.369 22.712ZM153.609 25.64V33H155.305V25.64H153.609ZM162.899 28.52V33H164.675V28.328C164.675 27.4427 164.456 26.7493 164.019 26.248C163.581 25.736 162.947 25.48 162.115 25.48C161.603 25.48 161.16 25.5867 160.787 25.8C160.424 26.0133 160.125 26.3387 159.891 26.776V25.64H158.163V33H159.891V28.52C159.891 28.1893 159.96 27.9013 160.099 27.656C160.237 27.4 160.429 27.208 160.675 27.08C160.92 26.9413 161.203 26.872 161.523 26.872C161.992 26.872 162.339 27.0107 162.563 27.288C162.787 27.5653 162.899 27.976 162.899 28.52ZM169.137 30.12V25.64H167.361V30.312C167.361 31.1867 167.58 31.88 168.017 32.392C168.465 32.904 169.1 33.16 169.921 33.16C170.433 33.16 170.871 33.0533 171.233 32.84C171.607 32.616 171.911 32.2907 172.145 31.864V33H173.873V25.64H172.145V30.12C172.145 30.4507 172.076 30.744 171.937 31C171.799 31.2453 171.607 31.4373 171.361 31.576C171.116 31.704 170.828 31.768 170.497 31.768C170.039 31.768 169.697 31.624 169.473 31.336C169.249 31.048 169.137 30.6427 169.137 30.12ZM179.76 33.16C180.614 33.16 181.344 32.9947 181.952 32.664C182.56 32.3333 183.056 31.8373 183.44 31.176L181.952 30.568C181.718 30.9627 181.424 31.256 181.072 31.448C180.72 31.64 180.31 31.736 179.84 31.736C179.392 31.736 179.008 31.64 178.688 31.448C178.379 31.256 178.144 30.9787 177.984 30.616C177.824 30.2427 177.744 29.7893 177.744 29.256C177.755 28.7227 177.84 28.2747 178 27.912C178.16 27.5493 178.395 27.272 178.704 27.08C179.014 26.888 179.387 26.792 179.824 26.792C180.187 26.792 180.502 26.872 180.768 27.032C181.046 27.192 181.259 27.416 181.408 27.704C181.568 27.992 181.648 28.3333 181.648 28.728C181.648 28.8027 181.627 28.8987 181.584 29.016C181.552 29.1227 181.52 29.208 181.488 29.272L182.016 28.536H177.024V29.72H183.488C183.499 29.6773 183.504 29.608 183.504 29.512C183.515 29.416 183.52 29.3253 183.52 29.24C183.52 28.4507 183.371 27.7787 183.072 27.224C182.784 26.6587 182.368 26.2267 181.824 25.928C181.28 25.6293 180.619 25.48 179.84 25.48C179.062 25.48 178.384 25.64 177.808 25.96C177.232 26.2693 176.784 26.712 176.464 27.288C176.155 27.864 176 28.5413 176 29.32C176 30.088 176.155 30.76 176.464 31.336C176.774 31.912 177.211 32.36 177.776 32.68C178.352 33 179.014 33.16 179.76 33.16ZM189.822 25.64L193.262 33.528L195.47 28.552L197.774 33.528L201.214 25.64H199.342L197.614 30.04L195.454 25.08L193.422 30.024L191.694 25.64H189.822ZM202.733 22.712C202.733 23 202.84 23.2507 203.053 23.464C203.277 23.6667 203.533 23.768 203.821 23.768C204.13 23.768 204.386 23.6667 204.589 23.464C204.802 23.2507 204.909 23 204.909 22.712C204.909 22.4133 204.802 22.1627 204.589 21.96C204.386 21.7573 204.13 21.656 203.821 21.656C203.533 21.656 203.277 21.7573 203.053 21.96C202.84 22.1627 202.733 22.4133 202.733 22.712ZM202.973 25.64V33H204.669V25.64H202.973ZM206.503 25.64V27.16H210.679V25.64H206.503ZM207.735 23.08V33H209.447V23.08H207.735ZM214.079 20.52H212.351V33H214.079V20.52ZM217.087 28.52V33H218.831V28.28C218.831 27.6507 218.735 27.128 218.543 26.712C218.351 26.2853 218.063 25.9653 217.679 25.752C217.305 25.5387 216.847 25.432 216.303 25.432C215.748 25.432 215.273 25.5707 214.879 25.848C214.495 26.1253 214.196 26.4933 213.983 26.952C213.769 27.4107 213.663 27.9333 213.663 28.52H214.079C214.079 28.1893 214.148 27.9013 214.287 27.656C214.425 27.4107 214.617 27.2187 214.863 27.08C215.108 26.9413 215.391 26.872 215.711 26.872C216.191 26.872 216.537 27.0107 216.751 27.288C216.975 27.5653 217.087 27.976 217.087 28.52ZM228.268 30.12H234.188L233.82 28.52H228.62L228.268 30.12ZM231.196 24.968L232.972 29.128L233.02 29.592L234.54 33H236.668L231.196 21.176L225.724 33H227.852L229.404 29.496L229.436 29.08L231.196 24.968ZM239.986 36.52V25.64H238.242V36.52H239.986ZM246.082 29.32C246.082 28.4987 245.917 27.8 245.586 27.224C245.256 26.648 244.818 26.2107 244.274 25.912C243.73 25.6027 243.138 25.448 242.498 25.448C241.869 25.448 241.32 25.608 240.85 25.928C240.392 26.2373 240.034 26.68 239.778 27.256C239.533 27.832 239.41 28.52 239.41 29.32C239.41 30.1093 239.533 30.7973 239.778 31.384C240.034 31.96 240.392 32.408 240.85 32.728C241.32 33.0373 241.869 33.192 242.498 33.192C243.138 33.192 243.73 33.0427 244.274 32.744C244.818 32.4347 245.256 31.992 245.586 31.416C245.917 30.8293 246.082 30.1307 246.082 29.32ZM244.29 29.32C244.29 29.8107 244.189 30.232 243.986 30.584C243.784 30.9253 243.512 31.1867 243.17 31.368C242.84 31.5387 242.472 31.624 242.066 31.624C241.736 31.624 241.41 31.5387 241.09 31.368C240.77 31.1867 240.504 30.9253 240.29 30.584C240.088 30.2427 239.986 29.8213 239.986 29.32C239.986 28.8187 240.088 28.3973 240.29 28.056C240.504 27.7147 240.77 27.4587 241.09 27.288C241.41 27.1067 241.736 27.016 242.066 27.016C242.472 27.016 242.84 27.1067 243.17 27.288C243.512 27.4587 243.784 27.72 243.986 28.072C244.189 28.4133 244.29 28.8293 244.29 29.32ZM249.888 36.52V25.64H248.144V36.52H249.888ZM255.984 29.32C255.984 28.4987 255.819 27.8 255.488 27.224C255.158 26.648 254.72 26.2107 254.176 25.912C253.632 25.6027 253.04 25.448 252.4 25.448C251.771 25.448 251.222 25.608 250.752 25.928C250.294 26.2373 249.936 26.68 249.68 27.256C249.435 27.832 249.312 28.52 249.312 29.32C249.312 30.1093 249.435 30.7973 249.68 31.384C249.936 31.96 250.294 32.408 250.752 32.728C251.222 33.0373 251.771 33.192 252.4 33.192C253.04 33.192 253.632 33.0427 254.176 32.744C254.72 32.4347 255.158 31.992 255.488 31.416C255.819 30.8293 255.984 30.1307 255.984 29.32ZM254.192 29.32C254.192 29.8107 254.091 30.232 253.888 30.584C253.686 30.9253 253.414 31.1867 253.072 31.368C252.742 31.5387 252.374 31.624 251.968 31.624C251.638 31.624 251.312 31.5387 250.992 31.368C250.672 31.1867 250.406 30.9253 250.192 30.584C249.99 30.2427 249.888 29.8213 249.888 29.32C249.888 28.8187 249.99 28.3973 250.192 28.056C250.406 27.7147 250.672 27.4587 250.992 27.288C251.312 27.1067 251.638 27.016 251.968 27.016C252.374 27.016 252.742 27.1067 253.072 27.288C253.414 27.4587 253.686 27.72 253.888 28.072C254.091 28.4133 254.192 28.8293 254.192 29.32ZM258.11 20.52V33H259.838V20.52H258.11ZM265.728 33.16C266.581 33.16 267.312 32.9947 267.92 32.664C268.528 32.3333 269.024 31.8373 269.408 31.176L267.92 30.568C267.685 30.9627 267.392 31.256 267.04 31.448C266.688 31.64 266.277 31.736 265.808 31.736C265.36 31.736 264.976 31.64 264.656 31.448C264.346 31.256 264.112 30.9787 263.952 30.616C263.792 30.2427 263.712 29.7893 263.712 29.256C263.722 28.7227 263.808 28.2747 263.968 27.912C264.128 27.5493 264.362 27.272 264.672 27.08C264.981 26.888 265.354 26.792 265.792 26.792C266.154 26.792 266.469 26.872 266.736 27.032C267.013 27.192 267.226 27.416 267.376 27.704C267.536 27.992 267.616 28.3333 267.616 28.728C267.616 28.8027 267.594 28.8987 267.552 29.016C267.52 29.1227 267.488 29.208 267.456 29.272L267.984 28.536H262.992V29.72H269.456C269.466 29.6773 269.472 29.608 269.472 29.512C269.482 29.416 269.488 29.3253 269.488 29.24C269.488 28.4507 269.338 27.7787 269.04 27.224C268.752 26.6587 268.336 26.2267 267.792 25.928C267.248 25.6293 266.586 25.48 265.808 25.48C265.029 25.48 264.352 25.64 263.776 25.96C263.2 26.2693 262.752 26.712 262.432 27.288C262.122 27.864 261.968 28.5413 261.968 29.32C261.968 30.088 262.122 30.76 262.432 31.336C262.741 31.912 263.178 32.36 263.744 32.68C264.32 33 264.981 33.16 265.728 33.16Z" fill="#0A2C2C"/>
<defs>
<clipPath id="clip0_145_643">
<rect width="19.5362" height="24" fill="white" transform="translate(89.7319 15)"/>
</clipPath>
</defs>
</svg>
