<svg width="201" height="32" viewBox="0 0 201 32" fill="none" xmlns="http://www.w3.org/2000/svg">
<rect width="201" height="32" rx="16" fill="#D0DEDE"/>
<rect width="93" height="32" rx="16" fill="#145858"/>
<path d="M18.08 16.4C18.08 15.5573 18.2613 14.8053 18.624 14.144C18.9973 13.4827 19.504 12.96 20.144 12.576C20.784 12.192 21.5093 12 22.32 12C23.1413 12 23.8667 12.192 24.496 12.576C25.136 12.96 25.6373 13.4827 26 14.144C26.3733 14.8053 26.56 15.5573 26.56 16.4C26.56 17.2427 26.3733 17.9947 26 18.656C25.6373 19.3173 25.136 19.84 24.496 20.224C23.8667 20.608 23.1413 20.8 22.32 20.8C21.5093 20.8 20.784 20.608 20.144 20.224C19.504 19.84 18.9973 19.3173 18.624 18.656C18.2613 17.9947 18.08 17.2427 18.08 16.4ZM16.64 16.4C16.64 17.2107 16.7787 17.968 17.056 18.672C17.344 19.376 17.744 19.9893 18.256 20.512C18.768 21.024 19.3707 21.4293 20.064 21.728C20.7573 22.016 21.5093 22.16 22.32 22.16C23.1413 22.16 23.8933 22.016 24.576 21.728C25.2693 21.4293 25.872 21.024 26.384 20.512C26.896 19.9893 27.2907 19.376 27.568 18.672C27.856 17.968 28 17.2107 28 16.4C28 15.5787 27.856 14.8213 27.568 14.128C27.2907 13.424 26.896 12.816 26.384 12.304C25.872 11.7813 25.2693 11.376 24.576 11.088C23.8933 10.7893 23.1413 10.64 22.32 10.64C21.5093 10.64 20.7573 10.7893 20.064 11.088C19.3707 11.376 18.768 11.7813 18.256 12.304C17.744 12.816 17.344 13.424 17.056 14.128C16.7787 14.8213 16.64 15.5787 16.64 16.4ZM34.5606 17.52V22H35.8406V17.36C35.8406 16.4747 35.6113 15.776 35.1526 15.264C34.7046 14.7413 34.0913 14.48 33.3126 14.48C32.8326 14.48 32.406 14.5867 32.0326 14.8C31.67 15.0133 31.366 15.344 31.1206 15.792V14.64H29.8406V22H31.1206V17.52C31.1206 17.1573 31.1953 16.8373 31.3446 16.56C31.5046 16.2827 31.7233 16.0693 32.0006 15.92C32.2886 15.76 32.6193 15.68 32.9926 15.68C33.5046 15.68 33.894 15.8347 34.1606 16.144C34.4273 16.4533 34.5606 16.912 34.5606 17.52ZM37.7509 22.48C37.7509 23.1093 37.9055 23.664 38.2149 24.144C38.5242 24.6347 38.9509 25.0133 39.4949 25.28C40.0495 25.5467 40.6842 25.68 41.3989 25.68C42.0175 25.68 42.6042 25.536 43.1589 25.248C43.7135 24.96 44.1669 24.528 44.5189 23.952C44.8709 23.3867 45.0469 22.6827 45.0469 21.84V14.64H43.7669V21.84C43.7669 22.4587 43.6442 22.96 43.3989 23.344C43.1642 23.7387 42.8655 24.0267 42.5029 24.208C42.1402 24.3893 41.7722 24.48 41.3989 24.48C40.9189 24.48 40.5029 24.384 40.1509 24.192C39.7989 24.0107 39.5269 23.7653 39.3349 23.456C39.1429 23.1573 39.0469 22.832 39.0469 22.48H37.7509ZM37.6069 18.32C37.6069 19.1093 37.7722 19.792 38.1029 20.368C38.4335 20.944 38.8762 21.3867 39.4309 21.696C39.9855 22.0053 40.5935 22.16 41.2549 22.16C41.8735 22.16 42.4122 22.0053 42.8709 21.696C43.3295 21.3867 43.6869 20.944 43.9429 20.368C44.2095 19.792 44.3429 19.1093 44.3429 18.32C44.3429 17.52 44.2095 16.8373 43.9429 16.272C43.6869 15.696 43.3295 15.2533 42.8709 14.944C42.4122 14.6347 41.8735 14.48 41.2549 14.48C40.5935 14.48 39.9855 14.6347 39.4309 14.944C38.8762 15.2533 38.4335 15.696 38.1029 16.272C37.7722 16.8373 37.6069 17.52 37.6069 18.32ZM38.9029 18.32C38.9029 17.7547 39.0149 17.2747 39.2389 16.88C39.4735 16.4853 39.7829 16.1867 40.1669 15.984C40.5509 15.7813 40.9669 15.68 41.4149 15.68C41.6922 15.68 41.9695 15.7387 42.2469 15.856C42.5242 15.9733 42.7749 16.144 42.9989 16.368C43.2335 16.592 43.4202 16.8693 43.5589 17.2C43.6975 17.52 43.7669 17.8933 43.7669 18.32C43.7669 18.8853 43.6495 19.3653 43.4149 19.76C43.1802 20.1547 42.8815 20.4533 42.5189 20.656C42.1562 20.8587 41.7882 20.96 41.4149 20.96C40.9669 20.96 40.5509 20.8587 40.1669 20.656C39.7829 20.4533 39.4735 20.1547 39.2389 19.76C39.0149 19.3653 38.9029 18.8853 38.9029 18.32ZM46.7319 18.32C46.7319 19.056 46.8972 19.7173 47.2279 20.304C47.5692 20.88 48.0279 21.3333 48.6039 21.664C49.1799 21.9947 49.8252 22.16 50.5399 22.16C51.2652 22.16 51.9105 21.9947 52.4759 21.664C53.0519 21.3333 53.5052 20.88 53.8359 20.304C54.1772 19.7173 54.3479 19.056 54.3479 18.32C54.3479 17.5733 54.1772 16.912 53.8359 16.336C53.5052 15.76 53.0519 15.3067 52.4759 14.976C51.9105 14.6453 51.2652 14.48 50.5399 14.48C49.8252 14.48 49.1799 14.6453 48.6039 14.976C48.0279 15.3067 47.5692 15.76 47.2279 16.336C46.8972 16.912 46.7319 17.5733 46.7319 18.32ZM48.0279 18.32C48.0279 17.808 48.1345 17.3547 48.3479 16.96C48.5719 16.5547 48.8705 16.24 49.2439 16.016C49.6279 15.792 50.0599 15.68 50.5399 15.68C51.0199 15.68 51.4465 15.792 51.8199 16.016C52.2039 16.24 52.5025 16.5547 52.7159 16.96C52.9399 17.3547 53.0519 17.808 53.0519 18.32C53.0519 18.832 52.9399 19.2853 52.7159 19.68C52.5025 20.0747 52.2039 20.3893 51.8199 20.624C51.4465 20.848 51.0199 20.96 50.5399 20.96C50.0599 20.96 49.6279 20.848 49.2439 20.624C48.8705 20.3893 48.5719 20.0747 48.3479 19.68C48.1345 19.2853 48.0279 18.832 48.0279 18.32ZM56.1063 11.6C56.1063 11.8347 56.1916 12.0427 56.3623 12.224C56.5436 12.3947 56.7516 12.48 56.9863 12.48C57.2316 12.48 57.4396 12.3947 57.6103 12.224C57.7809 12.0427 57.8663 11.8347 57.8663 11.6C57.8663 11.3547 57.7809 11.1467 57.6103 10.976C57.4396 10.8053 57.2316 10.72 56.9863 10.72C56.7516 10.72 56.5436 10.8053 56.3623 10.976C56.1916 11.1467 56.1063 11.3547 56.1063 11.6ZM56.3463 14.64V22H57.6263V14.64H56.3463ZM64.9825 17.52V22H66.2625V17.36C66.2625 16.4747 66.0332 15.776 65.5745 15.264C65.1265 14.7413 64.5132 14.48 63.7345 14.48C63.2545 14.48 62.8278 14.5867 62.4545 14.8C62.0918 15.0133 61.7878 15.344 61.5425 15.792V14.64H60.2625V22H61.5425V17.52C61.5425 17.1573 61.6172 16.8373 61.7665 16.56C61.9265 16.2827 62.1452 16.0693 62.4225 15.92C62.7105 15.76 63.0412 15.68 63.4145 15.68C63.9265 15.68 64.3158 15.8347 64.5825 16.144C64.8492 16.4533 64.9825 16.912 64.9825 17.52ZM68.1728 22.48C68.1728 23.1093 68.3274 23.664 68.6368 24.144C68.9461 24.6347 69.3728 25.0133 69.9168 25.28C70.4714 25.5467 71.1061 25.68 71.8208 25.68C72.4394 25.68 73.0261 25.536 73.5808 25.248C74.1354 24.96 74.5888 24.528 74.9408 23.952C75.2928 23.3867 75.4688 22.6827 75.4688 21.84V14.64H74.1888V21.84C74.1888 22.4587 74.0661 22.96 73.8208 23.344C73.5861 23.7387 73.2874 24.0267 72.9248 24.208C72.5621 24.3893 72.1941 24.48 71.8208 24.48C71.3408 24.48 70.9248 24.384 70.5728 24.192C70.2208 24.0107 69.9488 23.7653 69.7568 23.456C69.5648 23.1573 69.4688 22.832 69.4688 22.48H68.1728ZM68.0288 18.32C68.0288 19.1093 68.1941 19.792 68.5247 20.368C68.8554 20.944 69.2981 21.3867 69.8528 21.696C70.4074 22.0053 71.0154 22.16 71.6768 22.16C72.2954 22.16 72.8341 22.0053 73.2928 21.696C73.7514 21.3867 74.1088 20.944 74.3648 20.368C74.6314 19.792 74.7648 19.1093 74.7648 18.32C74.7648 17.52 74.6314 16.8373 74.3648 16.272C74.1088 15.696 73.7514 15.2533 73.2928 14.944C72.8341 14.6347 72.2954 14.48 71.6768 14.48C71.0154 14.48 70.4074 14.6347 69.8528 14.944C69.2981 15.2533 68.8554 15.696 68.5247 16.272C68.1941 16.8373 68.0288 17.52 68.0288 18.32ZM69.3248 18.32C69.3248 17.7547 69.4368 17.2747 69.6608 16.88C69.8954 16.4853 70.2048 16.1867 70.5888 15.984C70.9728 15.7813 71.3888 15.68 71.8368 15.68C72.1141 15.68 72.3914 15.7387 72.6688 15.856C72.9461 15.9733 73.1968 16.144 73.4208 16.368C73.6554 16.592 73.8421 16.8693 73.9808 17.2C74.1194 17.52 74.1888 17.8933 74.1888 18.32C74.1888 18.8853 74.0714 19.3653 73.8368 19.76C73.6021 20.1547 73.3034 20.4533 72.9408 20.656C72.5781 20.8587 72.2101 20.96 71.8368 20.96C71.3888 20.96 70.9728 20.8587 70.5888 20.656C70.2048 20.4533 69.8954 20.1547 69.6608 19.76C69.4368 19.3653 69.3248 18.8853 69.3248 18.32Z" fill="white"/>
<path d="M111.08 16.4C111.08 15.5253 111.272 14.7627 111.656 14.112C112.051 13.4507 112.563 12.9333 113.192 12.56C113.821 12.1867 114.504 12 115.24 12C115.773 12 116.259 12.0693 116.696 12.208C117.144 12.3467 117.549 12.544 117.912 12.8C118.275 13.0453 118.584 13.3333 118.84 13.664V11.872C118.371 11.456 117.859 11.1467 117.304 10.944C116.749 10.7413 116.061 10.64 115.24 10.64C114.461 10.64 113.731 10.784 113.048 11.072C112.376 11.3493 111.784 11.7493 111.272 12.272C110.76 12.784 110.36 13.392 110.072 14.096C109.784 14.8 109.64 15.568 109.64 16.4C109.64 17.232 109.784 18 110.072 18.704C110.36 19.408 110.76 20.0213 111.272 20.544C111.784 21.056 112.376 21.456 113.048 21.744C113.731 22.0213 114.461 22.16 115.24 22.16C116.061 22.16 116.749 22.0587 117.304 21.856C117.859 21.6533 118.371 21.344 118.84 20.928V19.136C118.584 19.4667 118.275 19.76 117.912 20.016C117.549 20.2613 117.144 20.4533 116.696 20.592C116.259 20.7307 115.773 20.8 115.24 20.8C114.504 20.8 113.821 20.6133 113.192 20.24C112.563 19.8667 112.051 19.3493 111.656 18.688C111.272 18.0267 111.08 17.264 111.08 16.4ZM120.513 18.32C120.513 19.056 120.678 19.7173 121.009 20.304C121.35 20.88 121.809 21.3333 122.385 21.664C122.961 21.9947 123.606 22.16 124.321 22.16C125.046 22.16 125.692 21.9947 126.257 21.664C126.833 21.3333 127.286 20.88 127.617 20.304C127.958 19.7173 128.129 19.056 128.129 18.32C128.129 17.5733 127.958 16.912 127.617 16.336C127.286 15.76 126.833 15.3067 126.257 14.976C125.692 14.6453 125.046 14.48 124.321 14.48C123.606 14.48 122.961 14.6453 122.385 14.976C121.809 15.3067 121.35 15.76 121.009 16.336C120.678 16.912 120.513 17.5733 120.513 18.32ZM121.809 18.32C121.809 17.808 121.916 17.3547 122.129 16.96C122.353 16.5547 122.652 16.24 123.025 16.016C123.409 15.792 123.841 15.68 124.321 15.68C124.801 15.68 125.228 15.792 125.601 16.016C125.985 16.24 126.284 16.5547 126.497 16.96C126.721 17.3547 126.833 17.808 126.833 18.32C126.833 18.832 126.721 19.2853 126.497 19.68C126.284 20.0747 125.985 20.3893 125.601 20.624C125.228 20.848 124.801 20.96 124.321 20.96C123.841 20.96 123.409 20.848 123.025 20.624C122.652 20.3893 122.353 20.0747 122.129 19.68C121.916 19.2853 121.809 18.832 121.809 18.32ZM139.968 17.36C139.968 16.752 139.872 16.2347 139.68 15.808C139.498 15.3707 139.232 15.04 138.88 14.816C138.528 14.592 138.101 14.48 137.6 14.48C137.109 14.48 136.672 14.5973 136.288 14.832C135.904 15.056 135.584 15.3973 135.328 15.856C135.157 15.4187 134.885 15.0827 134.512 14.848C134.149 14.6027 133.712 14.48 133.2 14.48C132.741 14.48 132.341 14.5813 132 14.784C131.669 14.9867 131.392 15.296 131.168 15.712V14.64H129.888V22H131.168V17.52C131.168 17.136 131.237 16.8053 131.376 16.528C131.514 16.2507 131.712 16.0427 131.968 15.904C132.224 15.7547 132.528 15.68 132.88 15.68C133.36 15.68 133.712 15.8293 133.936 16.128C134.17 16.4267 134.288 16.8907 134.288 17.52V22H135.568V17.52C135.568 17.136 135.637 16.8053 135.776 16.528C135.914 16.2507 136.112 16.0427 136.368 15.904C136.624 15.7547 136.928 15.68 137.28 15.68C137.76 15.68 138.112 15.8293 138.336 16.128C138.57 16.4267 138.688 16.8907 138.688 17.52V22H139.968V17.36ZM143.572 25.52V14.64H142.292V25.52H143.572ZM149.732 18.32C149.732 17.52 149.567 16.8373 149.236 16.272C148.905 15.696 148.463 15.2533 147.908 14.944C147.364 14.6347 146.756 14.48 146.084 14.48C145.476 14.48 144.937 14.6347 144.468 14.944C144.009 15.2533 143.647 15.696 143.38 16.272C143.124 16.8373 142.996 17.52 142.996 18.32C142.996 19.1093 143.124 19.792 143.38 20.368C143.647 20.944 144.009 21.3867 144.468 21.696C144.937 22.0053 145.476 22.16 146.084 22.16C146.756 22.16 147.364 22.0053 147.908 21.696C148.463 21.3867 148.905 20.944 149.236 20.368C149.567 19.792 149.732 19.1093 149.732 18.32ZM148.436 18.32C148.436 18.8853 148.319 19.3653 148.084 19.76C147.86 20.1547 147.556 20.4533 147.172 20.656C146.799 20.8587 146.383 20.96 145.924 20.96C145.551 20.96 145.183 20.8587 144.82 20.656C144.457 20.4533 144.159 20.1547 143.924 19.76C143.689 19.3653 143.572 18.8853 143.572 18.32C143.572 17.7547 143.689 17.2747 143.924 16.88C144.159 16.4853 144.457 16.1867 144.82 15.984C145.183 15.7813 145.551 15.68 145.924 15.68C146.383 15.68 146.799 15.7813 147.172 15.984C147.556 16.1867 147.86 16.4853 148.084 16.88C148.319 17.2747 148.436 17.7547 148.436 18.32ZM151.497 9.52V22H152.777V9.52H151.497ZM158.032 22.16C158.822 22.16 159.504 22.0053 160.08 21.696C160.667 21.376 161.152 20.9067 161.536 20.288L160.496 19.632C160.23 20.08 159.904 20.416 159.52 20.64C159.136 20.8533 158.694 20.96 158.192 20.96C157.691 20.96 157.264 20.8533 156.912 20.64C156.56 20.4267 156.294 20.1173 156.112 19.712C155.931 19.3067 155.84 18.816 155.84 18.24C155.851 17.6747 155.947 17.2 156.128 16.816C156.32 16.4213 156.587 16.1227 156.928 15.92C157.28 15.7067 157.702 15.6 158.192 15.6C158.608 15.6 158.971 15.6907 159.28 15.872C159.59 16.0533 159.83 16.304 160 16.624C160.182 16.944 160.272 17.3227 160.272 17.76C160.272 17.8347 160.256 17.9307 160.224 18.048C160.192 18.1547 160.16 18.2347 160.128 18.288L160.64 17.552H155.36V18.64H161.648C161.648 18.6187 161.648 18.5707 161.648 18.496C161.659 18.4107 161.664 18.3307 161.664 18.256C161.664 17.4773 161.526 16.8053 161.248 16.24C160.971 15.6747 160.571 15.2427 160.048 14.944C159.536 14.6347 158.918 14.48 158.192 14.48C157.467 14.48 156.827 14.64 156.272 14.96C155.728 15.28 155.302 15.728 154.992 16.304C154.694 16.88 154.544 17.552 154.544 18.32C154.544 19.0773 154.688 19.744 154.976 20.32C155.275 20.896 155.686 21.3493 156.208 21.68C156.742 22 157.35 22.16 158.032 22.16ZM162.299 14.64V15.84H165.979V14.64H162.299ZM163.499 12.08V22H164.779V12.08H163.499ZM170.111 22.16C170.9 22.16 171.583 22.0053 172.159 21.696C172.745 21.376 173.231 20.9067 173.615 20.288L172.575 19.632C172.308 20.08 171.983 20.416 171.599 20.64C171.215 20.8533 170.772 20.96 170.271 20.96C169.769 20.96 169.343 20.8533 168.991 20.64C168.639 20.4267 168.372 20.1173 168.191 19.712C168.009 19.3067 167.919 18.816 167.919 18.24C167.929 17.6747 168.025 17.2 168.207 16.816C168.399 16.4213 168.665 16.1227 169.007 15.92C169.359 15.7067 169.78 15.6 170.271 15.6C170.687 15.6 171.049 15.6907 171.359 15.872C171.668 16.0533 171.908 16.304 172.079 16.624C172.26 16.944 172.351 17.3227 172.351 17.76C172.351 17.8347 172.335 17.9307 172.303 18.048C172.271 18.1547 172.239 18.2347 172.207 18.288L172.719 17.552H167.439V18.64H173.727C173.727 18.6187 173.727 18.5707 173.727 18.496C173.737 18.4107 173.743 18.3307 173.743 18.256C173.743 17.4773 173.604 16.8053 173.327 16.24C173.049 15.6747 172.649 15.2427 172.127 14.944C171.615 14.6347 170.996 14.48 170.271 14.48C169.545 14.48 168.905 14.64 168.351 14.96C167.807 15.28 167.38 15.728 167.071 16.304C166.772 16.88 166.623 17.552 166.623 18.32C166.623 19.0773 166.767 19.744 167.055 20.32C167.353 20.896 167.764 21.3493 168.287 21.68C168.82 22 169.428 22.16 170.111 22.16ZM181.017 9.52V22H182.297V9.52H181.017ZM174.857 18.32C174.857 19.1093 175.022 19.792 175.353 20.368C175.684 20.944 176.126 21.3867 176.681 21.696C177.236 22.0053 177.844 22.16 178.505 22.16C179.124 22.16 179.662 22.0053 180.121 21.696C180.58 21.3867 180.937 20.944 181.193 20.368C181.46 19.792 181.593 19.1093 181.593 18.32C181.593 17.52 181.46 16.8373 181.193 16.272C180.937 15.696 180.58 15.2533 180.121 14.944C179.662 14.6347 179.124 14.48 178.505 14.48C177.844 14.48 177.236 14.6347 176.681 14.944C176.126 15.2533 175.684 15.696 175.353 16.272C175.022 16.8373 174.857 17.52 174.857 18.32ZM176.153 18.32C176.153 17.7547 176.265 17.2747 176.489 16.88C176.724 16.4853 177.033 16.1867 177.417 15.984C177.801 15.7813 178.217 15.68 178.665 15.68C179.038 15.68 179.406 15.7813 179.769 15.984C180.132 16.1867 180.43 16.4853 180.665 16.88C180.9 17.2747 181.017 17.7547 181.017 18.32C181.017 18.8853 180.9 19.3653 180.665 19.76C180.43 20.1547 180.132 20.4533 179.769 20.656C179.406 20.8587 179.038 20.96 178.665 20.96C178.217 20.96 177.801 20.8587 177.417 20.656C177.033 20.4533 176.724 20.1547 176.489 19.76C176.265 19.3653 176.153 18.8853 176.153 18.32Z" fill="#145858"/>
</svg>
