<svg width="80" height="80" viewBox="0 0 80 80" fill="none" xmlns="http://www.w3.org/2000/svg">
<rect width="80" height="80" rx="20" fill="#FDF0D1"/>
<path fill-rule="evenodd" clip-rule="evenodd" d="M30.4326 48.0058C30.1126 48.0058 29.7906 47.9038 29.5186 47.6958C28.8626 47.1898 28.7386 46.2478 29.2446 45.5918L35.2306 37.8118C35.4746 37.4938 35.8366 37.2878 36.2326 37.2378C36.6366 37.1858 37.0326 37.2978 37.3466 37.5478L42.9866 41.9778L47.9206 35.6118C48.4286 34.9538 49.3686 34.8318 50.0246 35.3438C50.6806 35.8518 50.8006 36.7938 50.2926 37.4478L44.4326 45.0078C44.1886 45.3238 43.8286 45.5298 43.4326 45.5778C43.0326 45.6318 42.6366 45.5158 42.3206 45.2698L36.6846 40.8418L31.6226 47.4198C31.3266 47.8038 30.8826 48.0058 30.4326 48.0058Z" fill="#312405"/>
<mask id="mask0_455_1673" style="mask-type:luminance" maskUnits="userSpaceOnUse" x="50" y="20" width="12" height="11">
<path fill-rule="evenodd" clip-rule="evenodd" d="M50.5906 20.0002H61.2786V30.69H50.5906V20.0002Z" fill="white"/>
</mask>
<g mask="url(#mask0_455_1673)">
<path fill-rule="evenodd" clip-rule="evenodd" d="M55.9346 23C54.6426 23 53.5906 24.05 53.5906 25.344C53.5906 26.636 54.6426 27.69 55.9346 27.69C57.2266 27.69 58.2786 26.636 58.2786 25.344C58.2786 24.05 57.2266 23 55.9346 23ZM55.9346 30.69C52.9886 30.69 50.5906 28.292 50.5906 25.344C50.5906 22.396 52.9886 20 55.9346 20C58.8826 20 61.2786 22.396 61.2786 25.344C61.2786 28.292 58.8826 30.69 55.9346 30.69Z" fill="#312405"/>
</g>
<mask id="mask1_455_1673" style="mask-type:luminance" maskUnits="userSpaceOnUse" x="20" y="21" width="40" height="41">
<path fill-rule="evenodd" clip-rule="evenodd" d="M20 21.6842H59.7238V61.4062H20V21.6842Z" fill="white"/>
</mask>
<g mask="url(#mask1_455_1673)">
<path fill-rule="evenodd" clip-rule="evenodd" d="M48.4658 61.4062H31.2578C24.5238 61.4062 19.9998 56.6762 19.9998 49.6362V33.4722C19.9998 26.4222 24.5238 21.6842 31.2578 21.6842H45.7938C46.6218 21.6842 47.2938 22.3562 47.2938 23.1842C47.2938 24.0122 46.6218 24.6842 45.7938 24.6842H31.2578C26.2418 24.6842 22.9998 28.1322 22.9998 33.4722V49.6362C22.9998 55.0462 26.1638 58.4062 31.2578 58.4062H48.4658C53.4818 58.4062 56.7238 54.9642 56.7238 49.6362V35.5582C56.7238 34.7302 57.3958 34.0582 58.2238 34.0582C59.0518 34.0582 59.7238 34.7302 59.7238 35.5582V49.6362C59.7238 56.6762 55.1998 61.4062 48.4658 61.4062Z" fill="#312405"/>
</g>
</svg>
