<svg width="80" height="80" viewBox="0 0 80 80" fill="none" xmlns="http://www.w3.org/2000/svg">
<rect width="80" height="80" rx="20" fill="#D0DEDE"/>
<path fill-rule="evenodd" clip-rule="evenodd" d="M51.7737 40.293C51.0377 40.293 50.3957 39.751 50.2897 39.001C50.1757 38.179 50.7457 37.421 51.5677 37.307C53.6477 37.015 55.2177 35.211 55.2217 33.107C55.2217 31.021 53.7257 29.257 51.6637 28.919C50.8477 28.785 50.2937 28.013 50.4277 27.195C50.5637 26.377 51.3297 25.829 52.1517 25.959C55.6677 26.537 58.2217 29.545 58.2217 33.111C58.2137 36.701 55.5317 39.781 51.9817 40.279C51.9117 40.289 51.8417 40.293 51.7737 40.293Z" fill="#041212"/>
<mask id="mask0_455_1664" style="mask-type:luminance" maskUnits="userSpaceOnUse" x="53" y="44" width="9" height="10">
<path fill-rule="evenodd" clip-rule="evenodd" d="M53.9563 44.0033H61.5442V53.0624H53.9563V44.0033Z" fill="white"/>
</mask>
<g mask="url(#mask0_455_1664)">
<path fill-rule="evenodd" clip-rule="evenodd" d="M57.7228 53.0624C57.1188 53.0624 56.5488 52.6944 56.3208 52.0964C56.0248 51.3224 56.4148 50.4544 57.1888 50.1604C58.5448 49.6444 58.5448 49.0744 58.5448 48.8004C58.5448 47.9244 57.4308 47.3124 55.2348 46.9844C54.4168 46.8604 53.8508 46.0984 53.9728 45.2764C54.0948 44.4564 54.8548 43.9104 55.6808 44.0164C60.5268 44.7424 61.5448 47.0184 61.5448 48.8004C61.5448 49.8884 61.1168 51.8744 58.2568 52.9644C58.0808 53.0304 57.9008 53.0624 57.7228 53.0624Z" fill="#041212"/>
</g>
<path fill-rule="evenodd" clip-rule="evenodd" d="M39.7735 47.828C35.0215 47.828 29.3555 48.412 29.3555 51.192C29.3555 53.994 35.0215 54.582 39.7735 54.582C44.5255 54.582 50.1895 54 50.1895 51.226C50.1895 48.418 44.5255 47.828 39.7735 47.828ZM39.7735 57.582C36.4555 57.582 26.3555 57.582 26.3555 51.192C26.3555 44.828 36.4555 44.828 39.7735 44.828C43.0915 44.828 53.1895 44.828 53.1895 51.226C53.1895 57.582 43.4435 57.582 39.7735 57.582Z" fill="#041212"/>
<path fill-rule="evenodd" clip-rule="evenodd" d="M39.7735 27C36.3895 27 33.6375 29.754 33.6375 33.138C33.6315 34.778 34.2595 36.312 35.4095 37.47C36.5595 38.628 38.0915 39.27 39.7235 39.276L39.7735 40.776V39.276C43.1575 39.276 45.9115 36.524 45.9115 33.138C45.9115 29.754 43.1575 27 39.7735 27ZM39.7735 42.276H39.7195C37.2795 42.268 34.9935 41.312 33.2815 39.584C31.5655 37.858 30.6275 35.566 30.6375 33.132C30.6375 28.1 34.7355 24 39.7735 24C44.8135 24 48.9115 28.1 48.9115 33.138C48.9115 38.176 44.8135 42.276 39.7735 42.276Z" fill="#041212"/>
<path fill-rule="evenodd" clip-rule="evenodd" d="M27.7714 40.293C27.7034 40.293 27.6334 40.289 27.5634 40.279C24.0134 39.781 21.3334 36.701 21.3254 33.115C21.3254 29.545 23.8794 26.537 27.3954 25.959C28.2374 25.827 28.9834 26.381 29.1194 27.195C29.2534 28.013 28.6994 28.785 27.8834 28.919C25.8214 29.257 24.3254 31.021 24.3254 33.111C24.3294 35.211 25.8994 37.017 27.9774 37.307C28.7994 37.421 29.3694 38.179 29.2554 39.001C29.1494 39.751 28.5074 40.293 27.7714 40.293Z" fill="#041212"/>
<path fill-rule="evenodd" clip-rule="evenodd" d="M21.8242 53.0624C21.6462 53.0624 21.4662 53.0304 21.2902 52.9644C18.4282 51.8724 18.0002 49.8864 18.0002 48.8004C18.0002 47.0204 19.0182 44.7424 23.8662 44.0164C24.6922 43.9124 25.4482 44.4564 25.5722 45.2764C25.6942 46.0984 25.1282 46.8604 24.3102 46.9844C22.1142 47.3124 21.0002 47.9244 21.0002 48.8004C21.0002 49.0744 21.0002 49.6424 22.3582 50.1604C23.1322 50.4544 23.5222 51.3224 23.2262 52.0964C22.9982 52.6944 22.4282 53.0624 21.8242 53.0624Z" fill="#041212"/>
</svg>
