<svg width="80" height="80" viewBox="0 0 80 80" fill="none" xmlns="http://www.w3.org/2000/svg">
<rect width="80" height="80" rx="20" fill="#FBDDDD"/>
<path fill-rule="evenodd" clip-rule="evenodd" d="M49.1542 60.7374H31.5062C24.6242 60.7374 20.0002 55.9074 20.0002 48.7194V32.0914C20.0002 24.9034 24.6242 20.0734 31.5062 20.0734H38.9842C39.8122 20.0734 40.4842 20.7454 40.4842 21.5734C40.4842 22.4014 39.8122 23.0734 38.9842 23.0734H31.5062C26.3382 23.0734 23.0002 26.6134 23.0002 32.0914V48.7194C23.0002 54.1974 26.3382 57.7374 31.5062 57.7374H49.1542C54.3222 57.7374 57.6622 54.1974 57.6622 48.7194V40.6634C57.6622 39.8354 58.3342 39.1634 59.1622 39.1634C59.9902 39.1634 60.6622 39.8354 60.6622 40.6634V48.7194C60.6622 55.9074 56.0362 60.7374 49.1542 60.7374Z" fill="#2F1111"/>
<path fill-rule="evenodd" clip-rule="evenodd" d="M33.7355 46.8566H39.6895C40.4495 46.8566 41.1615 46.5626 41.6995 46.0246L56.7175 31.0066C57.3335 30.3906 57.6735 29.5706 57.6735 28.6986C57.6735 27.8246 57.3335 27.0026 56.7175 26.3866L54.2835 23.9526C53.0095 22.6826 50.9375 22.6826 49.6615 23.9526L34.7155 38.8986C34.1975 39.4166 33.9035 40.1046 33.8855 40.8346L33.7355 46.8566ZM39.6895 49.8566H32.1975C31.7935 49.8566 31.4055 49.6926 31.1235 49.4026C30.8415 49.1146 30.6875 48.7246 30.6975 48.3186L30.8855 40.7606C30.9235 39.2566 31.5295 37.8426 32.5935 36.7766H32.5955L47.5415 21.8306C49.9855 19.3906 53.9595 19.3906 56.4035 21.8306L58.8375 24.2646C60.0235 25.4486 60.6755 27.0226 60.6735 28.6986C60.6735 30.3746 60.0215 31.9466 58.8375 33.1286L43.8195 48.1466C42.7175 49.2486 41.2495 49.8566 39.6895 49.8566Z" fill="#2F1111"/>
<path fill-rule="evenodd" clip-rule="evenodd" d="M55.4621 35.8332C55.0781 35.8332 54.6941 35.6872 54.4021 35.3932L45.2701 26.2612C44.6841 25.6752 44.6841 24.7252 45.2701 24.1392C45.8561 23.5532 46.8041 23.5532 47.3901 24.1392L56.5221 33.2732C57.1081 33.8592 57.1081 34.8072 56.5221 35.3932C56.2301 35.6872 55.8461 35.8332 55.4621 35.8332Z" fill="#191C1C"/>
</svg>
