<svg width="80" height="80" viewBox="0 0 80 80" fill="none" xmlns="http://www.w3.org/2000/svg">
<rect width="80" height="80" rx="20" fill="#D4EFDF"/>
<path fill-rule="evenodd" clip-rule="evenodd" d="M33.9647 28.607C33.9007 28.607 33.8367 28.615 33.7727 28.631C27.8327 30.093 23.0007 36.529 23.0007 42.977C23.0007 51.089 29.6007 57.689 37.7147 57.689C45.0287 57.689 51.1407 52.479 52.2487 45.299C52.2567 45.239 52.2847 45.065 52.1207 44.871C51.9647 44.689 51.7167 44.581 51.4567 44.581C48.6347 44.581 46.4807 44.645 44.7987 44.693C40.7267 44.815 39.0427 44.861 37.3787 43.627C34.8707 41.769 34.6587 38.577 34.6587 29.189C34.6587 29.021 34.5867 28.881 34.4427 28.769C34.3087 28.663 34.1387 28.607 33.9647 28.607ZM37.7147 60.689C27.9467 60.689 20.0007 52.743 20.0007 42.977C20.0007 35.233 25.8567 27.489 33.0547 25.717C34.1787 25.443 35.3867 25.699 36.2947 26.407C37.1607 27.087 37.6587 28.101 37.6587 29.189C37.6587 37.959 37.9547 40.319 39.1647 41.217C39.9587 41.803 41.0467 41.797 44.7127 41.695C46.4167 41.645 48.5987 41.581 51.4567 41.581C52.5967 41.581 53.6707 42.069 54.3987 42.919C55.0747 43.709 55.3707 44.741 55.2147 45.757C53.8787 54.407 46.5187 60.689 37.7147 60.689Z" fill="#082313"/>
<mask id="mask0_455_1714" style="mask-type:luminance" maskUnits="userSpaceOnUse" x="40" y="18" width="22" height="21">
<path fill-rule="evenodd" clip-rule="evenodd" d="M40.948 18.001H61.7859V38.5796H40.948V18.001Z" fill="white"/>
</mask>
<g mask="url(#mask0_455_1714)">
<path fill-rule="evenodd" clip-rule="evenodd" d="M44.0215 21.0036C43.8015 26.0416 44.1275 32.5496 44.2795 35.1276C44.2875 35.2816 44.3995 35.3936 44.5515 35.4016C46.6075 35.5196 53.6915 35.8476 58.7855 35.0976C58.7975 32.2896 56.8755 28.4816 53.9815 25.5896C51.0135 22.6256 47.5015 21.0036 44.0655 21.0036H44.0215ZM50.6295 38.5796C48.0095 38.5796 45.7035 38.4736 44.3775 38.3976C42.7095 38.2996 41.3815 36.9696 41.2855 35.3016C41.1295 32.6576 40.7915 25.9396 41.0315 20.7436C41.0975 19.2336 42.3175 18.0316 43.8095 18.0056C48.0835 17.8816 52.4935 19.8656 56.1015 23.4676C59.6175 26.9816 61.8495 31.5996 61.7855 35.2336C61.7615 36.6516 60.7315 37.8356 59.3395 38.0456C56.6235 38.4556 53.4435 38.5796 50.6295 38.5796Z" fill="#082313"/>
</g>
</svg>
