<svg width="78" height="78" viewBox="0 0 78 78" fill="none" xmlns="http://www.w3.org/2000/svg">
<g filter="url(#filter0_d_153_639)">
<rect x="12" y="8" width="54" height="54" rx="27" fill="white" shape-rendering="crispEdges"/>
<mask id="mask0_153_639" style="mask-type:luminance" maskUnits="userSpaceOnUse" x="30" y="24" width="19" height="18">
<path fill-rule="evenodd" clip-rule="evenodd" d="M30 24H48.4969V41.348H30V24Z" fill="white"/>
</mask>
<g mask="url(#mask0_153_639)">
<path fill-rule="evenodd" clip-rule="evenodd" d="M39.247 25.5C35.752 25.5 33.316 28.238 33.316 30.695C33.316 32.774 32.739 33.735 32.229 34.583C31.82 35.264 31.497 35.802 31.497 36.971C31.664 38.857 32.909 39.848 39.247 39.848C45.55 39.848 46.834 38.813 47 36.906C46.997 35.802 46.674 35.264 46.265 34.583C45.755 33.735 45.178 32.774 45.178 30.695C45.178 28.238 42.742 25.5 39.247 25.5ZM39.247 41.348C34.571 41.348 30.345 41.018 30 37.035C29.997 35.387 30.5 34.549 30.944 33.811C31.393 33.063 31.816 32.358 31.816 30.695C31.816 27.462 34.802 24 39.247 24C43.692 24 46.678 27.462 46.678 30.695C46.678 32.358 47.101 33.063 47.55 33.811C47.994 34.549 48.497 35.387 48.497 36.971C48.148 41.018 43.923 41.348 39.247 41.348Z" fill="#0A2C2C"/>
</g>
<path fill-rule="evenodd" clip-rule="evenodd" d="M39.1983 45.5H39.1963C38.0753 45.499 37.0143 45.005 36.2093 44.108C35.9323 43.801 35.9573 43.326 36.2653 43.05C36.5733 42.772 37.0473 42.797 37.3243 43.106C37.8423 43.683 38.5073 44 39.1973 44H39.1983C39.8913 44 40.5593 43.683 41.0783 43.105C41.3563 42.798 41.8303 42.773 42.1373 43.05C42.4453 43.327 42.4703 43.802 42.1933 44.109C41.3853 45.006 40.3223 45.5 39.1983 45.5Z" fill="#0A2C2C"/>
</g>
<defs>
<filter id="filter0_d_153_639" x="0" y="0" width="78" height="78" filterUnits="userSpaceOnUse" color-interpolation-filters="sRGB">
<feFlood flood-opacity="0" result="BackgroundImageFix"/>
<feColorMatrix in="SourceAlpha" type="matrix" values="0 0 0 0 0 0 0 0 0 0 0 0 0 0 0 0 0 0 127 0" result="hardAlpha"/>
<feOffset dy="4"/>
<feGaussianBlur stdDeviation="6"/>
<feComposite in2="hardAlpha" operator="out"/>
<feColorMatrix type="matrix" values="0 0 0 0 0.0784314 0 0 0 0 0.0862745 0 0 0 0 0.0862745 0 0 0 0.12 0"/>
<feBlend mode="normal" in2="BackgroundImageFix" result="effect1_dropShadow_153_639"/>
<feBlend mode="normal" in="SourceGraphic" in2="effect1_dropShadow_153_639" result="shape"/>
</filter>
</defs>
</svg>
