<svg width="42" height="42" viewBox="0 0 42 42" fill="none" xmlns="http://www.w3.org/2000/svg">
<path d="M20.7131 9.85843C21.7282 9.85643 22.7177 9.53975 23.5453 8.95201C24.373 8.36427 24.998 7.53438 25.3344 6.57664C28.9551 7.5616 32.1524 9.70808 34.4349 12.6863C36.7174 15.6646 37.959 19.3099 37.9688 23.0621C37.9688 23.3159 38.0696 23.5593 38.2491 23.7387C38.4285 23.9181 38.6719 24.0189 38.9256 24.0189C39.1794 24.0189 39.4227 23.9181 39.6022 23.7387C39.7816 23.5593 39.8824 23.3159 39.8824 23.0621C39.8708 18.8487 38.463 14.758 35.8792 11.4297C33.2954 8.10152 29.6814 5.72357 25.6023 4.66784C25.5462 3.71163 25.2113 2.79277 24.639 2.02474C24.0666 1.2567 23.2818 0.673118 22.3815 0.34605C21.4812 0.0189817 20.5049 -0.0372493 19.573 0.1843C18.6411 0.40585 17.7945 0.895479 17.1378 1.59273C16.481 2.28997 16.0428 3.16431 15.8773 4.10776C15.7119 5.05122 15.8263 6.02248 16.2066 6.90162C16.5869 7.78076 17.2163 8.52927 18.0172 9.05473C18.818 9.58019 19.7553 9.8596 20.7131 9.85843ZM20.7131 1.96491C21.3045 1.96491 21.8826 2.14027 22.3743 2.46881C22.866 2.79735 23.2492 3.26432 23.4755 3.81067C23.7018 4.35701 23.761 4.9582 23.6456 5.5382C23.5303 6.11819 23.2455 6.65096 22.8273 7.06911C22.4092 7.48727 21.8764 7.77203 21.2964 7.8874C20.7164 8.00277 20.1152 7.94356 19.5689 7.71725C19.0226 7.49095 18.5556 7.10772 18.227 6.61602C17.8985 6.12432 17.7231 5.54624 17.7231 4.95488C17.7231 4.16145 18.038 3.40045 18.5986 2.83896C19.1592 2.27747 19.9197 1.96139 20.7131 1.96013V1.96491ZM6.57175 27.5351C5.86305 27.3454 5.12073 27.3176 4.39983 27.4538C3.4219 23.7948 3.69047 19.9143 5.16316 16.4249C6.63584 12.9355 9.22875 10.036 12.5326 8.18405C12.7533 8.05717 12.9146 7.84779 12.981 7.60197C13.0474 7.35614 13.0134 7.09402 12.8866 6.87325C12.7597 6.65248 12.5503 6.49116 12.3045 6.42476C12.0587 6.35837 11.7965 6.39236 11.5758 6.51923C7.87424 8.60868 4.97946 11.878 3.35357 15.8053C1.72768 19.7326 1.46443 24.0914 2.60585 28.1858C1.8162 28.7055 1.19381 29.4426 0.813741 30.3082C0.433676 31.1738 0.312175 32.1308 0.463897 33.0639C0.615619 33.997 1.03408 34.8663 1.6688 35.5668C2.30353 36.2674 3.1274 36.7694 4.04103 37.0122C4.45766 37.1235 4.88709 37.1798 5.31835 37.1796C6.50955 37.1798 7.66011 36.7464 8.55512 35.9603C9.45014 35.1743 10.0284 34.0893 10.1819 32.908C10.3354 31.7267 10.0537 30.53 9.38935 29.5412C8.72499 28.5525 7.72344 27.8394 6.57175 27.5351ZM8.19351 33.0463C8.06847 33.5225 7.82777 33.9604 7.49279 34.3212C7.15781 34.682 6.73892 34.9546 6.2733 35.1146C5.80769 35.2746 5.30977 35.3171 4.82376 35.2385C4.33774 35.1598 3.87868 34.9623 3.48733 34.6636C3.09598 34.3648 2.78446 33.9741 2.58043 33.526C2.37639 33.0779 2.28617 32.5864 2.31776 32.0951C2.34935 31.6037 2.50177 31.1278 2.76151 30.7096C3.02124 30.2913 3.38024 29.9437 3.80662 29.6975C4.31765 29.4025 4.90455 29.2652 5.49341 29.3031C6.08227 29.341 6.64677 29.5522 7.1158 29.9103C7.58484 30.2683 7.93745 30.7571 8.12923 31.3152C8.321 31.8732 8.34337 32.4755 8.19351 33.0463ZM41.4085 30.6878C41.2166 29.9778 40.8675 29.3201 40.3871 28.7634C39.9066 28.2066 39.307 27.765 38.6328 27.4714C37.9585 27.1777 37.2269 27.0395 36.4919 27.0669C35.757 27.0943 35.0377 27.2867 34.3872 27.6298C33.7367 27.9729 33.1717 28.4579 32.7341 29.0489C32.2964 29.6399 31.9973 30.3218 31.8589 31.0441C31.7204 31.7663 31.7462 32.5105 31.9344 33.2214C32.1225 33.9324 32.4681 34.5919 32.9457 35.1512C30.2027 37.8861 26.6115 39.6073 22.7614 40.0324C18.9113 40.4575 15.0311 39.5612 11.7576 37.4906C11.5431 37.3548 11.2836 37.3098 11.0359 37.3654C10.7883 37.421 10.5729 37.5727 10.4372 37.7872C10.3014 38.0016 10.2564 38.2612 10.312 38.5088C10.3676 38.7564 10.5194 38.9718 10.7338 39.1075C14.4089 41.4341 18.7715 42.428 23.0917 41.9229C27.4119 41.4178 31.4277 39.4444 34.467 36.3328C35.1452 36.6808 35.8958 36.8643 36.658 36.8686C37.4115 36.8694 38.1551 36.6967 38.8311 36.3639C39.5072 36.0311 40.0975 35.5471 40.5564 34.9495C41.0152 34.3518 41.3304 33.6565 41.4773 32.9175C41.6243 32.1785 41.5991 31.4155 41.4037 30.6878H41.4085ZM39.2605 33.4529C38.914 34.0516 38.3705 34.5117 37.7228 34.7546C37.0751 34.9976 36.3632 35.0084 35.7084 34.7853C35.0535 34.5622 34.4964 34.1189 34.1317 33.531C33.7671 32.9431 33.6177 32.2469 33.7088 31.5612C33.8 30.8754 34.1261 30.2425 34.6316 29.7702C35.1371 29.298 35.7907 29.0156 36.4811 28.9713C37.1715 28.927 37.8558 29.1234 38.4176 29.5271C38.9794 29.9308 39.3838 30.5168 39.5619 31.1853C39.7654 31.9513 39.6571 32.7667 39.2605 33.4529Z" fill="url(#paint0_linear_145_674)"/>
<defs>
<linearGradient id="paint0_linear_145_674" x1="-1.14733" y1="1.18663" x2="36.1664" y2="18.5863" gradientUnits="userSpaceOnUse">
<stop offset="0.310417" stop-color="#145858"/>
<stop offset="1" stop-color="#F7B318"/>
</linearGradient>
</defs>
</svg>
