<svg width="251" height="42" viewBox="0 0 251 42" fill="none" xmlns="http://www.w3.org/2000/svg">
<g clip-path="url(#clip0_145_670)">
<path d="M56.6215 8.91291C59.6626 8.91291 61.9959 9.45245 63.6215 10.5315C65.2611 11.5966 66.081 13.3483 66.081 15.7868C66.081 18.2392 65.2541 20.005 63.6005 21.0841C61.9468 22.1772 59.5925 22.7237 56.5374 22.7237H55.087V29.5556H50.5044V9.45946C51.4994 9.26326 52.5574 9.12312 53.6786 9.03904C54.7997 8.95495 55.7807 8.91291 56.6215 8.91291ZM56.9158 12.8438C56.5795 12.8438 56.2501 12.8509 55.9278 12.8649C55.6055 12.8789 55.3252 12.8999 55.087 12.9279V18.8138H56.5374C58.121 18.8138 59.3192 18.5966 60.132 18.1622C60.9308 17.7277 61.3302 16.9219 61.3302 15.7447C61.3302 15.1842 61.2321 14.7147 61.0359 14.3363C60.8257 13.958 60.5314 13.6567 60.153 13.4324C59.7606 13.2082 59.2912 13.0541 58.7446 12.97C58.1981 12.8859 57.5885 12.8438 56.9158 12.8438ZM79.2191 14.3363L78.4834 17.952C78.091 17.8539 77.6355 17.7487 77.117 17.6366C76.5845 17.5385 76.0099 17.4895 75.3933 17.4895C75.127 17.4895 74.8047 17.5105 74.4263 17.5526C74.0339 17.6086 73.7396 17.6647 73.5434 17.7207V29.5556H69.1711V14.9039C69.9558 14.6236 70.8808 14.3644 71.9458 14.1261C73.0109 13.8739 74.2021 13.7477 75.5194 13.7477C75.7576 13.7477 76.0449 13.7618 76.3813 13.7898C76.7036 13.8178 77.0329 13.8599 77.3693 13.9159C77.7056 13.958 78.0419 14.014 78.3783 14.0841C78.7146 14.1542 78.9949 14.2382 79.2191 14.3363ZM96.0569 21.7778C96.0569 22.997 95.8818 24.1111 95.5314 25.1201C95.1811 26.1291 94.6696 26.991 93.9969 27.7057C93.3382 28.4204 92.5394 28.974 91.6005 29.3664C90.6756 29.7588 89.6315 29.955 88.4684 29.955C87.3332 29.955 86.2962 29.7588 85.3572 29.3664C84.4323 28.974 83.6335 28.4204 82.9608 27.7057C82.3022 26.991 81.7837 26.1291 81.4053 25.1201C81.0269 24.1111 80.8377 22.997 80.8377 21.7778C80.8377 20.5586 81.0339 19.4515 81.4263 18.4565C81.8047 17.4615 82.3302 16.6066 83.0029 15.8919C83.6896 15.1912 84.4954 14.6446 85.4203 14.2523C86.3592 13.8599 87.3753 13.6637 88.4684 13.6637C89.5895 13.6637 90.6125 13.8599 91.5374 14.2523C92.4764 14.6446 93.2752 15.1912 93.9338 15.8919C94.6065 16.6066 95.132 17.4615 95.5104 18.4565C95.8748 19.4515 96.0569 20.5586 96.0569 21.7778ZM91.5795 21.7778C91.5795 20.4324 91.3132 19.3674 90.7807 18.5826C90.2341 17.8118 89.4633 17.4264 88.4684 17.4264C87.4734 17.4264 86.6956 17.8118 86.135 18.5826C85.5885 19.3674 85.3152 20.4324 85.3152 21.7778C85.3152 23.1371 85.5885 24.2092 86.135 24.994C86.6956 25.7928 87.4734 26.1922 88.4684 26.1922C89.4633 26.1922 90.2341 25.7928 90.7807 24.994C91.3132 24.2092 91.5795 23.1371 91.5795 21.7778ZM98.0119 35C97.7316 35 97.3182 34.972 96.7717 34.9159C96.2391 34.8458 95.7346 34.7337 95.2581 34.5796L95.8467 31.027C96.141 31.1251 96.4143 31.1952 96.6665 31.2372C96.9048 31.2653 97.2131 31.2793 97.5915 31.2793C98.2782 31.2793 98.7616 31.0761 99.0419 30.6697C99.3082 30.2633 99.4413 29.6677 99.4413 28.8829V14.0631H103.835V28.988C103.835 31.034 103.33 32.5475 102.321 33.5285C101.326 34.5095 99.8898 35 98.0119 35ZM104.234 9.60661C104.234 10.4054 103.975 11.036 103.456 11.4985C102.938 11.961 102.328 12.1922 101.628 12.1922C100.913 12.1922 100.296 11.961 99.7777 11.4985C99.2591 11.036 98.9999 10.4054 98.9999 9.60661C98.9999 8.79379 99.2591 8.15616 99.7777 7.69369C100.296 7.23123 100.913 7 101.628 7C102.328 7 102.938 7.23123 103.456 7.69369C103.975 8.15616 104.234 8.79379 104.234 9.60661ZM107.219 21.9249C107.219 20.5516 107.429 19.3534 107.85 18.3303C108.27 17.2933 108.824 16.4314 109.51 15.7447C110.197 15.0581 110.989 14.5395 111.886 14.1892C112.769 13.8388 113.687 13.6637 114.64 13.6637C116.826 13.6637 118.556 14.3363 119.832 15.6817C121.107 17.027 121.745 19.003 121.745 21.6096C121.745 21.8619 121.738 22.1421 121.724 22.4505C121.71 22.7447 121.689 23.011 121.661 23.2493H111.718C111.816 24.1602 112.236 24.8749 112.979 25.3934C113.722 25.9259 114.724 26.1922 115.985 26.1922C116.784 26.1922 117.575 26.1221 118.36 25.982C119.131 25.8278 119.762 25.6456 120.252 25.4354L120.841 28.988C120.602 29.1141 120.287 29.2332 119.895 29.3453C119.502 29.4575 119.068 29.5626 118.591 29.6607C118.115 29.7447 117.596 29.8148 117.036 29.8709C116.489 29.9269 115.943 29.955 115.396 29.955C114.009 29.955 112.797 29.7518 111.76 29.3453C110.737 28.9389 109.882 28.3714 109.195 27.6426C108.522 26.9279 108.025 26.0801 107.703 25.0991C107.38 24.1181 107.219 23.0601 107.219 21.9249ZM111.718 20.2432H117.519C117.491 19.8789 117.428 19.5215 117.33 19.1712C117.218 18.8068 117.05 18.4915 116.826 18.2252C116.601 17.9449 116.314 17.7207 115.964 17.5526C115.628 17.3704 115.2 17.2793 114.682 17.2793C114.191 17.2793 113.771 17.3634 113.42 17.5315C113.07 17.6997 112.776 17.9169 112.537 18.1832C112.299 18.4635 112.117 18.7858 111.991 19.1502C111.865 19.5145 111.774 19.8789 111.718 20.2432ZM124.393 21.8198C124.393 20.6987 124.575 19.6406 124.94 18.6456C125.304 17.6507 125.83 16.7888 126.516 16.0601C127.203 15.3173 128.037 14.7357 129.018 14.3153C129.999 13.8809 131.12 13.6637 132.381 13.6637C133.208 13.6637 133.965 13.7337 134.652 13.8739C135.338 14.028 136.004 14.2382 136.649 14.5045L135.724 18.015C135.317 17.8609 134.869 17.7207 134.378 17.5946C133.888 17.4825 133.341 17.4264 132.739 17.4264C131.435 17.4264 130.468 17.8258 129.838 18.6246C129.193 19.4374 128.871 20.5025 128.871 21.8198C128.871 23.2072 129.172 24.2863 129.775 25.0571C130.377 25.8138 131.421 26.1922 132.907 26.1922C133.439 26.1922 134.007 26.1431 134.609 26.045C135.226 25.9469 135.787 25.7928 136.291 25.5826L136.901 29.1772C136.396 29.3874 135.759 29.5696 134.988 29.7237C134.231 29.8779 133.39 29.955 132.465 29.955C131.05 29.955 129.831 29.7447 128.808 29.3243C127.799 28.9039 126.965 28.3293 126.306 27.6006C125.648 26.8859 125.164 26.031 124.856 25.036C124.547 24.041 124.393 22.969 124.393 21.8198ZM139.697 23.2282V10.2162L144.09 9.5015V14.0631H149.366V17.7207H144.09V23.1652C144.09 24.0901 144.251 24.8258 144.573 25.3724C144.896 25.9189 145.547 26.1922 146.528 26.1922C147.005 26.1922 147.488 26.1502 147.979 26.0661C148.483 25.982 148.946 25.8559 149.366 25.6877L149.976 29.1141C149.443 29.3243 148.855 29.5065 148.21 29.6607C147.565 29.8288 146.774 29.9129 145.835 29.9129C144.63 29.9129 143.635 29.7447 142.85 29.4084C142.065 29.0861 141.441 28.6376 140.979 28.0631C140.502 27.4885 140.173 26.7878 139.991 25.961C139.795 25.1341 139.697 24.2232 139.697 23.2282ZM154.243 9.16516H158.637C158.987 9.80981 159.393 10.6086 159.856 11.5616C160.318 12.5145 160.795 13.5445 161.285 14.6517C161.79 15.7588 162.287 16.8869 162.778 18.036C163.268 19.1992 163.731 20.2923 164.165 21.3153C164.599 20.2923 165.062 19.1992 165.552 18.036C166.043 16.8869 166.533 15.7588 167.024 14.6517C167.528 13.5445 168.012 12.5145 168.474 11.5616C168.937 10.6086 169.343 9.80981 169.694 9.16516H173.877C174.073 10.5105 174.255 12.024 174.423 13.7057C174.591 15.3874 174.739 17.1321 174.865 18.9399C174.991 20.7618 175.11 22.5836 175.222 24.4054C175.32 26.2272 175.411 27.9439 175.495 29.5556H171.018C170.962 27.5656 170.885 25.4074 170.787 23.0811C170.689 20.7407 170.541 18.3864 170.345 16.018C169.995 16.8448 169.602 17.7558 169.168 18.7508C168.734 19.7457 168.306 20.7477 167.886 21.7568C167.465 22.7518 167.059 23.7047 166.667 24.6156C166.274 25.5265 165.938 26.3113 165.658 26.97H162.462C162.182 26.3113 161.846 25.5265 161.453 24.6156C161.061 23.7047 160.655 22.7518 160.234 21.7568C159.814 20.7477 159.386 19.7457 158.952 18.7508C158.517 17.7558 158.125 16.8448 157.775 16.018C157.578 18.3864 157.431 20.7407 157.333 23.0811C157.235 25.4074 157.158 27.5656 157.102 29.5556H152.625C152.709 27.9439 152.8 26.2272 152.898 24.4054C153.01 22.5836 153.129 20.7618 153.255 18.9399C153.381 17.1321 153.528 15.3874 153.697 13.7057C153.865 12.024 154.047 10.5105 154.243 9.16516ZM185.228 26.4865C185.663 26.4865 186.076 26.4795 186.468 26.4655C186.861 26.4374 187.176 26.4094 187.414 26.3814V23.039C187.232 23.011 186.966 22.976 186.615 22.9339C186.265 22.8919 185.943 22.8709 185.649 22.8709C185.228 22.8709 184.843 22.8919 184.492 22.9339C184.128 22.99 183.806 23.0881 183.525 23.2282C183.245 23.3684 183.028 23.5506 182.874 23.7748C182.72 24.013 182.643 24.3073 182.643 24.6577C182.643 25.3443 182.874 25.8208 183.336 26.0871C183.799 26.3534 184.429 26.4865 185.228 26.4865ZM184.871 13.6637C186.174 13.6637 187.253 13.8108 188.108 14.1051C188.977 14.3994 189.671 14.8198 190.189 15.3664C190.708 15.9129 191.079 16.5786 191.303 17.3634C191.513 18.1481 191.618 19.024 191.618 19.991V29.1141C190.988 29.2543 190.112 29.4154 188.991 29.5976C187.884 29.7798 186.531 29.8709 184.934 29.8709C183.939 29.8709 183.035 29.7868 182.222 29.6186C181.409 29.4364 180.709 29.1421 180.12 28.7357C179.531 28.3433 179.076 27.8178 178.754 27.1592C178.445 26.5145 178.291 25.7227 178.291 24.7838C178.291 23.8869 178.473 23.1231 178.838 22.4925C179.202 21.8619 179.686 21.3574 180.288 20.979C180.891 20.6146 181.584 20.3483 182.369 20.1802C183.154 20.012 183.974 19.9279 184.829 19.9279C185.389 19.9279 185.894 19.9489 186.342 19.991C186.777 20.047 187.134 20.1171 187.414 20.2012V19.7808C187.414 19.038 187.19 18.4424 186.742 17.994C186.279 17.5315 185.494 17.3003 184.387 17.3003C183.63 17.3003 182.895 17.3564 182.18 17.4685C181.451 17.5806 180.821 17.7347 180.288 17.9309L179.721 14.3994C179.987 14.3153 180.309 14.2312 180.688 14.1471C181.066 14.0631 181.479 13.986 181.928 13.9159C182.39 13.8458 182.867 13.7828 183.357 13.7267C183.862 13.6847 184.366 13.6637 184.871 13.6637ZM200.027 26.4024C200.84 26.4024 201.414 26.3253 201.751 26.1712C202.073 26.017 202.234 25.7087 202.234 25.2462C202.234 24.8959 202.024 24.5876 201.603 24.3213C201.169 24.0551 200.51 23.7608 199.627 23.4384C198.941 23.1722 198.317 22.9059 197.757 22.6396C197.196 22.3594 196.72 22.03 196.327 21.6517C195.935 21.2733 195.633 20.8178 195.423 20.2853C195.199 19.7528 195.087 19.1151 195.087 18.3724C195.087 16.9149 195.626 15.7658 196.706 14.9249C197.785 14.0841 199.27 13.6637 201.162 13.6637C202.101 13.6637 202.998 13.7477 203.853 13.9159C204.722 14.0841 205.408 14.2663 205.913 14.4625L205.156 17.8679C204.652 17.6857 204.098 17.5315 203.495 17.4054C202.893 17.2653 202.22 17.1952 201.477 17.1952C200.104 17.1952 199.417 17.5736 199.417 18.3303C199.417 18.5125 199.445 18.6737 199.501 18.8138C199.557 18.954 199.677 19.0871 199.859 19.2132C200.041 19.3393 200.279 19.4725 200.573 19.6126C200.882 19.7668 201.274 19.9279 201.751 20.0961C202.704 20.4605 203.495 20.8108 204.126 21.1471C204.757 21.4975 205.254 21.8689 205.618 22.2613C205.983 22.6677 206.235 23.1161 206.375 23.6066C206.529 24.0971 206.606 24.6647 206.606 25.3093C206.606 26.8368 206.032 27.993 204.883 28.7778C203.734 29.5626 202.108 29.955 200.006 29.955C198.632 29.955 197.49 29.8428 196.579 29.6186C195.669 29.3804 195.038 29.1842 194.688 29.03L195.423 25.4565C196.166 25.7508 196.93 25.982 197.715 26.1502C198.499 26.3183 199.27 26.4024 200.027 26.4024ZM209.718 23.2282V10.2162L214.111 9.5015V14.0631H219.366V17.7207H214.111V23.1652C214.111 24.0901 214.272 24.8258 214.594 25.3724C214.917 25.9189 215.568 26.1922 216.549 26.1922C217.012 26.1922 217.495 26.1502 218 26.0661C218.504 25.982 218.96 25.8559 219.366 25.6877L219.997 29.1141C219.464 29.3243 218.876 29.5065 218.231 29.6607C217.572 29.8288 216.774 29.9129 215.835 29.9129C214.643 29.9129 213.656 29.7447 212.871 29.4084C212.086 29.0861 211.455 28.6376 210.979 28.0631C210.516 27.4885 210.187 26.7878 209.991 25.961C209.809 25.1341 209.718 24.2232 209.718 23.2282ZM222.204 21.9249C222.204 20.5516 222.414 19.3534 222.835 18.3303C223.255 17.2933 223.809 16.4314 224.495 15.7447C225.182 15.0581 225.974 14.5395 226.871 14.1892C227.754 13.8388 228.665 13.6637 229.603 13.6637C231.804 13.6637 233.541 14.3363 234.817 15.6817C236.092 17.027 236.73 19.003 236.73 21.6096C236.73 21.8619 236.723 22.1421 236.709 22.4505C236.681 22.7447 236.66 23.011 236.645 23.2493H226.703C226.801 24.1602 227.221 24.8749 227.964 25.3934C228.707 25.9259 229.709 26.1922 230.97 26.1922C231.769 26.1922 232.553 26.1221 233.324 25.982C234.109 25.8278 234.747 25.6456 235.237 25.4354L235.826 28.988C235.587 29.1141 235.272 29.2332 234.88 29.3453C234.487 29.4575 234.053 29.5626 233.576 29.6607C233.086 29.7447 232.567 29.8148 232.021 29.8709C231.474 29.9269 230.928 29.955 230.381 29.955C228.98 29.955 227.768 29.7518 226.745 29.3453C225.708 28.9389 224.853 28.3714 224.18 27.6426C223.507 26.9279 223.01 26.0801 222.688 25.0991C222.365 24.1181 222.204 23.0601 222.204 21.9249ZM226.703 20.2432H232.504C232.476 19.8789 232.406 19.5215 232.294 19.1712C232.196 18.8068 232.035 18.4915 231.811 18.2252C231.586 17.9449 231.299 17.7207 230.949 17.5526C230.612 17.3704 230.185 17.2793 229.667 17.2793C229.176 17.2793 228.756 17.3634 228.405 17.5315C228.055 17.6997 227.761 17.9169 227.522 18.1832C227.284 18.4635 227.102 18.7858 226.976 19.1502C226.85 19.5145 226.759 19.8789 226.703 20.2432ZM250.183 14.3363L249.447 17.952C249.055 17.8539 248.592 17.7487 248.06 17.6366C247.527 17.5385 246.96 17.4895 246.357 17.4895C246.077 17.4895 245.748 17.5105 245.369 17.5526C244.991 17.6086 244.704 17.6647 244.507 17.7207V29.5556H240.114V14.9039C240.899 14.6236 241.824 14.3644 242.889 14.1261C243.968 13.8739 245.166 13.7477 246.483 13.7477C246.708 13.7477 246.988 13.7618 247.324 13.7898C247.661 13.8178 247.997 13.8599 248.333 13.9159C248.67 13.958 248.999 14.014 249.321 14.0841C249.658 14.1542 249.945 14.2382 250.183 14.3363Z" fill="#0F1111"/>
<path d="M20.7131 9.85843C21.7282 9.85643 22.7177 9.53975 23.5453 8.95201C24.373 8.36427 24.998 7.53438 25.3344 6.57664C28.9551 7.5616 32.1524 9.70808 34.4349 12.6863C36.7174 15.6646 37.959 19.3098 37.9688 23.0621C37.9688 23.3159 38.0696 23.5593 38.2491 23.7387C38.4285 23.9181 38.6719 24.0189 38.9256 24.0189C39.1794 24.0189 39.4227 23.9181 39.6022 23.7387C39.7816 23.5593 39.8824 23.3159 39.8824 23.0621C39.8708 18.8487 38.463 14.758 35.8792 11.4297C33.2954 8.10152 29.6814 5.72357 25.6023 4.66784C25.5462 3.71163 25.2113 2.79277 24.639 2.02474C24.0666 1.2567 23.2818 0.673118 22.3815 0.34605C21.4812 0.0189817 20.5049 -0.0372493 19.573 0.1843C18.6411 0.40585 17.7945 0.895479 17.1378 1.59273C16.481 2.28997 16.0428 3.16431 15.8773 4.10776C15.7119 5.05122 15.8263 6.02248 16.2066 6.90162C16.5869 7.78076 17.2163 8.52927 18.0172 9.05473C18.818 9.58019 19.7553 9.8596 20.7131 9.85843V9.85843ZM20.7131 1.96491C21.3045 1.96491 21.8826 2.14027 22.3743 2.46881C22.866 2.79735 23.2492 3.26432 23.4755 3.81067C23.7018 4.35701 23.761 4.9582 23.6456 5.5382C23.5303 6.11819 23.2455 6.65096 22.8273 7.06911C22.4092 7.48727 21.8764 7.77203 21.2964 7.8874C20.7164 8.00277 20.1152 7.94356 19.5689 7.71725C19.0226 7.49095 18.5556 7.10772 18.227 6.61602C17.8985 6.12432 17.7231 5.54624 17.7231 4.95488C17.7231 4.16145 18.038 3.40045 18.5986 2.83896C19.1592 2.27747 19.9197 1.96139 20.7131 1.96013V1.96491ZM6.57175 27.5351C5.86305 27.3454 5.12073 27.3176 4.39983 27.4538C3.4219 23.7948 3.69047 19.9143 5.16316 16.4249C6.63584 12.9355 9.22875 10.036 12.5326 8.18405C12.7533 8.05717 12.9146 7.84779 12.981 7.60197C13.0474 7.35614 13.0134 7.09402 12.8866 6.87325C12.7597 6.65248 12.5503 6.49115 12.3045 6.42476C12.0587 6.35837 11.7965 6.39236 11.5758 6.51923C7.87424 8.60868 4.97946 11.878 3.35357 15.8053C1.72768 19.7326 1.46443 24.0914 2.60585 28.1858C1.8162 28.7055 1.19381 29.4426 0.813741 30.3082C0.433676 31.1738 0.312175 32.1308 0.463897 33.0639C0.615619 33.997 1.03408 34.8663 1.6688 35.5668C2.30353 36.2674 3.1274 36.7694 4.04103 37.0122C4.45766 37.1235 4.88709 37.1798 5.31835 37.1796C6.50955 37.1798 7.66011 36.7464 8.55512 35.9603C9.45014 35.1743 10.0284 34.0893 10.1819 32.908C10.3354 31.7267 10.0537 30.53 9.38935 29.5412C8.72499 28.5525 7.72344 27.8394 6.57175 27.5351V27.5351ZM8.19351 33.0463C8.06847 33.5225 7.82777 33.9604 7.49279 34.3212C7.15781 34.682 6.73892 34.9546 6.2733 35.1146C5.80769 35.2746 5.30977 35.3171 4.82376 35.2385C4.33774 35.1598 3.87868 34.9623 3.48733 34.6636C3.09598 34.3648 2.78446 33.9741 2.58043 33.526C2.37639 33.0779 2.28617 32.5864 2.31776 32.0951C2.34935 31.6037 2.50177 31.1278 2.76151 30.7096C3.02124 30.2913 3.38024 29.9437 3.80662 29.6975C4.31765 29.4025 4.90455 29.2652 5.49341 29.3031C6.08227 29.341 6.64677 29.5522 7.1158 29.9103C7.58484 30.2683 7.93745 30.7571 8.12923 31.3152C8.321 31.8732 8.34337 32.4755 8.19351 33.0463V33.0463ZM41.4085 30.6878C41.2166 29.9778 40.8675 29.3201 40.3871 28.7634C39.9066 28.2066 39.307 27.765 38.6328 27.4714C37.9585 27.1777 37.2269 27.0395 36.4919 27.0669C35.757 27.0943 35.0377 27.2867 34.3872 27.6298C33.7367 27.9729 33.1717 28.4579 32.7341 29.0489C32.2964 29.6399 31.9973 30.3218 31.8589 31.0441C31.7204 31.7663 31.7462 32.5105 31.9344 33.2214C32.1225 33.9324 32.4681 34.5919 32.9457 35.1512C30.2027 37.8861 26.6115 39.6073 22.7614 40.0324C18.9113 40.4575 15.0311 39.5612 11.7576 37.4906C11.5431 37.3548 11.2836 37.3098 11.0359 37.3654C10.7883 37.421 10.5729 37.5727 10.4372 37.7872C10.3014 38.0016 10.2564 38.2612 10.312 38.5088C10.3676 38.7564 10.5194 38.9718 10.7338 39.1075C14.4089 41.4341 18.7715 42.428 23.0917 41.9229C27.4119 41.4178 31.4277 39.4444 34.467 36.3328C35.1452 36.6808 35.8958 36.8643 36.658 36.8686C37.4115 36.8694 38.1551 36.6967 38.8311 36.3639C39.5072 36.0311 40.0975 35.5471 40.5564 34.9495C41.0152 34.3518 41.3304 33.6565 41.4773 32.9175C41.6243 32.1785 41.5991 31.4155 41.4037 30.6878H41.4085ZM39.2605 33.4529C38.914 34.0516 38.3705 34.5117 37.7228 34.7546C37.0751 34.9976 36.3632 35.0084 35.7084 34.7853C35.0535 34.5622 34.4964 34.1189 34.1317 33.531C33.7671 32.9431 33.6177 32.2469 33.7088 31.5612C33.8 30.8754 34.1261 30.2425 34.6316 29.7702C35.1371 29.298 35.7907 29.0156 36.4811 28.9713C37.1715 28.927 37.8558 29.1234 38.4176 29.5271C38.9794 29.9308 39.3838 30.5168 39.5619 31.1853C39.7654 31.9513 39.6571 32.7667 39.2605 33.4529V33.4529Z" fill="url(#paint0_linear_145_670)"/>
</g>
<defs>
<linearGradient id="paint0_linear_145_670" x1="-1.14733" y1="1.18663" x2="36.1664" y2="18.5863" gradientUnits="userSpaceOnUse">
<stop offset="0.310417" stop-color="#145858"/>
<stop offset="1" stop-color="#F7B318"/>
</linearGradient>
<clipPath id="clip0_145_670">
<rect width="250.6" height="42" fill="white"/>
</clipPath>
</defs>
</svg>
