<svg width="387" height="324" viewBox="0 0 387 324" fill="none" xmlns="http://www.w3.org/2000/svg">
<g filter="url(#filter0_d_202_1197)">
<rect x="12" y="8" width="362.789" height="300" rx="10" fill="white" shape-rendering="crispEdges"/>
<path d="M36.112 52.336C34 52.336 32.32 51.76 31.072 50.608C29.824 49.44 29.2 47.776 29.2 45.616V41.584C29.2 39.424 29.824 37.768 31.072 36.616C32.32 35.448 34 34.864 36.112 34.864C38.224 34.864 39.904 35.448 41.152 36.616C42.4 37.768 43.024 39.424 43.024 41.584V45.616C43.024 47.776 42.4 49.44 41.152 50.608C39.904 51.76 38.224 52.336 36.112 52.336ZM36.112 49.504C37.296 49.504 38.216 49.16 38.872 48.472C39.528 47.784 39.856 46.864 39.856 45.712V41.488C39.856 40.336 39.528 39.416 38.872 38.728C38.216 38.04 37.296 37.696 36.112 37.696C34.944 37.696 34.024 38.04 33.352 38.728C32.696 39.416 32.368 40.336 32.368 41.488V45.712C32.368 46.864 32.696 47.784 33.352 48.472C34.024 49.16 34.944 49.504 36.112 49.504ZM48.3948 52L44.6028 40.096H47.8188L50.5788 49.792H51.0108L53.7708 40.096H56.9868L53.1948 52H48.3948ZM64.1196 52.336C62.9356 52.336 61.8876 52.088 60.9756 51.592C60.0796 51.08 59.3756 50.368 58.8636 49.456C58.3676 48.528 58.1196 47.44 58.1196 46.192V45.904C58.1196 44.656 58.3676 43.576 58.8636 42.664C59.3596 41.736 60.0556 41.024 60.9516 40.528C61.8476 40.016 62.8876 39.76 64.0716 39.76C65.2396 39.76 66.2556 40.024 67.1196 40.552C67.9836 41.064 68.6556 41.784 69.1356 42.712C69.6156 43.624 69.8556 44.688 69.8556 45.904V46.936H61.1916C61.2236 47.752 61.5276 48.416 62.1036 48.928C62.6796 49.44 63.3836 49.696 64.2156 49.696C65.0636 49.696 65.6876 49.512 66.0876 49.144C66.4876 48.776 66.7916 48.368 66.9996 47.92L69.4716 49.216C69.2476 49.632 68.9196 50.088 68.4876 50.584C68.0716 51.064 67.5116 51.48 66.8076 51.832C66.1036 52.168 65.2076 52.336 64.1196 52.336ZM61.2156 44.68H66.7836C66.7196 43.992 66.4396 43.44 65.9436 43.024C65.4636 42.608 64.8316 42.4 64.0476 42.4C63.2316 42.4 62.5836 42.608 62.1036 43.024C61.6236 43.44 61.3276 43.992 61.2156 44.68ZM72.5472 52V40.096H75.5232V41.44H75.9552C76.1312 40.96 76.4192 40.608 76.8192 40.384C77.2352 40.16 77.7152 40.048 78.2592 40.048H79.6992V42.736H78.2112C77.4432 42.736 76.8112 42.944 76.3152 43.36C75.8192 43.76 75.5712 44.384 75.5712 45.232V52H72.5472ZM85.4776 52.336C84.6296 52.336 83.8696 52.192 83.1976 51.904C82.5256 51.6 81.9896 51.168 81.5896 50.608C81.2056 50.032 81.0136 49.336 81.0136 48.52C81.0136 47.704 81.2056 47.024 81.5896 46.48C81.9896 45.92 82.5336 45.504 83.2216 45.232C83.9256 44.944 84.7256 44.8 85.6216 44.8H88.8856V44.128C88.8856 43.568 88.7096 43.112 88.3576 42.76C88.0056 42.392 87.4456 42.208 86.6776 42.208C85.9256 42.208 85.3656 42.384 84.9976 42.736C84.6296 43.072 84.3896 43.512 84.2776 44.056L81.4936 43.12C81.6856 42.512 81.9896 41.96 82.4056 41.464C82.8376 40.952 83.4056 40.544 84.1096 40.24C84.8296 39.92 85.7016 39.76 86.7256 39.76C88.2936 39.76 89.5336 40.152 90.4456 40.936C91.3576 41.72 91.8136 42.856 91.8136 44.344V48.784C91.8136 49.264 92.0376 49.504 92.4856 49.504H93.4456V52H91.4296C90.8376 52 90.3496 51.856 89.9656 51.568C89.5816 51.28 89.3896 50.896 89.3896 50.416V50.392H88.9336C88.8696 50.584 88.7256 50.84 88.5016 51.16C88.2776 51.464 87.9256 51.736 87.4456 51.976C86.9656 52.216 86.3096 52.336 85.4776 52.336ZM86.0056 49.888C86.8536 49.888 87.5416 49.656 88.0696 49.192C88.6136 48.712 88.8856 48.08 88.8856 47.296V47.056H85.8376C85.2776 47.056 84.8376 47.176 84.5176 47.416C84.1976 47.656 84.0376 47.992 84.0376 48.424C84.0376 48.856 84.2056 49.208 84.5416 49.48C84.8776 49.752 85.3656 49.888 86.0056 49.888ZM95.6566 52V35.2H98.6806V52H95.6566ZM102.032 52V35.2H105.056V52H102.032ZM114.404 52V35.2H121.316C122.372 35.2 123.3 35.416 124.1 35.848C124.916 36.264 125.548 36.856 125.996 37.624C126.46 38.392 126.692 39.304 126.692 40.36V40.696C126.692 41.736 126.452 42.648 125.972 43.432C125.508 44.2 124.868 44.8 124.052 45.232C123.252 45.648 122.34 45.856 121.316 45.856H117.572V52H114.404ZM117.572 42.976H121.004C121.756 42.976 122.364 42.768 122.828 42.352C123.292 41.936 123.524 41.368 123.524 40.648V40.408C123.524 39.688 123.292 39.12 122.828 38.704C122.364 38.288 121.756 38.08 121.004 38.08H117.572V42.976ZM128.985 52V40.096H131.961V41.44H132.393C132.569 40.96 132.857 40.608 133.257 40.384C133.673 40.16 134.153 40.048 134.697 40.048H136.137V42.736H134.649C133.881 42.736 133.249 42.944 132.753 43.36C132.257 43.76 132.009 44.384 132.009 45.232V52H128.985ZM143.742 52.336C142.558 52.336 141.494 52.096 140.55 51.616C139.606 51.136 138.862 50.44 138.318 49.528C137.774 48.616 137.502 47.52 137.502 46.24V45.856C137.502 44.576 137.774 43.48 138.318 42.568C138.862 41.656 139.606 40.96 140.55 40.48C141.494 40 142.558 39.76 143.742 39.76C144.926 39.76 145.99 40 146.934 40.48C147.878 40.96 148.622 41.656 149.166 42.568C149.71 43.48 149.982 44.576 149.982 45.856V46.24C149.982 47.52 149.71 48.616 149.166 49.528C148.622 50.44 147.878 51.136 146.934 51.616C145.99 52.096 144.926 52.336 143.742 52.336ZM143.742 49.648C144.67 49.648 145.438 49.352 146.046 48.76C146.654 48.152 146.958 47.288 146.958 46.168V45.928C146.958 44.808 146.654 43.952 146.046 43.36C145.454 42.752 144.686 42.448 143.742 42.448C142.814 42.448 142.046 42.752 141.438 43.36C140.83 43.952 140.526 44.808 140.526 45.928V46.168C140.526 47.288 140.83 48.152 141.438 48.76C142.046 49.352 142.814 49.648 143.742 49.648ZM152.198 46.096V45.712C152.198 44.464 152.446 43.4 152.942 42.52C153.438 41.624 154.094 40.944 154.91 40.48C155.742 40 156.646 39.76 157.622 39.76C158.71 39.76 159.534 39.952 160.094 40.336C160.654 40.72 161.062 41.12 161.318 41.536H161.75V40.096H164.726V54.112C164.726 54.928 164.486 55.576 164.006 56.056C163.526 56.552 162.886 56.8 162.086 56.8H154.118V54.16H161.03C161.478 54.16 161.702 53.92 161.702 53.44V50.344H161.27C161.11 50.6 160.886 50.864 160.598 51.136C160.31 51.392 159.926 51.608 159.446 51.784C158.966 51.96 158.358 52.048 157.622 52.048C156.646 52.048 155.742 51.816 154.91 51.352C154.094 50.872 153.438 50.192 152.942 49.312C152.446 48.416 152.198 47.344 152.198 46.096ZM158.486 49.408C159.414 49.408 160.19 49.112 160.814 48.52C161.438 47.928 161.75 47.096 161.75 46.024V45.784C161.75 44.696 161.438 43.864 160.814 43.288C160.206 42.696 159.43 42.4 158.486 42.4C157.558 42.4 156.782 42.696 156.158 43.288C155.534 43.864 155.222 44.696 155.222 45.784V46.024C155.222 47.096 155.534 47.928 156.158 48.52C156.782 49.112 157.558 49.408 158.486 49.408ZM168.078 52V40.096H171.054V41.44H171.486C171.662 40.96 171.95 40.608 172.35 40.384C172.766 40.16 173.246 40.048 173.79 40.048H175.23V42.736H173.742C172.974 42.736 172.342 42.944 171.846 43.36C171.35 43.76 171.102 44.384 171.102 45.232V52H168.078ZM182.596 52.336C181.412 52.336 180.364 52.088 179.452 51.592C178.556 51.08 177.852 50.368 177.34 49.456C176.844 48.528 176.596 47.44 176.596 46.192V45.904C176.596 44.656 176.844 43.576 177.34 42.664C177.836 41.736 178.532 41.024 179.428 40.528C180.324 40.016 181.364 39.76 182.548 39.76C183.716 39.76 184.732 40.024 185.596 40.552C186.46 41.064 187.132 41.784 187.612 42.712C188.092 43.624 188.332 44.688 188.332 45.904V46.936H179.668C179.7 47.752 180.004 48.416 180.58 48.928C181.156 49.44 181.86 49.696 182.692 49.696C183.54 49.696 184.164 49.512 184.564 49.144C184.964 48.776 185.268 48.368 185.476 47.92L187.948 49.216C187.724 49.632 187.396 50.088 186.964 50.584C186.548 51.064 185.988 51.48 185.284 51.832C184.58 52.168 183.684 52.336 182.596 52.336ZM179.692 44.68H185.26C185.196 43.992 184.916 43.44 184.42 43.024C183.94 42.608 183.308 42.4 182.524 42.4C181.708 42.4 181.06 42.608 180.58 43.024C180.1 43.44 179.804 43.992 179.692 44.68ZM195.968 52.336C194.416 52.336 193.144 52 192.152 51.328C191.16 50.656 190.56 49.696 190.352 48.448L193.136 47.728C193.248 48.288 193.432 48.728 193.688 49.048C193.96 49.368 194.288 49.6 194.672 49.744C195.072 49.872 195.504 49.936 195.968 49.936C196.672 49.936 197.192 49.816 197.528 49.576C197.864 49.32 198.032 49.008 198.032 48.64C198.032 48.272 197.872 47.992 197.552 47.8C197.232 47.592 196.72 47.424 196.016 47.296L195.344 47.176C194.512 47.016 193.752 46.8 193.064 46.528C192.376 46.24 191.824 45.848 191.408 45.352C190.992 44.856 190.784 44.216 190.784 43.432C190.784 42.248 191.216 41.344 192.08 40.72C192.944 40.08 194.08 39.76 195.488 39.76C196.816 39.76 197.92 40.056 198.8 40.648C199.68 41.24 200.256 42.016 200.528 42.976L197.72 43.84C197.592 43.232 197.328 42.8 196.928 42.544C196.544 42.288 196.064 42.16 195.488 42.16C194.912 42.16 194.472 42.264 194.168 42.472C193.864 42.664 193.712 42.936 193.712 43.288C193.712 43.672 193.872 43.96 194.192 44.152C194.512 44.328 194.944 44.464 195.488 44.56L196.16 44.68C197.056 44.84 197.864 45.056 198.584 45.328C199.32 45.584 199.896 45.96 200.312 46.456C200.744 46.936 200.96 47.592 200.96 48.424C200.96 49.672 200.504 50.64 199.592 51.328C198.696 52 197.488 52.336 195.968 52.336ZM208.554 52.336C207.002 52.336 205.73 52 204.738 51.328C203.746 50.656 203.146 49.696 202.938 48.448L205.722 47.728C205.834 48.288 206.018 48.728 206.274 49.048C206.546 49.368 206.874 49.6 207.258 49.744C207.658 49.872 208.09 49.936 208.554 49.936C209.258 49.936 209.778 49.816 210.114 49.576C210.45 49.32 210.618 49.008 210.618 48.64C210.618 48.272 210.458 47.992 210.138 47.8C209.818 47.592 209.306 47.424 208.602 47.296L207.93 47.176C207.098 47.016 206.338 46.8 205.65 46.528C204.962 46.24 204.41 45.848 203.994 45.352C203.578 44.856 203.37 44.216 203.37 43.432C203.37 42.248 203.802 41.344 204.666 40.72C205.53 40.08 206.666 39.76 208.074 39.76C209.402 39.76 210.506 40.056 211.386 40.648C212.266 41.24 212.842 42.016 213.114 42.976L210.306 43.84C210.178 43.232 209.914 42.8 209.514 42.544C209.13 42.288 208.65 42.16 208.074 42.16C207.498 42.16 207.058 42.264 206.754 42.472C206.45 42.664 206.298 42.936 206.298 43.288C206.298 43.672 206.458 43.96 206.778 44.152C207.098 44.328 207.53 44.464 208.074 44.56L208.746 44.68C209.642 44.84 210.45 45.056 211.17 45.328C211.906 45.584 212.482 45.96 212.898 46.456C213.33 46.936 213.546 47.592 213.546 48.424C213.546 49.672 213.09 50.64 212.178 51.328C211.282 52 210.074 52.336 208.554 52.336Z" fill="#0F1111"/>
<path d="M302.224 45.9776L299.28 39.04H298.064L302.224 48.448L306.384 39.04H305.168L302.224 45.9776ZM307.41 39.68C307.41 39.8677 307.478 40.0341 307.615 40.1792C307.76 40.3157 307.926 40.384 308.114 40.384C308.31 40.384 308.477 40.3157 308.613 40.1792C308.75 40.0341 308.818 39.8677 308.818 39.68C308.818 39.4837 308.75 39.3173 308.613 39.1808C308.477 39.0443 308.31 38.976 308.114 38.976C307.926 38.976 307.76 39.0443 307.615 39.1808C307.478 39.3173 307.41 39.4837 307.41 39.68ZM307.602 42.112V48H308.626V42.112H307.602ZM313.013 48.128C313.645 48.128 314.191 48.0043 314.652 47.7568C315.121 47.5008 315.509 47.1253 315.817 46.6304L314.985 46.1056C314.771 46.464 314.511 46.7328 314.204 46.912C313.897 47.0827 313.542 47.168 313.141 47.168C312.74 47.168 312.399 47.0827 312.117 46.912C311.836 46.7413 311.622 46.4939 311.477 46.1696C311.332 45.8453 311.26 45.4528 311.26 44.992C311.268 44.5397 311.345 44.16 311.49 43.8528C311.644 43.5371 311.857 43.2981 312.13 43.136C312.412 42.9653 312.749 42.88 313.141 42.88C313.474 42.88 313.764 42.9525 314.012 43.0976C314.259 43.2427 314.451 43.4432 314.588 43.6992C314.733 43.9552 314.805 44.2581 314.805 44.608C314.805 44.6677 314.793 44.7445 314.767 44.8384C314.741 44.9237 314.716 44.9877 314.69 45.0304L315.1 44.4416H310.876V45.312H315.906C315.906 45.2949 315.906 45.2565 315.906 45.1968C315.915 45.1285 315.919 45.0645 315.919 45.0048C315.919 44.3819 315.808 43.8443 315.586 43.392C315.364 42.9397 315.044 42.5941 314.626 42.3552C314.217 42.1077 313.722 41.984 313.141 41.984C312.561 41.984 312.049 42.112 311.605 42.368C311.17 42.624 310.829 42.9824 310.581 43.4432C310.342 43.904 310.223 44.4416 310.223 45.056C310.223 45.6619 310.338 46.1952 310.569 46.656C310.808 47.1168 311.136 47.4795 311.554 47.744C311.981 48 312.467 48.128 313.013 48.128ZM316.239 42.112L318.799 48.448L320.476 44.16L322.255 48.448L324.815 42.112H323.663L322.178 45.9648L320.463 41.664L318.863 45.9392L317.391 42.112H316.239ZM330.594 45.312H335.33L334.946 44.288H330.978L330.594 45.312ZM332.936 41.0624L334.472 44.672L334.575 44.928L335.88 48H337.097L332.936 38.592L328.776 48H329.992L331.324 44.8512L331.426 44.6208L332.936 41.0624ZM338.122 38.016V48H339.146V38.016H338.122ZM341.072 38.016V48H342.096V38.016H341.072Z" fill="#145858"/>
<path d="M28.288 83.856H37.504V82.224H35.216L34.944 82.368H31.056L33.92 78.176V83.008L33.808 83.184V86H35.744V74.8H34.608L28.288 83.856ZM42.7154 87.408L41.7074 88.8C41.846 88.9173 42.0327 89.04 42.2674 89.168C42.502 89.296 42.774 89.4027 43.0834 89.488C43.3927 89.584 43.7127 89.632 44.0434 89.632C44.47 89.632 44.8647 89.5787 45.2274 89.472C45.59 89.376 45.8994 89.216 46.1554 88.992C46.422 88.768 46.63 88.4853 46.7794 88.144C46.9287 87.8027 47.0034 87.3973 47.0034 86.928V74.8H45.0674V86.576C45.0674 87.088 44.95 87.4453 44.7154 87.648C44.4807 87.8613 44.2407 87.968 43.9954 87.968C43.7287 87.968 43.4834 87.9147 43.2594 87.808C43.0354 87.7013 42.854 87.568 42.7154 87.408ZM51.6013 83.12V78.64H49.8253V83.312C49.8253 84.1867 50.0439 84.88 50.4813 85.392C50.9293 85.904 51.5639 86.16 52.3853 86.16C52.8973 86.16 53.3346 86.0533 53.6973 85.84C54.0706 85.616 54.3746 85.2907 54.6093 84.864V86H56.3373V78.64H54.6093V83.12C54.6093 83.4507 54.5399 83.744 54.4013 84C54.2626 84.2453 54.0706 84.4373 53.8253 84.576C53.5799 84.704 53.2919 84.768 52.9613 84.768C52.5026 84.768 52.1613 84.624 51.9373 84.336C51.7133 84.048 51.6013 83.6427 51.6013 83.12ZM63.76 81.52V86H65.536V81.328C65.536 80.4427 65.3173 79.7493 64.88 79.248C64.4427 78.736 63.808 78.48 62.976 78.48C62.464 78.48 62.0213 78.5867 61.648 78.8C61.2853 79.0133 60.9867 79.3387 60.752 79.776V78.64H59.024V86H60.752V81.52C60.752 81.1893 60.8213 80.9013 60.96 80.656C61.0987 80.4 61.2907 80.208 61.536 80.08C61.7813 79.9413 62.064 79.872 62.384 79.872C62.8533 79.872 63.2 80.0107 63.424 80.288C63.648 80.5653 63.76 80.976 63.76 81.52ZM71.4228 86.16C72.2761 86.16 73.0068 85.9947 73.6148 85.664C74.2228 85.3333 74.7188 84.8373 75.1028 84.176L73.6148 83.568C73.3801 83.9627 73.0868 84.256 72.7348 84.448C72.3828 84.64 71.9721 84.736 71.5028 84.736C71.0548 84.736 70.6708 84.64 70.3508 84.448C70.0414 84.256 69.8068 83.9787 69.6468 83.616C69.4868 83.2427 69.4068 82.7893 69.4068 82.256C69.4174 81.7227 69.5028 81.2747 69.6628 80.912C69.8228 80.5493 70.0574 80.272 70.3668 80.08C70.6761 79.888 71.0494 79.792 71.4868 79.792C71.8494 79.792 72.1641 79.872 72.4308 80.032C72.7081 80.192 72.9214 80.416 73.0708 80.704C73.2308 80.992 73.3108 81.3333 73.3108 81.728C73.3108 81.8027 73.2894 81.8987 73.2468 82.016C73.2148 82.1227 73.1828 82.208 73.1508 82.272L73.6788 81.536H68.6868V82.72H75.1508C75.1614 82.6773 75.1668 82.608 75.1668 82.512C75.1774 82.416 75.1828 82.3253 75.1828 82.24C75.1828 81.4507 75.0334 80.7787 74.7348 80.224C74.4468 79.6587 74.0308 79.2267 73.4868 78.928C72.9428 78.6293 72.2814 78.48 71.5028 78.48C70.7241 78.48 70.0468 78.64 69.4708 78.96C68.8948 79.2693 68.4468 79.712 68.1268 80.288C67.8174 80.864 67.6628 81.5413 67.6628 82.32C67.6628 83.088 67.8174 83.76 68.1268 84.336C68.4361 84.912 68.8734 85.36 69.4388 85.68C70.0148 86 70.6761 86.16 71.4228 86.16ZM77.6033 84.24L76.1953 88.384L77.4753 88.736L79.3313 84.736L77.6033 84.24ZM86.5194 86H95.0634V84.24H90.1994L93.3834 81.12C93.842 80.6933 94.21 80.208 94.4874 79.664C94.7754 79.12 94.9194 78.5547 94.9194 77.968C94.9194 77.5947 94.8394 77.2107 94.6794 76.816C94.53 76.4213 94.2954 76.0587 93.9754 75.728C93.666 75.3973 93.2714 75.1307 92.7914 74.928C92.3114 74.7147 91.746 74.608 91.0954 74.608C90.242 74.608 89.5167 74.7893 88.9194 75.152C88.3327 75.504 87.8847 75.9947 87.5754 76.624C87.2767 77.2427 87.1274 77.952 87.1274 78.752H88.9994C88.9994 78.2613 89.0794 77.8293 89.2394 77.456C89.41 77.0827 89.65 76.8 89.9594 76.608C90.2687 76.4053 90.6367 76.304 91.0634 76.304C91.3727 76.304 91.6447 76.3573 91.8794 76.464C92.114 76.56 92.3114 76.6933 92.4714 76.864C92.642 77.0347 92.7647 77.2267 92.8394 77.44C92.9247 77.6427 92.9674 77.8507 92.9674 78.064C92.9674 78.3627 92.9194 78.6453 92.8234 78.912C92.7274 79.1787 92.5834 79.4453 92.3914 79.712C92.1994 79.9787 91.97 80.256 91.7034 80.544L86.5194 86ZM98.8316 80.4C98.8316 79.8027 98.8903 79.2533 99.0076 78.752C99.125 78.2507 99.2903 77.8187 99.5036 77.456C99.7276 77.0933 99.9943 76.816 100.304 76.624C100.613 76.4213 100.954 76.32 101.328 76.32C101.722 76.32 102.069 76.4213 102.368 76.624C102.677 76.816 102.938 77.0933 103.152 77.456C103.376 77.8187 103.546 78.2507 103.664 78.752C103.781 79.2533 103.84 79.8027 103.84 80.4C103.84 80.9973 103.781 81.5467 103.664 82.048C103.546 82.5493 103.376 82.9813 103.152 83.344C102.938 83.7067 102.677 83.9893 102.368 84.192C102.069 84.384 101.722 84.48 101.328 84.48C100.954 84.48 100.613 84.384 100.304 84.192C99.9943 83.9893 99.7276 83.7067 99.5036 83.344C99.2903 82.9813 99.125 82.5493 99.0076 82.048C98.8903 81.5467 98.8316 80.9973 98.8316 80.4ZM96.9756 80.4C96.9756 81.5627 97.157 82.576 97.5196 83.44C97.893 84.304 98.405 84.976 99.0556 85.456C99.717 85.936 100.474 86.176 101.328 86.176C102.202 86.176 102.965 85.936 103.616 85.456C104.277 84.976 104.789 84.304 105.152 83.44C105.514 82.576 105.696 81.5627 105.696 80.4C105.696 79.2373 105.514 78.224 105.152 77.36C104.789 76.496 104.277 75.824 103.616 75.344C102.965 74.864 102.202 74.624 101.328 74.624C100.474 74.624 99.717 74.864 99.0556 75.344C98.405 75.824 97.893 76.496 97.5196 77.36C97.157 78.224 96.9756 79.2373 96.9756 80.4ZM107.136 86H115.68V84.24H110.816L114 81.12C114.458 80.6933 114.826 80.208 115.104 79.664C115.392 79.12 115.536 78.5547 115.536 77.968C115.536 77.5947 115.456 77.2107 115.296 76.816C115.146 76.4213 114.912 76.0587 114.592 75.728C114.282 75.3973 113.888 75.1307 113.408 74.928C112.928 74.7147 112.362 74.608 111.712 74.608C110.858 74.608 110.133 74.7893 109.536 75.152C108.949 75.504 108.501 75.9947 108.192 76.624C107.893 77.2427 107.744 77.952 107.744 78.752H109.616C109.616 78.2613 109.696 77.8293 109.856 77.456C110.026 77.0827 110.266 76.8 110.576 76.608C110.885 76.4053 111.253 76.304 111.68 76.304C111.989 76.304 112.261 76.3573 112.496 76.464C112.73 76.56 112.928 76.6933 113.088 76.864C113.258 77.0347 113.381 77.2267 113.456 77.44C113.541 77.6427 113.584 77.8507 113.584 78.064C113.584 78.3627 113.536 78.6453 113.44 78.912C113.344 79.1787 113.2 79.4453 113.008 79.712C112.816 79.9787 112.586 80.256 112.32 80.544L107.136 86ZM117.272 86H125.816V84.24H120.952L124.136 81.12C124.595 80.6933 124.963 80.208 125.24 79.664C125.528 79.12 125.672 78.5547 125.672 77.968C125.672 77.5947 125.592 77.2107 125.432 76.816C125.283 76.4213 125.048 76.0587 124.728 75.728C124.419 75.3973 124.024 75.1307 123.544 74.928C123.064 74.7147 122.499 74.608 121.848 74.608C120.995 74.608 120.269 74.7893 119.672 75.152C119.085 75.504 118.637 75.9947 118.328 76.624C118.029 77.2427 117.88 77.952 117.88 78.752H119.752C119.752 78.2613 119.832 77.8293 119.992 77.456C120.163 77.0827 120.403 76.8 120.712 76.608C121.021 76.4053 121.389 76.304 121.816 76.304C122.125 76.304 122.397 76.3573 122.632 76.464C122.867 76.56 123.064 76.6933 123.224 76.864C123.395 77.0347 123.517 77.2267 123.592 77.44C123.677 77.6427 123.72 77.8507 123.72 78.064C123.72 78.3627 123.672 78.6453 123.576 78.912C123.48 79.1787 123.336 79.4453 123.144 79.712C122.952 79.9787 122.723 80.256 122.456 80.544L117.272 86Z" fill="#444646"/>
<rect x="28" y="108" width="24" height="24" rx="4" fill="#D0DEDE"/>
<mask id="mask0_202_1197" style="mask-type:luminance" maskUnits="userSpaceOnUse" x="36" y="112" width="8" height="7">
<path fill-rule="evenodd" clip-rule="evenodd" d="M36.4082 112.5H43.2047V118.729H36.4082V112.5Z" fill="white"/>
</mask>
<g mask="url(#mask0_202_1197)">
<path fill-rule="evenodd" clip-rule="evenodd" d="M42.6422 118.729C42.3317 118.729 42.0797 118.477 42.0797 118.167V115.893C42.0797 114.643 41.0635 113.625 39.8132 113.625C39.205 113.646 38.635 113.856 38.2045 114.282C37.774 114.709 37.5355 115.276 37.5332 115.882V118.167C37.5332 118.477 37.2812 118.729 36.9707 118.729C36.6602 118.729 36.4082 118.477 36.4082 118.167V115.893C36.412 114.971 36.7682 114.121 37.4125 113.483C38.056 112.845 38.92 112.526 39.8155 112.5C41.6837 112.5 43.2047 114.022 43.2047 115.893V118.167C43.2047 118.477 42.9527 118.729 42.6422 118.729Z" fill="#145858"/>
</g>
<mask id="mask1_202_1197" style="mask-type:luminance" maskUnits="userSpaceOnUse" x="32" y="115" width="16" height="13">
<path fill-rule="evenodd" clip-rule="evenodd" d="M32.5 115.856H47.1248V127.5H32.5V115.856Z" fill="white"/>
</mask>
<g mask="url(#mask1_202_1197)">
<path fill-rule="evenodd" clip-rule="evenodd" d="M36.2559 116.981C34.8054 116.981 33.6249 118.16 33.6249 119.61V123.747C33.6249 125.196 34.8054 126.375 36.2559 126.375H43.3689C44.8194 126.375 45.9999 125.196 45.9999 123.747V119.61C45.9999 118.16 44.8194 116.981 43.3689 116.981H36.2559ZM43.3689 127.5H36.2559C34.1851 127.5 32.4999 125.816 32.4999 123.747V119.61C32.4999 117.54 34.1851 115.856 36.2559 115.856H43.3689C45.4404 115.856 47.1249 117.54 47.1249 119.61V123.747C47.1249 125.816 45.4404 127.5 43.3689 127.5Z" fill="#145858"/>
</g>
<path d="M61.28 117.008L63.76 116.272V126H65.12V114.64L61.28 115.6V117.008ZM67.5231 126H75.4271V124.72H70.3231L73.8911 121.088C74.3285 120.64 74.6858 120.133 74.9631 119.568C75.2405 119.003 75.3791 118.432 75.3791 117.856C75.3791 117.515 75.3098 117.157 75.1711 116.784C75.0325 116.411 74.8191 116.064 74.5311 115.744C74.2431 115.413 73.8751 115.147 73.4271 114.944C72.9791 114.731 72.4458 114.624 71.8271 114.624C71.0591 114.624 70.3978 114.795 69.8431 115.136C69.2991 115.467 68.8831 115.936 68.5951 116.544C68.3071 117.141 68.1631 117.84 68.1631 118.64H69.5231C69.5231 118.075 69.6138 117.589 69.7951 117.184C69.9765 116.768 70.2378 116.453 70.5791 116.24C70.9311 116.016 71.3471 115.904 71.8271 115.904C72.1685 115.904 72.4725 115.963 72.7391 116.08C73.0058 116.197 73.2298 116.352 73.4111 116.544C73.6031 116.736 73.7471 116.949 73.8431 117.184C73.9391 117.419 73.9871 117.659 73.9871 117.904C73.9871 118.203 73.9391 118.491 73.8431 118.768C73.7578 119.035 73.6245 119.301 73.4431 119.568C73.2725 119.824 73.0645 120.085 72.8191 120.352L67.5231 126ZM82.3894 114.8V126H83.7494V114.8H82.3894ZM83.1414 116.08H85.4294C86.1547 116.08 86.7414 116.256 87.1894 116.608C87.648 116.949 87.8774 117.467 87.8774 118.16C87.8774 118.843 87.648 119.36 87.1894 119.712C86.7414 120.064 86.1547 120.24 85.4294 120.24H83.1414V121.52H85.4294C86.1547 121.52 86.8 121.387 87.3654 121.12C87.9414 120.843 88.3947 120.453 88.7254 119.952C89.0667 119.44 89.2374 118.843 89.2374 118.16C89.2374 117.467 89.0667 116.869 88.7254 116.368C88.3947 115.867 87.9414 115.483 87.3654 115.216C86.8 114.939 86.1547 114.8 85.4294 114.8H83.1414V116.08ZM92.0425 118.64H90.7625V126H92.0425V118.64ZM94.2665 120.048L94.9705 118.992C94.7785 118.789 94.5652 118.656 94.3305 118.592C94.1065 118.517 93.8612 118.48 93.5945 118.48C93.2532 118.48 92.9172 118.613 92.5865 118.88C92.2558 119.147 91.9838 119.509 91.7705 119.968C91.5678 120.416 91.4665 120.933 91.4665 121.52H92.0425C92.0425 121.168 92.0745 120.853 92.1385 120.576C92.2132 120.299 92.3412 120.08 92.5225 119.92C92.7038 119.76 92.9545 119.68 93.2745 119.68C93.4878 119.68 93.6638 119.712 93.8025 119.776C93.9412 119.829 94.0958 119.92 94.2665 120.048ZM95.3725 122.32C95.3725 123.056 95.5378 123.717 95.8685 124.304C96.2098 124.88 96.6685 125.333 97.2445 125.664C97.8205 125.995 98.4658 126.16 99.1805 126.16C99.9058 126.16 100.551 125.995 101.117 125.664C101.693 125.333 102.146 124.88 102.477 124.304C102.818 123.717 102.989 123.056 102.989 122.32C102.989 121.573 102.818 120.912 102.477 120.336C102.146 119.76 101.693 119.307 101.117 118.976C100.551 118.645 99.9058 118.48 99.1805 118.48C98.4658 118.48 97.8205 118.645 97.2445 118.976C96.6685 119.307 96.2098 119.76 95.8685 120.336C95.5378 120.912 95.3725 121.573 95.3725 122.32ZM96.6685 122.32C96.6685 121.808 96.7752 121.355 96.9885 120.96C97.2125 120.555 97.5112 120.24 97.8845 120.016C98.2685 119.792 98.7005 119.68 99.1805 119.68C99.6605 119.68 100.087 119.792 100.461 120.016C100.845 120.24 101.143 120.555 101.357 120.96C101.581 121.355 101.693 121.808 101.693 122.32C101.693 122.832 101.581 123.285 101.357 123.68C101.143 124.075 100.845 124.389 100.461 124.624C100.087 124.848 99.6605 124.96 99.1805 124.96C98.7005 124.96 98.2685 124.848 97.8845 124.624C97.5112 124.389 97.2125 124.075 96.9885 123.68C96.7752 123.285 96.6685 122.832 96.6685 122.32ZM104.539 115.6C104.539 115.835 104.624 116.037 104.795 116.208C104.966 116.379 105.168 116.464 105.403 116.464C105.648 116.464 105.851 116.379 106.011 116.208C106.182 116.037 106.267 115.835 106.267 115.6C106.267 115.355 106.182 115.152 106.011 114.992C105.851 114.821 105.648 114.736 105.403 114.736C105.168 114.736 104.966 114.821 104.795 114.992C104.624 115.152 104.539 115.355 104.539 115.6ZM103.275 127.824L102.571 128.88C102.678 129.019 102.8 129.136 102.939 129.232C103.078 129.328 103.232 129.397 103.403 129.44C103.574 129.493 103.766 129.52 103.979 129.52C104.427 129.52 104.811 129.419 105.131 129.216C105.451 129.013 105.691 128.72 105.851 128.336C106.022 127.952 106.107 127.493 106.107 126.96V118.64H104.827V126.8C104.827 127.141 104.8 127.419 104.747 127.632C104.694 127.845 104.608 128 104.491 128.096C104.384 128.192 104.24 128.24 104.059 128.24C103.888 128.24 103.734 128.203 103.595 128.128C103.467 128.053 103.36 127.952 103.275 127.824ZM111.595 126.16C112.384 126.16 113.067 126.005 113.643 125.696C114.23 125.376 114.715 124.907 115.099 124.288L114.059 123.632C113.792 124.08 113.467 124.416 113.083 124.64C112.699 124.853 112.256 124.96 111.755 124.96C111.254 124.96 110.827 124.853 110.475 124.64C110.123 124.427 109.856 124.117 109.675 123.712C109.494 123.307 109.403 122.816 109.403 122.24C109.414 121.675 109.51 121.2 109.691 120.816C109.883 120.421 110.15 120.123 110.491 119.92C110.843 119.707 111.264 119.6 111.755 119.6C112.171 119.6 112.534 119.691 112.843 119.872C113.152 120.053 113.392 120.304 113.563 120.624C113.744 120.944 113.835 121.323 113.835 121.76C113.835 121.835 113.819 121.931 113.787 122.048C113.755 122.155 113.723 122.235 113.691 122.288L114.203 121.552H108.923V122.64H115.211C115.211 122.619 115.211 122.571 115.211 122.496C115.222 122.411 115.227 122.331 115.227 122.256C115.227 121.477 115.088 120.805 114.811 120.24C114.534 119.675 114.134 119.243 113.611 118.944C113.099 118.635 112.48 118.48 111.755 118.48C111.03 118.48 110.39 118.64 109.835 118.96C109.291 119.28 108.864 119.728 108.555 120.304C108.256 120.88 108.107 121.552 108.107 122.32C108.107 123.077 108.251 123.744 108.539 124.32C108.838 124.896 109.248 125.349 109.771 125.68C110.304 126 110.912 126.16 111.595 126.16ZM117.557 122.32C117.557 121.808 117.664 121.355 117.877 120.96C118.101 120.555 118.4 120.24 118.773 120.016C119.157 119.792 119.589 119.68 120.069 119.68C120.464 119.68 120.832 119.744 121.173 119.872C121.525 119.989 121.829 120.149 122.085 120.352C122.341 120.555 122.523 120.779 122.629 121.024V119.424C122.373 119.125 122.005 118.896 121.525 118.736C121.056 118.565 120.571 118.48 120.069 118.48C119.355 118.48 118.709 118.645 118.133 118.976C117.557 119.307 117.099 119.76 116.757 120.336C116.427 120.912 116.261 121.573 116.261 122.32C116.261 123.056 116.427 123.717 116.757 124.304C117.099 124.88 117.557 125.333 118.133 125.664C118.709 125.995 119.355 126.16 120.069 126.16C120.571 126.16 121.056 126.08 121.525 125.92C122.005 125.749 122.373 125.515 122.629 125.216V123.616C122.523 123.851 122.341 124.075 122.085 124.288C121.829 124.491 121.525 124.656 121.173 124.784C120.832 124.901 120.464 124.96 120.069 124.96C119.589 124.96 119.157 124.848 118.773 124.624C118.4 124.389 118.101 124.075 117.877 123.68C117.664 123.285 117.557 122.832 117.557 122.32ZM123.502 118.64V119.84H127.182V118.64H123.502ZM124.702 116.08V126H125.982V116.08H124.702ZM128.77 123.744L127.762 124.368C127.9 124.656 128.103 124.939 128.37 125.216C128.647 125.493 128.983 125.723 129.378 125.904C129.772 126.075 130.215 126.16 130.706 126.16C131.463 126.16 132.071 125.947 132.53 125.52C132.999 125.093 133.234 124.56 133.234 123.92C133.234 123.483 133.127 123.125 132.914 122.848C132.711 122.571 132.434 122.336 132.082 122.144C131.73 121.941 131.34 121.755 130.914 121.584C130.658 121.477 130.412 121.365 130.178 121.248C129.943 121.131 129.751 120.997 129.602 120.848C129.452 120.699 129.378 120.528 129.378 120.336C129.378 120.091 129.474 119.909 129.666 119.792C129.858 119.675 130.087 119.616 130.354 119.616C130.738 119.616 131.079 119.707 131.378 119.888C131.687 120.069 131.943 120.299 132.146 120.576L133.17 119.92C133.02 119.643 132.812 119.397 132.546 119.184C132.279 118.971 131.97 118.8 131.618 118.672C131.276 118.544 130.908 118.48 130.514 118.48C130.119 118.48 129.735 118.549 129.362 118.688C128.999 118.827 128.7 119.04 128.466 119.328C128.242 119.616 128.13 119.979 128.13 120.416C128.13 120.843 128.236 121.2 128.45 121.488C128.674 121.765 128.946 121.995 129.266 122.176C129.596 122.347 129.922 122.496 130.242 122.624C130.53 122.731 130.802 122.848 131.058 122.976C131.314 123.093 131.522 123.243 131.682 123.424C131.852 123.595 131.938 123.808 131.938 124.064C131.938 124.352 131.831 124.581 131.618 124.752C131.415 124.912 131.132 124.992 130.77 124.992C130.471 124.992 130.194 124.939 129.938 124.832C129.692 124.715 129.474 124.56 129.282 124.368C129.09 124.176 128.919 123.968 128.77 123.744Z" fill="#1E2121"/>
<rect x="28" y="148" width="24" height="24" rx="4" fill="#FDF0D1"/>
<path fill-rule="evenodd" clip-rule="evenodd" d="M37.7367 155.728C37.7127 155.728 37.6887 155.731 37.6647 155.737C35.4372 156.285 33.6252 158.698 33.6252 161.116C33.6252 164.158 36.1002 166.633 39.143 166.633C41.8857 166.633 44.1777 164.68 44.5932 161.987C44.5962 161.965 44.6067 161.899 44.5452 161.827C44.4867 161.758 44.3937 161.718 44.2962 161.718C43.238 161.718 42.4302 161.742 41.7995 161.76C40.2725 161.806 39.641 161.823 39.017 161.36C38.0765 160.663 37.997 159.466 37.997 155.946C37.997 155.883 37.97 155.83 37.916 155.788C37.8657 155.749 37.802 155.728 37.7367 155.728ZM39.143 167.758C35.48 167.758 32.5002 164.779 32.5002 161.116C32.5002 158.212 34.6962 155.308 37.3955 154.644C37.817 154.541 38.27 154.637 38.6105 154.903C38.9352 155.158 39.122 155.538 39.122 155.946C39.122 159.235 39.233 160.12 39.6867 160.456C39.9845 160.676 40.3925 160.674 41.7672 160.636C42.4062 160.617 43.2245 160.593 44.2962 160.593C44.7237 160.593 45.1265 160.776 45.3995 161.095C45.653 161.391 45.764 161.778 45.7055 162.159C45.2045 165.403 42.4445 167.758 39.143 167.758Z" fill="#F7B318"/>
<mask id="mask2_202_1197" style="mask-type:luminance" maskUnits="userSpaceOnUse" x="40" y="151" width="9" height="9">
<path fill-rule="evenodd" clip-rule="evenodd" d="M40.3555 151.75H48.1697V159.467H40.3555V151.75Z" fill="white"/>
</mask>
<g mask="url(#mask2_202_1197)">
<path fill-rule="evenodd" clip-rule="evenodd" d="M41.508 152.876C41.4255 154.766 41.5478 157.206 41.6048 158.173C41.6078 158.231 41.6498 158.273 41.7068 158.276C42.4778 158.32 45.1343 158.443 47.0445 158.162C47.049 157.109 46.3283 155.681 45.243 154.596C44.13 153.485 42.813 152.876 41.5245 152.876H41.508ZM43.986 159.467C43.0035 159.467 42.1388 159.428 41.6415 159.399C41.016 159.362 40.518 158.864 40.482 158.238C40.4235 157.247 40.2968 154.727 40.3868 152.779C40.4115 152.213 40.869 151.762 41.4285 151.752C43.0313 151.706 44.685 152.45 46.038 153.8C47.3565 155.118 48.1935 156.85 48.1695 158.213C48.1605 158.744 47.7743 159.188 47.2523 159.267C46.2338 159.421 45.0413 159.467 43.986 159.467Z" fill="#F7B318"/>
</g>
<path d="M60.32 166H68.224V164.72H63.12L66.688 161.088C67.1253 160.64 67.4827 160.133 67.76 159.568C68.0373 159.003 68.176 158.432 68.176 157.856C68.176 157.515 68.1067 157.157 67.968 156.784C67.8293 156.411 67.616 156.064 67.328 155.744C67.04 155.413 66.672 155.147 66.224 154.944C65.776 154.731 65.2427 154.624 64.624 154.624C63.856 154.624 63.1947 154.795 62.64 155.136C62.096 155.467 61.68 155.936 61.392 156.544C61.104 157.141 60.96 157.84 60.96 158.64H62.32C62.32 158.075 62.4107 157.589 62.592 157.184C62.7733 156.768 63.0347 156.453 63.376 156.24C63.728 156.016 64.144 155.904 64.624 155.904C64.9653 155.904 65.2693 155.963 65.536 156.08C65.8027 156.197 66.0267 156.352 66.208 156.544C66.4 156.736 66.544 156.949 66.64 157.184C66.736 157.419 66.784 157.659 66.784 157.904C66.784 158.203 66.736 158.491 66.64 158.768C66.5547 159.035 66.4213 159.301 66.24 159.568C66.0693 159.824 65.8613 160.085 65.616 160.352L60.32 166ZM77.4934 162.32C77.4934 161.573 77.3494 160.917 77.0614 160.352C76.7734 159.787 76.3734 159.344 75.8614 159.024C75.36 158.704 74.7894 158.544 74.1494 158.544C73.872 158.544 73.5894 158.581 73.3014 158.656C73.024 158.72 72.752 158.821 72.4854 158.96L73.2374 156H77.4614V154.8H72.1814L70.7094 160.768C71.0934 160.501 71.4294 160.299 71.7174 160.16C72.016 160.011 72.3094 159.909 72.5974 159.856C72.896 159.792 73.2214 159.76 73.5734 159.76C74.0534 159.76 74.48 159.867 74.8534 160.08C75.2374 160.293 75.536 160.592 75.7494 160.976C75.9734 161.36 76.0854 161.808 76.0854 162.32C76.0854 162.832 75.984 163.28 75.7814 163.664C75.5894 164.048 75.3067 164.347 74.9334 164.56C74.56 164.773 74.1067 164.88 73.5734 164.88C73.168 164.88 72.7787 164.795 72.4054 164.624C72.032 164.443 71.7014 164.213 71.4134 163.936C71.136 163.648 70.912 163.344 70.7414 163.024L69.5894 163.808C69.8347 164.235 70.1334 164.629 70.4854 164.992C70.848 165.344 71.28 165.627 71.7814 165.84C72.2934 166.053 72.8907 166.16 73.5734 166.16C74.1174 166.16 74.624 166.08 75.0934 165.92C75.5627 165.76 75.9787 165.52 76.3414 165.2C76.704 164.88 76.9867 164.48 77.1894 164C77.392 163.52 77.4934 162.96 77.4934 162.32ZM80.1406 160.4C80.1406 159.749 80.2046 159.152 80.3326 158.608C80.4606 158.053 80.6473 157.579 80.8926 157.184C81.138 156.779 81.4313 156.469 81.7726 156.256C82.1246 156.032 82.514 155.92 82.9406 155.92C83.378 155.92 83.7673 156.032 84.1086 156.256C84.45 156.469 84.7433 156.779 84.9886 157.184C85.234 157.579 85.4206 158.053 85.5486 158.608C85.6766 159.152 85.7406 159.749 85.7406 160.4C85.7406 161.051 85.6766 161.653 85.5486 162.208C85.4206 162.752 85.234 163.227 84.9886 163.632C84.7433 164.027 84.45 164.336 84.1086 164.56C83.7673 164.773 83.378 164.88 82.9406 164.88C82.514 164.88 82.1246 164.773 81.7726 164.56C81.4313 164.336 81.138 164.027 80.8926 163.632C80.6473 163.227 80.4606 162.752 80.3326 162.208C80.2046 161.653 80.1406 161.051 80.1406 160.4ZM78.7806 160.4C78.7806 161.52 78.9566 162.512 79.3086 163.376C79.6606 164.24 80.146 164.923 80.7646 165.424C81.394 165.915 82.1193 166.16 82.9406 166.16C83.762 166.16 84.482 165.915 85.1006 165.424C85.73 164.923 86.2206 164.24 86.5726 163.376C86.9246 162.512 87.1006 161.52 87.1006 160.4C87.1006 159.28 86.9246 158.288 86.5726 157.424C86.2206 156.56 85.73 155.883 85.1006 155.392C84.482 154.891 83.762 154.64 82.9406 154.64C82.1193 154.64 81.394 154.891 80.7646 155.392C80.146 155.883 79.6606 156.56 79.3086 157.424C78.9566 158.288 78.7806 159.28 78.7806 160.4ZM92.6913 156.08H95.5713V166H96.9313V156.08H99.8113V154.8H92.6913V156.08ZM98.935 162.32C98.935 163.056 99.1003 163.717 99.431 164.304C99.7723 164.88 100.231 165.333 100.807 165.664C101.383 165.995 102.028 166.16 102.743 166.16C103.468 166.16 104.114 165.995 104.679 165.664C105.255 165.333 105.708 164.88 106.039 164.304C106.38 163.717 106.551 163.056 106.551 162.32C106.551 161.573 106.38 160.912 106.039 160.336C105.708 159.76 105.255 159.307 104.679 158.976C104.114 158.645 103.468 158.48 102.743 158.48C102.028 158.48 101.383 158.645 100.807 158.976C100.231 159.307 99.7723 159.76 99.431 160.336C99.1003 160.912 98.935 161.573 98.935 162.32ZM100.231 162.32C100.231 161.808 100.338 161.355 100.551 160.96C100.775 160.555 101.074 160.24 101.447 160.016C101.831 159.792 102.263 159.68 102.743 159.68C103.223 159.68 103.65 159.792 104.023 160.016C104.407 160.24 104.706 160.555 104.919 160.96C105.143 161.355 105.255 161.808 105.255 162.32C105.255 162.832 105.143 163.285 104.919 163.68C104.706 164.075 104.407 164.389 104.023 164.624C103.65 164.848 103.223 164.96 102.743 164.96C102.263 164.96 101.831 164.848 101.447 164.624C101.074 164.389 100.775 164.075 100.551 163.68C100.338 163.285 100.231 162.832 100.231 162.32ZM107.189 158.64V159.84H110.869V158.64H107.189ZM108.389 156.08V166H109.669V156.08H108.389ZM112.729 163.728C112.729 163.461 112.793 163.232 112.921 163.04C113.049 162.848 113.241 162.699 113.497 162.592C113.764 162.485 114.105 162.432 114.521 162.432C114.969 162.432 115.39 162.491 115.785 162.608C116.18 162.715 116.564 162.896 116.937 163.152V162.4C116.862 162.304 116.718 162.181 116.505 162.032C116.292 161.872 116.004 161.733 115.641 161.616C115.289 161.488 114.846 161.424 114.313 161.424C113.406 161.424 112.697 161.643 112.185 162.08C111.684 162.507 111.433 163.077 111.433 163.792C111.433 164.293 111.55 164.72 111.785 165.072C112.02 165.424 112.329 165.696 112.713 165.888C113.108 166.069 113.529 166.16 113.977 166.16C114.382 166.16 114.788 166.085 115.193 165.936C115.609 165.787 115.956 165.557 116.233 165.248C116.521 164.939 116.665 164.549 116.665 164.08L116.409 163.12C116.409 163.504 116.313 163.845 116.121 164.144C115.94 164.432 115.689 164.656 115.369 164.816C115.06 164.976 114.708 165.056 114.313 165.056C114.004 165.056 113.726 165.008 113.481 164.912C113.246 164.805 113.06 164.651 112.921 164.448C112.793 164.245 112.729 164.005 112.729 163.728ZM112.537 160.336C112.654 160.251 112.814 160.149 113.017 160.032C113.22 159.915 113.465 159.813 113.753 159.728C114.052 159.643 114.382 159.6 114.745 159.6C114.969 159.6 115.182 159.621 115.385 159.664C115.588 159.707 115.764 159.776 115.913 159.872C116.073 159.968 116.196 160.101 116.281 160.272C116.366 160.432 116.409 160.64 116.409 160.896V166H117.689V160.72C117.689 160.24 117.566 159.835 117.321 159.504C117.086 159.173 116.75 158.923 116.313 158.752C115.886 158.571 115.385 158.48 114.809 158.48C114.126 158.48 113.54 158.581 113.049 158.784C112.569 158.987 112.19 159.189 111.913 159.392L112.537 160.336ZM119.856 153.52V166H121.136V153.52H119.856ZM127.221 158.64V159.84H130.901V158.64H127.221ZM128.421 156.08V166H129.701V156.08H128.421ZM132.76 163.728C132.76 163.461 132.824 163.232 132.952 163.04C133.08 162.848 133.272 162.699 133.528 162.592C133.795 162.485 134.136 162.432 134.552 162.432C135 162.432 135.422 162.491 135.816 162.608C136.211 162.715 136.595 162.896 136.968 163.152V162.4C136.894 162.304 136.75 162.181 136.536 162.032C136.323 161.872 136.035 161.733 135.672 161.616C135.32 161.488 134.878 161.424 134.344 161.424C133.438 161.424 132.728 161.643 132.216 162.08C131.715 162.507 131.464 163.077 131.464 163.792C131.464 164.293 131.582 164.72 131.816 165.072C132.051 165.424 132.36 165.696 132.744 165.888C133.139 166.069 133.56 166.16 134.008 166.16C134.414 166.16 134.819 166.085 135.224 165.936C135.64 165.787 135.987 165.557 136.264 165.248C136.552 164.939 136.696 164.549 136.696 164.08L136.44 163.12C136.44 163.504 136.344 163.845 136.152 164.144C135.971 164.432 135.72 164.656 135.4 164.816C135.091 164.976 134.739 165.056 134.344 165.056C134.035 165.056 133.758 165.008 133.512 164.912C133.278 164.805 133.091 164.651 132.952 164.448C132.824 164.245 132.76 164.005 132.76 163.728ZM132.568 160.336C132.686 160.251 132.846 160.149 133.048 160.032C133.251 159.915 133.496 159.813 133.784 159.728C134.083 159.643 134.414 159.6 134.776 159.6C135 159.6 135.214 159.621 135.416 159.664C135.619 159.707 135.795 159.776 135.944 159.872C136.104 159.968 136.227 160.101 136.312 160.272C136.398 160.432 136.44 160.64 136.44 160.896V166H137.72V160.72C137.72 160.24 137.598 159.835 137.352 159.504C137.118 159.173 136.782 158.923 136.344 158.752C135.918 158.571 135.416 158.48 134.84 158.48C134.158 158.48 133.571 158.581 133.08 158.784C132.6 158.987 132.222 159.189 131.944 159.392L132.568 160.336ZM140.192 163.744L139.184 164.368C139.322 164.656 139.525 164.939 139.792 165.216C140.069 165.493 140.405 165.723 140.799 165.904C141.194 166.075 141.637 166.16 142.128 166.16C142.885 166.16 143.493 165.947 143.952 165.52C144.421 165.093 144.656 164.56 144.656 163.92C144.656 163.483 144.549 163.125 144.336 162.848C144.133 162.571 143.856 162.336 143.504 162.144C143.152 161.941 142.762 161.755 142.336 161.584C142.08 161.477 141.834 161.365 141.6 161.248C141.365 161.131 141.173 160.997 141.024 160.848C140.874 160.699 140.799 160.528 140.799 160.336C140.799 160.091 140.896 159.909 141.088 159.792C141.28 159.675 141.509 159.616 141.776 159.616C142.16 159.616 142.501 159.707 142.799 159.888C143.109 160.069 143.365 160.299 143.568 160.576L144.592 159.92C144.442 159.643 144.234 159.397 143.968 159.184C143.701 158.971 143.392 158.8 143.04 158.672C142.698 158.544 142.33 158.48 141.936 158.48C141.541 158.48 141.157 158.549 140.784 158.688C140.421 158.827 140.122 159.04 139.888 159.328C139.664 159.616 139.552 159.979 139.552 160.416C139.552 160.843 139.658 161.2 139.872 161.488C140.096 161.765 140.368 161.995 140.688 162.176C141.018 162.347 141.344 162.496 141.664 162.624C141.952 162.731 142.224 162.848 142.48 162.976C142.736 163.093 142.944 163.243 143.104 163.424C143.274 163.595 143.36 163.808 143.36 164.064C143.36 164.352 143.253 164.581 143.04 164.752C142.837 164.912 142.554 164.992 142.192 164.992C141.893 164.992 141.616 164.939 141.36 164.832C141.114 164.715 140.896 164.56 140.704 164.368C140.512 164.176 140.341 163.968 140.192 163.744ZM146.261 153.52V166H147.541V153.52H146.261ZM150.261 158.64L147.061 161.68L150.581 166H152.181L148.661 161.68L151.861 158.64H150.261ZM153.692 163.744L152.684 164.368C152.822 164.656 153.025 164.939 153.292 165.216C153.569 165.493 153.905 165.723 154.299 165.904C154.694 166.075 155.137 166.16 155.628 166.16C156.385 166.16 156.993 165.947 157.452 165.52C157.921 165.093 158.156 164.56 158.156 163.92C158.156 163.483 158.049 163.125 157.836 162.848C157.633 162.571 157.356 162.336 157.004 162.144C156.652 161.941 156.262 161.755 155.836 161.584C155.58 161.477 155.334 161.365 155.1 161.248C154.865 161.131 154.673 160.997 154.524 160.848C154.374 160.699 154.299 160.528 154.299 160.336C154.299 160.091 154.396 159.909 154.588 159.792C154.78 159.675 155.009 159.616 155.276 159.616C155.66 159.616 156.001 159.707 156.299 159.888C156.609 160.069 156.865 160.299 157.068 160.576L158.092 159.92C157.942 159.643 157.734 159.397 157.468 159.184C157.201 158.971 156.892 158.8 156.54 158.672C156.198 158.544 155.83 158.48 155.436 158.48C155.041 158.48 154.657 158.549 154.284 158.688C153.921 158.827 153.622 159.04 153.388 159.328C153.164 159.616 153.052 159.979 153.052 160.416C153.052 160.843 153.158 161.2 153.372 161.488C153.596 161.765 153.868 161.995 154.188 162.176C154.518 162.347 154.844 162.496 155.164 162.624C155.452 162.731 155.724 162.848 155.98 162.976C156.236 163.093 156.444 163.243 156.604 163.424C156.774 163.595 156.86 163.808 156.86 164.064C156.86 164.352 156.753 164.581 156.54 164.752C156.337 164.912 156.054 164.992 155.692 164.992C155.393 164.992 155.116 164.939 154.86 164.832C154.614 164.715 154.396 164.56 154.204 164.368C154.012 164.176 153.841 163.968 153.692 163.744Z" fill="#1E2121"/>
<rect x="28" y="188" width="24" height="24" rx="4" fill="#D4EFDF"/>
<path fill-rule="evenodd" clip-rule="evenodd" d="M36.7487 193.625C34.8512 193.625 33.625 194.925 33.625 196.937V203.063C33.625 205.075 34.8512 206.375 36.7487 206.375H43.2498C45.148 206.375 46.375 205.075 46.375 203.063V196.937C46.375 194.925 45.148 193.625 43.2505 193.625H36.7487ZM43.2498 207.5H36.7487C34.207 207.5 32.5 205.716 32.5 203.063V196.937C32.5 194.283 34.207 192.5 36.7487 192.5H43.2505C45.7922 192.5 47.5 194.283 47.5 196.937V203.063C47.5 205.716 45.7923 207.5 43.2498 207.5Z" fill="#219150"/>
<path fill-rule="evenodd" clip-rule="evenodd" d="M39.1101 202.342C38.9669 202.342 38.8221 202.288 38.7126 202.177L36.9321 200.398C36.7124 200.178 36.7124 199.822 36.9321 199.603C37.1519 199.383 37.5074 199.383 37.7271 199.603L39.1101 200.984L42.2721 197.823C42.4919 197.603 42.8474 197.603 43.0671 197.823C43.2869 198.043 43.2869 198.398 43.0671 198.618L39.5076 202.177C39.3981 202.288 39.2541 202.342 39.1101 202.342Z" fill="#219150"/>
<path d="M60.32 206H68.224V204.72H63.12L66.688 201.088C67.1253 200.64 67.4827 200.133 67.76 199.568C68.0373 199.003 68.176 198.432 68.176 197.856C68.176 197.515 68.1067 197.157 67.968 196.784C67.8293 196.411 67.616 196.064 67.328 195.744C67.04 195.413 66.672 195.147 66.224 194.944C65.776 194.731 65.2427 194.624 64.624 194.624C63.856 194.624 63.1947 194.795 62.64 195.136C62.096 195.467 61.68 195.936 61.392 196.544C61.104 197.141 60.96 197.84 60.96 198.64H62.32C62.32 198.075 62.4107 197.589 62.592 197.184C62.7733 196.768 63.0347 196.453 63.376 196.24C63.728 196.016 64.144 195.904 64.624 195.904C64.9653 195.904 65.2693 195.963 65.536 196.08C65.8027 196.197 66.0267 196.352 66.208 196.544C66.4 196.736 66.544 196.949 66.64 197.184C66.736 197.419 66.784 197.659 66.784 197.904C66.784 198.203 66.736 198.491 66.64 198.768C66.5547 199.035 66.4213 199.301 66.24 199.568C66.0693 199.824 65.8613 200.085 65.616 200.352L60.32 206ZM71.1094 200.4C71.1094 199.749 71.1734 199.152 71.3014 198.608C71.4294 198.053 71.616 197.579 71.8614 197.184C72.1067 196.779 72.4 196.469 72.7414 196.256C73.0934 196.032 73.4827 195.92 73.9094 195.92C74.3467 195.92 74.736 196.032 75.0774 196.256C75.4187 196.469 75.712 196.779 75.9574 197.184C76.2027 197.579 76.3894 198.053 76.5174 198.608C76.6454 199.152 76.7094 199.749 76.7094 200.4C76.7094 201.051 76.6454 201.653 76.5174 202.208C76.3894 202.752 76.2027 203.227 75.9574 203.632C75.712 204.027 75.4187 204.336 75.0774 204.56C74.736 204.773 74.3467 204.88 73.9094 204.88C73.4827 204.88 73.0934 204.773 72.7414 204.56C72.4 204.336 72.1067 204.027 71.8614 203.632C71.616 203.227 71.4294 202.752 71.3014 202.208C71.1734 201.653 71.1094 201.051 71.1094 200.4ZM69.7494 200.4C69.7494 201.52 69.9254 202.512 70.2774 203.376C70.6294 204.24 71.1147 204.923 71.7334 205.424C72.3627 205.915 73.088 206.16 73.9094 206.16C74.7307 206.16 75.4507 205.915 76.0694 205.424C76.6987 204.923 77.1894 204.24 77.5414 203.376C77.8934 202.512 78.0694 201.52 78.0694 200.4C78.0694 199.28 77.8934 198.288 77.5414 197.424C77.1894 196.56 76.6987 195.883 76.0694 195.392C75.4507 194.891 74.7307 194.64 73.9094 194.64C73.088 194.64 72.3627 194.891 71.7334 195.392C71.1147 195.883 70.6294 196.56 70.2774 197.424C69.9254 198.288 69.7494 199.28 69.7494 200.4ZM80.7031 200.4C80.7031 199.749 80.7671 199.152 80.8951 198.608C81.0231 198.053 81.2098 197.579 81.4551 197.184C81.7005 196.779 81.9938 196.469 82.3351 196.256C82.6871 196.032 83.0765 195.92 83.5031 195.92C83.9405 195.92 84.3298 196.032 84.6711 196.256C85.0125 196.469 85.3058 196.779 85.5511 197.184C85.7965 197.579 85.9831 198.053 86.1111 198.608C86.2391 199.152 86.3031 199.749 86.3031 200.4C86.3031 201.051 86.2391 201.653 86.1111 202.208C85.9831 202.752 85.7965 203.227 85.5511 203.632C85.3058 204.027 85.0125 204.336 84.6711 204.56C84.3298 204.773 83.9405 204.88 83.5031 204.88C83.0765 204.88 82.6871 204.773 82.3351 204.56C81.9938 204.336 81.7005 204.027 81.4551 203.632C81.2098 203.227 81.0231 202.752 80.8951 202.208C80.7671 201.653 80.7031 201.051 80.7031 200.4ZM79.3431 200.4C79.3431 201.52 79.5191 202.512 79.8711 203.376C80.2231 204.24 80.7085 204.923 81.3271 205.424C81.9565 205.915 82.6818 206.16 83.5031 206.16C84.3245 206.16 85.0445 205.915 85.6631 205.424C86.2925 204.923 86.7831 204.24 87.1351 203.376C87.4871 202.512 87.6631 201.52 87.6631 200.4C87.6631 199.28 87.4871 198.288 87.1351 197.424C86.7831 196.56 86.2925 195.883 85.6631 195.392C85.0445 194.891 84.3245 194.64 83.5031 194.64C82.6818 194.64 81.9565 194.891 81.3271 195.392C80.7085 195.883 80.2231 196.56 79.8711 197.424C79.5191 198.288 79.3431 199.28 79.3431 200.4ZM95.1738 200.4C95.1738 199.525 95.3658 198.763 95.7498 198.112C96.1444 197.451 96.6564 196.933 97.2858 196.56C97.9151 196.187 98.5978 196 99.3338 196C99.8671 196 100.352 196.069 100.79 196.208C101.238 196.347 101.643 196.544 102.006 196.8C102.368 197.045 102.678 197.333 102.934 197.664V195.872C102.464 195.456 101.952 195.147 101.398 194.944C100.843 194.741 100.155 194.64 99.3338 194.64C98.5551 194.64 97.8244 194.784 97.1418 195.072C96.4698 195.349 95.8778 195.749 95.3658 196.272C94.8538 196.784 94.4538 197.392 94.1658 198.096C93.8778 198.8 93.7338 199.568 93.7338 200.4C93.7338 201.232 93.8778 202 94.1658 202.704C94.4538 203.408 94.8538 204.021 95.3658 204.544C95.8778 205.056 96.4698 205.456 97.1418 205.744C97.8244 206.021 98.5551 206.16 99.3338 206.16C100.155 206.16 100.843 206.059 101.398 205.856C101.952 205.653 102.464 205.344 102.934 204.928V203.136C102.678 203.467 102.368 203.76 102.006 204.016C101.643 204.261 101.238 204.453 100.79 204.592C100.352 204.731 99.8671 204.8 99.3338 204.8C98.5978 204.8 97.9151 204.613 97.2858 204.24C96.6564 203.867 96.1444 203.349 95.7498 202.688C95.3658 202.027 95.1738 201.264 95.1738 200.4ZM104.607 202.32C104.607 203.056 104.772 203.717 105.103 204.304C105.444 204.88 105.903 205.333 106.479 205.664C107.055 205.995 107.7 206.16 108.415 206.16C109.14 206.16 109.786 205.995 110.351 205.664C110.927 205.333 111.38 204.88 111.711 204.304C112.052 203.717 112.223 203.056 112.223 202.32C112.223 201.573 112.052 200.912 111.711 200.336C111.38 199.76 110.927 199.307 110.351 198.976C109.786 198.645 109.14 198.48 108.415 198.48C107.7 198.48 107.055 198.645 106.479 198.976C105.903 199.307 105.444 199.76 105.103 200.336C104.772 200.912 104.607 201.573 104.607 202.32ZM105.903 202.32C105.903 201.808 106.01 201.355 106.223 200.96C106.447 200.555 106.746 200.24 107.119 200.016C107.503 199.792 107.935 199.68 108.415 199.68C108.895 199.68 109.322 199.792 109.695 200.016C110.079 200.24 110.378 200.555 110.591 200.96C110.815 201.355 110.927 201.808 110.927 202.32C110.927 202.832 110.815 203.285 110.591 203.68C110.378 204.075 110.079 204.389 109.695 204.624C109.322 204.848 108.895 204.96 108.415 204.96C107.935 204.96 107.503 204.848 107.119 204.624C106.746 204.389 106.447 204.075 106.223 203.68C106.01 203.285 105.903 202.832 105.903 202.32ZM124.061 201.36C124.061 200.752 123.965 200.235 123.773 199.808C123.592 199.371 123.325 199.04 122.973 198.816C122.621 198.592 122.195 198.48 121.693 198.48C121.203 198.48 120.765 198.597 120.381 198.832C119.997 199.056 119.677 199.397 119.421 199.856C119.251 199.419 118.979 199.083 118.605 198.848C118.243 198.603 117.805 198.48 117.293 198.48C116.835 198.48 116.435 198.581 116.093 198.784C115.763 198.987 115.485 199.296 115.261 199.712V198.64H113.981V206H115.261V201.52C115.261 201.136 115.331 200.805 115.469 200.528C115.608 200.251 115.805 200.043 116.061 199.904C116.317 199.755 116.621 199.68 116.973 199.68C117.453 199.68 117.805 199.829 118.029 200.128C118.264 200.427 118.381 200.891 118.381 201.52V206H119.661V201.52C119.661 201.136 119.731 200.805 119.869 200.528C120.008 200.251 120.205 200.043 120.461 199.904C120.717 199.755 121.021 199.68 121.373 199.68C121.853 199.68 122.205 199.829 122.429 200.128C122.664 200.427 122.781 200.891 122.781 201.52V206H124.061V201.36ZM127.666 209.52V198.64H126.386V209.52H127.666ZM133.826 202.32C133.826 201.52 133.66 200.837 133.33 200.272C132.999 199.696 132.556 199.253 132.002 198.944C131.458 198.635 130.85 198.48 130.178 198.48C129.57 198.48 129.031 198.635 128.562 198.944C128.103 199.253 127.74 199.696 127.474 200.272C127.218 200.837 127.09 201.52 127.09 202.32C127.09 203.109 127.218 203.792 127.474 204.368C127.74 204.944 128.103 205.387 128.562 205.696C129.031 206.005 129.57 206.16 130.178 206.16C130.85 206.16 131.458 206.005 132.002 205.696C132.556 205.387 132.999 204.944 133.33 204.368C133.66 203.792 133.826 203.109 133.826 202.32ZM132.53 202.32C132.53 202.885 132.412 203.365 132.178 203.76C131.954 204.155 131.65 204.453 131.266 204.656C130.892 204.859 130.476 204.96 130.018 204.96C129.644 204.96 129.276 204.859 128.914 204.656C128.551 204.453 128.252 204.155 128.018 203.76C127.783 203.365 127.666 202.885 127.666 202.32C127.666 201.755 127.783 201.275 128.018 200.88C128.252 200.485 128.551 200.187 128.914 199.984C129.276 199.781 129.644 199.68 130.018 199.68C130.476 199.68 130.892 199.781 131.266 199.984C131.65 200.187 131.954 200.485 132.178 200.88C132.412 201.275 132.53 201.755 132.53 202.32ZM135.591 193.52V206H136.871V193.52H135.591ZM142.126 206.16C142.915 206.16 143.598 206.005 144.174 205.696C144.761 205.376 145.246 204.907 145.63 204.288L144.59 203.632C144.323 204.08 143.998 204.416 143.614 204.64C143.23 204.853 142.787 204.96 142.286 204.96C141.785 204.96 141.358 204.853 141.006 204.64C140.654 204.427 140.387 204.117 140.206 203.712C140.025 203.307 139.934 202.816 139.934 202.24C139.945 201.675 140.041 201.2 140.222 200.816C140.414 200.421 140.681 200.123 141.022 199.92C141.374 199.707 141.795 199.6 142.286 199.6C142.702 199.6 143.065 199.691 143.374 199.872C143.683 200.053 143.923 200.304 144.094 200.624C144.275 200.944 144.366 201.323 144.366 201.76C144.366 201.835 144.35 201.931 144.318 202.048C144.286 202.155 144.254 202.235 144.222 202.288L144.734 201.552H139.454V202.64H145.742C145.742 202.619 145.742 202.571 145.742 202.496C145.753 202.411 145.758 202.331 145.758 202.256C145.758 201.477 145.619 200.805 145.342 200.24C145.065 199.675 144.665 199.243 144.142 198.944C143.63 198.635 143.011 198.48 142.286 198.48C141.561 198.48 140.921 198.64 140.366 198.96C139.822 199.28 139.395 199.728 139.086 200.304C138.787 200.88 138.638 201.552 138.638 202.32C138.638 203.077 138.782 203.744 139.07 204.32C139.369 204.896 139.779 205.349 140.302 205.68C140.835 206 141.443 206.16 142.126 206.16ZM146.393 198.64V199.84H150.073V198.64H146.393ZM147.593 196.08V206H148.873V196.08H147.593ZM154.204 206.16C154.994 206.16 155.676 206.005 156.252 205.696C156.839 205.376 157.324 204.907 157.708 204.288L156.668 203.632C156.402 204.08 156.076 204.416 155.692 204.64C155.308 204.853 154.866 204.96 154.364 204.96C153.863 204.96 153.436 204.853 153.084 204.64C152.732 204.427 152.466 204.117 152.284 203.712C152.103 203.307 152.012 202.816 152.012 202.24C152.023 201.675 152.119 201.2 152.3 200.816C152.492 200.421 152.759 200.123 153.1 199.92C153.452 199.707 153.874 199.6 154.364 199.6C154.78 199.6 155.143 199.691 155.452 199.872C155.762 200.053 156.002 200.304 156.172 200.624C156.354 200.944 156.444 201.323 156.444 201.76C156.444 201.835 156.428 201.931 156.396 202.048C156.364 202.155 156.332 202.235 156.3 202.288L156.812 201.552H151.532V202.64H157.82C157.82 202.619 157.82 202.571 157.82 202.496C157.831 202.411 157.836 202.331 157.836 202.256C157.836 201.477 157.698 200.805 157.42 200.24C157.143 199.675 156.743 199.243 156.22 198.944C155.708 198.635 155.09 198.48 154.364 198.48C153.639 198.48 152.999 198.64 152.444 198.96C151.9 199.28 151.474 199.728 151.164 200.304C150.866 200.88 150.716 201.552 150.716 202.32C150.716 203.077 150.86 203.744 151.148 204.32C151.447 204.896 151.858 205.349 152.38 205.68C152.914 206 153.522 206.16 154.204 206.16ZM165.111 193.52V206H166.391V193.52H165.111ZM158.951 202.32C158.951 203.109 159.116 203.792 159.447 204.368C159.777 204.944 160.22 205.387 160.775 205.696C161.329 206.005 161.937 206.16 162.599 206.16C163.217 206.16 163.756 206.005 164.215 205.696C164.673 205.387 165.031 204.944 165.287 204.368C165.553 203.792 165.687 203.109 165.687 202.32C165.687 201.52 165.553 200.837 165.287 200.272C165.031 199.696 164.673 199.253 164.215 198.944C163.756 198.635 163.217 198.48 162.599 198.48C161.937 198.48 161.329 198.635 160.775 198.944C160.22 199.253 159.777 199.696 159.447 200.272C159.116 200.837 158.951 201.52 158.951 202.32ZM160.247 202.32C160.247 201.755 160.359 201.275 160.583 200.88C160.817 200.485 161.127 200.187 161.511 199.984C161.895 199.781 162.311 199.68 162.759 199.68C163.132 199.68 163.5 199.781 163.863 199.984C164.225 200.187 164.524 200.485 164.759 200.88C164.993 201.275 165.111 201.755 165.111 202.32C165.111 202.885 164.993 203.365 164.759 203.76C164.524 204.155 164.225 204.453 163.863 204.656C163.5 204.859 163.132 204.96 162.759 204.96C162.311 204.96 161.895 204.859 161.511 204.656C161.127 204.453 160.817 204.155 160.583 203.76C160.359 203.365 160.247 202.885 160.247 202.32Z" fill="#1E2121"/>
<rect x="28" y="228" width="24" height="24" rx="4" fill="#078BEA" fill-opacity="0.2"/>
<path fill-rule="evenodd" clip-rule="evenodd" d="M46.563 247.455H41.1233C40.8128 247.455 40.5608 247.203 40.5608 246.892C40.5608 246.582 40.8128 246.33 41.1233 246.33H46.563C46.8735 246.33 47.1255 246.582 47.1255 246.892C47.1255 247.203 46.8735 247.455 46.563 247.455Z" fill="#078BEA"/>
<mask id="mask3_202_1197" style="mask-type:luminance" maskUnits="userSpaceOnUse" x="32" y="233" width="14" height="15">
<path fill-rule="evenodd" clip-rule="evenodd" d="M32.5002 233.25H45.3857V247.455H32.5002V233.25Z" fill="white"/>
</mask>
<g mask="url(#mask3_202_1197)">
<path fill-rule="evenodd" clip-rule="evenodd" d="M40.8329 234.763L33.7717 243.594C33.6434 243.754 33.5962 243.961 33.6434 244.16L34.1542 246.324L36.4334 246.295C36.6502 246.293 36.8504 246.196 36.9832 246.031C39.3959 243.013 43.9957 237.257 44.1262 237.088C44.2492 236.889 44.2972 236.607 44.2327 236.335C44.1667 236.057 43.9934 235.821 43.7437 235.67C43.6904 235.633 42.4267 234.652 42.3877 234.622C41.9122 234.241 41.2184 234.307 40.8329 234.763ZM33.7102 247.455C33.4499 247.455 33.2234 247.276 33.1627 247.022L32.5484 244.419C32.4217 243.88 32.5477 243.323 32.8934 242.891L39.9584 234.055C39.9614 234.052 39.9637 234.048 39.9667 234.045C40.7415 233.119 42.1424 232.982 43.0875 233.74C43.1249 233.77 44.3797 234.745 44.3797 234.745C44.8357 235.016 45.1919 235.501 45.327 236.076C45.4612 236.644 45.3637 237.231 45.0509 237.727C45.0277 237.763 45.0075 237.795 37.8615 246.735C37.5172 247.164 37.0012 247.414 36.4469 247.42L33.7177 247.455H33.7102Z" fill="#078BEA"/>
</g>
<path fill-rule="evenodd" clip-rule="evenodd" d="M43.1676 239.764C43.0476 239.764 42.9276 239.725 42.8248 239.647L38.7358 236.506C38.4898 236.317 38.4433 235.965 38.6323 235.717C38.8221 235.471 39.1746 235.426 39.4213 235.615L43.5111 238.755C43.7571 238.944 43.8036 239.297 43.6138 239.544C43.5036 239.688 43.3363 239.764 43.1676 239.764Z" fill="#078BEA"/>
<path d="M61.28 237.008L63.76 236.272V246H65.12V234.64L61.28 235.6V237.008ZM67.5231 246H75.4271V244.72H70.3231L73.8911 241.088C74.3285 240.64 74.6858 240.133 74.9631 239.568C75.2405 239.003 75.3791 238.432 75.3791 237.856C75.3791 237.515 75.3098 237.157 75.1711 236.784C75.0325 236.411 74.8191 236.064 74.5311 235.744C74.2431 235.413 73.8751 235.147 73.4271 234.944C72.9791 234.731 72.4458 234.624 71.8271 234.624C71.0591 234.624 70.3978 234.795 69.8431 235.136C69.2991 235.467 68.8831 235.936 68.5951 236.544C68.3071 237.141 68.1631 237.84 68.1631 238.64H69.5231C69.5231 238.075 69.6138 237.589 69.7951 237.184C69.9765 236.768 70.2378 236.453 70.5791 236.24C70.9311 236.016 71.3471 235.904 71.8271 235.904C72.1685 235.904 72.4725 235.963 72.7391 236.08C73.0058 236.197 73.2298 236.352 73.4111 236.544C73.6031 236.736 73.7471 236.949 73.8431 237.184C73.9391 237.419 73.9871 237.659 73.9871 237.904C73.9871 238.203 73.9391 238.491 73.8431 238.768C73.7578 239.035 73.6245 239.301 73.4431 239.568C73.2725 239.824 73.0645 240.085 72.8191 240.352L67.5231 246ZM82.3894 234.8V246H83.7494V234.8H82.3894ZM90.9513 241.52V246H92.2313V241.36C92.2313 240.475 92.0019 239.776 91.5433 239.264C91.0953 238.741 90.4819 238.48 89.7033 238.48C89.2233 238.48 88.7966 238.587 88.4233 238.8C88.0606 239.013 87.7566 239.344 87.5113 239.792V238.64H86.2313V246H87.5113V241.52C87.5113 241.157 87.5859 240.837 87.7353 240.56C87.8953 240.283 88.1139 240.069 88.3913 239.92C88.6793 239.76 89.0099 239.68 89.3833 239.68C89.8953 239.68 90.2846 239.835 90.5513 240.144C90.8179 240.453 90.9513 240.912 90.9513 241.52ZM100.634 249.52V238.64H99.3544V249.52H100.634ZM106.794 242.32C106.794 241.52 106.629 240.837 106.298 240.272C105.968 239.696 105.525 239.253 104.97 238.944C104.426 238.635 103.818 238.48 103.146 238.48C102.538 238.48 102 238.635 101.53 238.944C101.072 239.253 100.709 239.696 100.442 240.272C100.186 240.837 100.058 241.52 100.058 242.32C100.058 243.109 100.186 243.792 100.442 244.368C100.709 244.944 101.072 245.387 101.53 245.696C102 246.005 102.538 246.16 103.146 246.16C103.818 246.16 104.426 246.005 104.97 245.696C105.525 245.387 105.968 244.944 106.298 244.368C106.629 243.792 106.794 243.109 106.794 242.32ZM105.498 242.32C105.498 242.885 105.381 243.365 105.146 243.76C104.922 244.155 104.618 244.453 104.234 244.656C103.861 244.859 103.445 244.96 102.986 244.96C102.613 244.96 102.245 244.859 101.882 244.656C101.52 244.453 101.221 244.155 100.986 243.76C100.752 243.365 100.634 242.885 100.634 242.32C100.634 241.755 100.752 241.275 100.986 240.88C101.221 240.485 101.52 240.187 101.882 239.984C102.245 239.781 102.613 239.68 102.986 239.68C103.445 239.68 103.861 239.781 104.234 239.984C104.618 240.187 104.922 240.485 105.146 240.88C105.381 241.275 105.498 241.755 105.498 242.32ZM109.839 238.64H108.559V246H109.839V238.64ZM112.063 240.048L112.767 238.992C112.575 238.789 112.362 238.656 112.127 238.592C111.903 238.517 111.658 238.48 111.391 238.48C111.05 238.48 110.714 238.613 110.383 238.88C110.053 239.147 109.781 239.509 109.567 239.968C109.365 240.416 109.263 240.933 109.263 241.52H109.839C109.839 241.168 109.871 240.853 109.935 240.576C110.01 240.299 110.138 240.08 110.319 239.92C110.501 239.76 110.751 239.68 111.071 239.68C111.285 239.68 111.461 239.712 111.599 239.776C111.738 239.829 111.893 239.92 112.063 240.048ZM113.169 242.32C113.169 243.056 113.335 243.717 113.665 244.304C114.007 244.88 114.465 245.333 115.041 245.664C115.617 245.995 116.263 246.16 116.977 246.16C117.703 246.16 118.348 245.995 118.913 245.664C119.489 245.333 119.943 244.88 120.273 244.304C120.615 243.717 120.785 243.056 120.785 242.32C120.785 241.573 120.615 240.912 120.273 240.336C119.943 239.76 119.489 239.307 118.913 238.976C118.348 238.645 117.703 238.48 116.977 238.48C116.263 238.48 115.617 238.645 115.041 238.976C114.465 239.307 114.007 239.76 113.665 240.336C113.335 240.912 113.169 241.573 113.169 242.32ZM114.465 242.32C114.465 241.808 114.572 241.355 114.785 240.96C115.009 240.555 115.308 240.24 115.681 240.016C116.065 239.792 116.497 239.68 116.977 239.68C117.457 239.68 117.884 239.792 118.257 240.016C118.641 240.24 118.94 240.555 119.153 240.96C119.377 241.355 119.489 241.808 119.489 242.32C119.489 242.832 119.377 243.285 119.153 243.68C118.94 244.075 118.641 244.389 118.257 244.624C117.884 244.848 117.457 244.96 116.977 244.96C116.497 244.96 116.065 244.848 115.681 244.624C115.308 244.389 115.009 244.075 114.785 243.68C114.572 243.285 114.465 242.832 114.465 242.32ZM122.048 246.48C122.048 247.109 122.202 247.664 122.512 248.144C122.821 248.635 123.248 249.013 123.792 249.28C124.346 249.547 124.981 249.68 125.696 249.68C126.314 249.68 126.901 249.536 127.456 249.248C128.01 248.96 128.464 248.528 128.816 247.952C129.168 247.387 129.344 246.683 129.344 245.84V238.64H128.064V245.84C128.064 246.459 127.941 246.96 127.696 247.344C127.461 247.739 127.162 248.027 126.8 248.208C126.437 248.389 126.069 248.48 125.696 248.48C125.216 248.48 124.8 248.384 124.448 248.192C124.096 248.011 123.824 247.765 123.632 247.456C123.44 247.157 123.344 246.832 123.344 246.48H122.048ZM121.904 242.32C121.904 243.109 122.069 243.792 122.4 244.368C122.73 244.944 123.173 245.387 123.728 245.696C124.282 246.005 124.89 246.16 125.552 246.16C126.17 246.16 126.709 246.005 127.168 245.696C127.626 245.387 127.984 244.944 128.24 244.368C128.506 243.792 128.64 243.109 128.64 242.32C128.64 241.52 128.506 240.837 128.24 240.272C127.984 239.696 127.626 239.253 127.168 238.944C126.709 238.635 126.17 238.48 125.552 238.48C124.89 238.48 124.282 238.635 123.728 238.944C123.173 239.253 122.73 239.696 122.4 240.272C122.069 240.837 121.904 241.52 121.904 242.32ZM123.2 242.32C123.2 241.755 123.312 241.275 123.536 240.88C123.77 240.485 124.08 240.187 124.464 239.984C124.848 239.781 125.264 239.68 125.712 239.68C125.989 239.68 126.266 239.739 126.544 239.856C126.821 239.973 127.072 240.144 127.296 240.368C127.53 240.592 127.717 240.869 127.856 241.2C127.994 241.52 128.064 241.893 128.064 242.32C128.064 242.885 127.946 243.365 127.712 243.76C127.477 244.155 127.178 244.453 126.816 244.656C126.453 244.859 126.085 244.96 125.712 244.96C125.264 244.96 124.848 244.859 124.464 244.656C124.08 244.453 123.77 244.155 123.536 243.76C123.312 243.365 123.2 242.885 123.2 242.32ZM132.949 238.64H131.669V246H132.949V238.64ZM135.173 240.048L135.877 238.992C135.685 238.789 135.471 238.656 135.237 238.592C135.013 238.517 134.767 238.48 134.501 238.48C134.159 238.48 133.823 238.613 133.493 238.88C133.162 239.147 132.89 239.509 132.677 239.968C132.474 240.416 132.373 240.933 132.373 241.52H132.949C132.949 241.168 132.981 240.853 133.045 240.576C133.119 240.299 133.247 240.08 133.429 239.92C133.61 239.76 133.861 239.68 134.181 239.68C134.394 239.68 134.57 239.712 134.709 239.776C134.847 239.829 135.002 239.92 135.173 240.048ZM139.767 246.16C140.556 246.16 141.239 246.005 141.815 245.696C142.401 245.376 142.887 244.907 143.271 244.288L142.231 243.632C141.964 244.08 141.639 244.416 141.255 244.64C140.871 244.853 140.428 244.96 139.927 244.96C139.425 244.96 138.999 244.853 138.647 244.64C138.295 244.427 138.028 244.117 137.847 243.712C137.665 243.307 137.575 242.816 137.575 242.24C137.585 241.675 137.681 241.2 137.863 240.816C138.055 240.421 138.321 240.123 138.663 239.92C139.015 239.707 139.436 239.6 139.927 239.6C140.343 239.6 140.705 239.691 141.015 239.872C141.324 240.053 141.564 240.304 141.735 240.624C141.916 240.944 142.007 241.323 142.007 241.76C142.007 241.835 141.991 241.931 141.959 242.048C141.927 242.155 141.895 242.235 141.863 242.288L142.375 241.552H137.095V242.64H143.383C143.383 242.619 143.383 242.571 143.383 242.496C143.393 242.411 143.399 242.331 143.399 242.256C143.399 241.477 143.26 240.805 142.983 240.24C142.705 239.675 142.305 239.243 141.783 238.944C141.271 238.635 140.652 238.48 139.927 238.48C139.201 238.48 138.561 238.64 138.007 238.96C137.463 239.28 137.036 239.728 136.727 240.304C136.428 240.88 136.279 241.552 136.279 242.32C136.279 243.077 136.423 243.744 136.711 244.32C137.009 244.896 137.42 245.349 137.943 245.68C138.476 246 139.084 246.16 139.767 246.16ZM145.457 243.744L144.449 244.368C144.588 244.656 144.79 244.939 145.057 245.216C145.334 245.493 145.67 245.723 146.065 245.904C146.46 246.075 146.902 246.16 147.393 246.16C148.15 246.16 148.758 245.947 149.217 245.52C149.686 245.093 149.921 244.56 149.921 243.92C149.921 243.483 149.814 243.125 149.601 242.848C149.398 242.571 149.121 242.336 148.769 242.144C148.417 241.941 148.028 241.755 147.601 241.584C147.345 241.477 147.1 241.365 146.865 241.248C146.63 241.131 146.438 240.997 146.289 240.848C146.14 240.699 146.065 240.528 146.065 240.336C146.065 240.091 146.161 239.909 146.353 239.792C146.545 239.675 146.774 239.616 147.041 239.616C147.425 239.616 147.766 239.707 148.065 239.888C148.374 240.069 148.63 240.299 148.833 240.576L149.857 239.92C149.708 239.643 149.5 239.397 149.233 239.184C148.966 238.971 148.657 238.8 148.305 238.672C147.964 238.544 147.596 238.48 147.201 238.48C146.806 238.48 146.422 238.549 146.049 238.688C145.686 238.827 145.388 239.04 145.153 239.328C144.929 239.616 144.817 239.979 144.817 240.416C144.817 240.843 144.924 241.2 145.137 241.488C145.361 241.765 145.633 241.995 145.953 242.176C146.284 242.347 146.609 242.496 146.929 242.624C147.217 242.731 147.489 242.848 147.745 242.976C148.001 243.093 148.209 243.243 148.369 243.424C148.54 243.595 148.625 243.808 148.625 244.064C148.625 244.352 148.518 244.581 148.305 244.752C148.102 244.912 147.82 244.992 147.457 244.992C147.158 244.992 146.881 244.939 146.625 244.832C146.38 244.715 146.161 244.56 145.969 244.368C145.777 244.176 145.606 243.968 145.457 243.744ZM151.91 243.744L150.902 244.368C151.041 244.656 151.244 244.939 151.51 245.216C151.788 245.493 152.124 245.723 152.518 245.904C152.913 246.075 153.356 246.16 153.846 246.16C154.604 246.16 155.212 245.947 155.67 245.52C156.14 245.093 156.374 244.56 156.374 243.92C156.374 243.483 156.268 243.125 156.054 242.848C155.852 242.571 155.574 242.336 155.222 242.144C154.87 241.941 154.481 241.755 154.054 241.584C153.798 241.477 153.553 241.365 153.318 241.248C153.084 241.131 152.892 240.997 152.742 240.848C152.593 240.699 152.518 240.528 152.518 240.336C152.518 240.091 152.614 239.909 152.806 239.792C152.998 239.675 153.228 239.616 153.494 239.616C153.878 239.616 154.22 239.707 154.518 239.888C154.828 240.069 155.084 240.299 155.286 240.576L156.31 239.92C156.161 239.643 155.953 239.397 155.686 239.184C155.42 238.971 155.11 238.8 154.758 238.672C154.417 238.544 154.049 238.48 153.654 238.48C153.26 238.48 152.876 238.549 152.502 238.688C152.14 238.827 151.841 239.04 151.606 239.328C151.382 239.616 151.27 239.979 151.27 240.416C151.27 240.843 151.377 241.2 151.59 241.488C151.814 241.765 152.086 241.995 152.406 242.176C152.737 242.347 153.062 242.496 153.382 242.624C153.67 242.731 153.942 242.848 154.198 242.976C154.454 243.093 154.662 243.243 154.822 243.424C154.993 243.595 155.078 243.808 155.078 244.064C155.078 244.352 154.972 244.581 154.758 244.752C154.556 244.912 154.273 244.992 153.91 244.992C153.612 244.992 153.334 244.939 153.078 244.832C152.833 244.715 152.614 244.56 152.422 244.368C152.23 244.176 152.06 243.968 151.91 243.744Z" fill="#1E2121"/>
<rect x="28" y="268" width="24" height="24" rx="4" fill="#FBDDDD"/>
<path fill-rule="evenodd" clip-rule="evenodd" d="M40 273.625C36.4848 273.625 33.625 276.485 33.625 280C33.625 283.515 36.4848 286.375 40 286.375C43.5153 286.375 46.375 283.515 46.375 280C46.375 276.485 43.5153 273.625 40 273.625ZM40 287.5C35.8645 287.5 32.5 284.135 32.5 280C32.5 275.865 35.8645 272.5 40 272.5C44.1355 272.5 47.5 275.865 47.5 280C47.5 284.135 44.1355 287.5 40 287.5Z" fill="#C44949"/>
<path fill-rule="evenodd" clip-rule="evenodd" d="M42.5734 282.769C42.4751 282.769 42.3761 282.744 42.2854 282.691L39.4578 281.004C39.2883 280.902 39.1833 280.718 39.1833 280.52V276.884C39.1833 276.574 39.4353 276.322 39.7458 276.322C40.0571 276.322 40.3083 276.574 40.3083 276.884V280.201L42.8621 281.723C43.1284 281.883 43.2161 282.228 43.0571 282.495C42.9514 282.671 42.7646 282.769 42.5734 282.769Z" fill="#C44949"/>
<path d="M68.384 282.32C68.384 281.573 68.24 280.917 67.952 280.352C67.664 279.787 67.264 279.344 66.752 279.024C66.2507 278.704 65.68 278.544 65.04 278.544C64.7627 278.544 64.48 278.581 64.192 278.656C63.9147 278.72 63.6427 278.821 63.376 278.96L64.128 276H68.352V274.8H63.072L61.6 280.768C61.984 280.501 62.32 280.299 62.608 280.16C62.9067 280.011 63.2 279.909 63.488 279.856C63.7867 279.792 64.112 279.76 64.464 279.76C64.944 279.76 65.3707 279.867 65.744 280.08C66.128 280.293 66.4267 280.592 66.64 280.976C66.864 281.36 66.976 281.808 66.976 282.32C66.976 282.832 66.8747 283.28 66.672 283.664C66.48 284.048 66.1973 284.347 65.824 284.56C65.4507 284.773 64.9973 284.88 64.464 284.88C64.0587 284.88 63.6693 284.795 63.296 284.624C62.9227 284.443 62.592 284.213 62.304 283.936C62.0267 283.648 61.8027 283.344 61.632 283.024L60.48 283.808C60.7253 284.235 61.024 284.629 61.376 284.992C61.7387 285.344 62.1707 285.627 62.672 285.84C63.184 286.053 63.7813 286.16 64.464 286.16C65.008 286.16 65.5147 286.08 65.984 285.92C66.4533 285.76 66.8693 285.52 67.232 285.2C67.5947 284.88 67.8773 284.48 68.08 284C68.2827 283.52 68.384 282.96 68.384 282.32ZM75.0281 274.8V282.32C75.0281 282.875 75.1135 283.387 75.2841 283.856C75.4655 284.325 75.7215 284.731 76.0521 285.072C76.3935 285.413 76.7988 285.68 77.2681 285.872C77.7375 286.064 78.2601 286.16 78.8361 286.16C79.4121 286.16 79.9348 286.064 80.4041 285.872C80.8735 285.68 81.2735 285.413 81.6041 285.072C81.9455 284.731 82.2015 284.325 82.3721 283.856C82.5535 283.387 82.6441 282.875 82.6441 282.32V274.8H81.2841V282.32C81.2841 283.088 81.0761 283.707 80.6601 284.176C80.2441 284.645 79.6361 284.88 78.8361 284.88C78.0361 284.88 77.4281 284.645 77.0121 284.176C76.5961 283.707 76.3881 283.088 76.3881 282.32V274.8H75.0281ZM86.2438 289.52V278.64H84.9638V289.52H86.2438ZM92.4038 282.32C92.4038 281.52 92.2384 280.837 91.9078 280.272C91.5771 279.696 91.1344 279.253 90.5798 278.944C90.0358 278.635 89.4278 278.48 88.7558 278.48C88.1478 278.48 87.6091 278.635 87.1398 278.944C86.6811 279.253 86.3184 279.696 86.0518 280.272C85.7958 280.837 85.6678 281.52 85.6678 282.32C85.6678 283.109 85.7958 283.792 86.0518 284.368C86.3184 284.944 86.6811 285.387 87.1398 285.696C87.6091 286.005 88.1478 286.16 88.7558 286.16C89.4278 286.16 90.0358 286.005 90.5798 285.696C91.1344 285.387 91.5771 284.944 91.9078 284.368C92.2384 283.792 92.4038 283.109 92.4038 282.32ZM91.1078 282.32C91.1078 282.885 90.9904 283.365 90.7558 283.76C90.5318 284.155 90.2278 284.453 89.8438 284.656C89.4704 284.859 89.0544 284.96 88.5958 284.96C88.2224 284.96 87.8544 284.859 87.4918 284.656C87.1291 284.453 86.8304 284.155 86.5958 283.76C86.3611 283.365 86.2438 282.885 86.2438 282.32C86.2438 281.755 86.3611 281.275 86.5958 280.88C86.8304 280.485 87.1291 280.187 87.4918 279.984C87.8544 279.781 88.2224 279.68 88.5958 279.68C89.0544 279.68 89.4704 279.781 89.8438 279.984C90.2278 280.187 90.5318 280.485 90.7558 280.88C90.9904 281.275 91.1078 281.755 91.1078 282.32ZM94.7448 282.32C94.7448 281.808 94.8514 281.355 95.0648 280.96C95.2888 280.555 95.5874 280.24 95.9608 280.016C96.3448 279.792 96.7768 279.68 97.2568 279.68C97.6514 279.68 98.0194 279.744 98.3608 279.872C98.7128 279.989 99.0168 280.149 99.2728 280.352C99.5288 280.555 99.7101 280.779 99.8168 281.024V279.424C99.5608 279.125 99.1928 278.896 98.7128 278.736C98.2434 278.565 97.7581 278.48 97.2568 278.48C96.5421 278.48 95.8968 278.645 95.3207 278.976C94.7448 279.307 94.2861 279.76 93.9448 280.336C93.6141 280.912 93.4488 281.573 93.4488 282.32C93.4488 283.056 93.6141 283.717 93.9448 284.304C94.2861 284.88 94.7448 285.333 95.3207 285.664C95.8968 285.995 96.5421 286.16 97.2568 286.16C97.7581 286.16 98.2434 286.08 98.7128 285.92C99.1928 285.749 99.5608 285.515 99.8168 285.216V283.616C99.7101 283.851 99.5288 284.075 99.2728 284.288C99.0168 284.491 98.7128 284.656 98.3608 284.784C98.0194 284.901 97.6514 284.96 97.2568 284.96C96.7768 284.96 96.3448 284.848 95.9608 284.624C95.5874 284.389 95.2888 284.075 95.0648 283.68C94.8514 283.285 94.7448 282.832 94.7448 282.32ZM101.169 282.32C101.169 283.056 101.335 283.717 101.665 284.304C102.007 284.88 102.465 285.333 103.041 285.664C103.617 285.995 104.263 286.16 104.977 286.16C105.703 286.16 106.348 285.995 106.913 285.664C107.489 285.333 107.943 284.88 108.273 284.304C108.615 283.717 108.785 283.056 108.785 282.32C108.785 281.573 108.615 280.912 108.273 280.336C107.943 279.76 107.489 279.307 106.913 278.976C106.348 278.645 105.703 278.48 104.977 278.48C104.263 278.48 103.617 278.645 103.041 278.976C102.465 279.307 102.007 279.76 101.665 280.336C101.335 280.912 101.169 281.573 101.169 282.32ZM102.465 282.32C102.465 281.808 102.572 281.355 102.785 280.96C103.009 280.555 103.308 280.24 103.681 280.016C104.065 279.792 104.497 279.68 104.977 279.68C105.457 279.68 105.884 279.792 106.257 280.016C106.641 280.24 106.94 280.555 107.153 280.96C107.377 281.355 107.489 281.808 107.489 282.32C107.489 282.832 107.377 283.285 107.153 283.68C106.94 284.075 106.641 284.389 106.257 284.624C105.884 284.848 105.457 284.96 104.977 284.96C104.497 284.96 104.065 284.848 103.681 284.624C103.308 284.389 103.009 284.075 102.785 283.68C102.572 283.285 102.465 282.832 102.465 282.32ZM120.624 281.36C120.624 280.752 120.528 280.235 120.336 279.808C120.154 279.371 119.888 279.04 119.536 278.816C119.184 278.592 118.757 278.48 118.256 278.48C117.765 278.48 117.328 278.597 116.944 278.832C116.56 279.056 116.24 279.397 115.984 279.856C115.813 279.419 115.541 279.083 115.168 278.848C114.805 278.603 114.368 278.48 113.856 278.48C113.397 278.48 112.997 278.581 112.656 278.784C112.325 278.987 112.048 279.296 111.824 279.712V278.64H110.544V286H111.824V281.52C111.824 281.136 111.893 280.805 112.032 280.528C112.17 280.251 112.368 280.043 112.624 279.904C112.88 279.755 113.184 279.68 113.536 279.68C114.016 279.68 114.368 279.829 114.592 280.128C114.826 280.427 114.944 280.891 114.944 281.52V286H116.224V281.52C116.224 281.136 116.293 280.805 116.432 280.528C116.57 280.251 116.768 280.043 117.024 279.904C117.28 279.755 117.584 279.68 117.936 279.68C118.416 279.68 118.768 279.829 118.992 280.128C119.226 280.427 119.344 280.891 119.344 281.52V286H120.624V281.36ZM123.028 275.6C123.028 275.835 123.113 276.043 123.284 276.224C123.465 276.395 123.673 276.48 123.908 276.48C124.153 276.48 124.361 276.395 124.532 276.224C124.703 276.043 124.788 275.835 124.788 275.6C124.788 275.355 124.703 275.147 124.532 274.976C124.361 274.805 124.153 274.72 123.908 274.72C123.673 274.72 123.465 274.805 123.284 274.976C123.113 275.147 123.028 275.355 123.028 275.6ZM123.268 278.64V286H124.548V278.64H123.268ZM131.904 281.52V286H133.184V281.36C133.184 280.475 132.955 279.776 132.496 279.264C132.048 278.741 131.435 278.48 130.656 278.48C130.176 278.48 129.75 278.587 129.376 278.8C129.014 279.013 128.71 279.344 128.464 279.792V278.64H127.184V286H128.464V281.52C128.464 281.157 128.539 280.837 128.688 280.56C128.848 280.283 129.067 280.069 129.344 279.92C129.632 279.76 129.963 279.68 130.336 279.68C130.848 279.68 131.238 279.835 131.504 280.144C131.771 280.453 131.904 280.912 131.904 281.52ZM135.095 286.48C135.095 287.109 135.249 287.664 135.559 288.144C135.868 288.635 136.295 289.013 136.839 289.28C137.393 289.547 138.028 289.68 138.743 289.68C139.361 289.68 139.948 289.536 140.503 289.248C141.057 288.96 141.511 288.528 141.863 287.952C142.215 287.387 142.391 286.683 142.391 285.84V278.64H141.111V285.84C141.111 286.459 140.988 286.96 140.743 287.344C140.508 287.739 140.209 288.027 139.847 288.208C139.484 288.389 139.116 288.48 138.743 288.48C138.263 288.48 137.847 288.384 137.495 288.192C137.143 288.011 136.871 287.765 136.679 287.456C136.487 287.157 136.391 286.832 136.391 286.48H135.095ZM134.951 282.32C134.951 283.109 135.116 283.792 135.447 284.368C135.777 284.944 136.22 285.387 136.775 285.696C137.329 286.005 137.937 286.16 138.599 286.16C139.217 286.16 139.756 286.005 140.215 285.696C140.673 285.387 141.031 284.944 141.287 284.368C141.553 283.792 141.687 283.109 141.687 282.32C141.687 281.52 141.553 280.837 141.287 280.272C141.031 279.696 140.673 279.253 140.215 278.944C139.756 278.635 139.217 278.48 138.599 278.48C137.937 278.48 137.329 278.635 136.775 278.944C136.22 279.253 135.777 279.696 135.447 280.272C135.116 280.837 134.951 281.52 134.951 282.32ZM136.247 282.32C136.247 281.755 136.359 281.275 136.583 280.88C136.817 280.485 137.127 280.187 137.511 279.984C137.895 279.781 138.311 279.68 138.759 279.68C139.036 279.68 139.313 279.739 139.591 279.856C139.868 279.973 140.119 280.144 140.343 280.368C140.577 280.592 140.764 280.869 140.903 281.2C141.041 281.52 141.111 281.893 141.111 282.32C141.111 282.885 140.993 283.365 140.759 283.76C140.524 284.155 140.225 284.453 139.863 284.656C139.5 284.859 139.132 284.96 138.759 284.96C138.311 284.96 137.895 284.859 137.511 284.656C137.127 284.453 136.817 284.155 136.583 283.76C136.359 283.365 136.247 282.885 136.247 282.32Z" fill="#1E2121"/>
<g filter="url(#filter1_d_202_1197)">
<circle cx="290.64" cy="200.246" r="60" fill="white"/>
</g>
<path d="M298.572 146.623C299.074 143.347 302.147 141.069 305.356 141.895C311.025 143.355 316.46 145.639 321.485 148.684C328.224 152.767 334.093 158.137 338.757 164.488C343.42 170.839 346.787 178.046 348.665 185.699C350.065 191.404 350.618 197.274 350.313 203.12C350.141 206.429 347.047 208.68 343.772 208.178C340.496 207.676 338.287 204.609 338.377 201.297C338.493 197.018 338.036 192.734 337.011 188.559C335.508 182.437 332.815 176.671 329.084 171.59C325.353 166.51 320.658 162.213 315.267 158.947C311.591 156.72 307.64 155.001 303.522 153.83C300.335 152.924 298.07 149.898 298.572 146.623Z" fill="#D0DEDE"/>
<path d="M344.64 200.246C347.954 200.246 350.671 202.939 350.34 206.236C349.283 216.775 345.449 226.886 339.181 235.513C331.733 245.764 321.232 253.394 309.181 257.309C297.131 261.225 284.15 261.225 272.099 257.309C260.049 253.394 249.547 245.764 242.099 235.513C234.651 225.262 230.64 212.916 230.64 200.246C230.64 187.575 234.651 175.229 242.099 164.979C249.547 154.728 260.049 147.098 272.099 143.182C282.241 139.887 293.041 139.365 303.392 141.616C306.63 142.321 308.351 145.737 307.327 148.889C306.303 152.04 302.92 153.725 299.666 153.102C291.746 151.586 283.537 152.083 275.807 154.595C266.167 157.727 257.765 163.831 251.807 172.032C245.849 180.233 242.64 190.109 242.64 200.246C242.64 210.382 245.849 220.259 251.807 228.459C257.765 236.66 266.167 242.764 275.807 245.896C285.448 249.029 295.832 249.029 305.473 245.896C315.113 242.764 323.515 236.66 329.473 228.459C334.25 221.884 337.26 214.231 338.266 206.23C338.679 202.942 341.326 200.246 344.64 200.246Z" fill="#145858"/>
<path d="M273.34 196.582C272.06 196.582 270.924 196.39 269.932 196.006C268.956 195.622 268.188 195.07 267.628 194.35C267.084 193.614 266.812 192.75 266.812 191.758V191.47C266.812 190.702 266.948 190.07 267.22 189.574C267.492 189.062 267.828 188.662 268.228 188.374C268.644 188.086 269.036 187.886 269.404 187.774V187.342C269.036 187.214 268.668 187.006 268.3 186.718C267.932 186.43 267.628 186.046 267.388 185.566C267.164 185.086 267.052 184.51 267.052 183.838V183.55C267.052 182.67 267.308 181.902 267.82 181.246C268.348 180.574 269.084 180.054 270.028 179.686C270.972 179.302 272.076 179.11 273.34 179.11C274.604 179.11 275.708 179.302 276.652 179.686C277.596 180.054 278.324 180.574 278.836 181.246C279.364 181.902 279.628 182.67 279.628 183.55V183.838C279.628 184.51 279.508 185.086 279.268 185.566C279.044 186.046 278.748 186.43 278.38 186.718C278.028 187.006 277.66 187.214 277.276 187.342V187.774C277.66 187.886 278.052 188.086 278.452 188.374C278.852 188.662 279.188 189.062 279.46 189.574C279.732 190.07 279.868 190.702 279.868 191.47V191.758C279.868 192.75 279.588 193.614 279.028 194.35C278.484 195.07 277.716 195.622 276.724 196.006C275.748 196.39 274.62 196.582 273.34 196.582ZM273.34 193.846C274.444 193.846 275.292 193.638 275.884 193.222C276.492 192.79 276.796 192.222 276.796 191.518V191.326C276.796 190.622 276.5 190.062 275.908 189.646C275.332 189.214 274.476 188.998 273.34 188.998C272.22 188.998 271.364 189.214 270.772 189.646C270.18 190.062 269.884 190.622 269.884 191.326V191.518C269.884 192.222 270.18 192.79 270.772 193.222C271.38 193.638 272.236 193.846 273.34 193.846ZM273.34 186.262C274.364 186.262 275.156 186.078 275.716 185.71C276.276 185.342 276.556 184.822 276.556 184.15V183.958C276.556 183.286 276.268 182.766 275.692 182.398C275.116 182.03 274.332 181.846 273.34 181.846C272.348 181.846 271.564 182.03 270.988 182.398C270.412 182.766 270.124 183.286 270.124 183.958V184.15C270.124 184.822 270.404 185.342 270.964 185.71C271.524 186.078 272.316 186.262 273.34 186.262ZM288.307 196.582C286.323 196.582 284.731 196.038 283.531 194.95C282.331 193.846 281.731 192.182 281.731 189.958V185.734C281.731 183.574 282.331 181.934 283.531 180.814C284.731 179.678 286.323 179.11 288.307 179.11C290.307 179.11 291.899 179.678 293.083 180.814C294.283 181.934 294.883 183.574 294.883 185.734V189.958C294.883 192.182 294.283 193.846 293.083 194.95C291.899 196.038 290.307 196.582 288.307 196.582ZM288.307 193.846C289.507 193.846 290.387 193.518 290.947 192.862C291.523 192.206 291.811 191.27 291.811 190.054V185.59C291.811 184.358 291.491 183.43 290.851 182.806C290.227 182.166 289.379 181.846 288.307 181.846C287.203 181.846 286.339 182.174 285.715 182.83C285.107 183.486 284.803 184.406 284.803 185.59V190.054C284.803 191.318 285.091 192.27 285.667 192.91C286.259 193.534 287.139 193.846 288.307 193.846ZM299.645 196.558L297.821 195.094L310.733 179.134L312.557 180.598L299.645 196.558ZM309.773 196.486C308.557 196.486 307.605 196.166 306.917 195.526C306.229 194.87 305.885 193.982 305.885 192.862V192.694C305.885 191.558 306.229 190.67 306.917 190.03C307.605 189.374 308.557 189.046 309.773 189.046C310.957 189.046 311.901 189.374 312.605 190.03C313.309 190.67 313.661 191.558 313.661 192.694V192.862C313.661 193.982 313.317 194.87 312.629 195.526C311.941 196.166 310.989 196.486 309.773 196.486ZM309.773 194.518C310.237 194.518 310.597 194.374 310.853 194.086C311.125 193.798 311.261 193.422 311.261 192.958V192.574C311.261 192.11 311.125 191.734 310.853 191.446C310.597 191.158 310.237 191.014 309.773 191.014C309.309 191.014 308.941 191.158 308.669 191.446C308.413 191.734 308.285 192.11 308.285 192.574V192.958C308.285 193.422 308.413 193.798 308.669 194.086C308.941 194.374 309.309 194.518 309.773 194.518ZM300.605 186.646C299.389 186.646 298.437 186.326 297.749 185.686C297.061 185.03 296.717 184.142 296.717 183.022V182.854C296.717 181.718 297.061 180.83 297.749 180.19C298.437 179.534 299.389 179.206 300.605 179.206C301.789 179.206 302.733 179.534 303.437 180.19C304.141 180.83 304.493 181.718 304.493 182.854V183.022C304.493 184.142 304.149 185.03 303.461 185.686C302.773 186.326 301.821 186.646 300.605 186.646ZM300.605 184.678C301.069 184.678 301.429 184.534 301.685 184.246C301.957 183.958 302.093 183.582 302.093 183.118V182.734C302.093 182.27 301.957 181.894 301.685 181.606C301.429 181.318 301.069 181.174 300.605 181.174C300.141 181.174 299.773 181.318 299.501 181.606C299.245 181.894 299.117 182.27 299.117 182.734V183.118C299.117 183.582 299.245 183.958 299.501 184.246C299.773 184.534 300.141 184.678 300.605 184.678Z" fill="#191C1C"/>
<path d="M254.768 212.31H257.072V220.246H258.16V212.31H260.464V211.286H254.768V212.31ZM260.736 218.428C260.736 218.215 260.787 218.031 260.89 217.878C260.992 217.724 261.146 217.605 261.35 217.519C261.564 217.434 261.837 217.391 262.17 217.391C262.528 217.391 262.865 217.438 263.181 217.532C263.496 217.617 263.804 217.763 264.102 217.967V217.366C264.043 217.289 263.927 217.191 263.757 217.071C263.586 216.943 263.356 216.832 263.066 216.739C262.784 216.636 262.43 216.585 262.003 216.585C261.278 216.585 260.71 216.76 260.301 217.11C259.9 217.451 259.699 217.908 259.699 218.479C259.699 218.88 259.793 219.222 259.981 219.503C260.168 219.785 260.416 220.003 260.723 220.156C261.039 220.301 261.376 220.374 261.734 220.374C262.059 220.374 262.383 220.314 262.707 220.195C263.04 220.075 263.317 219.892 263.539 219.644C263.77 219.397 263.885 219.085 263.885 218.71L263.68 217.942C263.68 218.249 263.603 218.522 263.45 218.761C263.304 218.991 263.104 219.171 262.848 219.299C262.6 219.427 262.319 219.491 262.003 219.491C261.756 219.491 261.534 219.452 261.338 219.375C261.15 219.29 261 219.166 260.89 219.004C260.787 218.842 260.736 218.65 260.736 218.428ZM260.582 215.715C260.676 215.646 260.804 215.565 260.966 215.471C261.128 215.377 261.325 215.296 261.555 215.228C261.794 215.16 262.059 215.126 262.349 215.126C262.528 215.126 262.699 215.143 262.861 215.177C263.023 215.211 263.164 215.267 263.283 215.343C263.411 215.42 263.509 215.527 263.578 215.663C263.646 215.791 263.68 215.958 263.68 216.163V220.246H264.704V216.022C264.704 215.638 264.606 215.313 264.41 215.049C264.222 214.784 263.953 214.584 263.603 214.447C263.262 214.302 262.861 214.23 262.4 214.23C261.854 214.23 261.384 214.311 260.992 214.473C260.608 214.635 260.305 214.797 260.083 214.959L260.582 215.715ZM266.681 218.441L265.874 218.94C265.985 219.171 266.148 219.397 266.361 219.619C266.583 219.84 266.852 220.024 267.167 220.169C267.483 220.305 267.837 220.374 268.23 220.374C268.836 220.374 269.322 220.203 269.689 219.862C270.064 219.52 270.252 219.094 270.252 218.582C270.252 218.232 270.167 217.946 269.996 217.724C269.834 217.502 269.612 217.315 269.33 217.161C269.049 216.999 268.737 216.849 268.396 216.713C268.191 216.628 267.995 216.538 267.807 216.444C267.62 216.35 267.466 216.244 267.346 216.124C267.227 216.005 267.167 215.868 267.167 215.715C267.167 215.518 267.244 215.373 267.398 215.279C267.551 215.185 267.735 215.139 267.948 215.139C268.255 215.139 268.528 215.211 268.767 215.356C269.015 215.501 269.22 215.685 269.382 215.907L270.201 215.382C270.081 215.16 269.915 214.964 269.702 214.793C269.488 214.622 269.241 214.486 268.959 214.383C268.686 214.281 268.392 214.23 268.076 214.23C267.76 214.23 267.453 214.285 267.154 214.396C266.864 214.507 266.625 214.678 266.438 214.908C266.258 215.139 266.169 215.429 266.169 215.779C266.169 216.12 266.254 216.406 266.425 216.636C266.604 216.858 266.822 217.041 267.078 217.187C267.342 217.323 267.602 217.443 267.858 217.545C268.089 217.63 268.306 217.724 268.511 217.827C268.716 217.92 268.882 218.04 269.01 218.185C269.147 218.321 269.215 218.492 269.215 218.697C269.215 218.927 269.13 219.111 268.959 219.247C268.797 219.375 268.571 219.439 268.281 219.439C268.042 219.439 267.82 219.397 267.615 219.311C267.419 219.217 267.244 219.094 267.09 218.94C266.937 218.787 266.8 218.62 266.681 218.441ZM271.536 210.262V220.246H272.56V210.262H271.536ZM274.736 214.358L272.176 216.79L274.992 220.246H276.272L273.456 216.79L276.016 214.358H274.736ZM281.741 212.31H285.747V211.286H281.741V212.31ZM281.741 215.894H285.619V214.87H281.741V215.894ZM281.139 211.286V220.246H282.227V211.286H281.139ZM287.475 211.926C287.475 212.113 287.543 212.28 287.68 212.425C287.825 212.561 287.991 212.63 288.179 212.63C288.375 212.63 288.542 212.561 288.678 212.425C288.815 212.28 288.883 212.113 288.883 211.926C288.883 211.729 288.815 211.563 288.678 211.427C288.542 211.29 288.375 211.222 288.179 211.222C287.991 211.222 287.825 211.29 287.68 211.427C287.543 211.563 287.475 211.729 287.475 211.926ZM287.667 214.358V220.246H288.691V214.358H287.667ZM294.576 216.662V220.246H295.6V216.534C295.6 215.825 295.417 215.267 295.05 214.857C294.691 214.439 294.201 214.23 293.578 214.23C293.194 214.23 292.852 214.315 292.554 214.486C292.264 214.656 292.02 214.921 291.824 215.279V214.358H290.8V220.246H291.824V216.662C291.824 216.372 291.884 216.116 292.003 215.894C292.131 215.672 292.306 215.501 292.528 215.382C292.759 215.254 293.023 215.19 293.322 215.19C293.731 215.19 294.043 215.313 294.256 215.561C294.469 215.808 294.576 216.175 294.576 216.662ZM297.525 211.926C297.525 212.113 297.593 212.28 297.73 212.425C297.875 212.561 298.041 212.63 298.229 212.63C298.425 212.63 298.592 212.561 298.728 212.425C298.865 212.28 298.933 212.113 298.933 211.926C298.933 211.729 298.865 211.563 298.728 211.427C298.592 211.29 298.425 211.222 298.229 211.222C298.041 211.222 297.875 211.29 297.73 211.427C297.593 211.563 297.525 211.729 297.525 211.926ZM297.717 214.358V220.246H298.741V214.358H297.717ZM301.093 218.441L300.287 218.94C300.398 219.171 300.56 219.397 300.773 219.619C300.995 219.84 301.264 220.024 301.58 220.169C301.895 220.305 302.25 220.374 302.642 220.374C303.248 220.374 303.734 220.203 304.101 219.862C304.477 219.52 304.665 219.094 304.665 218.582C304.665 218.232 304.579 217.946 304.409 217.724C304.246 217.502 304.025 217.315 303.743 217.161C303.461 216.999 303.15 216.849 302.809 216.713C302.604 216.628 302.407 216.538 302.22 216.444C302.032 216.35 301.878 216.244 301.759 216.124C301.639 216.005 301.58 215.868 301.58 215.715C301.58 215.518 301.657 215.373 301.81 215.279C301.964 215.185 302.147 215.139 302.361 215.139C302.668 215.139 302.941 215.211 303.18 215.356C303.427 215.501 303.632 215.685 303.794 215.907L304.613 215.382C304.494 215.16 304.327 214.964 304.114 214.793C303.901 214.622 303.653 214.486 303.372 214.383C303.099 214.281 302.804 214.23 302.489 214.23C302.173 214.23 301.866 214.285 301.567 214.396C301.277 214.507 301.038 214.678 300.85 214.908C300.671 215.139 300.581 215.429 300.581 215.779C300.581 216.12 300.667 216.406 300.837 216.636C301.017 216.858 301.234 217.041 301.49 217.187C301.755 217.323 302.015 217.443 302.271 217.545C302.501 217.63 302.719 217.724 302.924 217.827C303.129 217.92 303.295 218.04 303.423 218.185C303.559 218.321 303.628 218.492 303.628 218.697C303.628 218.927 303.542 219.111 303.372 219.247C303.21 219.375 302.983 219.439 302.693 219.439C302.454 219.439 302.233 219.397 302.028 219.311C301.831 219.217 301.657 219.094 301.503 218.94C301.349 218.787 301.213 218.62 301.093 218.441ZM307.037 210.262H306.013V220.246H307.037V210.262ZM309.789 216.662V220.246H310.813V216.534C310.813 216.022 310.727 215.595 310.557 215.254C310.395 214.912 310.16 214.656 309.853 214.486C309.554 214.315 309.2 214.23 308.79 214.23C308.381 214.23 308.018 214.336 307.702 214.55C307.395 214.763 307.152 215.053 306.973 215.42C306.793 215.779 306.704 216.192 306.704 216.662H307.037C307.037 216.38 307.096 216.128 307.216 215.907C307.344 215.685 307.519 215.51 307.741 215.382C307.971 215.254 308.236 215.19 308.534 215.19C308.952 215.19 309.264 215.313 309.469 215.561C309.682 215.808 309.789 216.175 309.789 216.662ZM315.016 220.374C315.648 220.374 316.194 220.25 316.654 220.003C317.124 219.747 317.512 219.371 317.819 218.876L316.987 218.351C316.774 218.71 316.514 218.979 316.206 219.158C315.899 219.328 315.545 219.414 315.144 219.414C314.743 219.414 314.402 219.328 314.12 219.158C313.838 218.987 313.625 218.74 313.48 218.415C313.335 218.091 313.262 217.699 313.262 217.238C313.271 216.785 313.348 216.406 313.493 216.099C313.646 215.783 313.86 215.544 314.133 215.382C314.414 215.211 314.752 215.126 315.144 215.126C315.477 215.126 315.767 215.198 316.014 215.343C316.262 215.488 316.454 215.689 316.59 215.945C316.736 216.201 316.808 216.504 316.808 216.854C316.808 216.913 316.795 216.99 316.77 217.084C316.744 217.169 316.718 217.233 316.693 217.276L317.102 216.687H312.878V217.558H317.909C317.909 217.541 317.909 217.502 317.909 217.443C317.917 217.374 317.922 217.31 317.922 217.251C317.922 216.628 317.811 216.09 317.589 215.638C317.367 215.185 317.047 214.84 316.629 214.601C316.219 214.353 315.724 214.23 315.144 214.23C314.564 214.23 314.052 214.358 313.608 214.614C313.173 214.87 312.832 215.228 312.584 215.689C312.345 216.15 312.226 216.687 312.226 217.302C312.226 217.908 312.341 218.441 312.571 218.902C312.81 219.363 313.139 219.725 313.557 219.99C313.984 220.246 314.47 220.374 315.016 220.374ZM323.741 210.262V220.246H324.765V210.262H323.741ZM318.813 217.302C318.813 217.933 318.945 218.479 319.21 218.94C319.474 219.401 319.829 219.755 320.272 220.003C320.716 220.25 321.202 220.374 321.732 220.374C322.226 220.374 322.657 220.25 323.024 220.003C323.391 219.755 323.677 219.401 323.882 218.94C324.095 218.479 324.202 217.933 324.202 217.302C324.202 216.662 324.095 216.116 323.882 215.663C323.677 215.203 323.391 214.848 323.024 214.601C322.657 214.353 322.226 214.23 321.732 214.23C321.202 214.23 320.716 214.353 320.272 214.601C319.829 214.848 319.474 215.203 319.21 215.663C318.945 216.116 318.813 216.662 318.813 217.302ZM319.85 217.302C319.85 216.849 319.94 216.465 320.119 216.15C320.306 215.834 320.554 215.595 320.861 215.433C321.168 215.271 321.501 215.19 321.86 215.19C322.158 215.19 322.453 215.271 322.743 215.433C323.033 215.595 323.272 215.834 323.46 216.15C323.647 216.465 323.741 216.849 323.741 217.302C323.741 217.754 323.647 218.138 323.46 218.454C323.272 218.769 323.033 219.008 322.743 219.171C322.453 219.333 322.158 219.414 321.86 219.414C321.501 219.414 321.168 219.333 320.861 219.171C320.554 219.008 320.306 218.769 320.119 218.454C319.94 218.138 319.85 217.754 319.85 217.302Z" fill="#191C1C"/>
</g>
<defs>
<filter id="filter0_d_202_1197" x="0" y="0" width="386.789" height="324" filterUnits="userSpaceOnUse" color-interpolation-filters="sRGB">
<feFlood flood-opacity="0" result="BackgroundImageFix"/>
<feColorMatrix in="SourceAlpha" type="matrix" values="0 0 0 0 0 0 0 0 0 0 0 0 0 0 0 0 0 0 127 0" result="hardAlpha"/>
<feOffset dy="4"/>
<feGaussianBlur stdDeviation="6"/>
<feComposite in2="hardAlpha" operator="out"/>
<feColorMatrix type="matrix" values="0 0 0 0 0.0784314 0 0 0 0 0.0862745 0 0 0 0 0.0862745 0 0 0 0.12 0"/>
<feBlend mode="normal" in2="BackgroundImageFix" result="effect1_dropShadow_202_1197"/>
<feBlend mode="normal" in="SourceGraphic" in2="effect1_dropShadow_202_1197" result="shape"/>
</filter>
<filter id="filter1_d_202_1197" x="218.64" y="132.246" width="144" height="144" filterUnits="userSpaceOnUse" color-interpolation-filters="sRGB">
<feFlood flood-opacity="0" result="BackgroundImageFix"/>
<feColorMatrix in="SourceAlpha" type="matrix" values="0 0 0 0 0 0 0 0 0 0 0 0 0 0 0 0 0 0 127 0" result="hardAlpha"/>
<feOffset dy="4"/>
<feGaussianBlur stdDeviation="6"/>
<feComposite in2="hardAlpha" operator="out"/>
<feColorMatrix type="matrix" values="0 0 0 0 0.0784314 0 0 0 0 0.0862745 0 0 0 0 0.0862745 0 0 0 0.12 0"/>
<feBlend mode="normal" in2="BackgroundImageFix" result="effect1_dropShadow_202_1197"/>
<feBlend mode="normal" in="SourceGraphic" in2="effect1_dropShadow_202_1197" result="shape"/>
</filter>
</defs>
</svg>
