<svg width="191" height="32" viewBox="0 0 191 32" fill="none" xmlns="http://www.w3.org/2000/svg">
<g clip-path="url(#clip0_126_551)">
<path d="M43.1403 6.7908C45.4573 6.7908 47.235 7.20188 48.4736 8.02403C49.7229 8.83551 50.3475 10.1702 50.3475 12.028C50.3475 13.8966 49.7175 15.2419 48.4576 16.0641C47.1977 16.8969 45.4039 17.3133 43.0762 17.3133H41.9711V22.5185H38.4796V7.20722C39.2377 7.05773 40.0438 6.95096 40.898 6.8869C41.7522 6.82283 42.4996 6.7908 43.1403 6.7908ZM43.3645 9.7858C43.1082 9.7858 42.8573 9.79113 42.6117 9.80181C42.3662 9.81249 42.1526 9.82851 41.9711 9.84986V14.3343H43.0762C44.2828 14.3343 45.1957 14.1688 45.8149 13.8378C46.4236 13.5069 46.7279 12.8929 46.7279 11.996C46.7279 11.5689 46.6531 11.2112 46.5036 10.9229C46.3435 10.6346 46.1193 10.4051 45.831 10.2342C45.532 10.0634 45.1743 9.94596 44.7579 9.88189C44.3415 9.81783 43.877 9.7858 43.3645 9.7858ZM60.3575 10.9229L59.7969 13.6777C59.498 13.6029 59.151 13.5229 58.7559 13.4374C58.3501 13.3627 57.9124 13.3253 57.4426 13.3253C57.2397 13.3253 56.9941 13.3414 56.7058 13.3734C56.4069 13.4161 56.1826 13.4588 56.0332 13.5015V22.5185H52.7018V11.3554C53.2998 11.1418 54.0045 10.9443 54.8159 10.7628C55.6274 10.5706 56.535 10.4745 57.5387 10.4745C57.7202 10.4745 57.9391 10.4852 58.1953 10.5065C58.4409 10.5279 58.6918 10.5599 58.9481 10.6026C59.2043 10.6346 59.4606 10.6774 59.7169 10.7307C59.9731 10.7841 60.1867 10.8482 60.3575 10.9229ZM73.1863 16.5926C73.1863 17.5215 73.0529 18.3704 72.7859 19.1391C72.519 19.9079 72.1293 20.5646 71.6167 21.1091C71.1149 21.6537 70.5063 22.0754 69.7909 22.3744C69.0862 22.6734 68.2908 22.8228 67.4045 22.8228C66.5397 22.8228 65.7495 22.6734 65.0342 22.3744C64.3295 22.0754 63.7209 21.6537 63.2083 21.1091C62.7065 20.5646 62.3114 19.9079 62.0232 19.1391C61.7349 18.3704 61.5907 17.5215 61.5907 16.5926C61.5907 15.6637 61.7402 14.8202 62.0392 14.0621C62.3275 13.304 62.7279 12.6527 63.2404 12.1081C63.7636 11.5743 64.3775 11.1578 65.0822 10.8589C65.7976 10.5599 66.5717 10.4104 67.4045 10.4104C68.2587 10.4104 69.0382 10.5599 69.7429 10.8589C70.4583 11.1578 71.0669 11.5743 71.5687 12.1081C72.0812 12.6527 72.4816 13.304 72.7699 14.0621C73.0475 14.8202 73.1863 15.6637 73.1863 16.5926ZM69.7749 16.5926C69.7749 15.5676 69.572 14.7561 69.1663 14.1582C68.7499 13.5709 68.1626 13.2773 67.4045 13.2773C66.6464 13.2773 66.0539 13.5709 65.6268 14.1582C65.2103 14.7561 65.0021 15.5676 65.0021 16.5926C65.0021 17.6283 65.2103 18.4451 65.6268 19.0431C66.0539 19.6517 66.6464 19.956 67.4045 19.956C68.1626 19.956 68.7499 19.6517 69.1663 19.0431C69.572 18.4451 69.7749 17.6283 69.7749 16.5926ZM74.6758 26.6667C74.4623 26.6667 74.1473 26.6453 73.7309 26.6026C73.3251 26.5492 72.9407 26.4638 72.5777 26.3464L73.0262 23.6397C73.2504 23.7144 73.4586 23.7678 73.6508 23.7998C73.8323 23.8212 74.0672 23.8318 74.3555 23.8318C74.8787 23.8318 75.247 23.677 75.4606 23.3674C75.6635 23.0577 75.7649 22.6039 75.7649 22.006V10.7147H79.1122V22.0861C79.1122 23.645 78.7279 24.7981 77.9591 25.5456C77.201 26.293 76.1066 26.6667 74.6758 26.6667ZM79.4165 7.31933C79.4165 7.92794 79.219 8.40842 78.824 8.76077C78.4289 9.11312 77.9644 9.2893 77.4306 9.2893C76.886 9.2893 76.4162 9.11312 76.0212 8.76077C75.6261 8.40842 75.4286 7.92794 75.4286 7.31933C75.4286 6.70004 75.6261 6.21422 76.0212 5.86187C76.4162 5.50952 76.886 5.33334 77.4306 5.33334C77.9644 5.33334 78.4289 5.50952 78.824 5.86187C79.219 6.21422 79.4165 6.70004 79.4165 7.31933ZM81.6908 16.7047C81.6908 15.6583 81.851 14.7454 82.1713 13.966C82.4916 13.1759 82.9134 12.5192 83.4366 11.996C83.9598 11.4728 84.563 11.0778 85.2464 10.8108C85.919 10.5439 86.6184 10.4104 87.3445 10.4104C89.0101 10.4104 90.3288 10.9229 91.3004 11.948C92.2721 12.973 92.7579 14.4785 92.7579 16.4645C92.7579 16.6567 92.7526 16.8702 92.7419 17.1051C92.7312 17.3293 92.7152 17.5322 92.6938 17.7137H85.1182C85.193 18.4078 85.5133 18.9523 86.0792 19.3474C86.6451 19.7531 87.4085 19.956 88.3695 19.956C88.9781 19.956 89.5814 19.9026 90.1793 19.7958C90.7666 19.6784 91.247 19.5396 91.6208 19.3794L92.0692 22.0861C91.8877 22.1822 91.6474 22.2729 91.3485 22.3584C91.0495 22.4438 90.7185 22.5239 90.3555 22.5986C89.9925 22.6627 89.5974 22.7161 89.1703 22.7588C88.7539 22.8015 88.3375 22.8228 87.9211 22.8228C86.864 22.8228 85.9404 22.668 85.1503 22.3584C84.3708 22.0487 83.7195 21.6163 83.1963 21.0611C82.6838 20.5165 82.3048 19.8705 82.0592 19.1231C81.8136 18.3757 81.6908 17.5696 81.6908 16.7047ZM85.1182 15.4234H89.5387C89.5173 15.1458 89.4693 14.8736 89.3945 14.6066C89.3091 14.329 89.181 14.0888 89.0101 13.8859C88.8393 13.6723 88.6204 13.5015 88.3535 13.3734C88.0972 13.2346 87.7716 13.1652 87.3765 13.1652C87.0028 13.1652 86.6825 13.2292 86.4155 13.3574C86.1486 13.4855 85.9244 13.651 85.7429 13.8539C85.5614 14.0674 85.4226 14.313 85.3265 14.5906C85.2304 14.8682 85.161 15.1458 85.1182 15.4234ZM94.7759 16.6246C94.7759 15.7704 94.9147 14.9643 95.1923 14.2062C95.4699 13.4481 95.8703 12.7915 96.3935 12.2362C96.9167 11.6703 97.552 11.2272 98.2994 10.9069C99.0468 10.5759 99.901 10.4104 100.862 10.4104C101.492 10.4104 102.069 10.4638 102.592 10.5706C103.115 10.688 103.622 10.8482 104.113 11.0511L103.409 13.7257C103.099 13.6083 102.757 13.5015 102.384 13.4054C102.01 13.32 101.593 13.2773 101.134 13.2773C100.141 13.2773 99.4045 13.5816 98.9241 14.1902C98.4329 14.8095 98.1873 15.621 98.1873 16.6246C98.1873 17.6817 98.4169 18.5038 98.876 19.0911C99.3351 19.6677 100.131 19.956 101.262 19.956C101.668 19.956 102.101 19.9186 102.56 19.8439C103.029 19.7691 103.457 19.6517 103.841 19.4915L104.305 22.2302C103.921 22.3904 103.435 22.5292 102.848 22.6467C102.271 22.7641 101.631 22.8228 100.926 22.8228C99.8476 22.8228 98.9187 22.6627 98.1393 22.3424C97.3705 22.022 96.7352 21.5843 96.2334 21.029C95.7315 20.4845 95.3632 19.8332 95.1283 19.0751C94.8934 18.317 94.7759 17.5002 94.7759 16.6246ZM106.436 17.6977V7.78379L109.783 7.23925V10.7147H113.803V13.5015H109.783V17.6497C109.783 18.3544 109.906 18.9149 110.151 19.3313C110.397 19.7478 110.893 19.956 111.641 19.956C112.004 19.956 112.372 19.9239 112.746 19.8599C113.13 19.7958 113.483 19.6997 113.803 19.5716L114.267 22.1822C113.862 22.3424 113.413 22.4812 112.922 22.5986C112.431 22.7267 111.828 22.7908 111.112 22.7908C110.194 22.7908 109.436 22.6627 108.838 22.4064C108.24 22.1608 107.765 21.8192 107.413 21.3814C107.05 20.9436 106.799 20.4098 106.66 19.7798C106.51 19.1498 106.436 18.4558 106.436 17.6977ZM117.519 6.98299H120.866C121.133 7.47415 121.443 8.08276 121.795 8.80882C122.147 9.53488 122.51 10.3197 122.884 11.1632C123.268 12.0067 123.647 12.8662 124.021 13.7418C124.395 14.628 124.747 15.4608 125.078 16.2403C125.409 15.4608 125.762 14.628 126.135 13.7418C126.509 12.8662 126.883 12.0067 127.256 11.1632C127.641 10.3197 128.009 9.53488 128.361 8.80882C128.714 8.08276 129.023 7.47415 129.29 6.98299H132.478C132.627 8.00802 132.766 9.16117 132.894 10.4425C133.022 11.7237 133.134 13.0531 133.23 14.4304C133.326 15.8185 133.417 17.2066 133.503 18.5946C133.577 19.9827 133.647 21.2906 133.711 22.5185H130.299C130.257 21.0023 130.198 19.358 130.123 17.5856C130.049 15.8025 129.936 14.0087 129.787 12.2042C129.52 12.8342 129.221 13.5282 128.89 14.2863C128.559 15.0444 128.233 15.8078 127.913 16.5766C127.593 17.3347 127.283 18.0607 126.984 18.7548C126.685 19.4488 126.429 20.0467 126.215 20.5486H123.781C123.567 20.0467 123.311 19.4488 123.012 18.7548C122.713 18.0607 122.404 17.3347 122.083 16.5766C121.763 15.8078 121.437 15.0444 121.106 14.2863C120.775 13.5282 120.476 12.8342 120.209 12.2042C120.06 14.0087 119.948 15.8025 119.873 17.5856C119.798 19.358 119.74 21.0023 119.697 22.5185H116.285C116.349 21.2906 116.419 19.9827 116.494 18.5946C116.579 17.2066 116.67 15.8185 116.766 14.4304C116.862 13.0531 116.974 11.7237 117.102 10.4425C117.23 9.16117 117.369 8.00802 117.519 6.98299ZM141.126 20.1802C141.457 20.1802 141.772 20.1749 142.071 20.1642C142.37 20.1428 142.61 20.1215 142.792 20.1001V17.5536C142.653 17.5322 142.45 17.5055 142.183 17.4735C141.916 17.4415 141.671 17.4254 141.447 17.4254C141.126 17.4254 140.833 17.4415 140.566 17.4735C140.288 17.5162 140.043 17.5909 139.829 17.6977C139.615 17.8045 139.45 17.9433 139.332 18.1141C139.215 18.2956 139.156 18.5199 139.156 18.7868C139.156 19.31 139.332 19.673 139.685 19.8759C140.037 20.0788 140.518 20.1802 141.126 20.1802ZM140.854 10.4104C141.847 10.4104 142.669 10.5225 143.32 10.7468C143.982 10.971 144.511 11.2913 144.906 11.7077C145.301 12.1241 145.584 12.6313 145.755 13.2292C145.915 13.8272 145.995 14.4945 145.995 15.2312V22.1822C145.515 22.289 144.847 22.4118 143.993 22.5506C143.15 22.6894 142.119 22.7588 140.902 22.7588C140.144 22.7588 139.455 22.6947 138.836 22.5666C138.217 22.4278 137.683 22.2035 137.234 21.8939C136.786 21.5949 136.439 21.1945 136.193 20.6927C135.958 20.2015 135.841 19.5983 135.841 18.8829C135.841 18.1995 135.98 17.6176 136.257 17.1371C136.535 16.6567 136.903 16.2723 137.362 15.984C137.822 15.7064 138.35 15.5035 138.948 15.3754C139.546 15.2473 140.171 15.1832 140.822 15.1832C141.249 15.1832 141.633 15.1992 141.975 15.2312C142.306 15.274 142.578 15.3273 142.792 15.3914V15.0711C142.792 14.5052 142.621 14.0514 142.279 13.7097C141.927 13.3574 141.329 13.1812 140.486 13.1812C139.909 13.1812 139.348 13.2239 138.804 13.3093C138.249 13.3947 137.768 13.5122 137.362 13.6617L136.93 10.971C137.133 10.9069 137.379 10.8429 137.667 10.7788C137.955 10.7147 138.27 10.656 138.612 10.6026C138.964 10.5492 139.327 10.5012 139.701 10.4585C140.085 10.4264 140.47 10.4104 140.854 10.4104ZM152.402 20.1161C153.021 20.1161 153.459 20.0574 153.715 19.9399C153.96 19.8225 154.083 19.5876 154.083 19.2352C154.083 18.9683 153.923 18.7334 153.603 18.5305C153.272 18.3277 152.77 18.1034 152.097 17.8579C151.574 17.655 151.099 17.4521 150.672 17.2493C150.245 17.0357 149.882 16.7848 149.583 16.4965C149.284 16.2082 149.054 15.8612 148.894 15.4555C148.723 15.0497 148.638 14.5639 148.638 13.998C148.638 12.8876 149.049 12.012 149.871 11.3714C150.693 10.7307 151.825 10.4104 153.266 10.4104C153.982 10.4104 154.665 10.4745 155.316 10.6026C155.978 10.7307 156.502 10.8695 156.886 11.019L156.309 13.6136C155.925 13.4748 155.503 13.3574 155.044 13.2613C154.585 13.1545 154.073 13.1011 153.507 13.1011C152.46 13.1011 151.937 13.3894 151.937 13.966C151.937 14.1048 151.958 14.2276 152.001 14.3343C152.044 14.4411 152.135 14.5426 152.273 14.6386C152.412 14.7347 152.594 14.8362 152.818 14.943C153.053 15.0604 153.352 15.1832 153.715 15.3113C154.441 15.5889 155.044 15.8559 155.525 16.1121C156.005 16.3791 156.384 16.662 156.662 16.961C156.939 17.2706 157.132 17.6123 157.238 17.986C157.356 18.3597 157.415 18.7921 157.415 19.2833C157.415 20.4471 156.977 21.328 156.101 21.9259C155.226 22.5239 153.987 22.8228 152.386 22.8228C151.339 22.8228 150.469 22.7374 149.775 22.5666C149.081 22.3851 148.6 22.2356 148.333 22.1181L148.894 19.3954C149.46 19.6196 150.042 19.7958 150.64 19.9239C151.238 20.0521 151.825 20.1161 152.402 20.1161ZM159.785 17.6977V7.78379L163.132 7.23925V10.7147H167.136V13.5015H163.132V17.6497C163.132 18.3544 163.255 18.9149 163.501 19.3313C163.746 19.7478 164.243 19.956 164.99 19.956C165.342 19.956 165.711 19.9239 166.095 19.8599C166.48 19.7958 166.827 19.6997 167.136 19.5716L167.617 22.1822C167.211 22.3424 166.763 22.4812 166.271 22.5986C165.77 22.7267 165.161 22.7908 164.446 22.7908C163.538 22.7908 162.785 22.6627 162.187 22.4064C161.589 22.1608 161.109 21.8192 160.746 21.3814C160.394 20.9436 160.143 20.4098 159.993 19.7798C159.854 19.1498 159.785 18.4558 159.785 17.6977ZM169.298 16.7047C169.298 15.6583 169.459 14.7454 169.779 13.966C170.099 13.1759 170.521 12.5192 171.044 11.996C171.567 11.4728 172.171 11.0778 172.854 10.8108C173.527 10.5439 174.221 10.4104 174.936 10.4104C176.612 10.4104 177.936 10.9229 178.908 11.948C179.88 12.973 180.365 14.4785 180.365 16.4645C180.365 16.6567 180.36 16.8702 180.349 17.1051C180.328 17.3293 180.312 17.5322 180.301 17.7137H172.726C172.801 18.4078 173.121 18.9523 173.687 19.3474C174.253 19.7531 175.016 19.956 175.977 19.956C176.586 19.956 177.184 19.9026 177.771 19.7958C178.369 19.6784 178.855 19.5396 179.228 19.3794L179.677 22.0861C179.495 22.1822 179.255 22.2729 178.956 22.3584C178.657 22.4438 178.326 22.5239 177.963 22.5986C177.589 22.6627 177.194 22.7161 176.778 22.7588C176.361 22.8015 175.945 22.8228 175.529 22.8228C174.461 22.8228 173.537 22.668 172.758 22.3584C171.968 22.0487 171.316 21.6163 170.804 21.0611C170.291 20.5165 169.912 19.8705 169.667 19.1231C169.421 18.3757 169.298 17.5696 169.298 16.7047ZM172.726 15.4234H177.146C177.125 15.1458 177.072 14.8736 176.986 14.6066C176.911 14.329 176.789 14.0888 176.618 13.8859C176.447 13.6723 176.228 13.5015 175.961 13.3734C175.705 13.2346 175.379 13.1652 174.984 13.1652C174.61 13.1652 174.29 13.2292 174.023 13.3574C173.756 13.4855 173.532 13.651 173.35 13.8539C173.169 14.0674 173.03 14.313 172.934 14.5906C172.838 14.8682 172.769 15.1458 172.726 15.4234ZM190.616 10.9229L190.055 13.6777C189.756 13.6029 189.404 13.5229 188.998 13.4374C188.592 13.3627 188.16 13.3253 187.701 13.3253C187.487 13.3253 187.236 13.3414 186.948 13.3734C186.66 13.4161 186.441 13.4588 186.291 13.5015V22.5185H182.944V11.3554C183.542 11.1418 184.247 10.9443 185.058 10.7628C185.88 10.5706 186.793 10.4745 187.797 10.4745C187.968 10.4745 188.181 10.4852 188.438 10.5065C188.694 10.5279 188.95 10.5599 189.206 10.6026C189.463 10.6346 189.714 10.6774 189.959 10.7307C190.215 10.7841 190.434 10.8482 190.616 10.9229Z" fill="#0F1111"/>
<path d="M15.7814 7.5112C16.5548 7.50967 17.3087 7.26839 17.9393 6.82059C18.5699 6.37279 19.0461 5.74049 19.3024 5.01079C22.0611 5.76123 24.497 7.39664 26.2361 9.66579C27.9752 11.9349 28.9211 14.7123 28.9286 17.5712C28.9286 17.7645 29.0054 17.9499 29.1421 18.0866C29.2789 18.2234 29.4643 18.3002 29.6576 18.3002C29.851 18.3002 30.0364 18.2234 30.1731 18.0866C30.3098 17.9499 30.3866 17.7645 30.3866 17.5712C30.3778 14.3609 29.3052 11.2442 27.3366 8.70839C25.3679 6.1726 22.6144 4.36083 19.5065 3.55647C19.4638 2.82792 19.2086 2.12784 18.7725 1.54267C18.3365 0.957501 17.7385 0.512867 17.0526 0.263672C16.3667 0.0144768 15.6228 -0.0283659 14.9128 0.140434C14.2027 0.309234 13.5577 0.682284 13.0573 1.21352C12.5569 1.74476 12.2231 2.41092 12.097 3.12974C11.9709 3.84856 12.0582 4.58857 12.3479 5.25839C12.6376 5.92821 13.1172 6.4985 13.7274 6.89886C14.3375 7.29921 15.0516 7.51209 15.7814 7.5112ZM15.7814 1.49709C16.232 1.49709 16.6724 1.6307 17.047 1.88101C17.4217 2.13133 17.7137 2.48712 17.8861 2.90338C18.0585 3.31964 18.1036 3.77769 18.0157 4.21959C17.9278 4.6615 17.7109 5.06741 17.3923 5.386C17.0737 5.7046 16.6677 5.92156 16.2258 6.00946C15.7839 6.09736 15.3259 6.05225 14.9096 5.87983C14.4934 5.70741 14.1376 5.41542 13.8873 5.04079C13.6369 4.66616 13.5033 4.22572 13.5033 3.77516C13.5033 3.17064 13.7432 2.59083 14.1704 2.16303C14.5975 1.73523 15.1769 1.49441 15.7814 1.49344V1.49709ZM5.00704 20.9792C4.46708 20.8346 3.90151 20.8134 3.35225 20.9172C2.60715 18.1294 2.81178 15.1728 3.93383 12.5142C5.05588 9.85564 7.03142 7.64647 9.54861 6.23548C9.71681 6.13881 9.83972 5.97928 9.89031 5.79199C9.94089 5.6047 9.915 5.40498 9.81833 5.23677C9.72166 5.06857 9.56213 4.94566 9.37484 4.89507C9.18754 4.84449 8.98783 4.87038 8.81962 4.96705C5.99941 6.55901 3.79387 9.04993 2.5551 12.0421C1.31633 15.0344 1.11575 18.3553 1.9854 21.4749C1.38377 21.8709 0.909561 22.4325 0.619987 23.092C0.330414 23.7515 0.237842 24.4807 0.353439 25.1916C0.469037 25.9025 0.787865 26.5648 1.27146 27.0986C1.75506 27.6323 2.38277 28.0148 3.07888 28.1998C3.39631 28.2846 3.72349 28.3275 4.05207 28.3273C4.95965 28.3275 5.83627 27.9973 6.51818 27.3984C7.2001 26.7995 7.64068 25.9728 7.75765 25.0728C7.87462 24.1728 7.65997 23.2609 7.15379 22.5076C6.64761 21.7543 5.88452 21.211 5.00704 20.9792ZM6.24267 25.1781C6.1474 25.5409 5.96401 25.8746 5.70879 26.1495C5.45357 26.4244 5.13441 26.6321 4.77965 26.754C4.4249 26.8759 4.04553 26.9083 3.67524 26.8484C3.30494 26.7884 2.95518 26.638 2.65701 26.4103C2.35884 26.1827 2.12149 25.885 1.96603 25.5436C1.81058 25.2022 1.74184 24.8277 1.7659 24.4534C1.78997 24.0791 1.90611 23.7164 2.104 23.3978C2.30189 23.0791 2.57541 22.8142 2.90028 22.6267C3.28963 22.4019 3.73679 22.2973 4.18545 22.3262C4.63411 22.355 5.0642 22.516 5.42156 22.7888C5.77892 23.0616 6.04758 23.434 6.19369 23.8592C6.3398 24.2844 6.35684 24.7433 6.24267 25.1781ZM31.5493 23.3812C31.4031 22.8403 31.1372 22.3391 30.7711 21.915C30.405 21.4908 29.9482 21.1543 29.4345 20.9306C28.9208 20.7069 28.3633 20.6015 27.8034 20.6224C27.2435 20.6433 26.6954 20.7899 26.1998 21.0513C25.7042 21.3127 25.2737 21.6822 24.9402 22.1325C24.6068 22.5828 24.3789 23.1023 24.2734 23.6526C24.1679 24.2029 24.1876 24.7699 24.3309 25.3116C24.4743 25.8533 24.7376 26.3558 25.1015 26.7819C23.0116 28.8656 20.2754 30.177 17.342 30.5009C14.4086 30.8247 11.4523 30.1418 8.95813 28.5642C8.79476 28.4608 8.59699 28.4265 8.40833 28.4689C8.21967 28.5113 8.05557 28.6269 7.95213 28.7902C7.8487 28.9536 7.81439 29.1514 7.85677 29.34C7.89916 29.5287 8.01475 29.6928 8.17812 29.7962C10.9782 31.5689 14.3021 32.3261 17.5937 31.9413C20.8853 31.5565 23.9449 30.0529 26.2606 27.6822C26.7773 27.9473 27.3492 28.0871 27.9299 28.0904C28.504 28.091 29.0706 27.9594 29.5856 27.7059C30.1007 27.4523 30.5505 27.0835 30.9001 26.6282C31.2497 26.1728 31.4898 25.6431 31.6018 25.08C31.7137 24.5169 31.6945 23.9356 31.5457 23.3812H31.5493ZM29.9128 25.4879C29.6487 25.9441 29.2347 26.2946 28.7412 26.4797C28.2477 26.6648 27.7053 26.6731 27.2064 26.5031C26.7075 26.3331 26.2829 25.9954 26.0051 25.5474C25.7273 25.0995 25.6135 24.5691 25.6829 24.0466C25.7523 23.5242 26.0008 23.0419 26.386 22.6821C26.7711 22.3223 27.2691 22.1072 27.7951 22.0734C28.3211 22.0396 28.8425 22.1893 29.2706 22.4969C29.6986 22.8044 30.0067 23.2509 30.1424 23.7602C30.2975 24.3438 30.2149 24.9651 29.9128 25.4879Z" fill="url(#paint0_linear_126_551)"/>
</g>
<defs>
<linearGradient id="paint0_linear_126_551" x1="-0.874159" y1="0.904114" x2="27.5554" y2="14.161" gradientUnits="userSpaceOnUse">
<stop offset="0.310417" stop-color="#145858"/>
<stop offset="1" stop-color="#F7B318"/>
</linearGradient>
<clipPath id="clip0_126_551">
<rect width="190.933" height="32" fill="white"/>
</clipPath>
</defs>
</svg>
