<svg width="161" height="32" viewBox="0 0 161 32" fill="none" xmlns="http://www.w3.org/2000/svg">
<path d="M16.003 2.6665C8.63901 2.6665 2.66968 8.63584 2.66968 15.9998C2.66968 22.6838 7.59368 28.2038 14.0097 29.1678V19.5332H10.711V16.0278H14.0097V13.6958C14.0097 9.8345 15.891 8.13984 19.1003 8.13984C20.6377 8.13984 21.4497 8.25317 21.835 8.30517V11.3638H19.6457C18.283 11.3638 17.807 12.6558 17.807 14.1118V16.0278H21.8003L21.259 19.5332H17.8083V29.1958C24.3163 28.3145 29.3363 22.7492 29.3363 15.9998C29.3363 8.63584 23.367 2.6665 16.003 2.6665Z" fill="#145858"/>
<path d="M74.6696 4C70.9883 4 68.0029 6.98533 68.0029 10.6667V21.3333C68.0029 25.0147 70.9883 28 74.6696 28H85.3363C89.0176 28 92.0029 25.0147 92.0029 21.3333V10.6667C92.0029 6.98533 89.0176 4 85.3363 4H74.6696ZM88.0029 6.66667C88.7389 6.66667 89.3363 7.264 89.3363 8C89.3363 8.736 88.7389 9.33333 88.0029 9.33333C87.2669 9.33333 86.6696 8.736 86.6696 8C86.6696 7.264 87.2669 6.66667 88.0029 6.66667ZM80.0029 9.33333C83.6843 9.33333 86.6696 12.3187 86.6696 16C86.6696 19.6813 83.6843 22.6667 80.0029 22.6667C76.3216 22.6667 73.3363 19.6813 73.3363 16C73.3363 12.3187 76.3216 9.33333 80.0029 9.33333ZM80.0029 12C78.9421 12 77.9246 12.4214 77.1745 13.1716C76.4244 13.9217 76.0029 14.9391 76.0029 16C76.0029 17.0609 76.4244 18.0783 77.1745 18.8284C77.9246 19.5786 78.9421 20 80.0029 20C81.0638 20 82.0812 19.5786 82.8314 18.8284C83.5815 18.0783 84.0029 17.0609 84.0029 16C84.0029 14.9391 83.5815 13.9217 82.8314 13.1716C82.0812 12.4214 81.0638 12 80.0029 12Z" fill="#145858"/>
<path d="M157.336 5.33203C156.296 5.94936 154.21 6.7907 152.983 7.03336C152.947 7.0427 152.918 7.0547 152.883 7.06403C151.799 5.9947 150.314 5.33203 148.67 5.33203C145.356 5.33203 142.67 8.0187 142.67 11.332C142.67 11.5067 142.655 11.828 142.67 11.9987C138.199 11.9987 134.796 9.65736 132.356 6.66536C132.091 7.33203 131.975 8.38536 131.975 9.3747C131.975 11.2427 133.435 13.0774 135.708 14.2147C135.29 14.3227 134.828 14.4 134.348 14.4C133.574 14.4 132.754 14.196 132.003 13.5774C132.003 13.6 132.003 13.6214 132.003 13.6454C132.003 16.256 134.774 18.0334 137.238 18.528C136.738 18.8227 135.73 18.852 135.238 18.852C134.891 18.852 133.664 18.6934 133.336 18.632C134.022 20.772 136.494 21.9747 138.85 22.0174C137.007 23.4627 135.728 23.9987 131.955 23.9987H130.67C133.054 25.5267 136.09 26.6667 139.132 26.6667C149.039 26.6667 154.67 19.116 154.67 11.9987C154.67 11.884 154.667 11.644 154.663 11.4027C154.663 11.3787 154.67 11.356 154.67 11.332C154.67 11.296 154.659 11.2614 154.659 11.2254C154.655 11.044 154.651 10.8747 154.647 10.7867C155.7 10.0267 156.614 9.0787 157.336 7.9987C156.37 8.42803 155.332 8.71603 154.243 8.8467C155.355 8.18003 156.935 6.5907 157.336 5.33203Z" fill="#145858"/>
</svg>
