<svg width="84" height="64" viewBox="0 0 84 64" fill="none" xmlns="http://www.w3.org/2000/svg">
<path d="M19.0834 25.6667C18.1543 25.6667 17.2626 25.8084 16.3751 25.9376C16.6626 24.9709 16.9584 23.9876 17.4334 23.1042C17.9084 21.8209 18.6501 20.7084 19.3876 19.5876C20.0043 18.3751 21.0918 17.5542 21.8918 16.5167C22.7293 15.5084 23.8709 14.8376 24.7751 14.0001C25.6626 13.1251 26.8251 12.6876 27.7501 12.0709C28.7168 11.5167 29.5584 10.9042 30.4584 10.6126L32.7043 9.68758L34.6793 8.86675L32.6584 0.791748L30.1709 1.39175C29.3751 1.59175 28.4043 1.82508 27.3001 2.10425C26.1709 2.31258 24.9668 2.88341 23.6251 3.40425C22.3001 3.99591 20.7668 4.39591 19.3418 5.34591C17.9084 6.25425 16.2543 7.01258 14.7959 8.22925C13.3834 9.48341 11.6793 10.5709 10.4209 12.1667C9.04595 13.6584 7.68762 15.2251 6.63345 17.0084C5.41262 18.7084 4.58345 20.5751 3.70845 22.4209C2.91678 24.2667 2.27928 26.1542 1.75845 27.9876C0.77095 31.6626 0.329283 35.1543 0.15845 38.1418C0.0167835 41.1334 0.100117 43.6209 0.275117 45.4209C0.337617 46.2709 0.454284 47.0959 0.537617 47.6667L0.641783 48.3667L0.750117 48.3417C1.4912 51.8035 3.19722 54.9848 5.6708 57.5175C8.14438 60.0502 11.2845 61.8309 14.7278 62.6535C18.1711 63.4762 21.777 63.3072 25.1283 62.1661C28.4795 61.025 31.4393 58.9584 33.6651 56.2054C35.891 53.4525 37.292 50.1256 37.706 46.6096C38.1201 43.0937 37.5303 39.5324 36.0048 36.3377C34.4794 33.1429 32.0807 30.4453 29.0862 28.5569C26.0916 26.6685 22.6237 25.6665 19.0834 25.6667ZM64.9168 25.6667C63.9876 25.6667 63.0959 25.8084 62.2084 25.9376C62.4959 24.9709 62.7918 23.9876 63.2668 23.1042C63.7418 21.8209 64.4834 20.7084 65.2209 19.5876C65.8376 18.3751 66.9251 17.5542 67.7251 16.5167C68.5626 15.5084 69.7043 14.8376 70.6084 14.0001C71.4959 13.1251 72.6584 12.6876 73.5834 12.0709C74.5501 11.5167 75.3918 10.9042 76.2918 10.6126L78.5376 9.68758L80.5126 8.86675L78.4918 0.791748L76.0043 1.39175C75.2084 1.59175 74.2376 1.82508 73.1334 2.10425C72.0043 2.31258 70.8001 2.88341 69.4584 3.40425C68.1376 4.00008 66.6001 4.39591 65.1751 5.35008C63.7418 6.25841 62.0876 7.01675 60.6293 8.23341C59.2168 9.48758 57.5126 10.5751 56.2543 12.1667C54.8793 13.6584 53.5209 15.2251 52.4668 17.0084C51.2459 18.7084 50.4168 20.5751 49.5418 22.4209C48.7501 24.2667 48.1126 26.1542 47.5918 27.9876C46.6043 31.6626 46.1626 35.1543 45.9918 38.1418C45.8501 41.1334 45.9334 43.6209 46.1084 45.4209C46.1709 46.2709 46.2876 47.0959 46.3709 47.6667L46.4751 48.3667L46.5834 48.3417C47.3245 51.8035 49.0305 54.9848 51.5041 57.5175C53.9777 60.0502 57.1178 61.8309 60.5611 62.6535C64.0044 63.4762 67.6103 63.3072 70.9616 62.1661C74.3129 61.025 77.2726 58.9584 79.4985 56.2054C81.7243 53.4525 83.1253 50.1256 83.5393 46.6096C83.9534 43.0937 83.3636 39.5324 81.8382 36.3377C80.3127 33.1429 77.914 30.4453 74.9195 28.5569C71.925 26.6685 68.457 25.6665 64.9168 25.6667Z" fill="#D0DEDE"/>
</svg>
