<svg width="760" height="344" viewBox="0 0 760 344" fill="none" xmlns="http://www.w3.org/2000/svg">
<g filter="url(#filter0_d_225_1752)">
<rect x="12" y="8" width="736" height="320" rx="10" fill="white"/>
</g>
<path d="M28.256 87H34.5792V85.976H30.496L33.3504 83.0704C33.7003 82.712 33.9861 82.3067 34.208 81.8544C34.4299 81.4021 34.5408 80.9456 34.5408 80.4848C34.5408 80.2117 34.4853 79.9259 34.3744 79.6272C34.2635 79.3285 34.0928 79.0512 33.8624 78.7952C33.632 78.5307 33.3376 78.3173 32.9792 78.1552C32.6208 77.9845 32.1941 77.8992 31.6992 77.8992C31.0848 77.8992 30.5557 78.0357 30.112 78.3088C29.6768 78.5733 29.344 78.9488 29.1136 79.4352C28.8832 79.9131 28.768 80.472 28.768 81.112H29.856C29.856 80.6597 29.9285 80.2715 30.0736 79.9472C30.2187 79.6144 30.4277 79.3627 30.7008 79.192C30.9824 79.0128 31.3152 78.9232 31.6992 78.9232C31.9723 78.9232 32.2155 78.9701 32.4288 79.064C32.6421 79.1579 32.8213 79.2816 32.9664 79.4352C33.12 79.5888 33.2352 79.7595 33.312 79.9472C33.3888 80.1349 33.4272 80.3269 33.4272 80.5232C33.4272 80.7621 33.3888 80.9925 33.312 81.2144C33.2437 81.4277 33.1371 81.6411 32.992 81.8544C32.8555 82.0592 32.6891 82.2683 32.4928 82.4816L28.256 87ZM36.8875 82.52C36.8875 81.9995 36.9387 81.5216 37.0411 81.0864C37.1435 80.6427 37.2928 80.2629 37.4891 79.9472C37.6854 79.6229 37.92 79.3755 38.1931 79.2048C38.4747 79.0256 38.7862 78.936 39.1275 78.936C39.4774 78.936 39.7888 79.0256 40.0619 79.2048C40.335 79.3755 40.5696 79.6229 40.7659 79.9472C40.9622 80.2629 41.1115 80.6427 41.2139 81.0864C41.3163 81.5216 41.3675 81.9995 41.3675 82.52C41.3675 83.0405 41.3163 83.5227 41.2139 83.9664C41.1115 84.4016 40.9622 84.7813 40.7659 85.1056C40.5696 85.4213 40.335 85.6688 40.0619 85.848C39.7888 86.0187 39.4774 86.104 39.1275 86.104C38.7862 86.104 38.4747 86.0187 38.1931 85.848C37.92 85.6688 37.6854 85.4213 37.4891 85.1056C37.2928 84.7813 37.1435 84.4016 37.0411 83.9664C36.9387 83.5227 36.8875 83.0405 36.8875 82.52ZM35.7995 82.52C35.7995 83.416 35.9403 84.2096 36.2219 84.9008C36.5035 85.592 36.8918 86.1381 37.3867 86.5392C37.8902 86.9317 38.4704 87.128 39.1275 87.128C39.7846 87.128 40.3606 86.9317 40.8555 86.5392C41.359 86.1381 41.7515 85.592 42.0331 84.9008C42.3147 84.2096 42.4555 83.416 42.4555 82.52C42.4555 81.624 42.3147 80.8304 42.0331 80.1392C41.7515 79.448 41.359 78.9061 40.8555 78.5136C40.3606 78.1125 39.7846 77.912 39.1275 77.912C38.4704 77.912 37.8902 78.1125 37.3867 78.5136C36.8918 78.9061 36.5035 79.448 36.2219 80.1392C35.9403 80.8304 35.7995 81.624 35.7995 82.52Z" fill="#696B6B"/>
<path d="M29.024 127.806L31.008 127.218V135H32.096V125.912L29.024 126.68V127.806ZM40.4697 132.056C40.4697 131.459 40.3545 130.934 40.1241 130.482C39.8937 130.029 39.5737 129.675 39.1641 129.419C38.763 129.163 38.3065 129.035 37.7945 129.035C37.5726 129.035 37.3465 129.065 37.1161 129.125C36.8942 129.176 36.6766 129.257 36.4633 129.368L37.0649 127H40.4441V126.04H36.2201L35.0425 130.814C35.3497 130.601 35.6185 130.439 35.8489 130.328C36.0878 130.209 36.3225 130.127 36.5529 130.085C36.7918 130.034 37.0521 130.008 37.3337 130.008C37.7177 130.008 38.059 130.093 38.3577 130.264C38.6649 130.435 38.9038 130.674 39.0745 130.981C39.2537 131.288 39.3433 131.646 39.3433 132.056C39.3433 132.466 39.2622 132.824 39.1001 133.131C38.9465 133.438 38.7204 133.677 38.4217 133.848C38.123 134.019 37.7604 134.104 37.3337 134.104C37.0094 134.104 36.698 134.036 36.3993 133.899C36.1006 133.754 35.8361 133.571 35.6057 133.349C35.3838 133.118 35.2046 132.875 35.0681 132.619L34.1465 133.246C34.3428 133.588 34.5817 133.903 34.8633 134.194C35.1534 134.475 35.499 134.701 35.9001 134.872C36.3097 135.043 36.7876 135.128 37.3337 135.128C37.7689 135.128 38.1742 135.064 38.5497 134.936C38.9252 134.808 39.258 134.616 39.5481 134.36C39.8382 134.104 40.0644 133.784 40.2265 133.4C40.3886 133.016 40.4697 132.568 40.4697 132.056Z" fill="#696B6B"/>
<path d="M29.024 175.806L31.008 175.218V183H32.096V173.912L29.024 174.68V175.806ZM35.3625 178.52C35.3625 177.999 35.4137 177.522 35.5161 177.086C35.6185 176.643 35.7678 176.263 35.9641 175.947C36.1604 175.623 36.395 175.375 36.6681 175.205C36.9497 175.026 37.2612 174.936 37.6025 174.936C37.9524 174.936 38.2638 175.026 38.5369 175.205C38.81 175.375 39.0446 175.623 39.2409 175.947C39.4372 176.263 39.5865 176.643 39.6889 177.086C39.7913 177.522 39.8425 177.999 39.8425 178.52C39.8425 179.041 39.7913 179.523 39.6889 179.966C39.5865 180.402 39.4372 180.781 39.2409 181.106C39.0446 181.421 38.81 181.669 38.5369 181.848C38.2638 182.019 37.9524 182.104 37.6025 182.104C37.2612 182.104 36.9497 182.019 36.6681 181.848C36.395 181.669 36.1604 181.421 35.9641 181.106C35.7678 180.781 35.6185 180.402 35.5161 179.966C35.4137 179.523 35.3625 179.041 35.3625 178.52ZM34.2745 178.52C34.2745 179.416 34.4153 180.21 34.6969 180.901C34.9785 181.592 35.3668 182.138 35.8617 182.539C36.3652 182.932 36.9454 183.128 37.6025 183.128C38.2596 183.128 38.8356 182.932 39.3305 182.539C39.834 182.138 40.2265 181.592 40.5081 180.901C40.7897 180.21 40.9305 179.416 40.9305 178.52C40.9305 177.624 40.7897 176.83 40.5081 176.139C40.2265 175.448 39.834 174.906 39.3305 174.514C38.8356 174.113 38.2596 173.912 37.6025 173.912C36.9454 173.912 36.3652 174.113 35.8617 174.514C35.3668 174.906 34.9785 175.448 34.6969 176.139C34.4153 176.83 34.2745 177.624 34.2745 178.52Z" fill="#696B6B"/>
<path d="M34.7072 228.056C34.7072 227.459 34.592 226.934 34.3616 226.482C34.1312 226.029 33.8112 225.675 33.4016 225.419C33.0005 225.163 32.544 225.035 32.032 225.035C31.8101 225.035 31.584 225.065 31.3536 225.125C31.1317 225.176 30.9141 225.257 30.7008 225.368L31.3024 223H34.6816V222.04H30.4576L29.28 226.814C29.5872 226.601 29.856 226.439 30.0864 226.328C30.3253 226.209 30.56 226.127 30.7904 226.085C31.0293 226.034 31.2896 226.008 31.5712 226.008C31.9552 226.008 32.2965 226.093 32.5952 226.264C32.9024 226.435 33.1413 226.674 33.312 226.981C33.4912 227.288 33.5808 227.646 33.5808 228.056C33.5808 228.466 33.4997 228.824 33.3376 229.131C33.184 229.438 32.9579 229.677 32.6592 229.848C32.3605 230.019 31.9979 230.104 31.5712 230.104C31.2469 230.104 30.9355 230.036 30.6368 229.899C30.3381 229.754 30.0736 229.571 29.8432 229.349C29.6213 229.118 29.4421 228.875 29.3056 228.619L28.384 229.246C28.5803 229.588 28.8192 229.903 29.1008 230.194C29.3909 230.475 29.7365 230.701 30.1376 230.872C30.5472 231.043 31.0251 231.128 31.5712 231.128C32.0064 231.128 32.4117 231.064 32.7872 230.936C33.1627 230.808 33.4955 230.616 33.7856 230.36C34.0757 230.104 34.3019 229.784 34.464 229.4C34.6261 229.016 34.7072 228.568 34.7072 228.056Z" fill="#696B6B"/>
<path d="M29.6 274.52C29.6 273.999 29.6512 273.522 29.7536 273.086C29.856 272.643 30.0053 272.263 30.2016 271.947C30.3979 271.623 30.6325 271.375 30.9056 271.205C31.1872 271.026 31.4987 270.936 31.84 270.936C32.1899 270.936 32.5013 271.026 32.7744 271.205C33.0475 271.375 33.2821 271.623 33.4784 271.947C33.6747 272.263 33.824 272.643 33.9264 273.086C34.0288 273.522 34.08 273.999 34.08 274.52C34.08 275.041 34.0288 275.523 33.9264 275.966C33.824 276.402 33.6747 276.781 33.4784 277.106C33.2821 277.421 33.0475 277.669 32.7744 277.848C32.5013 278.019 32.1899 278.104 31.84 278.104C31.4987 278.104 31.1872 278.019 30.9056 277.848C30.6325 277.669 30.3979 277.421 30.2016 277.106C30.0053 276.781 29.856 276.402 29.7536 275.966C29.6512 275.523 29.6 275.041 29.6 274.52ZM28.512 274.52C28.512 275.416 28.6528 276.21 28.9344 276.901C29.216 277.592 29.6043 278.138 30.0992 278.539C30.6027 278.932 31.1829 279.128 31.84 279.128C32.4971 279.128 33.0731 278.932 33.568 278.539C34.0715 278.138 34.464 277.592 34.7456 276.901C35.0272 276.21 35.168 275.416 35.168 274.52C35.168 273.624 35.0272 272.83 34.7456 272.139C34.464 271.448 34.0715 270.906 33.568 270.514C33.0731 270.113 32.4971 269.912 31.84 269.912C31.1829 269.912 30.6027 270.113 30.0992 270.514C29.6043 270.906 29.216 271.448 28.9344 272.139C28.6528 272.83 28.512 273.624 28.512 274.52Z" fill="#696B6B"/>
<path d="M62.2656 297.946L65.184 303.168L68.1024 297.946L68.768 304H69.856L68.768 294.592L65.184 301.082L61.6 294.592L60.512 304H61.6L62.2656 297.946ZM71.7833 302.182C71.7833 301.969 71.8345 301.786 71.9369 301.632C72.0393 301.478 72.1929 301.359 72.3977 301.274C72.611 301.188 72.8841 301.146 73.2169 301.146C73.5753 301.146 73.9124 301.193 74.2281 301.286C74.5438 301.372 74.851 301.517 75.1497 301.722V301.12C75.09 301.043 74.9748 300.945 74.8041 300.826C74.6334 300.698 74.403 300.587 74.1129 300.493C73.8313 300.39 73.4772 300.339 73.0505 300.339C72.3252 300.339 71.7577 300.514 71.3481 300.864C70.947 301.205 70.7465 301.662 70.7465 302.234C70.7465 302.635 70.8404 302.976 71.0281 303.258C71.2158 303.539 71.4633 303.757 71.7705 303.91C72.0862 304.055 72.4233 304.128 72.7817 304.128C73.106 304.128 73.4302 304.068 73.7545 303.949C74.0873 303.829 74.3646 303.646 74.5865 303.398C74.8169 303.151 74.9321 302.839 74.9321 302.464L74.7273 301.696C74.7273 302.003 74.6505 302.276 74.4969 302.515C74.3518 302.746 74.1513 302.925 73.8953 303.053C73.6478 303.181 73.3662 303.245 73.0505 303.245C72.803 303.245 72.5812 303.206 72.3849 303.13C72.1972 303.044 72.0478 302.921 71.9369 302.758C71.8345 302.596 71.7833 302.404 71.7833 302.182ZM71.6297 299.469C71.7236 299.401 71.8516 299.319 72.0137 299.226C72.1758 299.132 72.3721 299.051 72.6025 298.982C72.8414 298.914 73.106 298.88 73.3961 298.88C73.5753 298.88 73.746 298.897 73.9081 298.931C74.0702 298.965 74.211 299.021 74.3305 299.098C74.4585 299.174 74.5566 299.281 74.6249 299.418C74.6932 299.546 74.7273 299.712 74.7273 299.917V304H75.7513V299.776C75.7513 299.392 75.6532 299.068 75.4569 298.803C75.2692 298.539 75.0004 298.338 74.6505 298.202C74.3092 298.057 73.9081 297.984 73.4473 297.984C72.9012 297.984 72.4318 298.065 72.0393 298.227C71.6553 298.389 71.3524 298.551 71.1305 298.714L71.6297 299.469ZM82.0945 298.112H80.9425L79.1249 302.669L79.5473 302.72L77.6785 298.112H76.4625L78.7153 303.168L77.1025 306.816H78.2545L82.0945 298.112ZM86.1935 304H92.5167V302.976H88.4335L91.2879 300.07C91.6378 299.712 91.9236 299.307 92.1455 298.854C92.3674 298.402 92.4783 297.946 92.4783 297.485C92.4783 297.212 92.4228 296.926 92.3119 296.627C92.201 296.329 92.0303 296.051 91.7999 295.795C91.5695 295.531 91.2751 295.317 90.9167 295.155C90.5583 294.985 90.1316 294.899 89.6367 294.899C89.0223 294.899 88.4932 295.036 88.0495 295.309C87.6143 295.573 87.2815 295.949 87.0511 296.435C86.8207 296.913 86.7055 297.472 86.7055 298.112H87.7935C87.7935 297.66 87.866 297.271 88.0111 296.947C88.1562 296.614 88.3652 296.363 88.6383 296.192C88.9199 296.013 89.2527 295.923 89.6367 295.923C89.9098 295.923 90.153 295.97 90.3663 296.064C90.5796 296.158 90.7588 296.282 90.9039 296.435C91.0575 296.589 91.1727 296.759 91.2495 296.947C91.3263 297.135 91.3647 297.327 91.3647 297.523C91.3647 297.762 91.3263 297.993 91.2495 298.214C91.1812 298.428 91.0746 298.641 90.9295 298.854C90.793 299.059 90.6266 299.268 90.4303 299.482L86.1935 304ZM93.481 304H99.8042V302.976H95.721L98.5754 300.07C98.9253 299.712 99.2111 299.307 99.433 298.854C99.6549 298.402 99.7658 297.946 99.7658 297.485C99.7658 297.212 99.7103 296.926 99.5994 296.627C99.4885 296.329 99.3178 296.051 99.0874 295.795C98.857 295.531 98.5626 295.317 98.2042 295.155C97.8458 294.985 97.4191 294.899 96.9242 294.899C96.3098 294.899 95.7807 295.036 95.337 295.309C94.9018 295.573 94.569 295.949 94.3386 296.435C94.1082 296.913 93.993 297.472 93.993 298.112H95.081C95.081 297.66 95.1535 297.271 95.2986 296.947C95.4437 296.614 95.6527 296.363 95.9258 296.192C96.2074 296.013 96.5402 295.923 96.9242 295.923C97.1973 295.923 97.4405 295.97 97.6538 296.064C97.8671 296.158 98.0463 296.282 98.1914 296.435C98.345 296.589 98.4602 296.759 98.537 296.947C98.6138 297.135 98.6522 297.327 98.6522 297.523C98.6522 297.762 98.6138 297.993 98.537 298.214C98.4687 298.428 98.3621 298.641 98.217 298.854C98.0805 299.059 97.9141 299.268 97.7178 299.482L93.481 304Z" fill="#696B6B"/>
<path d="M167.266 297.946L170.184 303.168L173.102 297.946L173.768 304H174.856L173.768 294.592L170.184 301.082L166.6 294.592L165.512 304H166.6L167.266 297.946ZM176.783 302.182C176.783 301.969 176.835 301.786 176.937 301.632C177.039 301.478 177.193 301.359 177.398 301.274C177.611 301.188 177.884 301.146 178.217 301.146C178.575 301.146 178.912 301.193 179.228 301.286C179.544 301.372 179.851 301.517 180.15 301.722V301.12C180.09 301.043 179.975 300.945 179.804 300.826C179.633 300.698 179.403 300.587 179.113 300.493C178.831 300.39 178.477 300.339 178.051 300.339C177.325 300.339 176.758 300.514 176.348 300.864C175.947 301.205 175.747 301.662 175.747 302.234C175.747 302.635 175.84 302.976 176.028 303.258C176.216 303.539 176.463 303.757 176.771 303.91C177.086 304.055 177.423 304.128 177.782 304.128C178.106 304.128 178.43 304.068 178.755 303.949C179.087 303.829 179.365 303.646 179.587 303.398C179.817 303.151 179.932 302.839 179.932 302.464L179.727 301.696C179.727 302.003 179.651 302.276 179.497 302.515C179.352 302.746 179.151 302.925 178.895 303.053C178.648 303.181 178.366 303.245 178.051 303.245C177.803 303.245 177.581 303.206 177.385 303.13C177.197 303.044 177.048 302.921 176.937 302.758C176.835 302.596 176.783 302.404 176.783 302.182ZM176.63 299.469C176.724 299.401 176.852 299.319 177.014 299.226C177.176 299.132 177.372 299.051 177.603 298.982C177.841 298.914 178.106 298.88 178.396 298.88C178.575 298.88 178.746 298.897 178.908 298.931C179.07 298.965 179.211 299.021 179.331 299.098C179.459 299.174 179.557 299.281 179.625 299.418C179.693 299.546 179.727 299.712 179.727 299.917V304H180.751V299.776C180.751 299.392 180.653 299.068 180.457 298.803C180.269 298.539 180 298.338 179.651 298.202C179.309 298.057 178.908 297.984 178.447 297.984C177.901 297.984 177.432 298.065 177.039 298.227C176.655 298.389 176.352 298.551 176.131 298.714L176.63 299.469ZM187.095 298.112H185.942L184.125 302.669L184.547 302.72L182.678 298.112H181.462L183.715 303.168L182.102 306.816H183.254L187.095 298.112ZM191.194 304H197.517V302.976H193.434L196.288 300.07C196.638 299.712 196.924 299.307 197.146 298.854C197.367 298.402 197.478 297.946 197.478 297.485C197.478 297.212 197.423 296.926 197.312 296.627C197.201 296.329 197.03 296.051 196.8 295.795C196.57 295.531 196.275 295.317 195.917 295.155C195.558 294.985 195.132 294.899 194.637 294.899C194.022 294.899 193.493 295.036 193.05 295.309C192.614 295.573 192.282 295.949 192.051 296.435C191.821 296.913 191.706 297.472 191.706 298.112H192.794C192.794 297.66 192.866 297.271 193.011 296.947C193.156 296.614 193.365 296.363 193.638 296.192C193.92 296.013 194.253 295.923 194.637 295.923C194.91 295.923 195.153 295.97 195.366 296.064C195.58 296.158 195.759 296.282 195.904 296.435C196.058 296.589 196.173 296.759 196.25 296.947C196.326 297.135 196.365 297.327 196.365 297.523C196.365 297.762 196.326 297.993 196.25 298.214C196.181 298.428 196.075 298.641 195.93 298.854C195.793 299.059 195.627 299.268 195.43 299.482L191.194 304ZM201.463 299.584C202.044 299.584 202.551 299.482 202.987 299.277C203.422 299.072 203.763 298.795 204.011 298.445C204.258 298.095 204.382 297.711 204.382 297.293C204.382 296.866 204.279 296.474 204.075 296.115C203.878 295.757 203.592 295.467 203.217 295.245C202.85 295.023 202.411 294.912 201.899 294.912C201.412 294.912 200.977 295.014 200.593 295.219C200.218 295.415 199.919 295.689 199.697 296.038C199.484 296.388 199.377 296.798 199.377 297.267H200.414C200.414 296.875 200.559 296.55 200.849 296.294C201.139 296.03 201.493 295.898 201.911 295.898C202.21 295.898 202.458 295.957 202.654 296.077C202.859 296.196 203.012 296.367 203.115 296.589C203.217 296.802 203.268 297.05 203.268 297.331C203.268 297.545 203.226 297.745 203.14 297.933C203.063 298.121 202.948 298.287 202.795 298.432C202.641 298.569 202.453 298.679 202.231 298.765C202.01 298.842 201.754 298.88 201.463 298.88V299.584ZM201.847 304.128C202.385 304.128 202.863 304.026 203.281 303.821C203.699 303.616 204.028 303.326 204.267 302.95C204.514 302.575 204.638 302.135 204.638 301.632C204.638 301.188 204.552 300.809 204.382 300.493C204.22 300.177 203.989 299.921 203.691 299.725C203.4 299.52 203.063 299.371 202.679 299.277C202.304 299.183 201.899 299.136 201.463 299.136V299.84C201.754 299.84 202.022 299.874 202.27 299.942C202.517 300.011 202.735 300.117 202.923 300.262C203.11 300.399 203.255 300.574 203.358 300.787C203.469 300.992 203.524 301.231 203.524 301.504C203.524 301.828 203.456 302.11 203.319 302.349C203.183 302.588 202.987 302.775 202.731 302.912C202.483 303.04 202.189 303.104 201.847 303.104C201.506 303.104 201.203 303.04 200.939 302.912C200.674 302.784 200.465 302.609 200.311 302.387C200.166 302.165 200.094 301.914 200.094 301.632H198.993C198.993 301.982 199.061 302.31 199.198 302.618C199.334 302.916 199.526 303.181 199.774 303.411C200.021 303.633 200.32 303.808 200.67 303.936C201.02 304.064 201.412 304.128 201.847 304.128Z" fill="#696B6B"/>
<path d="M272.266 297.946L275.184 303.168L278.102 297.946L278.768 304H279.856L278.768 294.592L275.184 301.082L271.6 294.592L270.512 304H271.6L272.266 297.946ZM281.783 302.182C281.783 301.969 281.835 301.786 281.937 301.632C282.039 301.478 282.193 301.359 282.398 301.274C282.611 301.188 282.884 301.146 283.217 301.146C283.575 301.146 283.912 301.193 284.228 301.286C284.544 301.372 284.851 301.517 285.15 301.722V301.12C285.09 301.043 284.975 300.945 284.804 300.826C284.633 300.698 284.403 300.587 284.113 300.493C283.831 300.39 283.477 300.339 283.051 300.339C282.325 300.339 281.758 300.514 281.348 300.864C280.947 301.205 280.747 301.662 280.747 302.234C280.747 302.635 280.84 302.976 281.028 303.258C281.216 303.539 281.463 303.757 281.771 303.91C282.086 304.055 282.423 304.128 282.782 304.128C283.106 304.128 283.43 304.068 283.755 303.949C284.087 303.829 284.365 303.646 284.587 303.398C284.817 303.151 284.932 302.839 284.932 302.464L284.727 301.696C284.727 302.003 284.651 302.276 284.497 302.515C284.352 302.746 284.151 302.925 283.895 303.053C283.648 303.181 283.366 303.245 283.051 303.245C282.803 303.245 282.581 303.206 282.385 303.13C282.197 303.044 282.048 302.921 281.937 302.758C281.835 302.596 281.783 302.404 281.783 302.182ZM281.63 299.469C281.724 299.401 281.852 299.319 282.014 299.226C282.176 299.132 282.372 299.051 282.603 298.982C282.841 298.914 283.106 298.88 283.396 298.88C283.575 298.88 283.746 298.897 283.908 298.931C284.07 298.965 284.211 299.021 284.331 299.098C284.459 299.174 284.557 299.281 284.625 299.418C284.693 299.546 284.727 299.712 284.727 299.917V304H285.751V299.776C285.751 299.392 285.653 299.068 285.457 298.803C285.269 298.539 285 298.338 284.651 298.202C284.309 298.057 283.908 297.984 283.447 297.984C282.901 297.984 282.432 298.065 282.039 298.227C281.655 298.389 281.352 298.551 281.131 298.714L281.63 299.469ZM292.095 298.112H290.942L289.125 302.669L289.547 302.72L287.678 298.112H286.462L288.715 303.168L287.102 306.816H288.254L292.095 298.112ZM296.194 304H302.517V302.976H298.434L301.288 300.07C301.638 299.712 301.924 299.307 302.146 298.854C302.367 298.402 302.478 297.946 302.478 297.485C302.478 297.212 302.423 296.926 302.312 296.627C302.201 296.329 302.03 296.051 301.8 295.795C301.57 295.531 301.275 295.317 300.917 295.155C300.558 294.985 300.132 294.899 299.637 294.899C299.022 294.899 298.493 295.036 298.05 295.309C297.614 295.573 297.282 295.949 297.051 296.435C296.821 296.913 296.706 297.472 296.706 298.112H297.794C297.794 297.66 297.866 297.271 298.011 296.947C298.156 296.614 298.365 296.363 298.638 296.192C298.92 296.013 299.253 295.923 299.637 295.923C299.91 295.923 300.153 295.97 300.366 296.064C300.58 296.158 300.759 296.282 300.904 296.435C301.058 296.589 301.173 296.759 301.25 296.947C301.326 297.135 301.365 297.327 301.365 297.523C301.365 297.762 301.326 297.993 301.25 298.214C301.181 298.428 301.075 298.641 300.93 298.854C300.793 299.059 300.627 299.268 300.43 299.482L296.194 304ZM303.481 302.208H310.303V301.248H308.473H308.255H305.273L307.807 297.459V301.606V301.747V304H308.895V295.04H308.447L303.481 302.208Z" fill="#696B6B"/>
<path d="M377.266 297.946L380.184 303.168L383.102 297.946L383.768 304H384.856L383.768 294.592L380.184 301.082L376.6 294.592L375.512 304H376.6L377.266 297.946ZM386.783 302.182C386.783 301.969 386.835 301.786 386.937 301.632C387.039 301.478 387.193 301.359 387.398 301.274C387.611 301.188 387.884 301.146 388.217 301.146C388.575 301.146 388.912 301.193 389.228 301.286C389.544 301.372 389.851 301.517 390.15 301.722V301.12C390.09 301.043 389.975 300.945 389.804 300.826C389.633 300.698 389.403 300.587 389.113 300.493C388.831 300.39 388.477 300.339 388.051 300.339C387.325 300.339 386.758 300.514 386.348 300.864C385.947 301.205 385.747 301.662 385.747 302.234C385.747 302.635 385.84 302.976 386.028 303.258C386.216 303.539 386.463 303.757 386.771 303.91C387.086 304.055 387.423 304.128 387.782 304.128C388.106 304.128 388.43 304.068 388.755 303.949C389.087 303.829 389.365 303.646 389.587 303.398C389.817 303.151 389.932 302.839 389.932 302.464L389.727 301.696C389.727 302.003 389.651 302.276 389.497 302.515C389.352 302.746 389.151 302.925 388.895 303.053C388.648 303.181 388.366 303.245 388.051 303.245C387.803 303.245 387.581 303.206 387.385 303.13C387.197 303.044 387.048 302.921 386.937 302.758C386.835 302.596 386.783 302.404 386.783 302.182ZM386.63 299.469C386.724 299.401 386.852 299.319 387.014 299.226C387.176 299.132 387.372 299.051 387.603 298.982C387.841 298.914 388.106 298.88 388.396 298.88C388.575 298.88 388.746 298.897 388.908 298.931C389.07 298.965 389.211 299.021 389.331 299.098C389.459 299.174 389.557 299.281 389.625 299.418C389.693 299.546 389.727 299.712 389.727 299.917V304H390.751V299.776C390.751 299.392 390.653 299.068 390.457 298.803C390.269 298.539 390 298.338 389.651 298.202C389.309 298.057 388.908 297.984 388.447 297.984C387.901 297.984 387.432 298.065 387.039 298.227C386.655 298.389 386.352 298.551 386.131 298.714L386.63 299.469ZM397.095 298.112H395.942L394.125 302.669L394.547 302.72L392.678 298.112H391.462L393.715 303.168L392.102 306.816H393.254L397.095 298.112ZM401.194 304H407.517V302.976H403.434L406.288 300.07C406.638 299.712 406.924 299.307 407.146 298.854C407.367 298.402 407.478 297.946 407.478 297.485C407.478 297.212 407.423 296.926 407.312 296.627C407.201 296.329 407.03 296.051 406.8 295.795C406.57 295.531 406.275 295.317 405.917 295.155C405.558 294.985 405.132 294.899 404.637 294.899C404.022 294.899 403.493 295.036 403.05 295.309C402.614 295.573 402.282 295.949 402.051 296.435C401.821 296.913 401.706 297.472 401.706 298.112H402.794C402.794 297.66 402.866 297.271 403.011 296.947C403.156 296.614 403.365 296.363 403.638 296.192C403.92 296.013 404.253 295.923 404.637 295.923C404.91 295.923 405.153 295.97 405.366 296.064C405.58 296.158 405.759 296.282 405.904 296.435C406.058 296.589 406.173 296.759 406.25 296.947C406.326 297.135 406.365 297.327 406.365 297.523C406.365 297.762 406.326 297.993 406.25 298.214C406.181 298.428 406.075 298.641 405.93 298.854C405.793 299.059 405.627 299.268 405.43 299.482L401.194 304ZM414.932 301.056C414.932 300.459 414.817 299.934 414.587 299.482C414.356 299.029 414.036 298.675 413.627 298.419C413.226 298.163 412.769 298.035 412.257 298.035C412.035 298.035 411.809 298.065 411.579 298.125C411.357 298.176 411.139 298.257 410.926 298.368L411.527 296H414.907V295.04H410.683L409.505 299.814C409.812 299.601 410.081 299.439 410.311 299.328C410.55 299.209 410.785 299.127 411.015 299.085C411.254 299.034 411.515 299.008 411.796 299.008C412.18 299.008 412.522 299.093 412.82 299.264C413.127 299.435 413.366 299.674 413.537 299.981C413.716 300.288 413.806 300.646 413.806 301.056C413.806 301.466 413.725 301.824 413.563 302.131C413.409 302.438 413.183 302.677 412.884 302.848C412.586 303.019 412.223 303.104 411.796 303.104C411.472 303.104 411.16 303.036 410.862 302.899C410.563 302.754 410.299 302.571 410.068 302.349C409.846 302.118 409.667 301.875 409.531 301.619L408.609 302.246C408.805 302.588 409.044 302.903 409.326 303.194C409.616 303.475 409.962 303.701 410.363 303.872C410.772 304.043 411.25 304.128 411.796 304.128C412.231 304.128 412.637 304.064 413.012 303.936C413.388 303.808 413.72 303.616 414.011 303.36C414.301 303.104 414.527 302.784 414.689 302.4C414.851 302.016 414.932 301.568 414.932 301.056Z" fill="#696B6B"/>
<path d="M482.266 297.946L485.184 303.168L488.102 297.946L488.768 304H489.856L488.768 294.592L485.184 301.082L481.6 294.592L480.512 304H481.6L482.266 297.946ZM491.783 302.182C491.783 301.969 491.835 301.786 491.937 301.632C492.039 301.478 492.193 301.359 492.398 301.274C492.611 301.188 492.884 301.146 493.217 301.146C493.575 301.146 493.912 301.193 494.228 301.286C494.544 301.372 494.851 301.517 495.15 301.722V301.12C495.09 301.043 494.975 300.945 494.804 300.826C494.633 300.698 494.403 300.587 494.113 300.493C493.831 300.39 493.477 300.339 493.051 300.339C492.325 300.339 491.758 300.514 491.348 300.864C490.947 301.205 490.747 301.662 490.747 302.234C490.747 302.635 490.84 302.976 491.028 303.258C491.216 303.539 491.463 303.757 491.771 303.91C492.086 304.055 492.423 304.128 492.782 304.128C493.106 304.128 493.43 304.068 493.755 303.949C494.087 303.829 494.365 303.646 494.587 303.398C494.817 303.151 494.932 302.839 494.932 302.464L494.727 301.696C494.727 302.003 494.651 302.276 494.497 302.515C494.352 302.746 494.151 302.925 493.895 303.053C493.648 303.181 493.366 303.245 493.051 303.245C492.803 303.245 492.581 303.206 492.385 303.13C492.197 303.044 492.048 302.921 491.937 302.758C491.835 302.596 491.783 302.404 491.783 302.182ZM491.63 299.469C491.724 299.401 491.852 299.319 492.014 299.226C492.176 299.132 492.372 299.051 492.603 298.982C492.841 298.914 493.106 298.88 493.396 298.88C493.575 298.88 493.746 298.897 493.908 298.931C494.07 298.965 494.211 299.021 494.331 299.098C494.459 299.174 494.557 299.281 494.625 299.418C494.693 299.546 494.727 299.712 494.727 299.917V304H495.751V299.776C495.751 299.392 495.653 299.068 495.457 298.803C495.269 298.539 495 298.338 494.651 298.202C494.309 298.057 493.908 297.984 493.447 297.984C492.901 297.984 492.432 298.065 492.039 298.227C491.655 298.389 491.352 298.551 491.131 298.714L491.63 299.469ZM502.095 298.112H500.942L499.125 302.669L499.547 302.72L497.678 298.112H496.462L498.715 303.168L497.102 306.816H498.254L502.095 298.112ZM506.194 304H512.517V302.976H508.434L511.288 300.07C511.638 299.712 511.924 299.307 512.146 298.854C512.367 298.402 512.478 297.946 512.478 297.485C512.478 297.212 512.423 296.926 512.312 296.627C512.201 296.329 512.03 296.051 511.8 295.795C511.57 295.531 511.275 295.317 510.917 295.155C510.558 294.985 510.132 294.899 509.637 294.899C509.022 294.899 508.493 295.036 508.05 295.309C507.614 295.573 507.282 295.949 507.051 296.435C506.821 296.913 506.706 297.472 506.706 298.112H507.794C507.794 297.66 507.866 297.271 508.011 296.947C508.156 296.614 508.365 296.363 508.638 296.192C508.92 296.013 509.253 295.923 509.637 295.923C509.91 295.923 510.153 295.97 510.366 296.064C510.58 296.158 510.759 296.282 510.904 296.435C511.058 296.589 511.173 296.759 511.25 296.947C511.326 297.135 511.365 297.327 511.365 297.523C511.365 297.762 511.326 297.993 511.25 298.214C511.181 298.428 511.075 298.641 510.93 298.854C510.793 299.059 510.627 299.268 510.43 299.482L506.194 304ZM514.902 301.056C514.902 300.646 514.987 300.284 515.158 299.968C515.337 299.644 515.576 299.392 515.875 299.213C516.182 299.034 516.527 298.944 516.911 298.944C517.295 298.944 517.637 299.034 517.935 299.213C518.243 299.392 518.482 299.644 518.652 299.968C518.831 300.284 518.921 300.646 518.921 301.056C518.921 301.466 518.831 301.828 518.652 302.144C518.482 302.451 518.243 302.694 517.935 302.874C517.637 303.053 517.295 303.142 516.911 303.142C516.527 303.142 516.182 303.053 515.875 302.874C515.576 302.694 515.337 302.451 515.158 302.144C514.987 301.828 514.902 301.466 514.902 301.056ZM517.449 295.04L514.428 299.2C514.258 299.439 514.121 299.716 514.019 300.032C513.916 300.348 513.865 300.689 513.865 301.056C513.865 301.67 513.997 302.208 514.262 302.669C514.535 303.13 514.902 303.488 515.363 303.744C515.823 304 516.34 304.128 516.911 304.128C517.492 304.128 518.008 304 518.46 303.744C518.921 303.488 519.284 303.13 519.548 302.669C519.821 302.208 519.958 301.67 519.958 301.056C519.958 300.646 519.89 300.267 519.753 299.917C519.616 299.558 519.424 299.247 519.177 298.982C518.938 298.718 518.656 298.513 518.332 298.368C518.016 298.223 517.675 298.15 517.308 298.15C517.018 298.15 516.758 298.185 516.527 298.253C516.306 298.321 516.109 298.462 515.939 298.675L516.015 298.739L518.819 295.04H517.449Z" fill="#696B6B"/>
<path d="M587.266 297.946L590.184 303.168L593.102 297.946L593.768 304H594.856L593.768 294.592L590.184 301.082L586.6 294.592L585.512 304H586.6L587.266 297.946ZM596.783 302.182C596.783 301.969 596.835 301.786 596.937 301.632C597.039 301.478 597.193 301.359 597.398 301.274C597.611 301.188 597.884 301.146 598.217 301.146C598.575 301.146 598.912 301.193 599.228 301.286C599.544 301.372 599.851 301.517 600.15 301.722V301.12C600.09 301.043 599.975 300.945 599.804 300.826C599.633 300.698 599.403 300.587 599.113 300.493C598.831 300.39 598.477 300.339 598.051 300.339C597.325 300.339 596.758 300.514 596.348 300.864C595.947 301.205 595.747 301.662 595.747 302.234C595.747 302.635 595.84 302.976 596.028 303.258C596.216 303.539 596.463 303.757 596.771 303.91C597.086 304.055 597.423 304.128 597.782 304.128C598.106 304.128 598.43 304.068 598.755 303.949C599.087 303.829 599.365 303.646 599.587 303.398C599.817 303.151 599.932 302.839 599.932 302.464L599.727 301.696C599.727 302.003 599.651 302.276 599.497 302.515C599.352 302.746 599.151 302.925 598.895 303.053C598.648 303.181 598.366 303.245 598.051 303.245C597.803 303.245 597.581 303.206 597.385 303.13C597.197 303.044 597.048 302.921 596.937 302.758C596.835 302.596 596.783 302.404 596.783 302.182ZM596.63 299.469C596.724 299.401 596.852 299.319 597.014 299.226C597.176 299.132 597.372 299.051 597.603 298.982C597.841 298.914 598.106 298.88 598.396 298.88C598.575 298.88 598.746 298.897 598.908 298.931C599.07 298.965 599.211 299.021 599.331 299.098C599.459 299.174 599.557 299.281 599.625 299.418C599.693 299.546 599.727 299.712 599.727 299.917V304H600.751V299.776C600.751 299.392 600.653 299.068 600.457 298.803C600.269 298.539 600 298.338 599.651 298.202C599.309 298.057 598.908 297.984 598.447 297.984C597.901 297.984 597.432 298.065 597.039 298.227C596.655 298.389 596.352 298.551 596.131 298.714L596.63 299.469ZM607.095 298.112H605.942L604.125 302.669L604.547 302.72L602.678 298.112H601.462L603.715 303.168L602.102 306.816H603.254L607.095 298.112ZM611.194 304H617.517V302.976H613.434L616.288 300.07C616.638 299.712 616.924 299.307 617.146 298.854C617.367 298.402 617.478 297.946 617.478 297.485C617.478 297.212 617.423 296.926 617.312 296.627C617.201 296.329 617.03 296.051 616.8 295.795C616.57 295.531 616.275 295.317 615.917 295.155C615.558 294.985 615.132 294.899 614.637 294.899C614.022 294.899 613.493 295.036 613.05 295.309C612.614 295.573 612.282 295.949 612.051 296.435C611.821 296.913 611.706 297.472 611.706 298.112H612.794C612.794 297.66 612.866 297.271 613.011 296.947C613.156 296.614 613.365 296.363 613.638 296.192C613.92 296.013 614.253 295.923 614.637 295.923C614.91 295.923 615.153 295.97 615.366 296.064C615.58 296.158 615.759 296.282 615.904 296.435C616.058 296.589 616.173 296.759 616.25 296.947C616.326 297.135 616.365 297.327 616.365 297.523C616.365 297.762 616.326 297.993 616.25 298.214C616.181 298.428 616.075 298.641 615.93 298.854C615.793 299.059 615.627 299.268 615.43 299.482L611.194 304ZM618.609 296.064H623.255L619.454 304H620.593L624.881 295.04H618.609V296.064Z" fill="#696B6B"/>
<path d="M691.266 297.946L694.184 303.168L697.102 297.946L697.768 304H698.856L697.768 294.592L694.184 301.082L690.6 294.592L689.512 304H690.6L691.266 297.946ZM700.783 302.182C700.783 301.969 700.835 301.786 700.937 301.632C701.039 301.478 701.193 301.359 701.398 301.274C701.611 301.188 701.884 301.146 702.217 301.146C702.575 301.146 702.912 301.193 703.228 301.286C703.544 301.372 703.851 301.517 704.15 301.722V301.12C704.09 301.043 703.975 300.945 703.804 300.826C703.633 300.698 703.403 300.587 703.113 300.493C702.831 300.39 702.477 300.339 702.051 300.339C701.325 300.339 700.758 300.514 700.348 300.864C699.947 301.205 699.747 301.662 699.747 302.234C699.747 302.635 699.84 302.976 700.028 303.258C700.216 303.539 700.463 303.757 700.771 303.91C701.086 304.055 701.423 304.128 701.782 304.128C702.106 304.128 702.43 304.068 702.755 303.949C703.087 303.829 703.365 303.646 703.587 303.398C703.817 303.151 703.932 302.839 703.932 302.464L703.727 301.696C703.727 302.003 703.651 302.276 703.497 302.515C703.352 302.746 703.151 302.925 702.895 303.053C702.648 303.181 702.366 303.245 702.051 303.245C701.803 303.245 701.581 303.206 701.385 303.13C701.197 303.044 701.048 302.921 700.937 302.758C700.835 302.596 700.783 302.404 700.783 302.182ZM700.63 299.469C700.724 299.401 700.852 299.319 701.014 299.226C701.176 299.132 701.372 299.051 701.603 298.982C701.841 298.914 702.106 298.88 702.396 298.88C702.575 298.88 702.746 298.897 702.908 298.931C703.07 298.965 703.211 299.021 703.331 299.098C703.459 299.174 703.557 299.281 703.625 299.418C703.693 299.546 703.727 299.712 703.727 299.917V304H704.751V299.776C704.751 299.392 704.653 299.068 704.457 298.803C704.269 298.539 704 298.338 703.651 298.202C703.309 298.057 702.908 297.984 702.447 297.984C701.901 297.984 701.432 298.065 701.039 298.227C700.655 298.389 700.352 298.551 700.131 298.714L700.63 299.469ZM711.095 298.112H709.942L708.125 302.669L708.547 302.72L706.678 298.112H705.462L707.715 303.168L706.102 306.816H707.254L711.095 298.112ZM715.194 304H721.517V302.976H717.434L720.288 300.07C720.638 299.712 720.924 299.307 721.146 298.854C721.367 298.402 721.478 297.946 721.478 297.485C721.478 297.212 721.423 296.926 721.312 296.627C721.201 296.329 721.03 296.051 720.8 295.795C720.57 295.531 720.275 295.317 719.917 295.155C719.558 294.985 719.132 294.899 718.637 294.899C718.022 294.899 717.493 295.036 717.05 295.309C716.614 295.573 716.282 295.949 716.051 296.435C715.821 296.913 715.706 297.472 715.706 298.112H716.794C716.794 297.66 716.866 297.271 717.011 296.947C717.156 296.614 717.365 296.363 717.638 296.192C717.92 296.013 718.253 295.923 718.637 295.923C718.91 295.923 719.153 295.97 719.366 296.064C719.58 296.158 719.759 296.282 719.904 296.435C720.058 296.589 720.173 296.759 720.25 296.947C720.326 297.135 720.365 297.327 720.365 297.523C720.365 297.762 720.326 297.993 720.25 298.214C720.181 298.428 720.075 298.641 719.93 298.854C719.793 299.059 719.627 299.268 719.43 299.482L715.194 304ZM723.249 297.203C723.249 297.553 723.309 297.869 723.428 298.15C723.548 298.423 723.714 298.658 723.927 298.854C724.149 299.051 724.41 299.2 724.708 299.302C725.015 299.405 725.352 299.456 725.719 299.456C726.086 299.456 726.419 299.405 726.718 299.302C727.025 299.2 727.285 299.051 727.499 298.854C727.72 298.658 727.891 298.423 728.011 298.15C728.13 297.869 728.19 297.553 728.19 297.203C728.19 296.777 728.079 296.393 727.857 296.051C727.644 295.701 727.349 295.424 726.974 295.219C726.607 295.014 726.189 294.912 725.719 294.912C725.25 294.912 724.828 295.014 724.452 295.219C724.085 295.424 723.791 295.701 723.569 296.051C723.356 296.393 723.249 296.777 723.249 297.203ZM724.286 297.331C724.286 297.05 724.346 296.798 724.465 296.576C724.593 296.354 724.764 296.183 724.977 296.064C725.199 295.936 725.446 295.872 725.719 295.872C726.001 295.872 726.248 295.936 726.462 296.064C726.675 296.183 726.842 296.354 726.961 296.576C727.089 296.798 727.153 297.05 727.153 297.331C727.153 297.613 727.085 297.86 726.948 298.074C726.82 298.287 726.645 298.453 726.423 298.573C726.21 298.692 725.975 298.752 725.719 298.752C725.463 298.752 725.224 298.692 725.003 298.573C724.789 298.453 724.614 298.287 724.478 298.074C724.35 297.86 724.286 297.613 724.286 297.331ZM722.929 301.568C722.929 301.918 722.997 302.246 723.134 302.554C723.279 302.861 723.475 303.134 723.723 303.373C723.979 303.612 724.273 303.799 724.606 303.936C724.947 304.064 725.318 304.128 725.719 304.128C726.12 304.128 726.487 304.064 726.82 303.936C727.162 303.799 727.456 303.612 727.703 303.373C727.959 303.134 728.156 302.861 728.292 302.554C728.437 302.246 728.51 301.918 728.51 301.568C728.51 301.158 728.433 300.796 728.279 300.48C728.134 300.156 727.93 299.887 727.665 299.674C727.409 299.452 727.11 299.285 726.769 299.174C726.436 299.063 726.086 299.008 725.719 299.008C725.352 299.008 724.998 299.063 724.657 299.174C724.324 299.285 724.026 299.452 723.761 299.674C723.505 299.887 723.3 300.156 723.147 300.48C723.002 300.796 722.929 301.158 722.929 301.568ZM723.966 301.44C723.966 301.116 724.047 300.826 724.209 300.57C724.38 300.305 724.597 300.096 724.862 299.942C725.135 299.789 725.421 299.712 725.719 299.712C726.018 299.712 726.3 299.789 726.564 299.942C726.837 300.096 727.055 300.305 727.217 300.57C727.388 300.826 727.473 301.116 727.473 301.44C727.473 301.807 727.388 302.118 727.217 302.374C727.055 302.63 726.837 302.827 726.564 302.963C726.3 303.1 726.018 303.168 725.719 303.168C725.421 303.168 725.135 303.1 724.862 302.963C724.597 302.827 724.38 302.63 724.209 302.374C724.047 302.118 723.966 301.807 723.966 301.44Z" fill="#696B6B"/>
<path d="M33.472 48V34.08H28.576V31.2H41.536V34.08H36.64V48H33.472ZM45.4229 48.336C44.5749 48.336 43.8149 48.192 43.1429 47.904C42.4709 47.6 41.9349 47.168 41.5349 46.608C41.1509 46.032 40.9589 45.336 40.9589 44.52C40.9589 43.704 41.1509 43.024 41.5349 42.48C41.9349 41.92 42.4789 41.504 43.1669 41.232C43.8709 40.944 44.6709 40.8 45.5669 40.8H48.8309V40.128C48.8309 39.568 48.6549 39.112 48.3029 38.76C47.9509 38.392 47.3909 38.208 46.6229 38.208C45.8709 38.208 45.3109 38.384 44.9429 38.736C44.5749 39.072 44.3349 39.512 44.2229 40.056L41.4389 39.12C41.6309 38.512 41.9349 37.96 42.3509 37.464C42.7829 36.952 43.3509 36.544 44.0549 36.24C44.7749 35.92 45.6469 35.76 46.6709 35.76C48.2389 35.76 49.4789 36.152 50.3909 36.936C51.3029 37.72 51.7589 38.856 51.7589 40.344V44.784C51.7589 45.264 51.9829 45.504 52.4309 45.504H53.3909V48H51.3749C50.7829 48 50.2949 47.856 49.9109 47.568C49.5269 47.28 49.3349 46.896 49.3349 46.416V46.392H48.8789C48.8149 46.584 48.6709 46.84 48.4469 47.16C48.2229 47.464 47.8709 47.736 47.3909 47.976C46.9109 48.216 46.2549 48.336 45.4229 48.336ZM45.9509 45.888C46.7989 45.888 47.4869 45.656 48.0149 45.192C48.5589 44.712 48.8309 44.08 48.8309 43.296V43.056H45.7829C45.2229 43.056 44.7829 43.176 44.4629 43.416C44.1429 43.656 43.9829 43.992 43.9829 44.424C43.9829 44.856 44.1509 45.208 44.4869 45.48C44.8229 45.752 45.3109 45.888 45.9509 45.888ZM60.4521 48.336C58.9001 48.336 57.6281 48 56.6361 47.328C55.6441 46.656 55.0441 45.696 54.8361 44.448L57.6201 43.728C57.7321 44.288 57.9161 44.728 58.1721 45.048C58.4441 45.368 58.7721 45.6 59.1561 45.744C59.5561 45.872 59.9881 45.936 60.4521 45.936C61.1561 45.936 61.6761 45.816 62.0121 45.576C62.3481 45.32 62.5161 45.008 62.5161 44.64C62.5161 44.272 62.3561 43.992 62.0361 43.8C61.7161 43.592 61.2041 43.424 60.5001 43.296L59.8281 43.176C58.9961 43.016 58.2361 42.8 57.5481 42.528C56.8601 42.24 56.3081 41.848 55.8921 41.352C55.4761 40.856 55.2681 40.216 55.2681 39.432C55.2681 38.248 55.7001 37.344 56.5641 36.72C57.4281 36.08 58.5641 35.76 59.9721 35.76C61.3001 35.76 62.4041 36.056 63.2841 36.648C64.1641 37.24 64.7401 38.016 65.0121 38.976L62.2041 39.84C62.0761 39.232 61.8121 38.8 61.4121 38.544C61.0281 38.288 60.5481 38.16 59.9721 38.16C59.3961 38.16 58.9561 38.264 58.6521 38.472C58.3481 38.664 58.1961 38.936 58.1961 39.288C58.1961 39.672 58.3561 39.96 58.6761 40.152C58.9961 40.328 59.4281 40.464 59.9721 40.56L60.6441 40.68C61.5401 40.84 62.3481 41.056 63.0681 41.328C63.8041 41.584 64.3801 41.96 64.7961 42.456C65.2281 42.936 65.4441 43.592 65.4441 44.424C65.4441 45.672 64.9881 46.64 64.0761 47.328C63.1801 48 61.9721 48.336 60.4521 48.336ZM68.0941 48V31.2H71.1181V40.488H71.5501L75.4861 36.096H79.4221L73.9261 41.856L79.6141 48H75.7261L71.5501 43.272H71.1181V48H68.0941ZM87.6387 48V31.2H94.5507C95.6067 31.2 96.5347 31.416 97.3347 31.848C98.1507 32.264 98.7827 32.856 99.2307 33.624C99.6947 34.392 99.9267 35.304 99.9267 36.36V36.696C99.9267 37.736 99.6867 38.648 99.2067 39.432C98.7427 40.2 98.1027 40.8 97.2867 41.232C96.4867 41.648 95.5747 41.856 94.5507 41.856H90.8067V48H87.6387ZM90.8067 38.976H94.2387C94.9907 38.976 95.5987 38.768 96.0627 38.352C96.5267 37.936 96.7587 37.368 96.7587 36.648V36.408C96.7587 35.688 96.5267 35.12 96.0627 34.704C95.5987 34.288 94.9907 34.08 94.2387 34.08H90.8067V38.976ZM107.362 48.336C106.178 48.336 105.13 48.088 104.218 47.592C103.322 47.08 102.618 46.368 102.106 45.456C101.61 44.528 101.362 43.44 101.362 42.192V41.904C101.362 40.656 101.61 39.576 102.106 38.664C102.602 37.736 103.298 37.024 104.194 36.528C105.09 36.016 106.13 35.76 107.314 35.76C108.482 35.76 109.498 36.024 110.362 36.552C111.226 37.064 111.898 37.784 112.378 38.712C112.858 39.624 113.098 40.688 113.098 41.904V42.936H104.434C104.466 43.752 104.77 44.416 105.346 44.928C105.922 45.44 106.626 45.696 107.458 45.696C108.306 45.696 108.93 45.512 109.33 45.144C109.73 44.776 110.034 44.368 110.242 43.92L112.714 45.216C112.49 45.632 112.162 46.088 111.73 46.584C111.314 47.064 110.754 47.48 110.05 47.832C109.346 48.168 108.45 48.336 107.362 48.336ZM104.458 40.68H110.026C109.962 39.992 109.682 39.44 109.186 39.024C108.706 38.608 108.074 38.4 107.29 38.4C106.474 38.4 105.826 38.608 105.346 39.024C104.866 39.44 104.57 39.992 104.458 40.68ZM115.789 48V36.096H118.765V37.44H119.197C119.373 36.96 119.661 36.608 120.061 36.384C120.477 36.16 120.957 36.048 121.501 36.048H122.941V38.736H121.453C120.685 38.736 120.053 38.944 119.557 39.36C119.061 39.76 118.813 40.384 118.813 41.232V48H115.789ZM127.273 48V38.592H124.249V36.096H127.273V33.888C127.273 33.072 127.513 32.424 127.993 31.944C128.489 31.448 129.129 31.2 129.913 31.2H133.033V33.696H130.969C130.521 33.696 130.297 33.936 130.297 34.416V36.096H133.417V38.592H130.297V48H127.273ZM141.024 48.336C139.84 48.336 138.776 48.096 137.832 47.616C136.888 47.136 136.144 46.44 135.6 45.528C135.056 44.616 134.784 43.52 134.784 42.24V41.856C134.784 40.576 135.056 39.48 135.6 38.568C136.144 37.656 136.888 36.96 137.832 36.48C138.776 36 139.84 35.76 141.024 35.76C142.208 35.76 143.272 36 144.216 36.48C145.16 36.96 145.904 37.656 146.448 38.568C146.992 39.48 147.264 40.576 147.264 41.856V42.24C147.264 43.52 146.992 44.616 146.448 45.528C145.904 46.44 145.16 47.136 144.216 47.616C143.272 48.096 142.208 48.336 141.024 48.336ZM141.024 45.648C141.952 45.648 142.72 45.352 143.328 44.76C143.936 44.152 144.24 43.288 144.24 42.168V41.928C144.24 40.808 143.936 39.952 143.328 39.36C142.736 38.752 141.968 38.448 141.024 38.448C140.096 38.448 139.328 38.752 138.72 39.36C138.112 39.952 137.808 40.808 137.808 41.928V42.168C137.808 43.288 138.112 44.152 138.72 44.76C139.328 45.352 140.096 45.648 141.024 45.648ZM150.055 48V36.096H153.031V37.44H153.463C153.639 36.96 153.927 36.608 154.327 36.384C154.743 36.16 155.223 36.048 155.767 36.048H157.207V38.736H155.719C154.951 38.736 154.319 38.944 153.823 39.36C153.327 39.76 153.079 40.384 153.079 41.232V48H150.055ZM159.571 48V36.096H162.547V37.392H162.979C163.187 36.992 163.531 36.648 164.011 36.36C164.491 36.056 165.123 35.904 165.907 35.904C166.755 35.904 167.435 36.072 167.947 36.408C168.459 36.728 168.851 37.152 169.123 37.68H169.555C169.827 37.168 170.211 36.744 170.707 36.408C171.203 36.072 171.907 35.904 172.819 35.904C173.555 35.904 174.219 36.064 174.811 36.384C175.419 36.688 175.899 37.16 176.251 37.8C176.619 38.424 176.803 39.216 176.803 40.176V48H173.779V40.392C173.779 39.736 173.611 39.248 173.275 38.928C172.939 38.592 172.467 38.424 171.859 38.424C171.171 38.424 170.635 38.648 170.251 39.096C169.883 39.528 169.699 40.152 169.699 40.968V48H166.675V40.392C166.675 39.736 166.507 39.248 166.171 38.928C165.835 38.592 165.363 38.424 164.755 38.424C164.067 38.424 163.531 38.648 163.147 39.096C162.779 39.528 162.595 40.152 162.595 40.968V48H159.571ZM183.751 48.336C182.903 48.336 182.143 48.192 181.471 47.904C180.799 47.6 180.263 47.168 179.863 46.608C179.479 46.032 179.287 45.336 179.287 44.52C179.287 43.704 179.479 43.024 179.863 42.48C180.263 41.92 180.807 41.504 181.495 41.232C182.199 40.944 182.999 40.8 183.895 40.8H187.159V40.128C187.159 39.568 186.983 39.112 186.631 38.76C186.279 38.392 185.719 38.208 184.951 38.208C184.199 38.208 183.639 38.384 183.271 38.736C182.903 39.072 182.663 39.512 182.551 40.056L179.767 39.12C179.959 38.512 180.263 37.96 180.679 37.464C181.111 36.952 181.679 36.544 182.383 36.24C183.103 35.92 183.975 35.76 184.999 35.76C186.567 35.76 187.807 36.152 188.719 36.936C189.631 37.72 190.087 38.856 190.087 40.344V44.784C190.087 45.264 190.311 45.504 190.759 45.504H191.719V48H189.703C189.111 48 188.623 47.856 188.239 47.568C187.855 47.28 187.663 46.896 187.663 46.416V46.392H187.207C187.143 46.584 186.999 46.84 186.775 47.16C186.551 47.464 186.199 47.736 185.719 47.976C185.239 48.216 184.583 48.336 183.751 48.336ZM184.279 45.888C185.127 45.888 185.815 45.656 186.343 45.192C186.887 44.712 187.159 44.08 187.159 43.296V43.056H184.111C183.551 43.056 183.111 43.176 182.791 43.416C182.471 43.656 182.311 43.992 182.311 44.424C182.311 44.856 182.479 45.208 182.815 45.48C183.151 45.752 183.639 45.888 184.279 45.888ZM193.93 48V36.096H196.906V37.656H197.338C197.53 37.24 197.89 36.848 198.418 36.48C198.946 36.096 199.746 35.904 200.818 35.904C201.746 35.904 202.554 36.12 203.242 36.552C203.946 36.968 204.49 37.552 204.874 38.304C205.258 39.04 205.45 39.904 205.45 40.896V48H202.426V41.136C202.426 40.24 202.202 39.568 201.754 39.12C201.322 38.672 200.698 38.448 199.882 38.448C198.954 38.448 198.234 38.76 197.722 39.384C197.21 39.992 196.954 40.848 196.954 41.952V48H193.93ZM214.311 48.336C213.159 48.336 212.111 48.096 211.167 47.616C210.239 47.136 209.503 46.44 208.959 45.528C208.415 44.616 208.143 43.512 208.143 42.216V41.88C208.143 40.584 208.415 39.48 208.959 38.568C209.503 37.656 210.239 36.96 211.167 36.48C212.111 36 213.159 35.76 214.311 35.76C215.447 35.76 216.423 35.96 217.239 36.36C218.055 36.76 218.711 37.312 219.207 38.016C219.719 38.704 220.055 39.488 220.215 40.368L217.287 40.992C217.223 40.512 217.079 40.08 216.855 39.696C216.631 39.312 216.311 39.008 215.895 38.784C215.495 38.56 214.991 38.448 214.383 38.448C213.775 38.448 213.223 38.584 212.727 38.856C212.247 39.112 211.863 39.504 211.575 40.032C211.303 40.544 211.167 41.176 211.167 41.928V42.168C211.167 42.92 211.303 43.56 211.575 44.088C211.863 44.6 212.247 44.992 212.727 45.264C213.223 45.52 213.775 45.648 214.383 45.648C215.295 45.648 215.983 45.416 216.447 44.952C216.927 44.472 217.231 43.848 217.359 43.08L220.287 43.776C220.079 44.624 219.719 45.4 219.207 46.104C218.711 46.792 218.055 47.336 217.239 47.736C216.423 48.136 215.447 48.336 214.311 48.336ZM228.206 48.336C227.022 48.336 225.974 48.088 225.062 47.592C224.166 47.08 223.462 46.368 222.95 45.456C222.454 44.528 222.206 43.44 222.206 42.192V41.904C222.206 40.656 222.454 39.576 222.95 38.664C223.446 37.736 224.142 37.024 225.038 36.528C225.934 36.016 226.974 35.76 228.158 35.76C229.326 35.76 230.342 36.024 231.206 36.552C232.07 37.064 232.742 37.784 233.222 38.712C233.702 39.624 233.942 40.688 233.942 41.904V42.936H225.278C225.31 43.752 225.614 44.416 226.19 44.928C226.766 45.44 227.47 45.696 228.302 45.696C229.15 45.696 229.774 45.512 230.174 45.144C230.574 44.776 230.878 44.368 231.086 43.92L233.558 45.216C233.334 45.632 233.006 46.088 232.574 46.584C232.158 47.064 231.598 47.48 230.894 47.832C230.19 48.168 229.294 48.336 228.206 48.336ZM225.302 40.68H230.87C230.806 39.992 230.526 39.44 230.03 39.024C229.55 38.608 228.918 38.4 228.134 38.4C227.318 38.4 226.67 38.608 226.19 39.024C225.71 39.44 225.414 39.992 225.302 40.68Z" fill="#0F1111"/>
<line x1="80.5" y1="289.062" x2="80.5" y2="72" stroke="#D2D3D3"/>
<line x1="185.5" y1="289.062" x2="185.5" y2="72" stroke="#D2D3D3"/>
<line x1="290.5" y1="289.062" x2="290.5" y2="72" stroke="#D2D3D3"/>
<line x1="395.5" y1="287.062" x2="395.5" y2="70" stroke="#D2D3D3"/>
<line x1="500.5" y1="289.062" x2="500.5" y2="72" stroke="#D2D3D3"/>
<line x1="604.5" y1="289.062" x2="604.5" y2="72" stroke="#D2D3D3"/>
<line x1="709.5" y1="289.062" x2="709.5" y2="72" stroke="#D2D3D3"/>
<rect x="636" y="24" width="97" height="32" rx="16" fill="#D0DEDE"/>
<path d="M645.024 35.04V44H649.632V42.976H646.112V35.04H645.024ZM651.183 42.1824C651.183 41.9691 651.235 41.7856 651.337 41.632C651.439 41.4784 651.593 41.3589 651.798 41.2736C652.011 41.1883 652.284 41.1456 652.617 41.1456C652.975 41.1456 653.312 41.1925 653.628 41.2864C653.944 41.3717 654.251 41.5168 654.55 41.7216V41.12C654.49 41.0432 654.375 40.9451 654.204 40.8256C654.033 40.6976 653.803 40.5867 653.513 40.4928C653.231 40.3904 652.877 40.3392 652.451 40.3392C651.725 40.3392 651.158 40.5141 650.748 40.864C650.347 41.2053 650.147 41.6619 650.147 42.2336C650.147 42.6347 650.24 42.976 650.428 43.2576C650.616 43.5392 650.863 43.7568 651.171 43.9104C651.486 44.0555 651.823 44.128 652.182 44.128C652.506 44.128 652.83 44.0683 653.155 43.9488C653.487 43.8293 653.765 43.6459 653.987 43.3984C654.217 43.1509 654.332 42.8395 654.332 42.464L654.127 41.696C654.127 42.0032 654.051 42.2763 653.897 42.5152C653.752 42.7456 653.551 42.9248 653.295 43.0528C653.048 43.1808 652.766 43.2448 652.451 43.2448C652.203 43.2448 651.981 43.2064 651.785 43.1296C651.597 43.0443 651.448 42.9205 651.337 42.7584C651.235 42.5963 651.183 42.4043 651.183 42.1824ZM651.03 39.4688C651.124 39.4005 651.252 39.3195 651.414 39.2256C651.576 39.1317 651.772 39.0507 652.003 38.9824C652.241 38.9141 652.506 38.88 652.796 38.88C652.975 38.88 653.146 38.8971 653.308 38.9312C653.47 38.9653 653.611 39.0208 653.731 39.0976C653.859 39.1744 653.957 39.2811 654.025 39.4176C654.093 39.5456 654.127 39.712 654.127 39.9168V44H655.151V39.776C655.151 39.392 655.053 39.0677 654.857 38.8032C654.669 38.5387 654.4 38.3381 654.051 38.2016C653.709 38.0565 653.308 37.984 652.847 37.984C652.301 37.984 651.832 38.0651 651.439 38.2272C651.055 38.3893 650.752 38.5515 650.531 38.7136L651.03 39.4688ZM657.128 42.1952L656.322 42.6944C656.433 42.9248 656.595 43.1509 656.808 43.3728C657.03 43.5947 657.299 43.7781 657.615 43.9232C657.93 44.0597 658.284 44.128 658.677 44.128C659.283 44.128 659.769 43.9573 660.136 43.616C660.512 43.2747 660.699 42.848 660.699 42.336C660.699 41.9861 660.614 41.7003 660.443 41.4784C660.281 41.2565 660.059 41.0688 659.778 40.9152C659.496 40.7531 659.185 40.6037 658.843 40.4672C658.639 40.3819 658.442 40.2923 658.255 40.1984C658.067 40.1045 657.913 39.9979 657.794 39.8784C657.674 39.7589 657.615 39.6224 657.615 39.4688C657.615 39.2725 657.691 39.1275 657.845 39.0336C657.999 38.9397 658.182 38.8928 658.395 38.8928C658.703 38.8928 658.976 38.9653 659.215 39.1104C659.462 39.2555 659.667 39.4389 659.829 39.6608L660.648 39.136C660.529 38.9141 660.362 38.7179 660.149 38.5472C659.936 38.3765 659.688 38.24 659.407 38.1376C659.134 38.0352 658.839 37.984 658.523 37.984C658.208 37.984 657.9 38.0395 657.602 38.1504C657.312 38.2613 657.073 38.432 656.885 38.6624C656.706 38.8928 656.616 39.1829 656.616 39.5328C656.616 39.8741 656.702 40.16 656.872 40.3904C657.051 40.6123 657.269 40.7957 657.525 40.9408C657.79 41.0773 658.05 41.1968 658.306 41.2992C658.536 41.3845 658.754 41.4784 658.959 41.5808C659.163 41.6747 659.33 41.7941 659.458 41.9392C659.594 42.0757 659.663 42.2464 659.663 42.4512C659.663 42.6816 659.577 42.8651 659.407 43.0016C659.244 43.1296 659.018 43.1936 658.728 43.1936C658.489 43.1936 658.267 43.1509 658.063 43.0656C657.866 42.9717 657.691 42.848 657.538 42.6944C657.384 42.5408 657.248 42.3744 657.128 42.1952ZM661.151 38.112V39.072H664.095V38.112H661.151ZM662.111 36.064V44H663.135V36.064H662.111ZM668.384 36.064H673.03L669.229 44H670.368L674.656 35.04H668.384V36.064ZM679.587 35.04V44H680.675V35.04H679.587ZM682.275 44C683.145 44 683.917 43.8123 684.591 43.4368C685.265 43.0613 685.795 42.5408 686.179 41.8752C686.563 41.2011 686.755 40.416 686.755 39.52C686.755 38.624 686.563 37.8432 686.179 37.1776C685.795 36.5035 685.265 35.9787 684.591 35.6032C683.917 35.2277 683.145 35.04 682.275 35.04H680.188V36.128H682.275C682.778 36.128 683.239 36.2091 683.657 36.3712C684.075 36.5248 684.433 36.7509 684.732 37.0496C685.031 37.3397 685.261 37.6939 685.423 38.112C685.585 38.5301 685.667 38.9995 685.667 39.52C685.667 40.0405 685.585 40.5099 685.423 40.928C685.261 41.3461 685.031 41.7045 684.732 42.0032C684.433 42.2933 684.075 42.5195 683.657 42.6816C683.239 42.8352 682.778 42.912 682.275 42.912H680.188V44H682.275ZM688.683 42.1824C688.683 41.9691 688.735 41.7856 688.837 41.632C688.939 41.4784 689.093 41.3589 689.298 41.2736C689.511 41.1883 689.784 41.1456 690.117 41.1456C690.475 41.1456 690.812 41.1925 691.128 41.2864C691.444 41.3717 691.751 41.5168 692.05 41.7216V41.12C691.99 41.0432 691.875 40.9451 691.704 40.8256C691.533 40.6976 691.303 40.5867 691.013 40.4928C690.731 40.3904 690.377 40.3392 689.951 40.3392C689.225 40.3392 688.658 40.5141 688.248 40.864C687.847 41.2053 687.647 41.6619 687.647 42.2336C687.647 42.6347 687.74 42.976 687.928 43.2576C688.116 43.5392 688.363 43.7568 688.671 43.9104C688.986 44.0555 689.323 44.128 689.682 44.128C690.006 44.128 690.33 44.0683 690.655 43.9488C690.987 43.8293 691.265 43.6459 691.487 43.3984C691.717 43.1509 691.832 42.8395 691.832 42.464L691.627 41.696C691.627 42.0032 691.551 42.2763 691.397 42.5152C691.252 42.7456 691.051 42.9248 690.795 43.0528C690.548 43.1808 690.266 43.2448 689.951 43.2448C689.703 43.2448 689.481 43.2064 689.285 43.1296C689.097 43.0443 688.948 42.9205 688.837 42.7584C688.735 42.5963 688.683 42.4043 688.683 42.1824ZM688.53 39.4688C688.624 39.4005 688.752 39.3195 688.914 39.2256C689.076 39.1317 689.272 39.0507 689.503 38.9824C689.741 38.9141 690.006 38.88 690.296 38.88C690.475 38.88 690.646 38.8971 690.808 38.9312C690.97 38.9653 691.111 39.0208 691.231 39.0976C691.359 39.1744 691.457 39.2811 691.525 39.4176C691.593 39.5456 691.627 39.712 691.627 39.9168V44H692.651V39.776C692.651 39.392 692.553 39.0677 692.357 38.8032C692.169 38.5387 691.9 38.3381 691.551 38.2016C691.209 38.0565 690.808 37.984 690.347 37.984C689.801 37.984 689.332 38.0651 688.939 38.2272C688.555 38.3893 688.252 38.5515 688.031 38.7136L688.53 39.4688ZM698.994 38.112H697.842L696.025 42.6688L696.447 42.72L694.578 38.112H693.362L695.615 43.168L694.002 46.816H695.154L698.994 38.112ZM700.203 42.1952L699.397 42.6944C699.508 42.9248 699.67 43.1509 699.883 43.3728C700.105 43.5947 700.374 43.7781 700.69 43.9232C701.005 44.0597 701.359 44.128 701.752 44.128C702.358 44.128 702.844 43.9573 703.211 43.616C703.587 43.2747 703.774 42.848 703.774 42.336C703.774 41.9861 703.689 41.7003 703.518 41.4784C703.356 41.2565 703.134 41.0688 702.853 40.9152C702.571 40.7531 702.26 40.6037 701.918 40.4672C701.714 40.3819 701.517 40.2923 701.33 40.1984C701.142 40.1045 700.988 39.9979 700.869 39.8784C700.749 39.7589 700.69 39.6224 700.69 39.4688C700.69 39.2725 700.766 39.1275 700.92 39.0336C701.074 38.9397 701.257 38.8928 701.47 38.8928C701.778 38.8928 702.051 38.9653 702.29 39.1104C702.537 39.2555 702.742 39.4389 702.904 39.6608L703.723 39.136C703.604 38.9141 703.437 38.7179 703.224 38.5472C703.011 38.3765 702.763 38.24 702.482 38.1376C702.209 38.0352 701.914 37.984 701.598 37.984C701.283 37.984 700.975 38.0395 700.677 38.1504C700.387 38.2613 700.148 38.432 699.96 38.6624C699.781 38.8928 699.691 39.1829 699.691 39.5328C699.691 39.8741 699.777 40.16 699.947 40.3904C700.126 40.6123 700.344 40.7957 700.6 40.9408C700.865 41.0773 701.125 41.1968 701.381 41.2992C701.611 41.3845 701.829 41.4784 702.034 41.5808C702.238 41.6747 702.405 41.7941 702.533 41.9392C702.669 42.0757 702.738 42.2464 702.738 42.4512C702.738 42.6816 702.652 42.8651 702.482 43.0016C702.319 43.1296 702.093 43.1936 701.803 43.1936C701.564 43.1936 701.342 43.1509 701.138 43.0656C700.941 42.9717 700.766 42.848 700.613 42.6944C700.459 42.5408 700.323 42.3744 700.203 42.1952Z" fill="#444646"/>
<path d="M711.827 37.1639C712.022 36.9652 712.327 36.9472 712.542 37.1097L712.603 37.1639L717 41.6489L721.397 37.1639C721.591 36.9652 721.896 36.9472 722.111 37.1097L722.173 37.1639C722.367 37.3626 722.385 37.6736 722.226 37.8927L722.173 37.9555L717.388 42.8361C717.193 43.0348 716.888 43.0528 716.674 42.8903L716.612 42.8361L711.827 37.9555C711.613 37.7369 711.613 37.3825 711.827 37.1639Z" fill="#444646"/>
<path d="M80 239.522C194.884 285.466 235.884 166.95 298 233.601C298 233.601 324 274.584 363 202.972C402 131.359 466 223.248 466 223.248C466 223.248 599.601 285.605 618 223.248C636.399 160.89 660.264 213.697 709 233.601" stroke="#145858" stroke-width="2"/>
<circle cx="396" cy="177" r="8" fill="#145858" stroke="white" stroke-width="4"/>
<line x1="395.495" y1="288.002" x2="395.495" y2="181.998" stroke="#145858" stroke-width="2"/>
<path fill-rule="evenodd" clip-rule="evenodd" d="M358 103C352.477 103 348 107.477 348 113V149C348 154.523 352.477 159 358 159H388.876L395.658 167.187L403.069 159H434C439.523 159 444 154.523 444 149V113C444 107.477 439.523 103 434 103H358Z" fill="#0A2C2C"/>
<path d="M387.1 115.76L390.2 114.84V127H391.9V112.8L387.1 114V115.76ZM397.004 120C397.004 119.187 397.084 118.44 397.244 117.76C397.404 117.067 397.637 116.473 397.944 115.98C398.251 115.473 398.617 115.087 399.044 114.82C399.484 114.54 399.971 114.4 400.504 114.4C401.051 114.4 401.537 114.54 401.964 114.82C402.391 115.087 402.757 115.473 403.064 115.98C403.371 116.473 403.604 117.067 403.764 117.76C403.924 118.44 404.004 119.187 404.004 120C404.004 120.813 403.924 121.567 403.764 122.26C403.604 122.94 403.371 123.533 403.064 124.04C402.757 124.533 402.391 124.92 401.964 125.2C401.537 125.467 401.051 125.6 400.504 125.6C399.971 125.6 399.484 125.467 399.044 125.2C398.617 124.92 398.251 124.533 397.944 124.04C397.637 123.533 397.404 122.94 397.244 122.26C397.084 121.567 397.004 120.813 397.004 120ZM395.304 120C395.304 121.4 395.524 122.64 395.964 123.72C396.404 124.8 397.011 125.653 397.784 126.28C398.571 126.893 399.477 127.2 400.504 127.2C401.531 127.2 402.431 126.893 403.204 126.28C403.991 125.653 404.604 124.8 405.044 123.72C405.484 122.64 405.704 121.4 405.704 120C405.704 118.6 405.484 117.36 405.044 116.28C404.604 115.2 403.991 114.353 403.204 113.74C402.431 113.113 401.531 112.8 400.504 112.8C399.477 112.8 398.571 113.113 397.784 113.74C397.011 114.353 396.404 115.2 395.964 116.28C395.524 117.36 395.304 118.6 395.304 120Z" fill="white"/>
<path d="M352.128 140.064H354.432V148H355.52V140.064H357.824V139.04H352.128V140.064ZM358.096 146.182C358.096 145.969 358.147 145.786 358.249 145.632C358.352 145.478 358.505 145.359 358.71 145.274C358.924 145.188 359.197 145.146 359.529 145.146C359.888 145.146 360.225 145.193 360.541 145.286C360.856 145.372 361.164 145.517 361.462 145.722V145.12C361.402 145.043 361.287 144.945 361.117 144.826C360.946 144.698 360.716 144.587 360.425 144.493C360.144 144.39 359.79 144.339 359.363 144.339C358.638 144.339 358.07 144.514 357.661 144.864C357.26 145.205 357.059 145.662 357.059 146.234C357.059 146.635 357.153 146.976 357.341 147.258C357.528 147.539 357.776 147.757 358.083 147.91C358.399 148.055 358.736 148.128 359.094 148.128C359.418 148.128 359.743 148.068 360.067 147.949C360.4 147.829 360.677 147.646 360.899 147.398C361.129 147.151 361.245 146.839 361.245 146.464L361.04 145.696C361.04 146.003 360.963 146.276 360.809 146.515C360.664 146.746 360.464 146.925 360.208 147.053C359.96 147.181 359.679 147.245 359.363 147.245C359.116 147.245 358.894 147.206 358.697 147.13C358.51 147.044 358.36 146.921 358.249 146.758C358.147 146.596 358.096 146.404 358.096 146.182ZM357.942 143.469C358.036 143.401 358.164 143.319 358.326 143.226C358.488 143.132 358.685 143.051 358.915 142.982C359.154 142.914 359.418 142.88 359.709 142.88C359.888 142.88 360.058 142.897 360.221 142.931C360.383 142.965 360.524 143.021 360.643 143.098C360.771 143.174 360.869 143.281 360.937 143.418C361.006 143.546 361.04 143.712 361.04 143.917V148H362.064V143.776C362.064 143.392 361.966 143.068 361.769 142.803C361.582 142.539 361.313 142.338 360.963 142.202C360.622 142.057 360.221 141.984 359.76 141.984C359.214 141.984 358.744 142.065 358.352 142.227C357.968 142.389 357.665 142.551 357.443 142.714L357.942 143.469ZM364.041 146.195L363.234 146.694C363.345 146.925 363.507 147.151 363.721 147.373C363.943 147.595 364.211 147.778 364.527 147.923C364.843 148.06 365.197 148.128 365.589 148.128C366.195 148.128 366.682 147.957 367.049 147.616C367.424 147.275 367.612 146.848 367.612 146.336C367.612 145.986 367.527 145.7 367.356 145.478C367.194 145.257 366.972 145.069 366.69 144.915C366.409 144.753 366.097 144.604 365.756 144.467C365.551 144.382 365.355 144.292 365.167 144.198C364.979 144.105 364.826 143.998 364.706 143.878C364.587 143.759 364.527 143.622 364.527 143.469C364.527 143.273 364.604 143.127 364.757 143.034C364.911 142.94 365.095 142.893 365.308 142.893C365.615 142.893 365.888 142.965 366.127 143.11C366.375 143.255 366.579 143.439 366.741 143.661L367.561 143.136C367.441 142.914 367.275 142.718 367.061 142.547C366.848 142.377 366.601 142.24 366.319 142.138C366.046 142.035 365.752 141.984 365.436 141.984C365.12 141.984 364.813 142.039 364.514 142.15C364.224 142.261 363.985 142.432 363.797 142.662C363.618 142.893 363.529 143.183 363.529 143.533C363.529 143.874 363.614 144.16 363.785 144.39C363.964 144.612 364.181 144.796 364.437 144.941C364.702 145.077 364.962 145.197 365.218 145.299C365.449 145.385 365.666 145.478 365.871 145.581C366.076 145.675 366.242 145.794 366.37 145.939C366.507 146.076 366.575 146.246 366.575 146.451C366.575 146.682 366.49 146.865 366.319 147.002C366.157 147.13 365.931 147.194 365.641 147.194C365.402 147.194 365.18 147.151 364.975 147.066C364.779 146.972 364.604 146.848 364.45 146.694C364.297 146.541 364.16 146.374 364.041 146.195ZM368.896 138.016V148H369.92V138.016H368.896ZM372.096 142.112L369.536 144.544L372.352 148H373.632L370.816 144.544L373.376 142.112H372.096ZM374.841 146.195L374.034 146.694C374.145 146.925 374.307 147.151 374.521 147.373C374.743 147.595 375.011 147.778 375.327 147.923C375.643 148.06 375.997 148.128 376.39 148.128C376.995 148.128 377.482 147.957 377.849 147.616C378.224 147.275 378.412 146.848 378.412 146.336C378.412 145.986 378.327 145.7 378.156 145.478C377.994 145.257 377.772 145.069 377.49 144.915C377.209 144.753 376.897 144.604 376.556 144.467C376.351 144.382 376.155 144.292 375.967 144.198C375.779 144.105 375.626 143.998 375.506 143.878C375.387 143.759 375.327 143.622 375.327 143.469C375.327 143.273 375.404 143.127 375.558 143.034C375.711 142.94 375.895 142.893 376.108 142.893C376.415 142.893 376.688 142.965 376.927 143.11C377.175 143.255 377.379 143.439 377.542 143.661L378.361 143.136C378.241 142.914 378.075 142.718 377.862 142.547C377.648 142.377 377.401 142.24 377.119 142.138C376.846 142.035 376.552 141.984 376.236 141.984C375.92 141.984 375.613 142.039 375.314 142.15C375.024 142.261 374.785 142.432 374.598 142.662C374.418 142.893 374.329 143.183 374.329 143.533C374.329 143.874 374.414 144.16 374.585 144.39C374.764 144.612 374.982 144.796 375.238 144.941C375.502 145.077 375.762 145.197 376.018 145.299C376.249 145.385 376.466 145.478 376.671 145.581C376.876 145.675 377.042 145.794 377.17 145.939C377.307 146.076 377.375 146.246 377.375 146.451C377.375 146.682 377.29 146.865 377.119 147.002C376.957 147.13 376.731 147.194 376.441 147.194C376.202 147.194 375.98 147.151 375.775 147.066C375.579 146.972 375.404 146.848 375.25 146.694C375.097 146.541 374.96 146.374 374.841 146.195ZM384.058 145.056C384.058 144.646 384.144 144.284 384.314 143.968C384.494 143.644 384.732 143.392 385.031 143.213C385.338 143.034 385.684 142.944 386.068 142.944C386.384 142.944 386.678 142.995 386.951 143.098C387.233 143.191 387.476 143.319 387.681 143.482C387.886 143.644 388.031 143.823 388.116 144.019V142.739C387.911 142.5 387.617 142.317 387.233 142.189C386.857 142.052 386.469 141.984 386.068 141.984C385.496 141.984 384.98 142.116 384.519 142.381C384.058 142.645 383.691 143.008 383.418 143.469C383.154 143.93 383.022 144.459 383.022 145.056C383.022 145.645 383.154 146.174 383.418 146.643C383.691 147.104 384.058 147.467 384.519 147.731C384.98 147.996 385.496 148.128 386.068 148.128C386.469 148.128 386.857 148.064 387.233 147.936C387.617 147.799 387.911 147.612 388.116 147.373V146.093C388.031 146.281 387.886 146.46 387.681 146.63C387.476 146.793 387.233 146.925 386.951 147.027C386.678 147.121 386.384 147.168 386.068 147.168C385.684 147.168 385.338 147.078 385.031 146.899C384.732 146.711 384.494 146.46 384.314 146.144C384.144 145.828 384.058 145.466 384.058 145.056ZM389.198 145.056C389.198 145.645 389.33 146.174 389.595 146.643C389.868 147.104 390.235 147.467 390.696 147.731C391.156 147.996 391.673 148.128 392.244 148.128C392.825 148.128 393.341 147.996 393.793 147.731C394.254 147.467 394.617 147.104 394.881 146.643C395.154 146.174 395.291 145.645 395.291 145.056C395.291 144.459 395.154 143.93 394.881 143.469C394.617 143.008 394.254 142.645 393.793 142.381C393.341 142.116 392.825 141.984 392.244 141.984C391.673 141.984 391.156 142.116 390.696 142.381C390.235 142.645 389.868 143.008 389.595 143.469C389.33 143.93 389.198 144.459 389.198 145.056ZM390.235 145.056C390.235 144.646 390.32 144.284 390.491 143.968C390.67 143.644 390.909 143.392 391.208 143.213C391.515 143.034 391.86 142.944 392.244 142.944C392.628 142.944 392.97 143.034 393.268 143.213C393.576 143.392 393.815 143.644 393.985 143.968C394.164 144.284 394.254 144.646 394.254 145.056C394.254 145.466 394.164 145.828 393.985 146.144C393.815 146.46 393.576 146.711 393.268 146.899C392.97 147.078 392.628 147.168 392.244 147.168C391.86 147.168 391.515 147.078 391.208 146.899C390.909 146.711 390.67 146.46 390.491 146.144C390.32 145.828 390.235 145.466 390.235 145.056ZM404.761 144.288C404.761 143.802 404.685 143.388 404.531 143.046C404.386 142.697 404.173 142.432 403.891 142.253C403.609 142.074 403.268 141.984 402.867 141.984C402.475 141.984 402.125 142.078 401.817 142.266C401.51 142.445 401.254 142.718 401.049 143.085C400.913 142.735 400.695 142.466 400.397 142.278C400.107 142.082 399.757 141.984 399.347 141.984C398.98 141.984 398.66 142.065 398.387 142.227C398.123 142.389 397.901 142.637 397.721 142.97V142.112H396.697V148H397.721V144.416C397.721 144.109 397.777 143.844 397.888 143.622C397.999 143.401 398.157 143.234 398.361 143.123C398.566 143.004 398.809 142.944 399.091 142.944C399.475 142.944 399.757 143.063 399.936 143.302C400.124 143.541 400.217 143.913 400.217 144.416V148H401.241V144.416C401.241 144.109 401.297 143.844 401.408 143.622C401.519 143.401 401.677 143.234 401.881 143.123C402.086 143.004 402.329 142.944 402.611 142.944C402.995 142.944 403.277 143.063 403.456 143.302C403.644 143.541 403.737 143.913 403.737 144.416V148H404.761V144.288ZM407.645 150.816V142.112H406.621V150.816H407.645ZM412.573 145.056C412.573 144.416 412.441 143.87 412.176 143.418C411.912 142.957 411.558 142.603 411.114 142.355C410.679 142.108 410.192 141.984 409.655 141.984C409.168 141.984 408.737 142.108 408.362 142.355C407.995 142.603 407.705 142.957 407.491 143.418C407.287 143.87 407.184 144.416 407.184 145.056C407.184 145.687 407.287 146.234 407.491 146.694C407.705 147.155 407.995 147.509 408.362 147.757C408.737 148.004 409.168 148.128 409.655 148.128C410.192 148.128 410.679 148.004 411.114 147.757C411.558 147.509 411.912 147.155 412.176 146.694C412.441 146.234 412.573 145.687 412.573 145.056ZM411.536 145.056C411.536 145.508 411.442 145.892 411.255 146.208C411.075 146.524 410.832 146.763 410.525 146.925C410.226 147.087 409.894 147.168 409.527 147.168C409.228 147.168 408.934 147.087 408.643 146.925C408.353 146.763 408.114 146.524 407.927 146.208C407.739 145.892 407.645 145.508 407.645 145.056C407.645 144.604 407.739 144.22 407.927 143.904C408.114 143.588 408.353 143.349 408.643 143.187C408.934 143.025 409.228 142.944 409.527 142.944C409.894 142.944 410.226 143.025 410.525 143.187C410.832 143.349 411.075 143.588 411.255 143.904C411.442 144.22 411.536 144.604 411.536 145.056ZM413.985 138.016V148H415.009V138.016H413.985ZM419.213 148.128C419.845 148.128 420.391 148.004 420.852 147.757C421.321 147.501 421.709 147.125 422.017 146.63L421.185 146.106C420.971 146.464 420.711 146.733 420.404 146.912C420.097 147.083 419.742 147.168 419.341 147.168C418.94 147.168 418.599 147.083 418.317 146.912C418.036 146.741 417.822 146.494 417.677 146.17C417.532 145.845 417.46 145.453 417.46 144.992C417.468 144.54 417.545 144.16 417.69 143.853C417.844 143.537 418.057 143.298 418.33 143.136C418.612 142.965 418.949 142.88 419.341 142.88C419.674 142.88 419.964 142.953 420.212 143.098C420.459 143.243 420.651 143.443 420.788 143.699C420.933 143.955 421.005 144.258 421.005 144.608C421.005 144.668 420.993 144.745 420.967 144.838C420.941 144.924 420.916 144.988 420.89 145.03L421.3 144.442H417.076V145.312H422.106C422.106 145.295 422.106 145.257 422.106 145.197C422.115 145.129 422.119 145.065 422.119 145.005C422.119 144.382 422.008 143.844 421.786 143.392C421.564 142.94 421.244 142.594 420.826 142.355C420.417 142.108 419.922 141.984 419.341 141.984C418.761 141.984 418.249 142.112 417.805 142.368C417.37 142.624 417.029 142.982 416.781 143.443C416.542 143.904 416.423 144.442 416.423 145.056C416.423 145.662 416.538 146.195 416.769 146.656C417.008 147.117 417.336 147.479 417.754 147.744C418.181 148 418.667 148.128 419.213 148.128ZM422.627 142.112V143.072H425.571V142.112H422.627ZM423.587 140.064V148H424.611V140.064H423.587ZM428.876 148.128C429.507 148.128 430.054 148.004 430.514 147.757C430.984 147.501 431.372 147.125 431.679 146.63L430.847 146.106C430.634 146.464 430.374 146.733 430.066 146.912C429.759 147.083 429.405 147.168 429.004 147.168C428.603 147.168 428.262 147.083 427.98 146.912C427.698 146.741 427.485 146.494 427.34 146.17C427.195 145.845 427.122 145.453 427.122 144.992C427.131 144.54 427.208 144.16 427.353 143.853C427.506 143.537 427.72 143.298 427.993 143.136C428.274 142.965 428.611 142.88 429.004 142.88C429.337 142.88 429.627 142.953 429.874 143.098C430.122 143.243 430.314 143.443 430.45 143.699C430.595 143.955 430.668 144.258 430.668 144.608C430.668 144.668 430.655 144.745 430.63 144.838C430.604 144.924 430.578 144.988 430.553 145.03L430.962 144.442H426.738V145.312H431.769C431.769 145.295 431.769 145.257 431.769 145.197C431.777 145.129 431.782 145.065 431.782 145.005C431.782 144.382 431.671 143.844 431.449 143.392C431.227 142.94 430.907 142.594 430.489 142.355C430.079 142.108 429.584 141.984 429.004 141.984C428.424 141.984 427.912 142.112 427.468 142.368C427.033 142.624 426.691 142.982 426.444 143.443C426.205 143.904 426.086 144.442 426.086 145.056C426.086 145.662 426.201 146.195 426.431 146.656C426.67 147.117 426.999 147.479 427.417 147.744C427.843 148 428.33 148.128 428.876 148.128ZM437.601 138.016V148H438.625V138.016H437.601ZM432.673 145.056C432.673 145.687 432.805 146.234 433.07 146.694C433.334 147.155 433.688 147.509 434.132 147.757C434.576 148.004 435.062 148.128 435.591 148.128C436.086 148.128 436.517 148.004 436.884 147.757C437.251 147.509 437.537 147.155 437.742 146.694C437.955 146.234 438.062 145.687 438.062 145.056C438.062 144.416 437.955 143.87 437.742 143.418C437.537 142.957 437.251 142.603 436.884 142.355C436.517 142.108 436.086 141.984 435.591 141.984C435.062 141.984 434.576 142.108 434.132 142.355C433.688 142.603 433.334 142.957 433.07 143.418C432.805 143.87 432.673 144.416 432.673 145.056ZM433.71 145.056C433.71 144.604 433.799 144.22 433.979 143.904C434.166 143.588 434.414 143.349 434.721 143.187C435.028 143.025 435.361 142.944 435.719 142.944C436.018 142.944 436.312 143.025 436.603 143.187C436.893 143.349 437.132 143.588 437.319 143.904C437.507 144.22 437.601 144.604 437.601 145.056C437.601 145.508 437.507 145.892 437.319 146.208C437.132 146.524 436.893 146.763 436.603 146.925C436.312 147.087 436.018 147.168 435.719 147.168C435.361 147.168 435.028 147.087 434.721 146.925C434.414 146.763 434.166 146.524 433.979 146.208C433.799 145.892 433.71 145.508 433.71 145.056Z" fill="white"/>
<defs>
<filter id="filter0_d_225_1752" x="0" y="0" width="760" height="344" filterUnits="userSpaceOnUse" color-interpolation-filters="sRGB">
<feFlood flood-opacity="0" result="BackgroundImageFix"/>
<feColorMatrix in="SourceAlpha" type="matrix" values="0 0 0 0 0 0 0 0 0 0 0 0 0 0 0 0 0 0 127 0" result="hardAlpha"/>
<feOffset dy="4"/>
<feGaussianBlur stdDeviation="6"/>
<feComposite in2="hardAlpha" operator="out"/>
<feColorMatrix type="matrix" values="0 0 0 0 0.0784314 0 0 0 0 0.0862745 0 0 0 0 0.0862745 0 0 0 0.12 0"/>
<feBlend mode="normal" in2="BackgroundImageFix" result="effect1_dropShadow_225_1752"/>
<feBlend mode="normal" in="SourceGraphic" in2="effect1_dropShadow_225_1752" result="shape"/>
</filter>
</defs>
</svg>
