<svg width="378" height="224" viewBox="0 0 378 224" fill="none" xmlns="http://www.w3.org/2000/svg">
<g filter="url(#filter0_d_202_1192)">
<rect x="12" y="8" width="354" height="200" rx="10" fill="white" shape-rendering="crispEdges"/>
<path d="M12 18C12 12.4772 16.4772 8 22 8H190V48H12V18Z" fill="#145858"/>
<path fill-rule="evenodd" clip-rule="evenodd" d="M74.6665 25.9043H56.8425C56.4285 25.9043 56.0925 25.5683 56.0925 25.1543C56.0925 24.7403 56.4285 24.4043 56.8425 24.4043H74.6665C75.0805 24.4043 75.4165 24.7403 75.4165 25.1543C75.4165 25.5683 75.0805 25.9043 74.6665 25.9043Z" fill="white"/>
<path fill-rule="evenodd" clip-rule="evenodd" d="M70.2011 29.8096C69.7871 29.8096 69.4471 29.4736 69.4471 29.0596C69.4471 28.6456 69.7781 28.3096 70.1921 28.3096H70.2011C70.6151 28.3096 70.9511 28.6456 70.9511 29.0596C70.9511 29.4736 70.6151 29.8096 70.2011 29.8096Z" fill="white"/>
<path fill-rule="evenodd" clip-rule="evenodd" d="M65.7636 29.8096C65.3496 29.8096 65.0096 29.4736 65.0096 29.0596C65.0096 28.6456 65.3406 28.3096 65.7546 28.3096H65.7636C66.1776 28.3096 66.5136 28.6456 66.5136 29.0596C66.5136 29.4736 66.1776 29.8096 65.7636 29.8096Z" fill="white"/>
<path fill-rule="evenodd" clip-rule="evenodd" d="M61.3169 29.8096C60.9029 29.8096 60.5619 29.4736 60.5619 29.0596C60.5619 28.6456 60.8939 28.3096 61.3079 28.3096H61.3169C61.7309 28.3096 62.0669 28.6456 62.0669 29.0596C62.0669 29.4736 61.7309 29.8096 61.3169 29.8096Z" fill="white"/>
<path fill-rule="evenodd" clip-rule="evenodd" d="M70.2011 33.6963C69.7871 33.6963 69.4471 33.3603 69.4471 32.9463C69.4471 32.5323 69.7781 32.1963 70.1921 32.1963H70.2011C70.6151 32.1963 70.9511 32.5323 70.9511 32.9463C70.9511 33.3603 70.6151 33.6963 70.2011 33.6963Z" fill="white"/>
<path fill-rule="evenodd" clip-rule="evenodd" d="M65.7636 33.6963C65.3496 33.6963 65.0096 33.3603 65.0096 32.9463C65.0096 32.5323 65.3406 32.1963 65.7546 32.1963H65.7636C66.1776 32.1963 66.5136 32.5323 66.5136 32.9463C66.5136 33.3603 66.1776 33.6963 65.7636 33.6963Z" fill="white"/>
<path fill-rule="evenodd" clip-rule="evenodd" d="M61.3169 33.6963C60.9029 33.6963 60.5619 33.3603 60.5619 32.9463C60.5619 32.5323 60.8939 32.1963 61.3079 32.1963H61.3169C61.7309 32.1963 62.0669 32.5323 62.0669 32.9463C62.0669 33.3603 61.7309 33.6963 61.3169 33.6963Z" fill="white"/>
<path fill-rule="evenodd" clip-rule="evenodd" d="M69.7935 21.791C69.3795 21.791 69.0435 21.455 69.0435 21.041V17.75C69.0435 17.336 69.3795 17 69.7935 17C70.2075 17 70.5435 17.336 70.5435 17.75V21.041C70.5435 21.455 70.2075 21.791 69.7935 21.791Z" fill="white"/>
<path fill-rule="evenodd" clip-rule="evenodd" d="M61.7153 21.791C61.3013 21.791 60.9653 21.455 60.9653 21.041V17.75C60.9653 17.336 61.3013 17 61.7153 17C62.1293 17 62.4653 17.336 62.4653 17.75V21.041C62.4653 21.455 62.1293 21.791 61.7153 21.791Z" fill="white"/>
<mask id="mask0_202_1192" style="mask-type:luminance" maskUnits="userSpaceOnUse" x="56" y="18" width="20" height="21">
<path fill-rule="evenodd" clip-rule="evenodd" d="M56 18.5791H75.5V38.5H56V18.5791Z" fill="white"/>
</mask>
<g mask="url(#mask0_202_1192)">
<path fill-rule="evenodd" clip-rule="evenodd" d="M61.521 20.0791C58.928 20.0791 57.5 21.4621 57.5 23.9731V33.0221C57.5 35.5881 58.928 37.0001 61.521 37.0001H69.979C72.572 37.0001 74 35.6141 74 33.0981V23.9731C74.004 22.7381 73.672 21.7781 73.013 21.1181C72.335 20.4381 71.29 20.0791 69.988 20.0791H61.521ZM69.979 38.5001H61.521C58.116 38.5001 56 36.4011 56 33.0221V23.9731C56 20.6451 58.116 18.5791 61.521 18.5791H69.988C71.697 18.5791 73.11 19.0911 74.075 20.0581C75.012 20.9991 75.505 22.3521 75.5 23.9751V33.0981C75.5 36.4301 73.384 38.5001 69.979 38.5001Z" fill="white"/>
</g>
<path d="M88.08 28.4C88.08 27.5253 88.272 26.7627 88.656 26.112C89.0507 25.4507 89.5627 24.9333 90.192 24.56C90.8213 24.1867 91.504 24 92.24 24C92.7733 24 93.2587 24.0693 93.696 24.208C94.144 24.3467 94.5493 24.544 94.912 24.8C95.2747 25.0453 95.584 25.3333 95.84 25.664V23.872C95.3707 23.456 94.8587 23.1467 94.304 22.944C93.7493 22.7413 93.0613 22.64 92.24 22.64C91.4613 22.64 90.7307 22.784 90.048 23.072C89.376 23.3493 88.784 23.7493 88.272 24.272C87.76 24.784 87.36 25.392 87.072 26.096C86.784 26.8 86.64 27.568 86.64 28.4C86.64 29.232 86.784 30 87.072 30.704C87.36 31.408 87.76 32.0213 88.272 32.544C88.784 33.056 89.376 33.456 90.048 33.744C90.7307 34.0213 91.4613 34.16 92.24 34.16C93.0613 34.16 93.7493 34.0587 94.304 33.856C94.8587 33.6533 95.3707 33.344 95.84 32.928V31.136C95.584 31.4667 95.2747 31.76 94.912 32.016C94.5493 32.2613 94.144 32.4533 93.696 32.592C93.2587 32.7307 92.7733 32.8 92.24 32.8C91.504 32.8 90.8213 32.6133 90.192 32.24C89.5627 31.8667 89.0507 31.3493 88.656 30.688C88.272 30.0267 88.08 29.264 88.08 28.4ZM98.7291 31.728C98.7291 31.4613 98.7931 31.232 98.9211 31.04C99.0491 30.848 99.2411 30.6987 99.4971 30.592C99.7638 30.4853 100.105 30.432 100.521 30.432C100.969 30.432 101.39 30.4907 101.785 30.608C102.18 30.7147 102.564 30.896 102.937 31.152V30.4C102.862 30.304 102.718 30.1813 102.505 30.032C102.292 29.872 102.004 29.7333 101.641 29.616C101.289 29.488 100.846 29.424 100.313 29.424C99.4065 29.424 98.6971 29.6427 98.1851 30.08C97.6838 30.5067 97.4331 31.0773 97.4331 31.792C97.4331 32.2933 97.5505 32.72 97.7851 33.072C98.0198 33.424 98.3291 33.696 98.7131 33.888C99.1078 34.0693 99.5291 34.16 99.9771 34.16C100.382 34.16 100.788 34.0853 101.193 33.936C101.609 33.7867 101.956 33.5573 102.233 33.248C102.521 32.9387 102.665 32.5493 102.665 32.08L102.409 31.12C102.409 31.504 102.313 31.8453 102.121 32.144C101.94 32.432 101.689 32.656 101.369 32.816C101.06 32.976 100.708 33.056 100.313 33.056C100.004 33.056 99.7265 33.008 99.4811 32.912C99.2465 32.8053 99.0598 32.6507 98.9211 32.448C98.7931 32.2453 98.7291 32.0053 98.7291 31.728ZM98.5371 28.336C98.6545 28.2507 98.8145 28.1493 99.0171 28.032C99.2198 27.9147 99.4651 27.8133 99.7531 27.728C100.052 27.6427 100.382 27.6 100.745 27.6C100.969 27.6 101.182 27.6213 101.385 27.664C101.588 27.7067 101.764 27.776 101.913 27.872C102.073 27.968 102.196 28.1013 102.281 28.272C102.366 28.432 102.409 28.64 102.409 28.896V34H103.689V28.72C103.689 28.24 103.566 27.8347 103.321 27.504C103.086 27.1733 102.75 26.9227 102.313 26.752C101.886 26.5707 101.385 26.48 100.809 26.48C100.126 26.48 99.5398 26.5813 99.0491 26.784C98.5691 26.9867 98.1905 27.1893 97.9131 27.392L98.5371 28.336ZM105.856 21.52V34H107.136V21.52H105.856ZM112.392 34.16C113.181 34.16 113.864 34.0053 114.44 33.696C115.026 33.376 115.512 32.9067 115.896 32.288L114.856 31.632C114.589 32.08 114.264 32.416 113.88 32.64C113.496 32.8533 113.053 32.96 112.552 32.96C112.05 32.96 111.624 32.8533 111.272 32.64C110.92 32.4267 110.653 32.1173 110.472 31.712C110.29 31.3067 110.2 30.816 110.2 30.24C110.21 29.6747 110.306 29.2 110.488 28.816C110.68 28.4213 110.946 28.1227 111.288 27.92C111.64 27.7067 112.061 27.6 112.552 27.6C112.968 27.6 113.33 27.6907 113.64 27.872C113.949 28.0533 114.189 28.304 114.36 28.624C114.541 28.944 114.632 29.3227 114.632 29.76C114.632 29.8347 114.616 29.9307 114.584 30.048C114.552 30.1547 114.52 30.2347 114.488 30.288L115 29.552H109.72V30.64H116.008C116.008 30.6187 116.008 30.5707 116.008 30.496C116.018 30.4107 116.024 30.3307 116.024 30.256C116.024 29.4773 115.885 28.8053 115.608 28.24C115.33 27.6747 114.93 27.2427 114.408 26.944C113.896 26.6347 113.277 26.48 112.552 26.48C111.826 26.48 111.186 26.64 110.632 26.96C110.088 27.28 109.661 27.728 109.352 28.304C109.053 28.88 108.904 29.552 108.904 30.32C108.904 31.0773 109.048 31.744 109.336 32.32C109.634 32.896 110.045 33.3493 110.568 33.68C111.101 34 111.709 34.16 112.392 34.16ZM122.498 29.52V34H123.778V29.36C123.778 28.4747 123.549 27.776 123.09 27.264C122.642 26.7413 122.029 26.48 121.25 26.48C120.77 26.48 120.343 26.5867 119.97 26.8C119.607 27.0133 119.303 27.344 119.058 27.792V26.64H117.778V34H119.058V29.52C119.058 29.1573 119.133 28.8373 119.282 28.56C119.442 28.2827 119.661 28.0693 119.938 27.92C120.226 27.76 120.557 27.68 120.93 27.68C121.442 27.68 121.831 27.8347 122.098 28.144C122.365 28.4533 122.498 28.912 122.498 29.52ZM131.704 21.52V34H132.984V21.52H131.704ZM125.544 30.32C125.544 31.1093 125.71 31.792 126.04 32.368C126.371 32.944 126.814 33.3867 127.368 33.696C127.923 34.0053 128.531 34.16 129.192 34.16C129.811 34.16 130.35 34.0053 130.808 33.696C131.267 33.3867 131.624 32.944 131.88 32.368C132.147 31.792 132.28 31.1093 132.28 30.32C132.28 29.52 132.147 28.8373 131.88 28.272C131.624 27.696 131.267 27.2533 130.808 26.944C130.35 26.6347 129.811 26.48 129.192 26.48C128.531 26.48 127.923 26.6347 127.368 26.944C126.814 27.2533 126.371 27.696 126.04 28.272C125.71 28.8373 125.544 29.52 125.544 30.32ZM126.84 30.32C126.84 29.7547 126.952 29.2747 127.176 28.88C127.411 28.4853 127.72 28.1867 128.104 27.984C128.488 27.7813 128.904 27.68 129.352 27.68C129.726 27.68 130.094 27.7813 130.456 27.984C130.819 28.1867 131.118 28.4853 131.352 28.88C131.587 29.2747 131.704 29.7547 131.704 30.32C131.704 30.8853 131.587 31.3653 131.352 31.76C131.118 32.1547 130.819 32.4533 130.456 32.656C130.094 32.8587 129.726 32.96 129.352 32.96C128.904 32.96 128.488 32.8587 128.104 32.656C127.72 32.4533 127.411 32.1547 127.176 31.76C126.952 31.3653 126.84 30.8853 126.84 30.32ZM135.885 31.728C135.885 31.4613 135.949 31.232 136.077 31.04C136.205 30.848 136.397 30.6987 136.653 30.592C136.92 30.4853 137.261 30.432 137.677 30.432C138.125 30.432 138.547 30.4907 138.941 30.608C139.336 30.7147 139.72 30.896 140.093 31.152V30.4C140.019 30.304 139.875 30.1813 139.661 30.032C139.448 29.872 139.16 29.7333 138.797 29.616C138.445 29.488 138.003 29.424 137.469 29.424C136.563 29.424 135.853 29.6427 135.341 30.08C134.84 30.5067 134.589 31.0773 134.589 31.792C134.589 32.2933 134.707 32.72 134.941 33.072C135.176 33.424 135.485 33.696 135.869 33.888C136.264 34.0693 136.685 34.16 137.133 34.16C137.539 34.16 137.944 34.0853 138.349 33.936C138.765 33.7867 139.112 33.5573 139.389 33.248C139.677 32.9387 139.821 32.5493 139.821 32.08L139.565 31.12C139.565 31.504 139.469 31.8453 139.277 32.144C139.096 32.432 138.845 32.656 138.525 32.816C138.216 32.976 137.864 33.056 137.469 33.056C137.16 33.056 136.883 33.008 136.637 32.912C136.403 32.8053 136.216 32.6507 136.077 32.448C135.949 32.2453 135.885 32.0053 135.885 31.728ZM135.693 28.336C135.811 28.2507 135.971 28.1493 136.173 28.032C136.376 27.9147 136.621 27.8133 136.909 27.728C137.208 27.6427 137.539 27.6 137.901 27.6C138.125 27.6 138.339 27.6213 138.541 27.664C138.744 27.7067 138.92 27.776 139.069 27.872C139.229 27.968 139.352 28.1013 139.437 28.272C139.523 28.432 139.565 28.64 139.565 28.896V34H140.845V28.72C140.845 28.24 140.723 27.8347 140.477 27.504C140.243 27.1733 139.907 26.9227 139.469 26.752C139.043 26.5707 138.541 26.48 137.965 26.48C137.283 26.48 136.696 26.5813 136.205 26.784C135.725 26.9867 135.347 27.1893 135.069 27.392L135.693 28.336ZM144.293 26.64H143.013V34H144.293V26.64ZM146.516 28.048L147.221 26.992C147.029 26.7893 146.815 26.656 146.581 26.592C146.357 26.5173 146.111 26.48 145.845 26.48C145.503 26.48 145.167 26.6133 144.837 26.88C144.506 27.1467 144.234 27.5093 144.021 27.968C143.818 28.416 143.717 28.9333 143.717 29.52H144.293C144.293 29.168 144.325 28.8533 144.389 28.576C144.463 28.2987 144.591 28.08 144.773 27.92C144.954 27.76 145.205 27.68 145.525 27.68C145.738 27.68 145.914 27.712 146.053 27.776C146.191 27.8293 146.346 27.92 146.516 28.048Z" fill="white"/>
<path d="M191 8H356C361.523 8 366 12.4772 366 18V48H191V8Z" fill="white"/>
<path fill-rule="evenodd" clip-rule="evenodd" d="M249.577 38.3687H240.753C237.312 38.3687 235 35.9537 235 32.3597V24.0457C235 20.4517 237.312 18.0367 240.753 18.0367H244.492C244.906 18.0367 245.242 18.3727 245.242 18.7867C245.242 19.2007 244.906 19.5367 244.492 19.5367H240.753C238.169 19.5367 236.5 21.3067 236.5 24.0457V32.3597C236.5 35.0987 238.169 36.8687 240.753 36.8687H249.577C252.161 36.8687 253.831 35.0987 253.831 32.3597V28.3317C253.831 27.9177 254.167 27.5817 254.581 27.5817C254.995 27.5817 255.331 27.9177 255.331 28.3317V32.3597C255.331 35.9537 253.018 38.3687 249.577 38.3687Z" fill="#191C1C"/>
<path fill-rule="evenodd" clip-rule="evenodd" d="M241.868 31.4283H244.845C245.225 31.4283 245.581 31.2813 245.85 31.0123L253.359 23.5033C253.667 23.1953 253.837 22.7853 253.837 22.3493C253.837 21.9123 253.667 21.5013 253.359 21.1933L252.142 19.9763C251.505 19.3413 250.469 19.3413 249.831 19.9763L242.358 27.4493C242.099 27.7083 241.952 28.0523 241.943 28.4173L241.868 31.4283ZM244.845 32.9283H241.099C240.897 32.9283 240.703 32.8463 240.562 32.7013C240.421 32.5573 240.344 32.3623 240.349 32.1593L240.443 28.3803C240.462 27.6283 240.765 26.9213 241.297 26.3883H241.298L248.771 18.9153C249.993 17.6953 251.98 17.6953 253.202 18.9153L254.419 20.1323C255.012 20.7243 255.338 21.5113 255.337 22.3493C255.337 23.1873 255.011 23.9733 254.419 24.5643L246.91 32.0733C246.359 32.6243 245.625 32.9283 244.845 32.9283Z" fill="#191C1C"/>
<path fill-rule="evenodd" clip-rule="evenodd" d="M252.731 25.9166C252.539 25.9166 252.347 25.8436 252.201 25.6966L247.635 21.1306C247.342 20.8376 247.342 20.3626 247.635 20.0696C247.928 19.7766 248.402 19.7766 248.695 20.0696L253.261 24.6366C253.554 24.9296 253.554 25.4036 253.261 25.6966C253.115 25.8436 252.923 25.9166 252.731 25.9166Z" fill="#191C1C"/>
<path d="M267.832 26.432L271.48 32.96L275.128 26.432L275.96 34H277.32L275.96 22.24L271.48 30.352L267 22.24L265.64 34H267L267.832 26.432ZM284.993 26.64H283.553L281.281 32.336L281.809 32.4L279.473 26.64H277.953L280.769 32.96L278.753 37.52H280.193L284.993 26.64ZM289.957 24.08H292.837V34H294.197V24.08H297.077V22.8H289.957V24.08ZM297.417 31.728C297.417 31.4613 297.481 31.232 297.609 31.04C297.737 30.848 297.929 30.6987 298.185 30.592C298.451 30.4853 298.793 30.432 299.209 30.432C299.657 30.432 300.078 30.4907 300.473 30.608C300.867 30.7147 301.251 30.896 301.625 31.152V30.4C301.55 30.304 301.406 30.1813 301.193 30.032C300.979 29.872 300.691 29.7333 300.329 29.616C299.977 29.488 299.534 29.424 299.001 29.424C298.094 29.424 297.385 29.6427 296.873 30.08C296.371 30.5067 296.121 31.0773 296.121 31.792C296.121 32.2933 296.238 32.72 296.473 33.072C296.707 33.424 297.017 33.696 297.401 33.888C297.795 34.0693 298.217 34.16 298.665 34.16C299.07 34.16 299.475 34.0853 299.881 33.936C300.297 33.7867 300.643 33.5573 300.921 33.248C301.209 32.9387 301.353 32.5493 301.353 32.08L301.097 31.12C301.097 31.504 301.001 31.8453 300.809 32.144C300.627 32.432 300.377 32.656 300.057 32.816C299.747 32.976 299.395 33.056 299.001 33.056C298.691 33.056 298.414 33.008 298.169 32.912C297.934 32.8053 297.747 32.6507 297.609 32.448C297.481 32.2453 297.417 32.0053 297.417 31.728ZM297.225 28.336C297.342 28.2507 297.502 28.1493 297.705 28.032C297.907 27.9147 298.153 27.8133 298.441 27.728C298.739 27.6427 299.07 27.6 299.433 27.6C299.657 27.6 299.87 27.6213 300.073 27.664C300.275 27.7067 300.451 27.776 300.601 27.872C300.761 27.968 300.883 28.1013 300.969 28.272C301.054 28.432 301.097 28.64 301.097 28.896V34H302.377V28.72C302.377 28.24 302.254 27.8347 302.009 27.504C301.774 27.1733 301.438 26.9227 301.001 26.752C300.574 26.5707 300.073 26.48 299.497 26.48C298.814 26.48 298.227 26.5813 297.737 26.784C297.257 26.9867 296.878 27.1893 296.601 27.392L297.225 28.336ZM304.848 31.744L303.84 32.368C303.978 32.656 304.181 32.9387 304.448 33.216C304.725 33.4933 305.061 33.7227 305.456 33.904C305.85 34.0747 306.293 34.16 306.784 34.16C307.541 34.16 308.149 33.9467 308.608 33.52C309.077 33.0933 309.312 32.56 309.312 31.92C309.312 31.4827 309.205 31.1253 308.992 30.848C308.789 30.5707 308.512 30.336 308.16 30.144C307.808 29.9413 307.418 29.7547 306.992 29.584C306.736 29.4773 306.49 29.3653 306.256 29.248C306.021 29.1307 305.829 28.9973 305.68 28.848C305.53 28.6987 305.456 28.528 305.456 28.336C305.456 28.0907 305.552 27.9093 305.744 27.792C305.936 27.6747 306.165 27.616 306.432 27.616C306.816 27.616 307.157 27.7067 307.456 27.888C307.765 28.0693 308.021 28.2987 308.224 28.576L309.248 27.92C309.098 27.6427 308.89 27.3973 308.624 27.184C308.357 26.9707 308.048 26.8 307.696 26.672C307.354 26.544 306.986 26.48 306.592 26.48C306.197 26.48 305.813 26.5493 305.44 26.688C305.077 26.8267 304.778 27.04 304.544 27.328C304.32 27.616 304.208 27.9787 304.208 28.416C304.208 28.8427 304.314 29.2 304.528 29.488C304.752 29.7653 305.024 29.9947 305.344 30.176C305.674 30.3467 306 30.496 306.32 30.624C306.608 30.7307 306.88 30.848 307.136 30.976C307.392 31.0933 307.6 31.2427 307.76 31.424C307.93 31.5947 308.016 31.808 308.016 32.064C308.016 32.352 307.909 32.5813 307.696 32.752C307.493 32.912 307.21 32.992 306.848 32.992C306.549 32.992 306.272 32.9387 306.016 32.832C305.77 32.7147 305.552 32.56 305.36 32.368C305.168 32.176 304.997 31.968 304.848 31.744ZM310.917 21.52V34H312.197V21.52H310.917ZM314.917 26.64L311.717 29.68L315.237 34H316.837L313.317 29.68L316.517 26.64H314.917ZM318.348 31.744L317.34 32.368C317.478 32.656 317.681 32.9387 317.948 33.216C318.225 33.4933 318.561 33.7227 318.956 33.904C319.35 34.0747 319.793 34.16 320.284 34.16C321.041 34.16 321.649 33.9467 322.108 33.52C322.577 33.0933 322.812 32.56 322.812 31.92C322.812 31.4827 322.705 31.1253 322.492 30.848C322.289 30.5707 322.012 30.336 321.66 30.144C321.308 29.9413 320.918 29.7547 320.492 29.584C320.236 29.4773 319.99 29.3653 319.756 29.248C319.521 29.1307 319.329 28.9973 319.18 28.848C319.03 28.6987 318.956 28.528 318.956 28.336C318.956 28.0907 319.052 27.9093 319.244 27.792C319.436 27.6747 319.665 27.616 319.932 27.616C320.316 27.616 320.657 27.7067 320.956 27.888C321.265 28.0693 321.521 28.2987 321.724 28.576L322.748 27.92C322.598 27.6427 322.39 27.3973 322.124 27.184C321.857 26.9707 321.548 26.8 321.196 26.672C320.854 26.544 320.486 26.48 320.092 26.48C319.697 26.48 319.313 26.5493 318.94 26.688C318.577 26.8267 318.278 27.04 318.044 27.328C317.82 27.616 317.708 27.9787 317.708 28.416C317.708 28.8427 317.814 29.2 318.028 29.488C318.252 29.7653 318.524 29.9947 318.844 30.176C319.174 30.3467 319.5 30.496 319.82 30.624C320.108 30.7307 320.38 30.848 320.636 30.976C320.892 31.0933 321.1 31.2427 321.26 31.424C321.43 31.5947 321.516 31.808 321.516 32.064C321.516 32.352 321.409 32.5813 321.196 32.752C320.993 32.912 320.71 32.992 320.348 32.992C320.049 32.992 319.772 32.9387 319.516 32.832C319.27 32.7147 319.052 32.56 318.86 32.368C318.668 32.176 318.497 31.968 318.348 31.744Z" fill="#191C1C"/>
<g clip-path="url(#clip0_202_1192)">
<path d="M59.8361 78.8274C60.0348 79.0222 60.0528 79.327 59.8903 79.5418L59.8361 79.6034L55.3511 84L59.8361 88.3966C60.0348 88.5914 60.0528 88.8963 59.8903 89.1111L59.8361 89.1726C59.6374 89.3674 59.3264 89.3851 59.1073 89.2258L59.0445 89.1726L54.1639 84.388C53.9652 84.1932 53.9472 83.8884 54.1097 83.6736L54.1639 83.612L59.0445 78.8274C59.2631 78.6131 59.6175 78.6131 59.8361 78.8274Z" fill="#191C1C"/>
<path d="M123.396 91.408L122.388 92.8C122.527 92.9173 122.713 93.04 122.948 93.168C123.183 93.296 123.455 93.4027 123.764 93.488C124.073 93.584 124.393 93.632 124.724 93.632C125.151 93.632 125.545 93.5787 125.908 93.472C126.271 93.376 126.58 93.216 126.836 92.992C127.103 92.768 127.311 92.4853 127.46 92.144C127.609 91.8027 127.684 91.3973 127.684 90.928V78.8H125.748V90.576C125.748 91.088 125.631 91.4453 125.396 91.648C125.161 91.8613 124.921 91.968 124.676 91.968C124.409 91.968 124.164 91.9147 123.94 91.808C123.716 91.7013 123.535 91.568 123.396 91.408ZM132.282 87.12V82.64H130.506V87.312C130.506 88.1867 130.725 88.88 131.162 89.392C131.61 89.904 132.245 90.16 133.066 90.16C133.578 90.16 134.015 90.0533 134.378 89.84C134.751 89.616 135.055 89.2907 135.29 88.864V90H137.018V82.64H135.29V87.12C135.29 87.4507 135.221 87.744 135.082 88C134.943 88.2453 134.751 88.4373 134.506 88.576C134.261 88.704 133.973 88.768 133.642 88.768C133.183 88.768 132.842 88.624 132.618 88.336C132.394 88.048 132.282 87.6427 132.282 87.12ZM144.441 85.52V90H146.217V85.328C146.217 84.4427 145.998 83.7493 145.561 83.248C145.123 82.736 144.489 82.48 143.657 82.48C143.145 82.48 142.702 82.5867 142.329 82.8C141.966 83.0133 141.667 83.3387 141.433 83.776V82.64H139.705V90H141.433V85.52C141.433 85.1893 141.502 84.9013 141.641 84.656C141.779 84.4 141.971 84.208 142.217 84.08C142.462 83.9413 142.745 83.872 143.065 83.872C143.534 83.872 143.881 84.0107 144.105 84.288C144.329 84.5653 144.441 84.976 144.441 85.52ZM152.103 90.16C152.957 90.16 153.687 89.9947 154.295 89.664C154.903 89.3333 155.399 88.8373 155.783 88.176L154.295 87.568C154.061 87.9627 153.767 88.256 153.415 88.448C153.063 88.64 152.653 88.736 152.183 88.736C151.735 88.736 151.351 88.64 151.031 88.448C150.722 88.256 150.487 87.9787 150.327 87.616C150.167 87.2427 150.087 86.7893 150.087 86.256C150.098 85.7227 150.183 85.2747 150.343 84.912C150.503 84.5493 150.738 84.272 151.047 84.08C151.357 83.888 151.73 83.792 152.167 83.792C152.53 83.792 152.845 83.872 153.111 84.032C153.389 84.192 153.602 84.416 153.751 84.704C153.911 84.992 153.991 85.3333 153.991 85.728C153.991 85.8027 153.97 85.8987 153.927 86.016C153.895 86.1227 153.863 86.208 153.831 86.272L154.359 85.536H149.367V86.72H155.831C155.842 86.6773 155.847 86.608 155.847 86.512C155.858 86.416 155.863 86.3253 155.863 86.24C155.863 85.4507 155.714 84.7787 155.415 84.224C155.127 83.6587 154.711 83.2267 154.167 82.928C153.623 82.6293 152.962 82.48 152.183 82.48C151.405 82.48 150.727 82.64 150.151 82.96C149.575 83.2693 149.127 83.712 148.807 84.288C148.498 84.864 148.343 85.5413 148.343 86.32C148.343 87.088 148.498 87.76 148.807 88.336C149.117 88.912 149.554 89.36 150.119 89.68C150.695 90 151.357 90.16 152.103 90.16Z" fill="#191C1C"/>
<path d="M163.327 81.1639C163.522 80.9652 163.827 80.9472 164.042 81.1097L164.103 81.1639L168.5 85.6489L172.897 81.1639C173.091 80.9652 173.396 80.9472 173.611 81.1097L173.673 81.1639C173.867 81.3626 173.885 81.6736 173.726 81.8927L173.673 81.9555L168.888 86.8361C168.693 87.0348 168.388 87.0528 168.174 86.8903L168.112 86.8361L163.327 81.9555C163.113 81.7369 163.113 81.3825 163.327 81.1639Z" fill="#191C1C"/>
<path d="M192.82 90H201.364V88.24H196.5L199.684 85.12C200.143 84.6933 200.511 84.208 200.788 83.664C201.076 83.12 201.22 82.5547 201.22 81.968C201.22 81.5947 201.14 81.2107 200.98 80.816C200.831 80.4213 200.596 80.0587 200.276 79.728C199.967 79.3973 199.572 79.1307 199.092 78.928C198.612 78.7147 198.047 78.608 197.396 78.608C196.543 78.608 195.817 78.7893 195.22 79.152C194.633 79.504 194.185 79.9947 193.876 80.624C193.577 81.2427 193.428 81.952 193.428 82.752H195.3C195.3 82.2613 195.38 81.8293 195.54 81.456C195.711 81.0827 195.951 80.8 196.26 80.608C196.569 80.4053 196.937 80.304 197.364 80.304C197.673 80.304 197.945 80.3573 198.18 80.464C198.415 80.56 198.612 80.6933 198.772 80.864C198.943 81.0347 199.065 81.2267 199.14 81.44C199.225 81.6427 199.268 81.8507 199.268 82.064C199.268 82.3627 199.22 82.6453 199.124 82.912C199.028 83.1787 198.884 83.4453 198.692 83.712C198.5 83.9787 198.271 84.256 198.004 84.544L192.82 90ZM205.132 84.4C205.132 83.8027 205.191 83.2533 205.308 82.752C205.426 82.2507 205.591 81.8187 205.804 81.456C206.028 81.0933 206.295 80.816 206.604 80.624C206.914 80.4213 207.255 80.32 207.628 80.32C208.023 80.32 208.37 80.4213 208.668 80.624C208.978 80.816 209.239 81.0933 209.452 81.456C209.676 81.8187 209.847 82.2507 209.964 82.752C210.082 83.2533 210.14 83.8027 210.14 84.4C210.14 84.9973 210.082 85.5467 209.964 86.048C209.847 86.5493 209.676 86.9813 209.452 87.344C209.239 87.7067 208.978 87.9893 208.668 88.192C208.37 88.384 208.023 88.48 207.628 88.48C207.255 88.48 206.914 88.384 206.604 88.192C206.295 87.9893 206.028 87.7067 205.804 87.344C205.591 86.9813 205.426 86.5493 205.308 86.048C205.191 85.5467 205.132 84.9973 205.132 84.4ZM203.276 84.4C203.276 85.5627 203.458 86.576 203.82 87.44C204.194 88.304 204.706 88.976 205.356 89.456C206.018 89.936 206.775 90.176 207.628 90.176C208.503 90.176 209.266 89.936 209.916 89.456C210.578 88.976 211.09 88.304 211.452 87.44C211.815 86.576 211.996 85.5627 211.996 84.4C211.996 83.2373 211.815 82.224 211.452 81.36C211.09 80.496 210.578 79.824 209.916 79.344C209.266 78.864 208.503 78.624 207.628 78.624C206.775 78.624 206.018 78.864 205.356 79.344C204.706 79.824 204.194 80.496 203.82 81.36C203.458 82.224 203.276 83.2373 203.276 84.4ZM213.436 90H221.98V88.24H217.116L220.3 85.12C220.759 84.6933 221.127 84.208 221.404 83.664C221.692 83.12 221.836 82.5547 221.836 81.968C221.836 81.5947 221.756 81.2107 221.596 80.816C221.447 80.4213 221.212 80.0587 220.892 79.728C220.583 79.3973 220.188 79.1307 219.708 78.928C219.228 78.7147 218.663 78.608 218.012 78.608C217.159 78.608 216.434 78.7893 215.836 79.152C215.25 79.504 214.802 79.9947 214.492 80.624C214.194 81.2427 214.044 81.952 214.044 82.752H215.916C215.916 82.2613 215.996 81.8293 216.156 81.456C216.327 81.0827 216.567 80.8 216.876 80.608C217.186 80.4053 217.554 80.304 217.98 80.304C218.29 80.304 218.562 80.3573 218.796 80.464C219.031 80.56 219.228 80.6933 219.388 80.864C219.559 81.0347 219.682 81.2267 219.756 81.44C219.842 81.6427 219.884 81.8507 219.884 82.064C219.884 82.3627 219.836 82.6453 219.74 82.912C219.644 83.1787 219.5 83.4453 219.308 83.712C219.116 83.9787 218.887 84.256 218.62 84.544L213.436 90ZM223.573 90H232.117V88.24H227.253L230.437 85.12C230.895 84.6933 231.263 84.208 231.541 83.664C231.829 83.12 231.973 82.5547 231.973 81.968C231.973 81.5947 231.893 81.2107 231.733 80.816C231.583 80.4213 231.349 80.0587 231.029 79.728C230.719 79.3973 230.325 79.1307 229.845 78.928C229.365 78.7147 228.799 78.608 228.149 78.608C227.295 78.608 226.57 78.7893 225.973 79.152C225.386 79.504 224.938 79.9947 224.629 80.624C224.33 81.2427 224.181 81.952 224.181 82.752H226.053C226.053 82.2613 226.133 81.8293 226.293 81.456C226.463 81.0827 226.703 80.8 227.013 80.608C227.322 80.4053 227.69 80.304 228.117 80.304C228.426 80.304 228.698 80.3573 228.933 80.464C229.167 80.56 229.365 80.6933 229.525 80.864C229.695 81.0347 229.818 81.2267 229.893 81.44C229.978 81.6427 230.021 81.8507 230.021 82.064C230.021 82.3627 229.973 82.6453 229.877 82.912C229.781 83.1787 229.637 83.4453 229.445 83.712C229.253 83.9787 229.023 84.256 228.757 84.544L223.573 90Z" fill="#191C1C"/>
<path d="M240.327 81.1639C240.522 80.9652 240.827 80.9472 241.042 81.1097L241.103 81.1639L245.5 85.6489L249.897 81.1639C250.092 80.9652 250.396 80.9472 250.611 81.1097L250.673 81.1639C250.868 81.3626 250.885 81.6736 250.726 81.8927L250.673 81.9555L245.888 86.8361C245.693 87.0348 245.388 87.0528 245.174 86.8903L245.112 86.8361L240.327 81.9555C240.113 81.7369 240.113 81.3825 240.327 81.1639Z" fill="#191C1C"/>
<path d="M318.164 89.1726C317.965 88.9778 317.947 88.673 318.11 88.4582L318.164 88.3966L322.649 84L318.164 79.6034C317.965 79.4086 317.947 79.1037 318.11 78.8889L318.164 78.8274C318.363 78.6326 318.674 78.6149 318.893 78.7743L318.955 78.8274L323.836 83.612C324.035 83.8068 324.053 84.1116 323.89 84.3264L323.836 84.388L318.955 89.1726C318.737 89.3869 318.383 89.3869 318.164 89.1726Z" fill="#191C1C"/>
<path d="M62.2656 129.946L65.184 135.168L68.1024 129.946L68.768 136H69.856L68.768 126.592L65.184 133.082L61.6 126.592L60.512 136H61.6L62.2656 129.946ZM70.8105 133.056C70.8105 133.645 70.9428 134.174 71.2073 134.643C71.4804 135.104 71.8473 135.467 72.3081 135.731C72.7689 135.996 73.2852 136.128 73.8569 136.128C74.4372 136.128 74.9534 135.996 75.4057 135.731C75.8665 135.467 76.2292 135.104 76.4937 134.643C76.7668 134.174 76.9033 133.645 76.9033 133.056C76.9033 132.459 76.7668 131.93 76.4937 131.469C76.2292 131.008 75.8665 130.645 75.4057 130.381C74.9534 130.116 74.4372 129.984 73.8569 129.984C73.2852 129.984 72.7689 130.116 72.3081 130.381C71.8473 130.645 71.4804 131.008 71.2073 131.469C70.9428 131.93 70.8105 132.459 70.8105 133.056ZM71.8473 133.056C71.8473 132.646 71.9326 132.284 72.1033 131.968C72.2825 131.644 72.5214 131.392 72.8201 131.213C73.1273 131.034 73.4729 130.944 73.8569 130.944C74.2409 130.944 74.5822 131.034 74.8809 131.213C75.1881 131.392 75.427 131.644 75.5977 131.968C75.7769 132.284 75.8665 132.646 75.8665 133.056C75.8665 133.466 75.7769 133.828 75.5977 134.144C75.427 134.46 75.1881 134.711 74.8809 134.899C74.5822 135.078 74.2409 135.168 73.8569 135.168C73.4729 135.168 73.1273 135.078 72.8201 134.899C72.5214 134.711 72.2825 134.46 72.1033 134.144C71.9326 133.828 71.8473 133.466 71.8473 133.056Z" fill="#696B6B"/>
<path d="M103.128 128.064H105.432V136H106.52V128.064H108.824V127.04H103.128V128.064ZM109.909 133.696V130.112H108.885V133.824C108.885 134.524 109.068 135.083 109.435 135.501C109.802 135.919 110.293 136.128 110.907 136.128C111.3 136.128 111.641 136.043 111.931 135.872C112.222 135.693 112.465 135.428 112.661 135.078V136H113.685V130.112H112.661V133.696C112.661 133.986 112.597 134.242 112.469 134.464C112.35 134.686 112.175 134.861 111.944 134.989C111.722 135.108 111.462 135.168 111.163 135.168C110.754 135.168 110.442 135.04 110.229 134.784C110.016 134.528 109.909 134.165 109.909 133.696Z" fill="#696B6B"/>
<path d="M148.498 133.632L145.836 126.592L143.225 133.632L140.844 127.04H139.628L143.148 136.448L145.836 129.485L148.524 136.448L152.044 127.04H150.828L148.498 133.632ZM154.388 136.128C155.02 136.128 155.566 136.004 156.027 135.757C156.496 135.501 156.884 135.125 157.192 134.63L156.36 134.106C156.146 134.464 155.886 134.733 155.579 134.912C155.272 135.083 154.917 135.168 154.516 135.168C154.115 135.168 153.774 135.083 153.492 134.912C153.211 134.741 152.997 134.494 152.852 134.17C152.707 133.845 152.635 133.453 152.635 132.992C152.643 132.54 152.72 132.16 152.865 131.853C153.019 131.537 153.232 131.298 153.505 131.136C153.787 130.965 154.124 130.88 154.516 130.88C154.849 130.88 155.139 130.953 155.387 131.098C155.634 131.243 155.826 131.443 155.963 131.699C156.108 131.955 156.18 132.258 156.18 132.608C156.18 132.668 156.168 132.745 156.142 132.838C156.116 132.924 156.091 132.988 156.065 133.03L156.475 132.442H152.251V133.312H157.281C157.281 133.295 157.281 133.257 157.281 133.197C157.29 133.129 157.294 133.065 157.294 133.005C157.294 132.382 157.183 131.844 156.961 131.392C156.739 130.94 156.419 130.594 156.001 130.355C155.592 130.108 155.097 129.984 154.516 129.984C153.936 129.984 153.424 130.112 152.98 130.368C152.545 130.624 152.204 130.982 151.956 131.443C151.717 131.904 151.598 132.442 151.598 133.056C151.598 133.662 151.713 134.195 151.944 134.656C152.183 135.117 152.511 135.479 152.929 135.744C153.356 136 153.842 136.128 154.388 136.128Z" fill="#696B6B"/>
<path d="M182.628 128.064H184.932V136H186.02V128.064H188.324V127.04H182.628V128.064ZM190.434 126.016H189.41V136H190.434V126.016ZM193.186 132.416V136H194.21V132.288C194.21 131.776 194.125 131.349 193.954 131.008C193.792 130.667 193.557 130.411 193.25 130.24C192.951 130.069 192.597 129.984 192.188 129.984C191.778 129.984 191.415 130.091 191.1 130.304C190.792 130.517 190.549 130.807 190.37 131.174C190.191 131.533 190.101 131.947 190.101 132.416H190.434C190.434 132.134 190.494 131.883 190.613 131.661C190.741 131.439 190.916 131.264 191.138 131.136C191.368 131.008 191.633 130.944 191.932 130.944C192.35 130.944 192.661 131.068 192.866 131.315C193.079 131.563 193.186 131.93 193.186 132.416Z" fill="#696B6B"/>
<path d="M225.126 128.064H229.132V127.04H225.126V128.064ZM225.126 131.648H229.004V130.624H225.126V131.648ZM224.524 127.04V136H225.612V127.04H224.524ZM231.634 130.112H230.61V136H231.634V130.112ZM233.413 131.238L233.976 130.394C233.823 130.231 233.652 130.125 233.464 130.074C233.285 130.014 233.089 129.984 232.876 129.984C232.603 129.984 232.334 130.091 232.069 130.304C231.805 130.517 231.587 130.807 231.416 131.174C231.254 131.533 231.173 131.947 231.173 132.416H231.634C231.634 132.134 231.66 131.883 231.711 131.661C231.771 131.439 231.873 131.264 232.018 131.136C232.163 131.008 232.364 130.944 232.62 130.944C232.79 130.944 232.931 130.97 233.042 131.021C233.153 131.063 233.277 131.136 233.413 131.238Z" fill="#696B6B"/>
<path d="M263.357 133.286L262.486 133.875C262.683 134.268 262.934 134.639 263.242 134.989C263.557 135.33 263.92 135.607 264.33 135.821C264.748 136.026 265.2 136.128 265.686 136.128C266.045 136.128 266.386 136.068 266.71 135.949C267.043 135.829 267.338 135.659 267.594 135.437C267.858 135.215 268.063 134.946 268.208 134.63C268.362 134.315 268.438 133.961 268.438 133.568C268.438 133.158 268.366 132.809 268.221 132.518C268.076 132.22 267.888 131.968 267.658 131.763C267.436 131.55 267.193 131.375 266.928 131.238C266.663 131.102 266.412 130.991 266.173 130.906C265.652 130.726 265.238 130.547 264.931 130.368C264.633 130.18 264.419 129.984 264.291 129.779C264.163 129.566 264.099 129.335 264.099 129.088C264.099 128.798 264.21 128.538 264.432 128.307C264.654 128.068 265.008 127.949 265.494 127.949C265.844 127.949 266.139 128.017 266.378 128.154C266.625 128.29 266.834 128.465 267.005 128.678C267.175 128.892 267.316 129.109 267.427 129.331L268.362 128.794C268.217 128.478 268.016 128.179 267.76 127.898C267.504 127.607 267.193 127.373 266.826 127.194C266.467 127.006 266.045 126.912 265.558 126.912C265.055 126.912 264.607 127.014 264.214 127.219C263.822 127.415 263.515 127.689 263.293 128.038C263.071 128.388 262.96 128.785 262.96 129.229C262.96 129.638 263.037 129.984 263.19 130.266C263.353 130.547 263.557 130.786 263.805 130.982C264.052 131.17 264.313 131.328 264.586 131.456C264.859 131.575 265.106 131.674 265.328 131.75C265.669 131.87 265.989 132.006 266.288 132.16C266.595 132.305 266.843 132.497 267.03 132.736C267.218 132.975 267.312 133.295 267.312 133.696C267.312 134.106 267.167 134.443 266.877 134.707C266.587 134.972 266.203 135.104 265.725 135.104C265.366 135.104 265.046 135.027 264.765 134.874C264.483 134.72 264.227 134.507 263.997 134.234C263.775 133.961 263.562 133.645 263.357 133.286ZM270.433 134.182C270.433 133.969 270.485 133.786 270.587 133.632C270.689 133.478 270.843 133.359 271.048 133.274C271.261 133.188 271.534 133.146 271.867 133.146C272.225 133.146 272.562 133.193 272.878 133.286C273.194 133.372 273.501 133.517 273.8 133.722V133.12C273.74 133.043 273.625 132.945 273.454 132.826C273.283 132.698 273.053 132.587 272.763 132.493C272.481 132.39 272.127 132.339 271.701 132.339C270.975 132.339 270.408 132.514 269.998 132.864C269.597 133.205 269.397 133.662 269.397 134.234C269.397 134.635 269.49 134.976 269.678 135.258C269.866 135.539 270.113 135.757 270.421 135.91C270.736 136.055 271.073 136.128 271.432 136.128C271.756 136.128 272.08 136.068 272.405 135.949C272.737 135.829 273.015 135.646 273.237 135.398C273.467 135.151 273.582 134.839 273.582 134.464L273.377 133.696C273.377 134.003 273.301 134.276 273.147 134.515C273.002 134.746 272.801 134.925 272.545 135.053C272.298 135.181 272.016 135.245 271.701 135.245C271.453 135.245 271.231 135.206 271.035 135.13C270.847 135.044 270.698 134.921 270.587 134.758C270.485 134.596 270.433 134.404 270.433 134.182ZM270.28 131.469C270.374 131.401 270.502 131.319 270.664 131.226C270.826 131.132 271.022 131.051 271.253 130.982C271.491 130.914 271.756 130.88 272.046 130.88C272.225 130.88 272.396 130.897 272.558 130.931C272.72 130.965 272.861 131.021 272.981 131.098C273.109 131.174 273.207 131.281 273.275 131.418C273.343 131.546 273.377 131.712 273.377 131.917V136H274.401V131.776C274.401 131.392 274.303 131.068 274.107 130.803C273.919 130.539 273.65 130.338 273.301 130.202C272.959 130.057 272.558 129.984 272.097 129.984C271.551 129.984 271.082 130.065 270.689 130.227C270.305 130.389 270.002 130.551 269.781 130.714L270.28 131.469Z" fill="#696B6B"/>
<path d="M303.357 133.286L302.486 133.875C302.683 134.268 302.934 134.639 303.242 134.989C303.557 135.33 303.92 135.607 304.33 135.821C304.748 136.026 305.2 136.128 305.686 136.128C306.045 136.128 306.386 136.068 306.71 135.949C307.043 135.829 307.338 135.659 307.594 135.437C307.858 135.215 308.063 134.946 308.208 134.63C308.362 134.315 308.438 133.961 308.438 133.568C308.438 133.158 308.366 132.809 308.221 132.518C308.076 132.22 307.888 131.968 307.658 131.763C307.436 131.55 307.193 131.375 306.928 131.238C306.663 131.102 306.412 130.991 306.173 130.906C305.652 130.726 305.238 130.547 304.931 130.368C304.633 130.18 304.419 129.984 304.291 129.779C304.163 129.566 304.099 129.335 304.099 129.088C304.099 128.798 304.21 128.538 304.432 128.307C304.654 128.068 305.008 127.949 305.494 127.949C305.844 127.949 306.139 128.017 306.378 128.154C306.625 128.29 306.834 128.465 307.005 128.678C307.175 128.892 307.316 129.109 307.427 129.331L308.362 128.794C308.217 128.478 308.016 128.179 307.76 127.898C307.504 127.607 307.193 127.373 306.826 127.194C306.467 127.006 306.045 126.912 305.558 126.912C305.055 126.912 304.607 127.014 304.214 127.219C303.822 127.415 303.515 127.689 303.293 128.038C303.071 128.388 302.96 128.785 302.96 129.229C302.96 129.638 303.037 129.984 303.19 130.266C303.353 130.547 303.557 130.786 303.805 130.982C304.052 131.17 304.313 131.328 304.586 131.456C304.859 131.575 305.106 131.674 305.328 131.75C305.669 131.87 305.989 132.006 306.288 132.16C306.595 132.305 306.843 132.497 307.03 132.736C307.218 132.975 307.312 133.295 307.312 133.696C307.312 134.106 307.167 134.443 306.877 134.707C306.587 134.972 306.203 135.104 305.725 135.104C305.366 135.104 305.046 135.027 304.765 134.874C304.483 134.72 304.227 134.507 303.997 134.234C303.775 133.961 303.562 133.645 303.357 133.286ZM310.997 133.696V130.112H309.973V133.824C309.973 134.524 310.156 135.083 310.523 135.501C310.89 135.919 311.381 136.128 311.995 136.128C312.387 136.128 312.729 136.043 313.019 135.872C313.309 135.693 313.552 135.428 313.749 135.078V136H314.773V130.112H313.749V133.696C313.749 133.986 313.685 134.242 313.557 134.464C313.437 134.686 313.262 134.861 313.032 134.989C312.81 135.108 312.55 135.168 312.251 135.168C311.841 135.168 311.53 135.04 311.317 134.784C311.103 134.528 310.997 134.165 310.997 133.696Z" fill="#696B6B"/>
<path d="M65.4072 172.584C65.9874 172.584 66.4951 172.482 66.9303 172.277C67.3655 172.072 67.7069 171.795 67.9544 171.445C68.2018 171.095 68.3256 170.711 68.3256 170.293C68.3256 169.866 68.2232 169.474 68.0184 169.115C67.8221 168.757 67.5362 168.467 67.1608 168.245C66.7938 168.023 66.3543 167.912 65.8423 167.912C65.3559 167.912 64.9207 168.014 64.5367 168.219C64.1613 168.415 63.8626 168.689 63.6407 169.038C63.4274 169.388 63.3207 169.798 63.3207 170.267H64.3575C64.3575 169.875 64.5026 169.55 64.7928 169.294C65.0829 169.03 65.437 168.898 65.8552 168.898C66.1538 168.898 66.4013 168.957 66.5976 169.077C66.8023 169.196 66.956 169.367 67.0584 169.589C67.1608 169.802 67.212 170.05 67.212 170.331C67.212 170.545 67.1693 170.745 67.0839 170.933C67.0072 171.121 66.892 171.287 66.7384 171.432C66.5848 171.569 66.397 171.679 66.1752 171.765C65.9533 171.842 65.6973 171.88 65.4072 171.88V172.584ZM65.7912 177.128C66.3288 177.128 66.8066 177.026 67.2248 176.821C67.6429 176.616 67.9714 176.326 68.2104 175.95C68.4578 175.575 68.5816 175.135 68.5816 174.632C68.5816 174.188 68.4962 173.809 68.3256 173.493C68.1634 173.177 67.933 172.921 67.6344 172.725C67.3442 172.52 67.0072 172.371 66.6232 172.277C66.2477 172.183 65.8424 172.136 65.4072 172.136V172.84C65.6973 172.84 65.9661 172.874 66.2136 172.942C66.461 173.011 66.6786 173.117 66.8664 173.262C67.0541 173.399 67.1992 173.574 67.3016 173.787C67.4125 173.992 67.468 174.231 67.468 174.504C67.468 174.828 67.3997 175.11 67.2632 175.349C67.1266 175.588 66.9304 175.775 66.6744 175.912C66.4269 176.04 66.1325 176.104 65.7912 176.104C65.4498 176.104 65.1469 176.04 64.8824 175.912C64.6178 175.784 64.4087 175.609 64.2551 175.387C64.1101 175.165 64.0376 174.914 64.0376 174.632H62.9367C62.9367 174.982 63.005 175.31 63.1415 175.618C63.2781 175.916 63.4701 176.181 63.7175 176.411C63.965 176.633 64.2637 176.808 64.6136 176.936C64.9634 177.064 65.356 177.128 65.7912 177.128ZM70.7563 172.52C70.7563 171.999 70.8075 171.522 70.9099 171.086C71.0123 170.643 71.1616 170.263 71.3579 169.947C71.5541 169.623 71.7888 169.375 72.0619 169.205C72.3435 169.026 72.6549 168.936 72.9963 168.936C73.3461 168.936 73.6576 169.026 73.9307 169.205C74.2037 169.375 74.4384 169.623 74.6347 169.947C74.8309 170.263 74.9803 170.643 75.0827 171.086C75.1851 171.522 75.2363 171.999 75.2363 172.52C75.2363 173.041 75.1851 173.523 75.0827 173.966C74.9803 174.402 74.8309 174.781 74.6347 175.106C74.4384 175.421 74.2037 175.669 73.9307 175.848C73.6576 176.019 73.3461 176.104 72.9963 176.104C72.6549 176.104 72.3435 176.019 72.0619 175.848C71.7888 175.669 71.5541 175.421 71.3579 175.106C71.1616 174.781 71.0123 174.402 70.9099 173.966C70.8075 173.523 70.7563 173.041 70.7563 172.52ZM69.6683 172.52C69.6683 173.416 69.8091 174.21 70.0907 174.901C70.3723 175.592 70.7605 176.138 71.2555 176.539C71.7589 176.932 72.3392 177.128 72.9963 177.128C73.6533 177.128 74.2293 176.932 74.7243 176.539C75.2277 176.138 75.6203 175.592 75.9019 174.901C76.1835 174.21 76.3243 173.416 76.3243 172.52C76.3243 171.624 76.1835 170.83 75.9019 170.139C75.6203 169.448 75.2277 168.906 74.7243 168.514C74.2293 168.113 73.6533 167.912 72.9963 167.912C72.3392 167.912 71.7589 168.113 71.2555 168.514C70.7605 168.906 70.3723 169.448 70.0907 170.139C69.8091 170.83 69.6683 171.624 69.6683 172.52Z" fill="#B4B5B5"/>
<path d="M106.363 172.584C106.944 172.584 107.451 172.482 107.887 172.277C108.322 172.072 108.663 171.795 108.911 171.445C109.158 171.095 109.282 170.711 109.282 170.293C109.282 169.866 109.179 169.474 108.975 169.115C108.778 168.757 108.492 168.467 108.117 168.245C107.75 168.023 107.311 167.912 106.799 167.912C106.312 167.912 105.877 168.014 105.493 168.219C105.118 168.415 104.819 168.689 104.597 169.038C104.384 169.388 104.277 169.798 104.277 170.267H105.314C105.314 169.875 105.459 169.55 105.749 169.294C106.039 169.03 106.393 168.898 106.811 168.898C107.11 168.898 107.358 168.957 107.554 169.077C107.759 169.196 107.912 169.367 108.015 169.589C108.117 169.802 108.168 170.05 108.168 170.331C108.168 170.545 108.126 170.745 108.04 170.933C107.963 171.121 107.848 171.287 107.695 171.432C107.541 171.569 107.353 171.679 107.131 171.765C106.91 171.842 106.654 171.88 106.363 171.88V172.584ZM106.747 177.128C107.285 177.128 107.763 177.026 108.181 176.821C108.599 176.616 108.928 176.326 109.167 175.95C109.414 175.575 109.538 175.135 109.538 174.632C109.538 174.188 109.452 173.809 109.282 173.493C109.12 173.177 108.889 172.921 108.591 172.725C108.3 172.52 107.963 172.371 107.579 172.277C107.204 172.183 106.799 172.136 106.363 172.136V172.84C106.654 172.84 106.922 172.874 107.17 172.942C107.417 173.011 107.635 173.117 107.823 173.262C108.01 173.399 108.155 173.574 108.258 173.787C108.369 173.992 108.424 174.231 108.424 174.504C108.424 174.828 108.356 175.11 108.219 175.349C108.083 175.588 107.887 175.775 107.631 175.912C107.383 176.04 107.089 176.104 106.747 176.104C106.406 176.104 106.103 176.04 105.839 175.912C105.574 175.784 105.365 175.609 105.211 175.387C105.066 175.165 104.994 174.914 104.994 174.632H103.893C103.893 174.982 103.961 175.31 104.098 175.618C104.234 175.916 104.426 176.181 104.674 176.411C104.921 176.633 105.22 176.808 105.57 176.936C105.92 177.064 106.312 177.128 106.747 177.128ZM111.137 169.806L113.121 169.218V177H114.209V167.912L111.137 168.68V169.806Z" fill="#B4B5B5"/>
<path d="M147.143 169.806L149.127 169.218V177H150.215V167.912L147.143 168.68V169.806Z" fill="#191C1C"/>
<path d="M185.612 177H191.935V175.976H187.852L190.707 173.07C191.057 172.712 191.342 172.307 191.564 171.854C191.786 171.402 191.897 170.946 191.897 170.485C191.897 170.212 191.842 169.926 191.731 169.627C191.62 169.329 191.449 169.051 191.219 168.795C190.988 168.531 190.694 168.317 190.335 168.155C189.977 167.985 189.55 167.899 189.055 167.899C188.441 167.899 187.912 168.036 187.468 168.309C187.033 168.573 186.7 168.949 186.47 169.435C186.239 169.913 186.124 170.472 186.124 171.112H187.212C187.212 170.66 187.285 170.271 187.43 169.947C187.575 169.614 187.784 169.363 188.057 169.192C188.339 169.013 188.671 168.923 189.055 168.923C189.329 168.923 189.572 168.97 189.785 169.064C189.998 169.158 190.178 169.282 190.323 169.435C190.476 169.589 190.591 169.759 190.668 169.947C190.745 170.135 190.783 170.327 190.783 170.523C190.783 170.762 190.745 170.993 190.668 171.214C190.6 171.428 190.493 171.641 190.348 171.854C190.212 172.059 190.045 172.268 189.849 172.482L185.612 177Z" fill="#191C1C"/>
<path d="M229.245 172.584C229.825 172.584 230.333 172.482 230.768 172.277C231.203 172.072 231.544 171.795 231.792 171.445C232.039 171.095 232.163 170.711 232.163 170.293C232.163 169.866 232.061 169.474 231.856 169.115C231.66 168.757 231.374 168.467 230.998 168.245C230.631 168.023 230.192 167.912 229.68 167.912C229.193 167.912 228.758 168.014 228.374 168.219C227.999 168.415 227.7 168.689 227.478 169.038C227.265 169.388 227.158 169.798 227.158 170.267H228.195C228.195 169.875 228.34 169.55 228.63 169.294C228.92 169.03 229.275 168.898 229.693 168.898C229.991 168.898 230.239 168.957 230.435 169.077C230.64 169.196 230.793 169.367 230.896 169.589C230.998 169.802 231.049 170.05 231.049 170.331C231.049 170.545 231.007 170.745 230.921 170.933C230.845 171.121 230.729 171.287 230.576 171.432C230.422 171.569 230.235 171.679 230.013 171.765C229.791 171.842 229.535 171.88 229.245 171.88V172.584ZM229.629 177.128C230.166 177.128 230.644 177.026 231.062 176.821C231.48 176.616 231.809 176.326 232.048 175.95C232.295 175.575 232.419 175.135 232.419 174.632C232.419 174.188 232.334 173.809 232.163 173.493C232.001 173.177 231.771 172.921 231.472 172.725C231.182 172.52 230.845 172.371 230.461 172.277C230.085 172.183 229.68 172.136 229.245 172.136V172.84C229.535 172.84 229.804 172.874 230.051 172.942C230.299 173.011 230.516 173.117 230.704 173.262C230.892 173.399 231.037 173.574 231.139 173.787C231.25 173.992 231.305 174.231 231.305 174.504C231.305 174.828 231.237 175.11 231.101 175.349C230.964 175.588 230.768 175.775 230.512 175.912C230.264 176.04 229.97 176.104 229.629 176.104C229.287 176.104 228.984 176.04 228.72 175.912C228.455 175.784 228.246 175.609 228.093 175.387C227.948 175.165 227.875 174.914 227.875 174.632H226.774C226.774 174.982 226.843 175.31 226.979 175.618C227.116 175.916 227.308 176.181 227.555 176.411C227.803 176.633 228.101 176.808 228.451 176.936C228.801 177.064 229.193 177.128 229.629 177.128Z" fill="#191C1C"/>
<circle cx="269" cy="172" r="20" fill="#145858"/>
<path d="M265.525 175.208H272.347V174.248H270.517H270.299H267.317L269.851 170.459V174.606V174.747V177H270.939V168.04H270.491L265.525 175.208Z" fill="white"/>
<path d="M312.095 174.056C312.095 173.459 311.98 172.934 311.749 172.482C311.519 172.029 311.199 171.675 310.789 171.419C310.388 171.163 309.932 171.035 309.42 171.035C309.198 171.035 308.972 171.065 308.741 171.125C308.519 171.176 308.302 171.257 308.088 171.368L308.69 169H312.069V168.04H307.845L306.668 172.814C306.975 172.601 307.244 172.439 307.474 172.328C307.713 172.209 307.948 172.127 308.178 172.085C308.417 172.034 308.677 172.008 308.959 172.008C309.343 172.008 309.684 172.093 309.983 172.264C310.29 172.435 310.529 172.674 310.7 172.981C310.879 173.288 310.968 173.646 310.968 174.056C310.968 174.466 310.887 174.824 310.725 175.131C310.572 175.438 310.345 175.677 310.047 175.848C309.748 176.019 309.385 176.104 308.959 176.104C308.634 176.104 308.323 176.036 308.024 175.899C307.726 175.754 307.461 175.571 307.231 175.349C307.009 175.118 306.83 174.875 306.693 174.619L305.772 175.246C305.968 175.588 306.207 175.903 306.488 176.194C306.778 176.475 307.124 176.701 307.525 176.872C307.935 177.043 308.413 177.128 308.959 177.128C309.394 177.128 309.799 177.064 310.175 176.936C310.55 176.808 310.883 176.616 311.173 176.36C311.463 176.104 311.689 175.784 311.852 175.4C312.014 175.016 312.095 174.568 312.095 174.056Z" fill="#191C1C"/>
</g>
</g>
<defs>
<filter id="filter0_d_202_1192" x="0" y="0" width="378" height="224" filterUnits="userSpaceOnUse" color-interpolation-filters="sRGB">
<feFlood flood-opacity="0" result="BackgroundImageFix"/>
<feColorMatrix in="SourceAlpha" type="matrix" values="0 0 0 0 0 0 0 0 0 0 0 0 0 0 0 0 0 0 127 0" result="hardAlpha"/>
<feOffset dy="4"/>
<feGaussianBlur stdDeviation="6"/>
<feComposite in2="hardAlpha" operator="out"/>
<feColorMatrix type="matrix" values="0 0 0 0 0.0784314 0 0 0 0 0.0862745 0 0 0 0 0.0862745 0 0 0 0.12 0"/>
<feBlend mode="normal" in2="BackgroundImageFix" result="effect1_dropShadow_202_1192"/>
<feBlend mode="normal" in="SourceGraphic" in2="effect1_dropShadow_202_1192" result="shape"/>
</filter>
<clipPath id="clip0_202_1192">
<rect width="312" height="128" fill="white" transform="translate(33 64)"/>
</clipPath>
</defs>
</svg>
