<svg width="36" height="36" viewBox="0 0 36 36" fill="none" xmlns="http://www.w3.org/2000/svg">
<path d="M17.5196 0.426711C17.5872 -0.142237 18.4128 -0.142237 18.4804 0.426711L19.0467 5.19967C19.778 11.3628 24.6372 16.222 30.8003 16.9533L35.5732 17.5196C36.1423 17.5872 36.1423 18.4128 35.5732 18.4804L30.8003 19.0467C24.6372 19.778 19.778 24.6372 19.0467 30.8003L18.4804 35.5732C18.4128 36.1423 17.5872 36.1423 17.5196 35.5732L16.9533 30.8003C16.222 24.6372 11.3628 19.778 5.19967 19.0467L0.426711 18.4804C-0.142237 18.4128 -0.142237 17.5872 0.426711 17.5196L5.19967 16.9533C11.3628 16.222 16.222 11.3628 16.9533 5.19967L17.5196 0.426711Z" fill="#F7B318"/>
</svg>
